M48
;Layer_Color=9474304
;FILE_FORMAT=4:4
METRIC,LZ
;TYPE=PLATED
T01F00S00C0.3000
T02F00S00C0.7500
T03F00S00C0.9000
T04F00S00C1.0000
T05F00S00C1.5000
T06F00S00C1.7500
%
T01
X0090297Y0074422
X0089027Y0077112
X0091186Y00787859
X0099441Y007874
X01019582Y00763042
X010668Y0078144
X011176Y0076454
X00976507Y00737856
X007874Y0078994
X0054737Y0073914
X0060467Y00941484
X0062865Y0092202
X00822997Y0094584
X0084963Y00941233
X0087376Y0090805
X0085852Y008763
X00850293Y00844408
X0084963Y0082677
X00881176Y00826353
X00880905Y00835938
X009017Y0083185
Y0082169
X0090932Y0084963
X0090424Y0085725
X0090297Y0087376
X00906358Y00882172
X0091821Y0091694
X009652Y0087884
X0097409
X0098298
X0099187
X00986816Y00852742
X00994212Y00845843
X0096266Y0083439
X0096774Y0082677
X0097282Y0081788
X00978055Y00810328
X0098313Y00802226
X00988163Y00794359
X0105918Y0083566
X0107315Y0084455
X0109982Y0084018
X01092127Y00827967
X0109214Y00859419
X0108331Y0087376
X0104648Y00860925
X0101981Y0089281
X0113661Y00860432
X0113665Y0084201
X0113538Y0083185
X0113658Y00810824
T02
X0113797Y0079966
X0113732Y0087166
T03
X00797561Y00702314
X00822961
X00848361
X00873761Y00702316
X00899161Y00702314
X0092456Y00702312
X0094996
X0097536
X01000761Y00702314
X0102616Y00702312
X0105156Y0070231
X0107696
X0110236
X0112776Y00702312
X0115316
X01178561Y00702314
X00772161Y00702316
X00746761Y00702318
X00721361Y00702316
X00695961
X00670561
X00645161Y00702318
X00619762Y0070232
X00594361Y00702318
X00568961
X00543561
X0054483Y00962658
X0057023Y0096266
X0059563
X0062103Y00962662
X0064643
X0067183
X0069723Y0096266
X0072263Y00962658
X0074803Y0096266
X0077343
X0079883
X0082423Y00962658
X00849629Y00962656
X0087503Y00962658
X0090043
X0092583
X00951229Y00962656
X00976629Y00962654
X01002029Y00962656
X01027429
X01052829
X01078229Y00962654
X01103629Y00962652
X01129029Y00962654
X01154429
X01179829
T04
X0082117Y0079157
X0075617
Y0083657
X0075542Y0086233
Y0090733
X0082042
Y0086233
X0082117Y0083657
T05
X0111797Y0079246
Y0087886
T06
X0116847Y0079246
Y0087886
M30
