G04*
G04 #@! TF.GenerationSoftware,Altium Limited,Altium Designer,26.3.0 (6)*
G04*
G04 Layer_Physical_Order=2*
G04 Layer_Color=16711680*
%FSLAX44Y44*%
%MOMM*%
G71*
G04*
G04 #@! TF.SameCoordinates,31678F41-77F7-4F5C-A536-5F35FB9D6BF7*
G04*
G04*
G04 #@! TF.FilePolarity,Positive*
G04*
G01*
G75*
%ADD14C,0.2540*%
%ADD24R,0.6500X0.7000*%
%ADD39C,0.5000*%
%ADD41C,2.2500*%
%ADD42C,2.7500*%
%ADD43C,1.2500*%
%ADD44C,1.5000*%
%ADD45C,2.0000*%
%ADD46C,0.7000*%
%ADD47R,0.6500X1.5250*%
%ADD48R,3.3500X2.7100*%
G36*
X1191986Y975360D02*
Y687614D01*
X528864D01*
Y975360D01*
X1191986Y975360D01*
D02*
G37*
%LPC*%
G36*
X1054151Y972696D02*
X1054099D01*
Y963926D01*
X1062869D01*
Y963978D01*
X1062185Y966531D01*
X1060863Y968821D01*
X1058994Y970690D01*
X1056705Y972012D01*
X1054151Y972696D01*
D02*
G37*
G36*
X1051559D02*
X1051508D01*
X1048954Y972012D01*
X1046665Y970690D01*
X1044795Y968821D01*
X1043474Y966531D01*
X1042789Y963978D01*
Y963926D01*
X1051559D01*
Y972696D01*
D02*
G37*
G36*
X673213Y973162D02*
X670448D01*
X667777Y972447D01*
X665383Y971064D01*
X663428Y969109D01*
X662046Y966715D01*
X661330Y964044D01*
Y962063D01*
X660060Y961537D01*
X657987Y963610D01*
X656842Y964375D01*
X656215Y966715D01*
X654832Y969109D01*
X652877Y971064D01*
X650483Y972447D01*
X647813Y973162D01*
X645048D01*
X642377Y972447D01*
X639983Y971064D01*
X638028Y969109D01*
X636646Y966715D01*
X635930Y964044D01*
Y961280D01*
X636646Y958609D01*
X637024Y957953D01*
X636390Y956854D01*
X631071D01*
X630436Y957953D01*
X630815Y958609D01*
X631530Y961280D01*
Y964044D01*
X630815Y966715D01*
X629432Y969109D01*
X627477Y971064D01*
X625083Y972447D01*
X622413Y973162D01*
X619648D01*
X616978Y972447D01*
X614583Y971064D01*
X612628Y969109D01*
X611246Y966715D01*
X610530Y964044D01*
Y961280D01*
X611246Y958609D01*
X611624Y957953D01*
X610989Y956854D01*
X605672D01*
X605037Y957953D01*
X605414Y958607D01*
X606130Y961278D01*
Y964042D01*
X605414Y966713D01*
X604032Y969107D01*
X602077Y971062D01*
X599683Y972444D01*
X597012Y973160D01*
X594248D01*
X591577Y972444D01*
X589183Y971062D01*
X587228Y969107D01*
X585846Y966713D01*
X585130Y964042D01*
Y961278D01*
X585846Y958607D01*
X586223Y957953D01*
X585588Y956854D01*
X582193D01*
X580104Y958943D01*
X580730Y961278D01*
Y964042D01*
X580014Y966713D01*
X578632Y969107D01*
X576677Y971062D01*
X574283Y972444D01*
X571612Y973160D01*
X568848D01*
X566177Y972444D01*
X563783Y971062D01*
X561828Y969107D01*
X560446Y966713D01*
X559730Y964042D01*
Y963204D01*
X555330D01*
Y964040D01*
X554614Y966711D01*
X553232Y969105D01*
X551277Y971060D01*
X548882Y972442D01*
X546212Y973158D01*
X543447D01*
X540777Y972442D01*
X538383Y971060D01*
X536428Y969105D01*
X535045Y966711D01*
X534330Y964040D01*
Y961276D01*
X535045Y958605D01*
X536428Y956211D01*
X538383Y954256D01*
X540777Y952874D01*
X543447Y952158D01*
X546212D01*
X548882Y952874D01*
X551277Y954256D01*
X551599Y954578D01*
X552009Y954496D01*
X558420D01*
X567845Y945071D01*
X569257Y944128D01*
X570923Y943796D01*
X597517D01*
X598290Y942789D01*
X598170Y942340D01*
Y940629D01*
X598613Y938975D01*
X599469Y937493D01*
X600679Y936283D01*
X602161Y935427D01*
X603814Y934984D01*
X605526D01*
X607179Y935427D01*
X608661Y936283D01*
X609509Y937131D01*
X613667D01*
X615054Y937406D01*
X645207D01*
X710661Y871952D01*
X712074Y871008D01*
X713740Y870676D01*
X743761D01*
X744494Y869406D01*
X743306Y867348D01*
X742420Y864042D01*
Y860619D01*
X743306Y857312D01*
X745017Y854348D01*
X747438Y851927D01*
X750402Y850216D01*
X751266Y849985D01*
Y848715D01*
X751152Y848684D01*
X748188Y846973D01*
X745767Y844552D01*
X744056Y841588D01*
X743170Y838281D01*
Y834858D01*
X744056Y831552D01*
X745767Y828588D01*
X748188Y826167D01*
X751152Y824456D01*
X754458Y823570D01*
X757881D01*
X761188Y824456D01*
X764152Y826167D01*
X766573Y828588D01*
X768284Y831552D01*
X769170Y834858D01*
Y838281D01*
X768284Y841588D01*
X766573Y844552D01*
X764152Y846973D01*
X761188Y848684D01*
X760324Y848915D01*
Y850185D01*
X760438Y850216D01*
X763402Y851927D01*
X765823Y854348D01*
X767534Y857312D01*
X768420Y860619D01*
Y864042D01*
X767534Y867348D01*
X766346Y869406D01*
X767079Y870676D01*
X808761D01*
X809494Y869406D01*
X808306Y867348D01*
X807420Y864042D01*
Y860619D01*
X808306Y857312D01*
X810017Y854348D01*
X812438Y851927D01*
X815402Y850216D01*
X816266Y849985D01*
Y848715D01*
X816152Y848684D01*
X813188Y846973D01*
X810767Y844552D01*
X809056Y841588D01*
X808170Y838281D01*
Y834858D01*
X809056Y831552D01*
X810767Y828588D01*
X813188Y826167D01*
X816152Y824456D01*
X819458Y823570D01*
X822881D01*
X826188Y824456D01*
X829152Y826167D01*
X831573Y828588D01*
X833284Y831552D01*
X834170Y834858D01*
Y838281D01*
X833284Y841588D01*
X831573Y844552D01*
X829152Y846973D01*
X826188Y848684D01*
X825324Y848915D01*
Y850185D01*
X825438Y850216D01*
X828402Y851927D01*
X830823Y854348D01*
X832534Y857312D01*
X833420Y860619D01*
Y862758D01*
X834690Y863284D01*
X847177Y850797D01*
X846929Y849552D01*
X846872Y849528D01*
X845173Y847829D01*
X844282Y845678D01*
X850293D01*
Y844408D01*
X851563D01*
Y838396D01*
X853715Y839287D01*
X855414Y840986D01*
X855437Y841043D01*
X856683Y841291D01*
X872176Y825798D01*
X873588Y824854D01*
X874919Y824589D01*
X875119Y823844D01*
X875975Y822362D01*
X876103Y822234D01*
X875576Y820964D01*
X874657D01*
X873758Y820964D01*
X854162D01*
X853635Y822234D01*
X854751Y823349D01*
X855642Y825500D01*
X843618D01*
X844510Y823349D01*
X845624Y822234D01*
X845098Y820964D01*
X735863D01*
X635150Y921677D01*
Y922876D01*
X634707Y924529D01*
X633851Y926011D01*
X632641Y927221D01*
X631159Y928077D01*
X629506Y928520D01*
X627794D01*
X626141Y928077D01*
X624659Y927221D01*
X623449Y926011D01*
X622593Y924529D01*
X622150Y922876D01*
Y921164D01*
X622593Y919511D01*
X623449Y918029D01*
X624659Y916819D01*
X626141Y915963D01*
X627794Y915520D01*
X628993D01*
X730982Y813531D01*
X732394Y812588D01*
X734060Y812256D01*
X873758D01*
X874657Y812256D01*
X895693D01*
X897359Y812588D01*
X898771Y813531D01*
X900517Y815278D01*
X900844Y815190D01*
X902556D01*
X904209Y815633D01*
X905691Y816489D01*
X906901Y817699D01*
X907757Y819181D01*
X908200Y820834D01*
Y822546D01*
X907757Y824199D01*
X906901Y825681D01*
X905812Y826770D01*
X906901Y827859D01*
X907757Y829341D01*
X908200Y830994D01*
Y832706D01*
X907757Y834359D01*
X906901Y835841D01*
X905691Y837051D01*
X904209Y837907D01*
X902556Y838350D01*
X900844D01*
X899191Y837907D01*
X897709Y837051D01*
X896861Y836204D01*
X895883D01*
X862108Y869979D01*
X862322Y871561D01*
X863641Y872879D01*
X864532Y875030D01*
X858520D01*
Y876300D01*
X857250D01*
Y882312D01*
X855099Y881421D01*
X853400Y879721D01*
X852537Y879550D01*
X847344Y884743D01*
X847830Y885916D01*
X860527D01*
X875761Y870682D01*
X877174Y869738D01*
X878840Y869406D01*
X898131D01*
X898979Y868559D01*
X900461Y867703D01*
X902114Y867260D01*
X903826D01*
X905479Y867703D01*
X906961Y868559D01*
X908171Y869769D01*
X909027Y871251D01*
X909470Y872904D01*
Y874616D01*
X909041Y876215D01*
X910349Y876970D01*
X911559Y878181D01*
X912415Y879663D01*
X912858Y881316D01*
Y883027D01*
X912415Y884681D01*
X911559Y886163D01*
X910349Y887373D01*
X908867Y888229D01*
X907214Y888672D01*
X905502D01*
X903849Y888229D01*
X902367Y887373D01*
X901763Y886769D01*
X877277D01*
X866059Y897987D01*
X864647Y898931D01*
X862981Y899262D01*
X832240D01*
X831506Y900532D01*
X832534Y902312D01*
X833420Y905619D01*
Y909042D01*
X832534Y912348D01*
X830823Y915312D01*
X828468Y917666D01*
X828500Y918099D01*
X828725Y918936D01*
X911639D01*
X912124Y918210D01*
X918210D01*
Y916940D01*
X919480D01*
Y910928D01*
X921631Y911820D01*
X923330Y913519D01*
X924193Y913690D01*
X958700Y879183D01*
Y877984D01*
X959143Y876331D01*
X959999Y874849D01*
X961209Y873639D01*
X962488Y872900D01*
X962471Y872186D01*
X962266Y871630D01*
X914267D01*
X912601Y871299D01*
X911188Y870355D01*
X904583Y863750D01*
X903384D01*
X901731Y863307D01*
X900249Y862451D01*
X899039Y861241D01*
X898183Y859759D01*
X897740Y858106D01*
Y856394D01*
X898183Y854741D01*
X899039Y853259D01*
X900249Y852049D01*
X901731Y851193D01*
X902924Y850873D01*
X902820Y850486D01*
Y848774D01*
X903263Y847121D01*
X904119Y845639D01*
X905329Y844429D01*
X906811Y843573D01*
X908464Y843130D01*
X910176D01*
X911829Y843573D01*
X913311Y844429D01*
X914521Y845639D01*
X915377Y847121D01*
X915820Y848774D01*
Y849973D01*
X920005Y854158D01*
X958102D01*
X958588Y852985D01*
X930371Y824769D01*
X929428Y823356D01*
X929096Y821690D01*
Y801261D01*
X918952Y791116D01*
X917365Y791325D01*
X917061Y791850D01*
X915851Y793060D01*
X914369Y793916D01*
X912716Y794359D01*
X911004D01*
X909351Y793916D01*
X907869Y793060D01*
X906659Y791850D01*
X906375Y791359D01*
X906156D01*
X904490Y791028D01*
X903077Y790084D01*
X890613Y777620D01*
X889414D01*
X887761Y777177D01*
X886279Y776321D01*
X885069Y775111D01*
X884213Y773629D01*
X883770Y771976D01*
Y770264D01*
X884213Y768611D01*
X885069Y767129D01*
X886279Y765919D01*
X887761Y765063D01*
X889414Y764620D01*
X890659D01*
X891228Y763392D01*
X870059Y742224D01*
X782313D01*
X780647Y741892D01*
X779234Y740948D01*
X750479Y712193D01*
X748144Y712818D01*
X745379D01*
X742708Y712103D01*
X740314Y710720D01*
X738359Y708765D01*
X736977Y706371D01*
X736261Y703701D01*
Y700936D01*
X736977Y698265D01*
X738359Y695871D01*
X740314Y693916D01*
X742708Y692534D01*
X745379Y691818D01*
X748144D01*
X750814Y692534D01*
X753208Y693916D01*
X755163Y695871D01*
X756546Y698265D01*
X757261Y700936D01*
Y703701D01*
X756636Y706036D01*
X766634Y716034D01*
X767807Y715548D01*
Y711927D01*
X765714Y710718D01*
X763759Y708763D01*
X762376Y706369D01*
X761661Y703699D01*
Y700934D01*
X762376Y698263D01*
X763759Y695869D01*
X765714Y693914D01*
X768108Y692532D01*
X770779Y691816D01*
X773543D01*
X776214Y692532D01*
X778608Y693914D01*
X780563Y695869D01*
X781945Y698263D01*
X782661Y700934D01*
Y703699D01*
X781945Y706369D01*
X780563Y708763D01*
X778608Y710718D01*
X776515Y711927D01*
Y717018D01*
X780313Y720816D01*
X864452D01*
X866118Y721148D01*
X867530Y722092D01*
X872588Y727149D01*
X873761Y726663D01*
Y712816D01*
X872379D01*
X869708Y712101D01*
X867314Y710718D01*
X865359Y708763D01*
X863977Y706369D01*
X863261Y703699D01*
Y700934D01*
X863977Y698263D01*
X865359Y695869D01*
X867314Y693914D01*
X869708Y692532D01*
X872379Y691816D01*
X875143D01*
X877814Y692532D01*
X880208Y693914D01*
X882163Y695869D01*
X883545Y698263D01*
X884261Y700934D01*
Y703699D01*
X883545Y706369D01*
X882234Y708640D01*
X882468Y709817D01*
Y731740D01*
X886013Y735285D01*
X887186Y734799D01*
Y712355D01*
X887518Y710689D01*
X888462Y709277D01*
X890107Y707632D01*
X889376Y706367D01*
X888661Y703697D01*
Y700932D01*
X889376Y698261D01*
X890759Y695867D01*
X892713Y693912D01*
X895108Y692530D01*
X897778Y691814D01*
X900543D01*
X903214Y692530D01*
X905608Y693912D01*
X907563Y695867D01*
X908945Y698261D01*
X909661Y700932D01*
Y703697D01*
X908945Y706367D01*
X907563Y708761D01*
X905608Y710716D01*
X903214Y712098D01*
X900543Y712814D01*
X897778D01*
X897352Y712700D01*
X895894Y714159D01*
Y739691D01*
X896855Y740621D01*
X898087Y740561D01*
X899549Y739100D01*
X901700Y738208D01*
Y744220D01*
X902970D01*
Y745490D01*
X908982D01*
X908091Y747641D01*
X906391Y749340D01*
X906220Y750203D01*
X916796Y760780D01*
X917970Y760294D01*
Y710571D01*
X916158Y708759D01*
X914776Y706365D01*
X914060Y703694D01*
Y700930D01*
X914776Y698259D01*
X916158Y695865D01*
X918113Y693910D01*
X920508Y692528D01*
X923178Y691812D01*
X925943D01*
X928613Y692528D01*
X931007Y693910D01*
X932962Y695865D01*
X934345Y698259D01*
X935060Y700930D01*
Y703694D01*
X934345Y706365D01*
X932962Y708759D01*
X931007Y710714D01*
X928613Y712096D01*
X926677Y712615D01*
Y763040D01*
X944337Y780700D01*
X945607Y780174D01*
Y711923D01*
X943513Y710714D01*
X941558Y708759D01*
X940176Y706365D01*
X939460Y703694D01*
Y700930D01*
X940176Y698259D01*
X941558Y695865D01*
X943513Y693910D01*
X945908Y692528D01*
X948578Y691812D01*
X951343D01*
X954013Y692528D01*
X956407Y693910D01*
X958362Y695865D01*
X959745Y698259D01*
X960460Y700930D01*
Y703694D01*
X959745Y706365D01*
X958362Y708759D01*
X956407Y710714D01*
X954314Y711923D01*
Y779189D01*
X975564Y800439D01*
X976981Y800060D01*
X977073Y799717D01*
X977923Y798245D01*
Y744040D01*
X977777Y743942D01*
Y737856D01*
Y731770D01*
X977923Y731672D01*
Y713539D01*
X976915Y712766D01*
X976743Y712812D01*
X973978D01*
X971308Y712096D01*
X968913Y710714D01*
X966958Y708759D01*
X965576Y706365D01*
X964860Y703694D01*
Y700930D01*
X965576Y698259D01*
X966958Y695865D01*
X968913Y693910D01*
X971308Y692528D01*
X973978Y691812D01*
X976743D01*
X979413Y692528D01*
X981807Y693910D01*
X983762Y695865D01*
X985145Y698259D01*
X985860Y700930D01*
Y703694D01*
X985235Y706029D01*
X985355Y706150D01*
X986299Y707562D01*
X986630Y709228D01*
Y753073D01*
X987804Y753559D01*
X996407Y744956D01*
Y711925D01*
X994314Y710716D01*
X992358Y708761D01*
X990976Y706367D01*
X990261Y703697D01*
Y700932D01*
X990976Y698261D01*
X992358Y695867D01*
X994314Y693912D01*
X996708Y692530D01*
X999378Y691814D01*
X1002143D01*
X1004814Y692530D01*
X1007208Y693912D01*
X1009163Y695867D01*
X1010545Y698261D01*
X1011261Y700932D01*
Y703697D01*
X1010545Y706367D01*
X1009163Y708761D01*
X1007208Y710716D01*
X1005114Y711925D01*
Y746759D01*
X1004783Y748426D01*
X1003839Y749838D01*
X992516Y761161D01*
Y774131D01*
X993690Y774617D01*
X1021807Y746500D01*
Y711923D01*
X1019713Y710714D01*
X1017758Y708759D01*
X1016376Y706365D01*
X1015660Y703694D01*
Y700930D01*
X1016376Y698259D01*
X1017758Y695865D01*
X1019713Y693910D01*
X1022107Y692528D01*
X1024778Y691812D01*
X1027543D01*
X1030213Y692528D01*
X1032607Y693910D01*
X1034562Y695865D01*
X1035945Y698259D01*
X1036660Y700930D01*
Y703694D01*
X1035945Y706365D01*
X1034562Y708759D01*
X1032607Y710714D01*
X1030514Y711923D01*
Y748303D01*
X1030182Y749969D01*
X1029239Y751382D01*
X1023686Y756934D01*
X1023749Y758667D01*
X1024702Y759620D01*
X1025593Y761772D01*
X1019582D01*
Y763042D01*
X1018312D01*
Y769053D01*
X1016160Y768162D01*
X1015165Y767167D01*
X1013474Y767146D01*
X999164Y781457D01*
Y782961D01*
X999611Y783409D01*
X1000467Y784891D01*
X1000910Y786544D01*
Y788256D01*
X1000467Y789909D01*
X999611Y791391D01*
X998401Y792601D01*
X996919Y793457D01*
X995266Y793900D01*
X994663D01*
Y795215D01*
X994220Y796868D01*
X993364Y798350D01*
X992154Y799560D01*
X990671Y800416D01*
X989461Y800740D01*
X989630Y801370D01*
Y803082D01*
X989187Y804735D01*
X988331Y806217D01*
X987121Y807427D01*
X985639Y808283D01*
X984330Y808633D01*
X984555Y809472D01*
Y811183D01*
X984112Y812837D01*
X983256Y814319D01*
X982046Y815529D01*
X980564Y816385D01*
X979243Y816739D01*
X979320Y817024D01*
Y818736D01*
X978877Y820389D01*
X978021Y821871D01*
X976811Y823081D01*
X975329Y823937D01*
X973819Y824342D01*
X974240Y825914D01*
Y827626D01*
X973797Y829279D01*
X972941Y830761D01*
X971731Y831971D01*
X970249Y832827D01*
X969056Y833147D01*
X969160Y833534D01*
Y835246D01*
X968717Y836899D01*
X967861Y838381D01*
X966651Y839591D01*
X966404Y841089D01*
X966741Y841489D01*
X989374D01*
X990221Y840641D01*
X991703Y839786D01*
X993357Y839343D01*
X995068D01*
X996721Y839786D01*
X998204Y840641D01*
X999414Y841852D01*
X1000269Y843334D01*
X1000712Y844987D01*
Y846699D01*
X1000269Y848352D01*
X999414Y849834D01*
X998204Y851044D01*
X996721Y851900D01*
X995068Y852343D01*
X993357D01*
X993316Y852374D01*
Y853598D01*
X993740Y854279D01*
X994798Y854490D01*
X996211Y855434D01*
X1013998Y873222D01*
X1014942Y874634D01*
X1015274Y876300D01*
Y887145D01*
X1016544Y887625D01*
X1018540Y886798D01*
Y892810D01*
Y898822D01*
X1016544Y897995D01*
X1015274Y898475D01*
Y944343D01*
X1023712Y952782D01*
X1026047Y952156D01*
X1028812D01*
X1031482Y952871D01*
X1033876Y954254D01*
X1035832Y956209D01*
X1037214Y958603D01*
X1037929Y961273D01*
Y964038D01*
X1037214Y966709D01*
X1035832Y969103D01*
X1033876Y971058D01*
X1031482Y972440D01*
X1028812Y973156D01*
X1026047D01*
X1023376Y972440D01*
X1020982Y971058D01*
X1019027Y969103D01*
X1017645Y966709D01*
X1016929Y964038D01*
Y961273D01*
X1017555Y958939D01*
X1007841Y949225D01*
X1006898Y947813D01*
X1006566Y946146D01*
Y878103D01*
X1002762Y874299D01*
X1002562Y874388D01*
X1001715Y875048D01*
X1001994Y876450D01*
Y890850D01*
X1001662Y892516D01*
X1000719Y893929D01*
X947959Y946689D01*
X946546Y947632D01*
X944880Y947964D01*
X887111D01*
X881400Y953675D01*
X881477Y954256D01*
X883432Y956211D01*
X884814Y958605D01*
X885530Y961276D01*
Y964040D01*
X884814Y966711D01*
X883432Y969105D01*
X881477Y971060D01*
X879082Y972442D01*
X876412Y973158D01*
X873647D01*
X870977Y972442D01*
X868583Y971060D01*
X866628Y969105D01*
X865245Y966711D01*
X864530Y964040D01*
Y961276D01*
X865245Y958605D01*
X866628Y956211D01*
X868583Y954256D01*
X870865Y952938D01*
X871008Y952222D01*
X871952Y950809D01*
X881674Y941087D01*
X881148Y939817D01*
X856560D01*
X856130Y940378D01*
Y942089D01*
X855687Y943742D01*
X854831Y945224D01*
X853983Y946072D01*
Y953045D01*
X856077Y954254D01*
X858031Y956209D01*
X859414Y958603D01*
X860129Y961273D01*
Y964038D01*
X859414Y966709D01*
X858031Y969103D01*
X856077Y971058D01*
X853682Y972440D01*
X851012Y973156D01*
X848247D01*
X845576Y972440D01*
X843182Y971058D01*
X841227Y969103D01*
X839845Y966709D01*
X839129Y964038D01*
Y961273D01*
X839845Y958603D01*
X841227Y956209D01*
X843182Y954254D01*
X845276Y953045D01*
Y946072D01*
X844428Y945224D01*
X843573Y943742D01*
X843130Y942089D01*
Y940378D01*
X842700Y939817D01*
X827963D01*
X827437Y941087D01*
X828199Y941849D01*
X829054Y943331D01*
X829497Y944984D01*
Y946696D01*
X829054Y948349D01*
X828584Y949165D01*
Y953047D01*
X830677Y954256D01*
X832632Y956211D01*
X834014Y958605D01*
X834730Y961276D01*
Y964040D01*
X834014Y966711D01*
X832632Y969105D01*
X830677Y971060D01*
X828282Y972442D01*
X825612Y973158D01*
X822847D01*
X820177Y972442D01*
X817783Y971060D01*
X815828Y969105D01*
X814445Y966711D01*
X813730Y964040D01*
Y961276D01*
X814445Y958605D01*
X815828Y956211D01*
X817783Y954256D01*
X819876Y953047D01*
Y951544D01*
X819006Y951041D01*
X817796Y949831D01*
X816940Y948349D01*
X816497Y946696D01*
Y944984D01*
X816940Y943331D01*
X817796Y941849D01*
X818558Y941087D01*
X818032Y939817D01*
X792390D01*
X779392Y952815D01*
X779558Y954074D01*
X779877Y954258D01*
X781832Y956213D01*
X783214Y958607D01*
X783930Y961278D01*
Y964042D01*
X783214Y966713D01*
X781832Y969107D01*
X779877Y971062D01*
X777483Y972444D01*
X774812Y973160D01*
X772048D01*
X769377Y972444D01*
X766983Y971062D01*
X765028Y969107D01*
X763646Y966713D01*
X762930Y964042D01*
Y961278D01*
X763646Y958607D01*
X765028Y956213D01*
X766983Y954258D01*
X767831Y953769D01*
X768138Y952224D01*
X769081Y950811D01*
X782643Y937250D01*
X782157Y936077D01*
X780770D01*
X757904Y958943D01*
X758530Y961278D01*
Y964042D01*
X757814Y966713D01*
X756432Y969107D01*
X754477Y971062D01*
X752083Y972444D01*
X749412Y973160D01*
X746648D01*
X743977Y972444D01*
X741583Y971062D01*
X739628Y969107D01*
X738246Y966713D01*
X737530Y964042D01*
Y961278D01*
X738246Y958607D01*
X739628Y956213D01*
X741583Y954258D01*
X743977Y952876D01*
X746648Y952160D01*
X749412D01*
X751747Y952786D01*
X771023Y933510D01*
X770537Y932337D01*
X755300D01*
X731666Y955971D01*
X731252Y956591D01*
X732414Y958605D01*
X733130Y961276D01*
Y964040D01*
X732414Y966711D01*
X731032Y969105D01*
X729077Y971060D01*
X726683Y972442D01*
X724012Y973158D01*
X721247D01*
X718577Y972442D01*
X716183Y971060D01*
X714228Y969105D01*
X712845Y966711D01*
X712130Y964040D01*
Y961276D01*
X712845Y958605D01*
X714228Y956211D01*
X716183Y954256D01*
X718577Y952874D01*
X721247Y952158D01*
X723601D01*
X723754Y952005D01*
X724632Y950692D01*
X746506Y928817D01*
X746020Y927644D01*
X728363D01*
X703192Y952815D01*
X703358Y954074D01*
X703677Y954258D01*
X705632Y956213D01*
X707014Y958607D01*
X707730Y961278D01*
Y964042D01*
X707014Y966713D01*
X705632Y969107D01*
X703677Y971062D01*
X701283Y972444D01*
X698612Y973160D01*
X695848D01*
X693177Y972444D01*
X690783Y971062D01*
X688828Y969107D01*
X687446Y966713D01*
X686730Y964042D01*
Y961278D01*
X687446Y958607D01*
X688828Y956213D01*
X690783Y954258D01*
X691630Y953769D01*
X691938Y952224D01*
X692881Y950811D01*
X723482Y920211D01*
X724894Y919268D01*
X726560Y918936D01*
X747115D01*
X747340Y918099D01*
X747372Y917666D01*
X745017Y915312D01*
X743306Y912348D01*
X742420Y909042D01*
Y905619D01*
X743306Y902312D01*
X744334Y900532D01*
X743600Y899262D01*
X736305D01*
X679792Y955775D01*
X680232Y956215D01*
X681615Y958609D01*
X682330Y961280D01*
Y964044D01*
X681615Y966715D01*
X680232Y969109D01*
X678277Y971064D01*
X675883Y972447D01*
X673213Y973162D01*
D02*
G37*
G36*
X1062869Y961386D02*
X1054099D01*
Y952616D01*
X1054151D01*
X1056705Y953300D01*
X1058994Y954622D01*
X1060863Y956491D01*
X1062185Y958781D01*
X1062869Y961334D01*
Y961386D01*
D02*
G37*
G36*
X1051559D02*
X1042789D01*
Y961334D01*
X1043474Y958781D01*
X1044795Y956491D01*
X1046665Y954622D01*
X1048954Y953300D01*
X1051508Y952616D01*
X1051559D01*
Y961386D01*
D02*
G37*
G36*
X800212Y973160D02*
X797448D01*
X794777Y972444D01*
X792383Y971062D01*
X790428Y969107D01*
X789046Y966713D01*
X788330Y964042D01*
Y961278D01*
X789046Y958607D01*
X790428Y956213D01*
X792383Y954258D01*
X794777Y952876D01*
X797448Y952160D01*
X800212D01*
X802883Y952876D01*
X805277Y954258D01*
X807232Y956213D01*
X808614Y958607D01*
X809330Y961278D01*
Y964042D01*
X808614Y966713D01*
X807232Y969107D01*
X805277Y971062D01*
X802883Y972444D01*
X800212Y973160D01*
D02*
G37*
G36*
X927212Y973158D02*
X924447D01*
X921777Y972442D01*
X919383Y971060D01*
X917428Y969105D01*
X916045Y966711D01*
X915330Y964040D01*
Y961276D01*
X916045Y958605D01*
X917428Y956211D01*
X919383Y954256D01*
X921777Y952874D01*
X924447Y952158D01*
X927212D01*
X929883Y952874D01*
X932277Y954256D01*
X934232Y956211D01*
X935614Y958605D01*
X936330Y961276D01*
Y964040D01*
X935614Y966711D01*
X934232Y969105D01*
X932277Y971060D01*
X929883Y972442D01*
X927212Y973158D01*
D02*
G37*
G36*
X901812D02*
X899047D01*
X896377Y972442D01*
X893983Y971060D01*
X892028Y969105D01*
X890645Y966711D01*
X889930Y964040D01*
Y961276D01*
X890645Y958605D01*
X892028Y956211D01*
X893983Y954256D01*
X896377Y952874D01*
X899047Y952158D01*
X901812D01*
X904482Y952874D01*
X906877Y954256D01*
X908832Y956211D01*
X910214Y958605D01*
X910930Y961276D01*
Y964040D01*
X910214Y966711D01*
X908832Y969105D01*
X906877Y971060D01*
X904482Y972442D01*
X901812Y973158D01*
D02*
G37*
G36*
X1003412Y973156D02*
X1000647D01*
X997977Y972440D01*
X995582Y971058D01*
X993627Y969103D01*
X992245Y966709D01*
X991529Y964038D01*
Y961273D01*
X992245Y958603D01*
X993627Y956209D01*
X995582Y954254D01*
X997977Y952871D01*
X1000647Y952156D01*
X1003412D01*
X1006082Y952871D01*
X1008476Y954254D01*
X1010432Y956209D01*
X1011814Y958603D01*
X1012529Y961273D01*
Y964038D01*
X1011814Y966709D01*
X1010432Y969103D01*
X1008476Y971058D01*
X1006082Y972440D01*
X1003412Y973156D01*
D02*
G37*
G36*
X952612D02*
X949847D01*
X947177Y972440D01*
X944782Y971058D01*
X942827Y969103D01*
X941445Y966709D01*
X940729Y964038D01*
Y961273D01*
X941445Y958603D01*
X942827Y956209D01*
X944782Y954254D01*
X947177Y952871D01*
X949847Y952156D01*
X952612D01*
X955282Y952871D01*
X957676Y954254D01*
X959632Y956209D01*
X961014Y958603D01*
X961729Y961273D01*
Y964038D01*
X961014Y966709D01*
X959632Y969103D01*
X957676Y971058D01*
X955282Y972440D01*
X952612Y973156D01*
D02*
G37*
G36*
X1181211Y973154D02*
X1178447D01*
X1175776Y972438D01*
X1173382Y971056D01*
X1171427Y969101D01*
X1170045Y966707D01*
X1169329Y964036D01*
Y961272D01*
X1170045Y958601D01*
X1171427Y956207D01*
X1173382Y954252D01*
X1175776Y952869D01*
X1178447Y952154D01*
X1181211D01*
X1183882Y952869D01*
X1186276Y954252D01*
X1188231Y956207D01*
X1189613Y958601D01*
X1190329Y961272D01*
Y964036D01*
X1189613Y966707D01*
X1188231Y969101D01*
X1186276Y971056D01*
X1183882Y972438D01*
X1181211Y973154D01*
D02*
G37*
G36*
X1155811D02*
X1153047D01*
X1150376Y972438D01*
X1147982Y971056D01*
X1146027Y969101D01*
X1144645Y966707D01*
X1143929Y964036D01*
Y961272D01*
X1144645Y958601D01*
X1146027Y956207D01*
X1147982Y954252D01*
X1150376Y952869D01*
X1153047Y952154D01*
X1155811D01*
X1158482Y952869D01*
X1160876Y954252D01*
X1162831Y956207D01*
X1164213Y958601D01*
X1164929Y961272D01*
Y964036D01*
X1164213Y966707D01*
X1162831Y969101D01*
X1160876Y971056D01*
X1158482Y972438D01*
X1155811Y973154D01*
D02*
G37*
G36*
X1130411D02*
X1127647D01*
X1124976Y972438D01*
X1122582Y971056D01*
X1120627Y969101D01*
X1119245Y966707D01*
X1118529Y964036D01*
Y961272D01*
X1119245Y958601D01*
X1120627Y956207D01*
X1122582Y954252D01*
X1124976Y952869D01*
X1127647Y952154D01*
X1130411D01*
X1133082Y952869D01*
X1135476Y954252D01*
X1137431Y956207D01*
X1138813Y958601D01*
X1139529Y961272D01*
Y964036D01*
X1138813Y966707D01*
X1137431Y969101D01*
X1135476Y971056D01*
X1133082Y972438D01*
X1130411Y973154D01*
D02*
G37*
G36*
X1079611D02*
X1076847D01*
X1074176Y972438D01*
X1071782Y971056D01*
X1069827Y969101D01*
X1068445Y966707D01*
X1067729Y964036D01*
Y961272D01*
X1068445Y958601D01*
X1069827Y956207D01*
X1071782Y954252D01*
X1074176Y952869D01*
X1076847Y952154D01*
X1079611D01*
X1082282Y952869D01*
X1084676Y954252D01*
X1086631Y956207D01*
X1088014Y958601D01*
X1088729Y961272D01*
Y964036D01*
X1088014Y966707D01*
X1086631Y969101D01*
X1084676Y971056D01*
X1082282Y972438D01*
X1079611Y973154D01*
D02*
G37*
G36*
X978011D02*
X975247D01*
X972576Y972438D01*
X970182Y971056D01*
X968227Y969101D01*
X966845Y966707D01*
X966129Y964036D01*
Y961272D01*
X966845Y958601D01*
X968227Y956207D01*
X970182Y954252D01*
X972576Y952869D01*
X975247Y952154D01*
X978011D01*
X980682Y952869D01*
X983076Y954252D01*
X985031Y956207D01*
X986413Y958601D01*
X987129Y961272D01*
Y964036D01*
X986413Y966707D01*
X985031Y969101D01*
X983076Y971056D01*
X980682Y972438D01*
X978011Y973154D01*
D02*
G37*
G36*
X1105011Y973152D02*
X1102246D01*
X1099576Y972436D01*
X1097182Y971054D01*
X1095227Y969099D01*
X1093844Y966705D01*
X1093129Y964034D01*
Y961269D01*
X1093844Y958599D01*
X1095227Y956205D01*
X1097182Y954250D01*
X1099576Y952867D01*
X1102246Y952152D01*
X1105011D01*
X1107682Y952867D01*
X1110076Y954250D01*
X1112031Y956205D01*
X1113413Y958599D01*
X1114129Y961269D01*
Y964034D01*
X1113413Y966705D01*
X1112031Y969099D01*
X1110076Y971054D01*
X1107682Y972436D01*
X1105011Y973152D01*
D02*
G37*
G36*
X1076580Y944043D02*
X1061922D01*
X1059776Y943616D01*
X1057956Y942400D01*
X1055965Y940409D01*
X1054749Y938589D01*
X1054619Y937935D01*
X1052930Y937935D01*
Y937935D01*
X1052730D01*
Y937935D01*
X1040649D01*
X1040230Y937935D01*
X1039151Y937475D01*
X1038960Y937475D01*
X1035050D01*
Y927310D01*
X1033780D01*
Y926040D01*
X1027990D01*
Y917145D01*
X1032529D01*
X1033540Y916520D01*
X1033540Y915875D01*
Y901700D01*
X1052830D01*
X1072120D01*
Y915415D01*
X1072120Y916520D01*
X1073322Y916685D01*
X1078130D01*
Y927295D01*
X1079303Y927781D01*
X1086532Y920552D01*
Y880749D01*
X1085262Y879966D01*
X1084166Y880260D01*
X1082454D01*
X1080801Y879817D01*
X1080023Y879368D01*
X1078130D01*
Y884175D01*
X1073322D01*
X1072120Y884340D01*
X1072120Y885445D01*
Y899160D01*
X1052830D01*
X1033540D01*
Y885445D01*
X1033540Y884340D01*
X1032338Y884175D01*
X1027530D01*
Y862925D01*
X1038972D01*
X1039980Y861781D01*
X1039980Y861655D01*
Y860069D01*
X1040423Y858416D01*
X1041279Y856934D01*
X1042130Y856083D01*
Y855980D01*
X1042461Y854314D01*
X1043405Y852901D01*
X1044817Y851958D01*
X1046483Y851626D01*
X1051108D01*
X1051786Y850356D01*
X1051566Y850026D01*
X1051234Y848360D01*
Y846872D01*
X1051566Y845206D01*
X1052510Y843793D01*
X1054620Y841683D01*
Y840292D01*
X1053979Y839651D01*
X1053123Y838169D01*
X1052680Y836516D01*
Y834804D01*
X1053123Y833151D01*
X1053979Y831669D01*
X1055189Y830459D01*
X1056671Y829603D01*
X1058324Y829160D01*
X1060036D01*
X1061689Y829603D01*
X1063171Y830459D01*
X1064381Y831669D01*
X1065237Y833151D01*
X1065680Y834804D01*
Y836516D01*
X1065237Y838169D01*
X1064381Y839651D01*
X1063327Y840705D01*
Y843487D01*
X1063754Y844006D01*
X1067110D01*
Y843349D01*
X1068029Y841129D01*
X1069729Y839429D01*
X1071880Y838538D01*
Y844550D01*
X1073150D01*
Y845820D01*
X1079162D01*
X1078270Y847971D01*
X1076571Y849670D01*
X1074351Y850590D01*
X1073154D01*
Y855980D01*
X1072822Y857646D01*
X1071878Y859058D01*
X1070466Y860002D01*
X1068800Y860333D01*
X1052980D01*
Y861655D01*
X1052980Y861781D01*
X1053988Y862925D01*
X1064360D01*
X1065430Y862925D01*
X1066700Y862925D01*
X1078130D01*
Y868152D01*
X1080023D01*
X1080801Y867703D01*
X1082454Y867260D01*
X1084166D01*
X1085262Y867554D01*
X1086532Y866771D01*
Y862706D01*
X1086083Y861928D01*
X1085640Y860275D01*
Y858563D01*
X1086083Y856910D01*
X1086938Y855428D01*
X1088148Y854218D01*
X1089631Y853362D01*
X1091284Y852919D01*
X1092995D01*
X1094649Y853362D01*
X1096131Y854218D01*
X1097341Y855428D01*
X1098197Y856910D01*
X1098640Y858563D01*
Y860275D01*
X1098197Y861928D01*
X1097747Y862706D01*
Y922875D01*
X1097320Y925021D01*
X1096105Y926840D01*
X1080545Y942400D01*
X1078726Y943616D01*
X1076580Y944043D01*
D02*
G37*
G36*
X1032510Y937475D02*
X1027990D01*
Y928580D01*
X1032510D01*
Y937475D01*
D02*
G37*
G36*
X916940Y915670D02*
X912198D01*
X913090Y913519D01*
X914789Y911820D01*
X916940Y910928D01*
Y915670D01*
D02*
G37*
G36*
X875030Y914062D02*
Y909320D01*
X879772D01*
X878880Y911471D01*
X877181Y913170D01*
X875030Y914062D01*
D02*
G37*
G36*
X872490D02*
X870339Y913170D01*
X868640Y911471D01*
X867748Y909320D01*
X872490D01*
Y914062D01*
D02*
G37*
G36*
X879772Y906780D02*
X875030D01*
Y902038D01*
X877181Y902930D01*
X878880Y904629D01*
X879772Y906780D01*
D02*
G37*
G36*
X872490D02*
X867748D01*
X868640Y904629D01*
X870339Y902930D01*
X872490Y902038D01*
Y906780D01*
D02*
G37*
G36*
X1021080Y898822D02*
Y894080D01*
X1025822D01*
X1024930Y896231D01*
X1023231Y897931D01*
X1021080Y898822D01*
D02*
G37*
G36*
X1025822Y891540D02*
X1021080D01*
Y886798D01*
X1023231Y887690D01*
X1024930Y889389D01*
X1025822Y891540D01*
D02*
G37*
G36*
X859790Y882312D02*
Y877570D01*
X864532D01*
X863641Y879721D01*
X861941Y881421D01*
X859790Y882312D01*
D02*
G37*
G36*
X1170120Y895610D02*
X1166820D01*
X1163584Y894966D01*
X1160536Y893704D01*
X1157793Y891871D01*
X1155459Y889538D01*
X1153626Y886794D01*
X1152364Y883746D01*
X1151720Y880510D01*
Y877210D01*
X1152364Y873974D01*
X1153626Y870926D01*
X1155459Y868183D01*
X1157793Y865849D01*
X1160536Y864016D01*
X1163584Y862754D01*
X1166820Y862110D01*
X1170120D01*
X1173356Y862754D01*
X1176404Y864016D01*
X1179147Y865849D01*
X1181481Y868183D01*
X1183314Y870926D01*
X1184576Y873974D01*
X1185220Y877210D01*
Y880510D01*
X1184576Y883746D01*
X1183314Y886794D01*
X1181481Y889538D01*
X1179147Y891871D01*
X1176404Y893704D01*
X1173356Y894966D01*
X1170120Y895610D01*
D02*
G37*
G36*
X1119846Y893110D02*
X1116094D01*
X1112470Y892139D01*
X1109220Y890263D01*
X1106567Y887610D01*
X1104691Y884360D01*
X1103720Y880736D01*
Y876984D01*
X1104691Y873360D01*
X1106567Y870110D01*
X1109220Y867457D01*
X1112470Y865581D01*
X1116094Y864610D01*
X1119846D01*
X1123470Y865581D01*
X1126720Y867457D01*
X1127498Y868235D01*
X1128864Y867806D01*
X1129918Y865980D01*
X1131640Y864258D01*
X1131670Y864034D01*
X1131490Y863854D01*
X1130599Y861702D01*
X1142622D01*
X1141841Y863589D01*
X1143000Y864258D01*
X1144722Y865980D01*
X1145940Y868090D01*
X1146570Y870442D01*
Y872878D01*
X1145940Y875230D01*
X1144722Y877340D01*
X1143000Y879062D01*
X1140890Y880280D01*
X1138538Y880910D01*
X1136102D01*
X1133750Y880280D01*
X1133320Y880032D01*
X1132402Y880561D01*
X1132190Y880846D01*
X1131249Y884360D01*
X1129373Y887610D01*
X1126720Y890263D01*
X1123470Y892139D01*
X1119846Y893110D01*
D02*
G37*
G36*
X1142622Y859162D02*
X1137880D01*
Y854421D01*
X1140032Y855312D01*
X1141731Y857011D01*
X1142622Y859162D01*
D02*
G37*
G36*
X1135340D02*
X1130599D01*
X1131490Y857011D01*
X1133189Y855312D01*
X1135340Y854421D01*
Y859162D01*
D02*
G37*
G36*
X1166350Y847194D02*
X1161830D01*
Y842424D01*
X1166350D01*
Y847194D01*
D02*
G37*
G36*
X1159290D02*
X1154770D01*
Y842424D01*
X1159290D01*
Y847194D01*
D02*
G37*
G36*
X1079162Y843280D02*
X1074420D01*
Y838538D01*
X1076571Y839429D01*
X1078270Y841129D01*
X1079162Y843280D01*
D02*
G37*
G36*
X849023Y843138D02*
X844282D01*
X845173Y840986D01*
X846872Y839287D01*
X849023Y838396D01*
Y843138D01*
D02*
G37*
G36*
X1137506Y848510D02*
X1135794D01*
X1134141Y848067D01*
X1132659Y847211D01*
X1131449Y846001D01*
X1130593Y844519D01*
X1130150Y842866D01*
Y841154D01*
X1130593Y839501D01*
X1131218Y838419D01*
X1131379Y837126D01*
X1130521Y836204D01*
X1115593D01*
X1109392Y842405D01*
X1107979Y843349D01*
X1106313Y843680D01*
X1105305D01*
X1105021Y844171D01*
X1103811Y845381D01*
X1102329Y846237D01*
X1100676Y846680D01*
X1098964D01*
X1097311Y846237D01*
X1095829Y845381D01*
X1094619Y844171D01*
X1093763Y842689D01*
X1093320Y841036D01*
Y839324D01*
X1093763Y837671D01*
X1094619Y836189D01*
X1095829Y834979D01*
X1097311Y834123D01*
X1098964Y833680D01*
X1100676D01*
X1102329Y834123D01*
X1103801Y834973D01*
X1104510D01*
X1110712Y828772D01*
X1112124Y827828D01*
X1113790Y827496D01*
X1129425D01*
X1129547Y827314D01*
X1128868Y826044D01*
X1100353D01*
X1098627Y827770D01*
Y828823D01*
X1098184Y830476D01*
X1097329Y831958D01*
X1096118Y833169D01*
X1094636Y834024D01*
X1092983Y834467D01*
X1091272D01*
X1089618Y834024D01*
X1088136Y833169D01*
X1086926Y831958D01*
X1086070Y830476D01*
X1085627Y828823D01*
Y827112D01*
X1086070Y825458D01*
X1086926Y823976D01*
X1088136Y822766D01*
X1089618Y821910D01*
X1091272Y821467D01*
X1092616D01*
X1095471Y818612D01*
X1096884Y817668D01*
X1098550Y817336D01*
X1133201D01*
X1133453Y816066D01*
X1133158Y815944D01*
X1131459Y814245D01*
X1130568Y812094D01*
X1142591D01*
X1141835Y813920D01*
X1142274Y814882D01*
X1142551Y815190D01*
X1153530D01*
Y828190D01*
X1142239D01*
X1141505Y829243D01*
X1141469Y829460D01*
X1141880Y830994D01*
Y832706D01*
X1141698Y833384D01*
X1142673Y834654D01*
X1153310D01*
Y847654D01*
X1140810D01*
X1140810Y847654D01*
Y847654D01*
X1139604Y847810D01*
X1139159Y848067D01*
X1137506Y848510D01*
D02*
G37*
G36*
X1166350Y839884D02*
X1161830D01*
Y835114D01*
X1166350D01*
Y839884D01*
D02*
G37*
G36*
X1159290D02*
X1154770D01*
Y835114D01*
X1159290D01*
Y839884D01*
D02*
G37*
G36*
X850900Y832782D02*
Y828040D01*
X855642D01*
X854751Y830191D01*
X853051Y831890D01*
X850900Y832782D01*
D02*
G37*
G36*
X848360D02*
X846209Y831890D01*
X844510Y830191D01*
X843618Y828040D01*
X848360D01*
Y832782D01*
D02*
G37*
G36*
X1166570Y827730D02*
X1162050D01*
Y822960D01*
X1166570D01*
Y827730D01*
D02*
G37*
G36*
X1159510D02*
X1154990D01*
Y822960D01*
X1159510D01*
Y827730D01*
D02*
G37*
G36*
X1166570Y820420D02*
X1162050D01*
Y815650D01*
X1166570D01*
Y820420D01*
D02*
G37*
G36*
X1159510D02*
X1154990D01*
Y815650D01*
X1159510D01*
Y820420D01*
D02*
G37*
G36*
X1142591Y809554D02*
X1130568D01*
X1131459Y807402D01*
X1132045Y806817D01*
X1130568Y805340D01*
X1129350Y803230D01*
X1129257Y802881D01*
X1128030Y802552D01*
X1126720Y803863D01*
X1123470Y805739D01*
X1119846Y806710D01*
X1116094D01*
X1112470Y805739D01*
X1109220Y803863D01*
X1106567Y801210D01*
X1104691Y797960D01*
X1103720Y794336D01*
Y790584D01*
X1104691Y786960D01*
X1106567Y783710D01*
X1109220Y781057D01*
X1112470Y779181D01*
X1116094Y778210D01*
X1119846D01*
X1123470Y779181D01*
X1126720Y781057D01*
X1129373Y783710D01*
X1131249Y786960D01*
X1132220Y790584D01*
Y790832D01*
X1133490Y791566D01*
X1134400Y791040D01*
X1136752Y790410D01*
X1139188D01*
X1141540Y791040D01*
X1143650Y792258D01*
X1145372Y793980D01*
X1146590Y796090D01*
X1147220Y798442D01*
Y800878D01*
X1146590Y803230D01*
X1145372Y805340D01*
X1143650Y807062D01*
X1141963Y808036D01*
X1142591Y809554D01*
D02*
G37*
G36*
X757821Y804110D02*
X757440D01*
Y792840D01*
X768710D01*
Y793221D01*
X767855Y796410D01*
X766205Y799270D01*
X763870Y801605D01*
X761010Y803255D01*
X757821Y804110D01*
D02*
G37*
G36*
X822821D02*
X822440D01*
Y792840D01*
X833710D01*
Y793221D01*
X832855Y796410D01*
X831205Y799270D01*
X828870Y801605D01*
X826010Y803255D01*
X822821Y804110D01*
D02*
G37*
G36*
X754900D02*
X754519D01*
X751330Y803255D01*
X748470Y801605D01*
X746135Y799270D01*
X744485Y796410D01*
X743630Y793221D01*
Y792840D01*
X754900D01*
Y804110D01*
D02*
G37*
G36*
X819900D02*
X819519D01*
X816330Y803255D01*
X813470Y801605D01*
X811135Y799270D01*
X809485Y796410D01*
X808630Y793221D01*
Y792840D01*
X819900D01*
Y804110D01*
D02*
G37*
G36*
X788670Y795952D02*
Y791210D01*
X793412D01*
X792521Y793361D01*
X790821Y795061D01*
X788670Y795952D01*
D02*
G37*
G36*
X786130D02*
X783979Y795061D01*
X782280Y793361D01*
X781388Y791210D01*
X786130D01*
Y795952D01*
D02*
G37*
G36*
X793412Y788670D02*
X788670D01*
Y783928D01*
X790821Y784819D01*
X792521Y786519D01*
X793412Y788670D01*
D02*
G37*
G36*
X786130D02*
X781388D01*
X782280Y786519D01*
X783979Y784819D01*
X786130Y783928D01*
Y788670D01*
D02*
G37*
G36*
X1068070Y787451D02*
Y782710D01*
X1072812D01*
X1071920Y784861D01*
X1070221Y786560D01*
X1068070Y787451D01*
D02*
G37*
G36*
X1065530D02*
X1063379Y786560D01*
X1061680Y784861D01*
X1060788Y782710D01*
X1065530D01*
Y787451D01*
D02*
G37*
G36*
X833710Y790300D02*
X822440D01*
Y779030D01*
X822821D01*
X826010Y779885D01*
X828870Y781535D01*
X831205Y783870D01*
X832855Y786730D01*
X833710Y789919D01*
Y790300D01*
D02*
G37*
G36*
X819900D02*
X808630D01*
Y789919D01*
X809485Y786730D01*
X811135Y783870D01*
X813470Y781535D01*
X816330Y779885D01*
X819519Y779030D01*
X819900D01*
Y790300D01*
D02*
G37*
G36*
X768710D02*
X757440D01*
Y779030D01*
X757821D01*
X761010Y779885D01*
X763870Y781535D01*
X766205Y783870D01*
X767855Y786730D01*
X768710Y789919D01*
Y790300D01*
D02*
G37*
G36*
X754900D02*
X743630D01*
Y789919D01*
X744485Y786730D01*
X746135Y783870D01*
X748470Y781535D01*
X751330Y779885D01*
X754519Y779030D01*
X754900D01*
Y790300D01*
D02*
G37*
G36*
X1170120Y809210D02*
X1166820D01*
X1163584Y808566D01*
X1160536Y807304D01*
X1157793Y805471D01*
X1155459Y803138D01*
X1153626Y800394D01*
X1152364Y797346D01*
X1151720Y794110D01*
Y790810D01*
X1152364Y787574D01*
X1153626Y784526D01*
X1155459Y781783D01*
X1157793Y779449D01*
X1160536Y777616D01*
X1163584Y776354D01*
X1166820Y775710D01*
X1170120D01*
X1173356Y776354D01*
X1176404Y777616D01*
X1179147Y779449D01*
X1181481Y781783D01*
X1183314Y784526D01*
X1184576Y787574D01*
X1185220Y790810D01*
Y794110D01*
X1184576Y797346D01*
X1183314Y800394D01*
X1181481Y803138D01*
X1179147Y805471D01*
X1176404Y807304D01*
X1173356Y808566D01*
X1170120Y809210D01*
D02*
G37*
G36*
X1072812Y780170D02*
X1068070D01*
Y775428D01*
X1070221Y776319D01*
X1071920Y778018D01*
X1072812Y780170D01*
D02*
G37*
G36*
X1065530D02*
X1060788D01*
X1061680Y778018D01*
X1063379Y776319D01*
X1065530Y775428D01*
Y780170D01*
D02*
G37*
G36*
X1118870Y770552D02*
Y765810D01*
X1123612D01*
X1122720Y767961D01*
X1121021Y769660D01*
X1118870Y770552D01*
D02*
G37*
G36*
X1116330D02*
X1114179Y769660D01*
X1112479Y767961D01*
X1111588Y765810D01*
X1116330D01*
Y770552D01*
D02*
G37*
G36*
X1020852Y769053D02*
Y764312D01*
X1025593D01*
X1024702Y766463D01*
X1023003Y768162D01*
X1020852Y769053D01*
D02*
G37*
G36*
X1123612Y763270D02*
X1118870D01*
Y758528D01*
X1121021Y759419D01*
X1122720Y761119D01*
X1123612Y763270D01*
D02*
G37*
G36*
X1116330D02*
X1111588D01*
X1112479Y761119D01*
X1114179Y759419D01*
X1116330Y758528D01*
Y763270D01*
D02*
G37*
G36*
X548640Y745152D02*
Y740410D01*
X553382D01*
X552491Y742561D01*
X550791Y744260D01*
X548640Y745152D01*
D02*
G37*
G36*
X546100D02*
X543949Y744260D01*
X542249Y742561D01*
X541358Y740410D01*
X546100D01*
Y745152D01*
D02*
G37*
G36*
X975237Y743867D02*
X973085Y742976D01*
X971386Y741277D01*
X970495Y739126D01*
X975237D01*
Y743867D01*
D02*
G37*
G36*
X908982Y742950D02*
X904240D01*
Y738208D01*
X906391Y739100D01*
X908091Y740799D01*
X908982Y742950D01*
D02*
G37*
G36*
X553382Y737870D02*
X548640D01*
Y733128D01*
X550791Y734019D01*
X552491Y735719D01*
X553382Y737870D01*
D02*
G37*
G36*
X546100D02*
X541358D01*
X542249Y735719D01*
X543949Y734019D01*
X546100Y733128D01*
Y737870D01*
D02*
G37*
G36*
X975237Y736586D02*
X970495D01*
X971386Y734435D01*
X973085Y732735D01*
X975237Y731844D01*
Y736586D01*
D02*
G37*
G36*
X1179882Y712354D02*
X1179831D01*
Y703584D01*
X1188601D01*
Y703636D01*
X1187916Y706189D01*
X1186595Y708479D01*
X1184725Y710348D01*
X1182436Y711670D01*
X1179882Y712354D01*
D02*
G37*
G36*
X1177291D02*
X1177239D01*
X1174685Y711670D01*
X1172396Y710348D01*
X1170527Y708479D01*
X1169205Y706189D01*
X1168521Y703636D01*
Y703584D01*
X1177291D01*
Y712354D01*
D02*
G37*
G36*
X1188601Y701044D02*
X1179831D01*
Y692274D01*
X1179882D01*
X1182436Y692958D01*
X1184725Y694280D01*
X1186595Y696149D01*
X1187916Y698439D01*
X1188601Y700992D01*
Y701044D01*
D02*
G37*
G36*
X1177291D02*
X1168521D01*
Y700992D01*
X1169205Y698439D01*
X1170527Y696149D01*
X1172396Y694280D01*
X1174685Y692958D01*
X1177239Y692274D01*
X1177291D01*
Y701044D01*
D02*
G37*
G36*
X621144Y712820D02*
X618379D01*
X615709Y712105D01*
X613314Y710722D01*
X611359Y708767D01*
X609977Y706373D01*
X609262Y703703D01*
Y700938D01*
X609977Y698267D01*
X611359Y695873D01*
X613314Y693918D01*
X615709Y692536D01*
X618379Y691820D01*
X621144D01*
X623814Y692536D01*
X626209Y693918D01*
X628164Y695873D01*
X629546Y698267D01*
X630261Y700938D01*
Y703703D01*
X629546Y706373D01*
X628164Y708767D01*
X626209Y710722D01*
X623814Y712105D01*
X621144Y712820D01*
D02*
G37*
G36*
X646544Y712818D02*
X643779D01*
X641108Y712103D01*
X638714Y710720D01*
X636759Y708765D01*
X635377Y706371D01*
X634661Y703701D01*
Y700936D01*
X635377Y698265D01*
X636759Y695871D01*
X638714Y693916D01*
X641108Y692534D01*
X643779Y691818D01*
X646544D01*
X649214Y692534D01*
X651608Y693916D01*
X653563Y695871D01*
X654946Y698265D01*
X655661Y700936D01*
Y703701D01*
X654946Y706371D01*
X653563Y708765D01*
X651608Y710720D01*
X649214Y712103D01*
X646544Y712818D01*
D02*
G37*
G36*
X595744D02*
X592979D01*
X590308Y712103D01*
X587914Y710720D01*
X585959Y708765D01*
X584577Y706371D01*
X583861Y703701D01*
Y700936D01*
X584577Y698265D01*
X585959Y695871D01*
X587914Y693916D01*
X590308Y692534D01*
X592979Y691818D01*
X595744D01*
X598414Y692534D01*
X600808Y693916D01*
X602763Y695871D01*
X604146Y698265D01*
X604861Y700936D01*
Y703701D01*
X604146Y706371D01*
X602763Y708765D01*
X600808Y710720D01*
X598414Y712103D01*
X595744Y712818D01*
D02*
G37*
G36*
X570344D02*
X567579D01*
X564908Y712103D01*
X562514Y710720D01*
X560559Y708765D01*
X559177Y706371D01*
X558461Y703701D01*
Y700936D01*
X559177Y698265D01*
X560559Y695871D01*
X562514Y693916D01*
X564908Y692534D01*
X567579Y691818D01*
X570344D01*
X573014Y692534D01*
X575408Y693916D01*
X577363Y695871D01*
X578746Y698265D01*
X579461Y700936D01*
Y703701D01*
X578746Y706371D01*
X577363Y708765D01*
X575408Y710720D01*
X573014Y712103D01*
X570344Y712818D01*
D02*
G37*
G36*
X544944D02*
X542179D01*
X539508Y712103D01*
X537114Y710720D01*
X535159Y708765D01*
X533777Y706371D01*
X533061Y703701D01*
Y700936D01*
X533777Y698265D01*
X535159Y695871D01*
X537114Y693916D01*
X539508Y692534D01*
X542179Y691818D01*
X544944D01*
X547614Y692534D01*
X550008Y693916D01*
X551963Y695871D01*
X553346Y698265D01*
X554061Y700936D01*
Y703701D01*
X553346Y706371D01*
X551963Y708765D01*
X550008Y710720D01*
X547614Y712103D01*
X544944Y712818D01*
D02*
G37*
G36*
X722743Y712816D02*
X719979D01*
X717308Y712101D01*
X714914Y710718D01*
X712959Y708763D01*
X711577Y706369D01*
X710861Y703699D01*
Y700934D01*
X711577Y698263D01*
X712959Y695869D01*
X714914Y693914D01*
X717308Y692532D01*
X719979Y691816D01*
X722743D01*
X725414Y692532D01*
X727808Y693914D01*
X729763Y695869D01*
X731145Y698263D01*
X731861Y700934D01*
Y703699D01*
X731145Y706369D01*
X729763Y708763D01*
X727808Y710718D01*
X725414Y712101D01*
X722743Y712816D01*
D02*
G37*
G36*
X697343D02*
X694579D01*
X691908Y712101D01*
X689514Y710718D01*
X687559Y708763D01*
X686177Y706369D01*
X685461Y703699D01*
Y700934D01*
X686177Y698263D01*
X687559Y695869D01*
X689514Y693914D01*
X691908Y692532D01*
X694579Y691816D01*
X697343D01*
X700014Y692532D01*
X702408Y693914D01*
X704363Y695869D01*
X705745Y698263D01*
X706461Y700934D01*
Y703699D01*
X705745Y706369D01*
X704363Y708763D01*
X702408Y710718D01*
X700014Y712101D01*
X697343Y712816D01*
D02*
G37*
G36*
X671943D02*
X669179D01*
X666508Y712101D01*
X664114Y710718D01*
X662159Y708763D01*
X660777Y706369D01*
X660061Y703699D01*
Y700934D01*
X660777Y698263D01*
X662159Y695869D01*
X664114Y693914D01*
X666508Y692532D01*
X669179Y691816D01*
X671943D01*
X674614Y692532D01*
X677008Y693914D01*
X678963Y695869D01*
X680345Y698263D01*
X681061Y700934D01*
Y703699D01*
X680345Y706369D01*
X678963Y708763D01*
X677008Y710718D01*
X674614Y712101D01*
X671943Y712816D01*
D02*
G37*
G36*
X849743Y712814D02*
X846978D01*
X844308Y712098D01*
X841914Y710716D01*
X839958Y708761D01*
X838576Y706367D01*
X837861Y703697D01*
Y700932D01*
X838576Y698261D01*
X839958Y695867D01*
X841914Y693912D01*
X844308Y692530D01*
X846978Y691814D01*
X849743D01*
X852413Y692530D01*
X854808Y693912D01*
X856763Y695867D01*
X858145Y698261D01*
X858861Y700932D01*
Y703697D01*
X858145Y706367D01*
X856763Y708761D01*
X854808Y710716D01*
X852413Y712098D01*
X849743Y712814D01*
D02*
G37*
G36*
X824343D02*
X821578D01*
X818908Y712098D01*
X816514Y710716D01*
X814558Y708761D01*
X813176Y706367D01*
X812461Y703697D01*
Y700932D01*
X813176Y698261D01*
X814558Y695867D01*
X816514Y693912D01*
X818908Y692530D01*
X821578Y691814D01*
X824343D01*
X827013Y692530D01*
X829408Y693912D01*
X831363Y695867D01*
X832745Y698261D01*
X833461Y700932D01*
Y703697D01*
X832745Y706367D01*
X831363Y708761D01*
X829408Y710716D01*
X827013Y712098D01*
X824343Y712814D01*
D02*
G37*
G36*
X798943D02*
X796178D01*
X793508Y712098D01*
X791114Y710716D01*
X789158Y708761D01*
X787776Y706367D01*
X787061Y703697D01*
Y700932D01*
X787776Y698261D01*
X789158Y695867D01*
X791114Y693912D01*
X793508Y692530D01*
X796178Y691814D01*
X798943D01*
X801613Y692530D01*
X804008Y693912D01*
X805963Y695867D01*
X807345Y698261D01*
X808061Y700932D01*
Y703697D01*
X807345Y706367D01*
X805963Y708761D01*
X804008Y710716D01*
X801613Y712098D01*
X798943Y712814D01*
D02*
G37*
G36*
X1154543Y712812D02*
X1151778D01*
X1149108Y712096D01*
X1146713Y710714D01*
X1144758Y708759D01*
X1143376Y706365D01*
X1142660Y703694D01*
Y700930D01*
X1143376Y698259D01*
X1144758Y695865D01*
X1146713Y693910D01*
X1149108Y692528D01*
X1151778Y691812D01*
X1154543D01*
X1157213Y692528D01*
X1159607Y693910D01*
X1161562Y695865D01*
X1162945Y698259D01*
X1163660Y700930D01*
Y703694D01*
X1162945Y706365D01*
X1161562Y708759D01*
X1159607Y710714D01*
X1157213Y712096D01*
X1154543Y712812D01*
D02*
G37*
G36*
X1129143D02*
X1126378D01*
X1123708Y712096D01*
X1121313Y710714D01*
X1119358Y708759D01*
X1117976Y706365D01*
X1117260Y703694D01*
Y700930D01*
X1117976Y698259D01*
X1119358Y695865D01*
X1121313Y693910D01*
X1123708Y692528D01*
X1126378Y691812D01*
X1129143D01*
X1131813Y692528D01*
X1134207Y693910D01*
X1136162Y695865D01*
X1137545Y698259D01*
X1138260Y700930D01*
Y703694D01*
X1137545Y706365D01*
X1136162Y708759D01*
X1134207Y710714D01*
X1131813Y712096D01*
X1129143Y712812D01*
D02*
G37*
G36*
X1103742Y712810D02*
X1100978D01*
X1098307Y712094D01*
X1095913Y710712D01*
X1093958Y708757D01*
X1092576Y706363D01*
X1091860Y703692D01*
Y700928D01*
X1092576Y698257D01*
X1093958Y695863D01*
X1095913Y693908D01*
X1098307Y692526D01*
X1100978Y691810D01*
X1103742D01*
X1106413Y692526D01*
X1108807Y693908D01*
X1110762Y695863D01*
X1112144Y698257D01*
X1112860Y700928D01*
Y703692D01*
X1112144Y706363D01*
X1110762Y708757D01*
X1108807Y710712D01*
X1106413Y712094D01*
X1103742Y712810D01*
D02*
G37*
G36*
X1078342D02*
X1075578D01*
X1072907Y712094D01*
X1070513Y710712D01*
X1068558Y708757D01*
X1067176Y706363D01*
X1066460Y703692D01*
Y700928D01*
X1067176Y698257D01*
X1068558Y695863D01*
X1070513Y693908D01*
X1072907Y692526D01*
X1075578Y691810D01*
X1078342D01*
X1081013Y692526D01*
X1083407Y693908D01*
X1085362Y695863D01*
X1086744Y698257D01*
X1087460Y700928D01*
Y703692D01*
X1086744Y706363D01*
X1085362Y708757D01*
X1083407Y710712D01*
X1081013Y712094D01*
X1078342Y712810D01*
D02*
G37*
G36*
X1052942D02*
X1050178D01*
X1047507Y712094D01*
X1045113Y710712D01*
X1043158Y708757D01*
X1041776Y706363D01*
X1041060Y703692D01*
Y700928D01*
X1041776Y698257D01*
X1043158Y695863D01*
X1045113Y693908D01*
X1047507Y692526D01*
X1050178Y691810D01*
X1052942D01*
X1055613Y692526D01*
X1058007Y693908D01*
X1059962Y695863D01*
X1061344Y698257D01*
X1062060Y700928D01*
Y703692D01*
X1061344Y706363D01*
X1059962Y708757D01*
X1058007Y710712D01*
X1055613Y712094D01*
X1052942Y712810D01*
D02*
G37*
%LPD*%
D14*
X933450Y821690D02*
X964502Y852742D01*
X963953Y845843D02*
X994212D01*
X939730Y821620D02*
X963953Y845843D01*
X964502Y852742D02*
X986816D01*
X988467Y867277D02*
X997640Y876450D01*
Y890850D01*
X904240Y857250D02*
X914267Y867277D01*
X988467D01*
X909320Y849630D02*
X918202Y858512D01*
X993132D02*
X1010920Y876300D01*
X918202Y858512D02*
X993132D01*
X1010920Y876300D02*
Y946146D01*
X772161Y718821D02*
X778510Y725170D01*
X772161Y702316D02*
Y718821D01*
X778510Y725170D02*
X864452D01*
X878840Y873760D02*
X902970D01*
X862330Y890270D02*
X878840Y873760D01*
X875474Y882415D02*
X906114D01*
X862981Y894908D02*
X875474Y882415D01*
X906114D02*
X906358Y882172D01*
X873761Y702316D02*
Y705464D01*
X878115Y709817D02*
Y733544D01*
X943610Y799039D01*
X873761Y705464D02*
X878115Y709817D01*
X891540Y712355D02*
X899161Y704735D01*
X891540Y712355D02*
Y741680D01*
X947420Y797560D01*
X654908Y960532D02*
X725170Y890270D01*
X862330D01*
X721985Y885190D02*
X840740D01*
X894080Y831850D02*
X901700D01*
X840740Y885190D02*
X894080Y831850D01*
X874335Y836355D02*
X880487D01*
X830580Y880110D02*
X874335Y836355D01*
X880487D02*
X880905Y835938D01*
X734502Y894908D02*
X862981D01*
X822997Y947047D02*
X824230Y948279D01*
X790587Y935463D02*
X935247D01*
X748030Y962660D02*
X778967Y931723D01*
X727710Y953770D02*
X753497Y927983D01*
X824230Y948279D02*
Y962658D01*
X930097Y931723D02*
X981850Y879970D01*
X772160Y953890D02*
X790587Y935463D01*
X849630Y941234D02*
X849630Y941233D01*
X753497Y927983D02*
X926097D01*
X974090Y879990D01*
X778967Y931723D02*
X930097D01*
X849630Y941234D02*
Y962656D01*
X822997Y945840D02*
Y947047D01*
X935247Y935463D02*
X991870Y878840D01*
X654675Y952500D02*
X721985Y885190D01*
X971967Y817027D02*
X972820Y817880D01*
X971967Y814487D02*
Y817027D01*
X922324Y764844D02*
X971967Y814487D01*
X922324Y704549D02*
Y764844D01*
X976200Y807266D02*
X978055Y809121D01*
X949960Y780992D02*
X976200Y807232D01*
Y807266D01*
X949960Y702312D02*
Y780992D01*
X978055Y809121D02*
Y810328D01*
X982277Y709228D02*
Y801372D01*
X983130Y802226D01*
X900772Y821690D02*
X901700D01*
X874657Y816610D02*
X895693D01*
X900772Y821690D01*
X947420Y797560D02*
Y810260D01*
X963359Y826199D01*
X967169D01*
X864452Y725170D02*
X939730Y800448D01*
X967169Y826199D02*
X967740Y826770D01*
X939730Y800448D02*
Y821620D01*
X911007Y787006D02*
X911860Y787859D01*
X782313Y737870D02*
X871863D01*
X943610Y799039D02*
Y815352D01*
X933450Y799457D02*
Y821690D01*
X871863Y737870D02*
X933450Y799457D01*
X890270Y771120D02*
X906156Y787006D01*
X911007D01*
X943610Y815352D02*
X962648Y834390D01*
X962660D01*
X975360Y702312D02*
X982277Y709228D01*
X988163Y759357D02*
Y794359D01*
X1000761Y702314D02*
Y746759D01*
X988163Y759357D02*
X1000761Y746759D01*
X994410Y780054D02*
Y787400D01*
Y780054D02*
X1026160Y748303D01*
X1100673Y839327D02*
X1106313D01*
X1099820Y840180D02*
X1100673Y839327D01*
X1106313D02*
X1113790Y831850D01*
X1092127Y827967D02*
X1092273D01*
X1098550Y821690D01*
X1058973Y839470D02*
Y843487D01*
X1055588Y846872D02*
X1058973Y843487D01*
X1055588Y846872D02*
Y848360D01*
X1068800D01*
Y855980D01*
X1046483D02*
X1068800D01*
X1046483D02*
Y857250D01*
X1058973Y835867D02*
Y839470D01*
X1046483Y857250D02*
Y860922D01*
X717550Y880110D02*
X830580D01*
X649510Y948150D02*
X717550Y880110D01*
X713740Y875030D02*
X829101D01*
X875255Y828876D01*
X647010Y941760D02*
X713740Y875030D01*
X849629Y962656D02*
X849630Y962656D01*
X885308Y943610D02*
X944880D01*
X997640Y890850D01*
X875030Y953888D02*
X885308Y943610D01*
X695960Y953890D02*
X726560Y923290D01*
X920750D01*
X965200Y878840D01*
X1098550Y821690D02*
X1147280D01*
X628650Y922020D02*
X734060Y816610D01*
X873758D01*
X604670Y941484D02*
X613667D01*
X613943Y941760D02*
X647010D01*
X613667Y941484D02*
X613943Y941760D01*
X570923Y948150D02*
X649510D01*
X1113790Y831850D02*
X1135380D01*
X671830Y962662D02*
X674214Y960278D01*
Y955196D02*
X734502Y894908D01*
X674214Y955196D02*
Y960278D01*
X646430Y962662D02*
X648561Y960532D01*
X654908D01*
X580390Y952500D02*
X654675D01*
X1058973Y835867D02*
X1059180Y835660D01*
X1046480Y860925D02*
X1046483Y860922D01*
X1136650Y842010D02*
X1137078Y841582D01*
X1146632D01*
X1147060Y841154D01*
X877445Y828876D02*
X879969Y826353D01*
X881176D01*
X875255Y828876D02*
X877445D01*
X873758Y816610D02*
X874657Y816610D01*
X560223Y958850D02*
X570923Y948150D01*
X1010920Y946146D02*
X1027429Y962656D01*
X1026160Y702312D02*
Y748303D01*
X974090Y878840D02*
Y879990D01*
X824230Y962658D02*
X824230Y962658D01*
X981850Y879970D02*
X982840D01*
X875030Y962658D02*
X875030Y962658D01*
Y953888D02*
Y962658D01*
X899161Y702314D02*
Y704735D01*
X772160Y953890D02*
Y961390D01*
X773430Y962660D01*
X727710Y953770D02*
Y954206D01*
X722630Y959286D02*
X727710Y954206D01*
X722630Y959286D02*
Y962658D01*
X695960Y953890D02*
Y961390D01*
X697230Y962660D01*
X570230D02*
X580390Y952500D01*
X552009Y958850D02*
X560223D01*
X544830Y962658D02*
X548201D01*
X552009Y958850D01*
X922324Y704549D02*
X924560Y702312D01*
X746761Y702318D02*
X782313Y737870D01*
D24*
X1147280Y821690D02*
D03*
X1147060Y841154D02*
D03*
X1160560D02*
D03*
X1160780Y821690D02*
D03*
D39*
X1054805Y927310D02*
X1059930Y932435D01*
X1071880Y873550D02*
X1072090Y873760D01*
X1083310D01*
X1092140Y859419D02*
Y922875D01*
X1076580Y938435D02*
X1092140Y922875D01*
X1061922Y938435D02*
X1076580D01*
X1059930Y932435D02*
Y936443D01*
X1061922Y938435D01*
X1046480Y927310D02*
X1054805D01*
D41*
X1117970Y792460D02*
D03*
Y878860D02*
D03*
D42*
X1168470Y792460D02*
D03*
Y878860D02*
D03*
D43*
X1137320Y871660D02*
D03*
X1137970Y799660D02*
D03*
D44*
X1178561Y702314D02*
D03*
X570230Y962660D02*
D03*
X544830Y962658D02*
D03*
X1027429Y962656D02*
D03*
X1002029D02*
D03*
X976629Y962654D02*
D03*
X951229Y962656D02*
D03*
X1052829D02*
D03*
X1179829Y962654D02*
D03*
X1154429D02*
D03*
X1129029D02*
D03*
X1103629Y962652D02*
D03*
X1078229Y962654D02*
D03*
X900430Y962658D02*
D03*
X875030D02*
D03*
X849629Y962656D02*
D03*
X824230Y962658D02*
D03*
X925830D02*
D03*
X773430Y962660D02*
D03*
X748030D02*
D03*
X722630Y962658D02*
D03*
X697230Y962660D02*
D03*
X798830D02*
D03*
X646430Y962662D02*
D03*
X621030D02*
D03*
X595630Y962660D02*
D03*
X671830Y962662D02*
D03*
X1153160Y702312D02*
D03*
X695961Y702316D02*
D03*
X721361D02*
D03*
X746761Y702318D02*
D03*
X772161Y702316D02*
D03*
X670561D02*
D03*
X543561Y702318D02*
D03*
X568961D02*
D03*
X594361D02*
D03*
X619762Y702320D02*
D03*
X645161Y702318D02*
D03*
X822961Y702314D02*
D03*
X848361D02*
D03*
X873761Y702316D02*
D03*
X899161Y702314D02*
D03*
X797561D02*
D03*
X949960Y702312D02*
D03*
X975360D02*
D03*
X1000761Y702314D02*
D03*
X1026160Y702312D02*
D03*
X924560D02*
D03*
X1076960Y702310D02*
D03*
X1102360D02*
D03*
X1127760Y702312D02*
D03*
X1051560Y702310D02*
D03*
D45*
X821170Y791570D02*
D03*
X756170D02*
D03*
X755420Y907330D02*
D03*
X820420D02*
D03*
X755420Y862330D02*
D03*
X820420D02*
D03*
X756170Y836570D02*
D03*
X821170D02*
D03*
D46*
X994212Y845843D02*
D03*
X986816Y852742D02*
D03*
X902970Y873760D02*
D03*
X906358Y882172D02*
D03*
X858520Y876300D02*
D03*
X880905Y835938D02*
D03*
X849630Y941233D02*
D03*
X822997Y945840D02*
D03*
X978055Y810328D02*
D03*
X983130Y802226D02*
D03*
X901700Y821690D02*
D03*
Y831850D02*
D03*
X911860Y787859D02*
D03*
X972820Y817880D02*
D03*
X967740Y826770D02*
D03*
X902970Y744220D02*
D03*
X976507Y737856D02*
D03*
X850293Y844408D02*
D03*
X1099820Y840180D02*
D03*
X1073150Y844550D02*
D03*
X1136610Y860432D02*
D03*
X890270Y771120D02*
D03*
X849630Y826770D02*
D03*
X873760Y908050D02*
D03*
X1092127Y827967D02*
D03*
X994410Y787400D02*
D03*
X918210Y916940D02*
D03*
X787400Y789940D02*
D03*
X628650Y922020D02*
D03*
X909320Y849630D02*
D03*
X604670Y941484D02*
D03*
X1135380Y831850D02*
D03*
X1136580Y810824D02*
D03*
X1083310Y873760D02*
D03*
X1092140Y859419D02*
D03*
X1059180Y835660D02*
D03*
X1046480Y860925D02*
D03*
X1019810Y892810D02*
D03*
X988163Y794359D02*
D03*
X1136650Y842010D02*
D03*
X962660Y834390D02*
D03*
X881176Y826353D02*
D03*
X547370Y739140D02*
D03*
X1117600Y764540D02*
D03*
X1019582Y763042D02*
D03*
X1066800Y781440D02*
D03*
X991870Y878840D02*
D03*
X974090D02*
D03*
X965200D02*
D03*
X904240Y857250D02*
D03*
X982980Y878840D02*
D03*
D47*
X1046480Y927310D02*
D03*
X1059180D02*
D03*
X1033780D02*
D03*
Y873550D02*
D03*
X1046480D02*
D03*
X1059180D02*
D03*
X1071880D02*
D03*
Y927310D02*
D03*
D48*
X1052830Y900430D02*
D03*
M02*
