G04*
G04 #@! TF.GenerationSoftware,Altium Limited,Altium Designer,26.3.0 (6)*
G04*
G04 Layer_Color=8388736*
%FSLAX44Y44*%
%MOMM*%
G71*
G04*
G04 #@! TF.SameCoordinates,31678F41-77F7-4F5C-A536-5F35FB9D6BF7*
G04*
G04*
G04 #@! TF.FilePolarity,Negative*
G04*
G01*
G75*
%ADD19R,1.1938X0.3048*%
%ADD20R,0.4500X0.5900*%
%ADD22R,0.3048X1.1938*%
%ADD26R,0.8500X0.8000*%
G04:AMPARAMS|DCode=27|XSize=1.4mm|YSize=0.75mm|CornerRadius=0.135mm|HoleSize=0mm|Usage=FLASHONLY|Rotation=270.000|XOffset=0mm|YOffset=0mm|HoleType=Round|Shape=RoundedRectangle|*
%AMROUNDEDRECTD27*
21,1,1.4000,0.4800,0,0,270.0*
21,1,1.1300,0.7500,0,0,270.0*
1,1,0.2700,-0.2400,-0.5650*
1,1,0.2700,-0.2400,0.5650*
1,1,0.2700,0.2400,0.5650*
1,1,0.2700,0.2400,-0.5650*
%
%ADD27ROUNDEDRECTD27*%
%ADD28R,1.0500X0.4200*%
%ADD29R,0.9500X0.4200*%
%ADD30R,1.4000X0.7500*%
%ADD31R,0.8000X0.8500*%
%ADD32R,0.5500X2.0500*%
%ADD33C,2.4000*%
%ADD34C,2.9000*%
%ADD35C,1.4000*%
%ADD36C,1.6500*%
%ADD37C,2.1500*%
%ADD38C,0.8500*%
D19*
X1006190Y846890D02*
D03*
X891190Y871890D02*
D03*
Y866890D02*
D03*
Y861890D02*
D03*
Y856890D02*
D03*
Y851890D02*
D03*
Y846890D02*
D03*
Y841890D02*
D03*
Y836890D02*
D03*
Y831890D02*
D03*
Y826890D02*
D03*
Y821890D02*
D03*
Y816890D02*
D03*
Y811890D02*
D03*
Y806890D02*
D03*
Y801890D02*
D03*
Y796890D02*
D03*
X1006190D02*
D03*
Y801890D02*
D03*
Y806890D02*
D03*
Y811890D02*
D03*
Y816890D02*
D03*
Y821890D02*
D03*
Y826890D02*
D03*
Y831890D02*
D03*
Y836890D02*
D03*
Y841890D02*
D03*
Y851890D02*
D03*
Y856890D02*
D03*
Y861890D02*
D03*
Y866890D02*
D03*
Y871890D02*
D03*
D20*
X1066800Y811920D02*
D03*
Y790820D02*
D03*
D22*
X911190Y776890D02*
D03*
X916190D02*
D03*
X921190D02*
D03*
X926190D02*
D03*
X931190D02*
D03*
X936190D02*
D03*
X941190D02*
D03*
X946190D02*
D03*
X951190D02*
D03*
X956190D02*
D03*
X961190D02*
D03*
X966190D02*
D03*
X971190D02*
D03*
X976190D02*
D03*
X981190D02*
D03*
X986190D02*
D03*
Y891890D02*
D03*
X981190D02*
D03*
X976190D02*
D03*
X971190D02*
D03*
X966190D02*
D03*
X961190D02*
D03*
X956190D02*
D03*
X951190D02*
D03*
X946190D02*
D03*
X941190D02*
D03*
X936190D02*
D03*
X931190D02*
D03*
X926190D02*
D03*
X921190D02*
D03*
X916190D02*
D03*
X911190D02*
D03*
D26*
X1095128Y758560D02*
D03*
Y772060D02*
D03*
X998220Y761600D02*
D03*
X1010920D02*
D03*
X930910Y924560D02*
D03*
X896620Y908050D02*
D03*
X883920D02*
D03*
X872490Y826300D02*
D03*
X978510Y746620D02*
D03*
X858520Y826300D02*
D03*
X930910Y911060D02*
D03*
X839470Y796690D02*
D03*
Y783190D02*
D03*
X978510Y760120D02*
D03*
X1010920Y775100D02*
D03*
X858520Y812800D02*
D03*
X883920Y894550D02*
D03*
X998220Y775100D02*
D03*
X872490Y812800D02*
D03*
X896620Y894550D02*
D03*
D27*
X1108601Y764541D02*
D03*
X1126601D02*
D03*
X538369Y739139D02*
D03*
X556369D02*
D03*
X852170Y797560D02*
D03*
X870170D02*
D03*
D28*
X1110970Y824410D02*
D03*
Y809410D02*
D03*
Y814410D02*
D03*
Y819410D02*
D03*
Y829410D02*
D03*
Y834410D02*
D03*
Y839410D02*
D03*
Y844410D02*
D03*
Y849410D02*
D03*
Y854410D02*
D03*
Y859410D02*
D03*
Y864410D02*
D03*
D29*
X1126970Y861910D02*
D03*
Y856910D02*
D03*
Y851910D02*
D03*
Y846910D02*
D03*
Y841910D02*
D03*
Y836910D02*
D03*
Y831910D02*
D03*
Y826910D02*
D03*
Y821910D02*
D03*
Y816910D02*
D03*
Y811910D02*
D03*
Y806910D02*
D03*
D30*
X1055030Y844550D02*
D03*
X1076030Y854050D02*
D03*
Y835050D02*
D03*
D31*
X1021080Y883920D02*
D03*
X859390Y842010D02*
D03*
X911460Y756920D02*
D03*
Y744220D02*
D03*
X1035450Y849630D02*
D03*
X1021950D02*
D03*
X1036320Y861060D02*
D03*
X1022820D02*
D03*
X556660Y722630D02*
D03*
X543160D02*
D03*
X872890Y842010D02*
D03*
X1007580Y883920D02*
D03*
X924960Y744220D02*
D03*
Y756920D02*
D03*
D32*
X857950Y862330D02*
D03*
X869950D02*
D03*
X845950D02*
D03*
D33*
X1117970Y792460D02*
D03*
Y878860D02*
D03*
D34*
X1168470Y792460D02*
D03*
Y878860D02*
D03*
D35*
X1137320Y871660D02*
D03*
X1137970Y799660D02*
D03*
D36*
X1178561Y702314D02*
D03*
X570230Y962660D02*
D03*
X544830Y962658D02*
D03*
X1027429Y962656D02*
D03*
X1002029D02*
D03*
X976629Y962654D02*
D03*
X951229Y962656D02*
D03*
X1052829D02*
D03*
X1179829Y962654D02*
D03*
X1154429D02*
D03*
X1129029D02*
D03*
X1103629Y962652D02*
D03*
X1078229Y962654D02*
D03*
X900430Y962658D02*
D03*
X875030D02*
D03*
X849629Y962656D02*
D03*
X824230Y962658D02*
D03*
X925830D02*
D03*
X773430Y962660D02*
D03*
X748030D02*
D03*
X722630Y962658D02*
D03*
X697230Y962660D02*
D03*
X798830D02*
D03*
X646430Y962662D02*
D03*
X621030D02*
D03*
X595630Y962660D02*
D03*
X671830Y962662D02*
D03*
X1153160Y702312D02*
D03*
X695961Y702316D02*
D03*
X721361D02*
D03*
X746761Y702318D02*
D03*
X772161Y702316D02*
D03*
X670561D02*
D03*
X543561Y702318D02*
D03*
X568961D02*
D03*
X594361D02*
D03*
X619762Y702320D02*
D03*
X645161Y702318D02*
D03*
X822961Y702314D02*
D03*
X848361D02*
D03*
X873761Y702316D02*
D03*
X899161Y702314D02*
D03*
X797561D02*
D03*
X949960Y702312D02*
D03*
X975360D02*
D03*
X1000761Y702314D02*
D03*
X1026160Y702312D02*
D03*
X924560D02*
D03*
X1076960Y702310D02*
D03*
X1102360D02*
D03*
X1127760Y702312D02*
D03*
X1051560Y702310D02*
D03*
D37*
X821170Y791570D02*
D03*
X756170D02*
D03*
X755420Y907330D02*
D03*
X820420D02*
D03*
X755420Y862330D02*
D03*
X820420D02*
D03*
X756170Y836570D02*
D03*
X821170D02*
D03*
D38*
X994212Y845843D02*
D03*
X986816Y852742D02*
D03*
X902970Y873760D02*
D03*
X906358Y882172D02*
D03*
X858520Y876300D02*
D03*
X880905Y835938D02*
D03*
X849630Y941233D02*
D03*
X822997Y945840D02*
D03*
X978055Y810328D02*
D03*
X983130Y802226D02*
D03*
X901700Y821690D02*
D03*
Y831850D02*
D03*
X911860Y787859D02*
D03*
X972820Y817880D02*
D03*
X967740Y826770D02*
D03*
X902970Y744220D02*
D03*
X976507Y737856D02*
D03*
X850293Y844408D02*
D03*
X1099820Y840180D02*
D03*
X1073150Y844550D02*
D03*
X1136610Y860432D02*
D03*
X890270Y771120D02*
D03*
X849630Y826770D02*
D03*
X873760Y908050D02*
D03*
X1092127Y827967D02*
D03*
X994410Y787400D02*
D03*
X918210Y916940D02*
D03*
X787400Y789940D02*
D03*
X628650Y922020D02*
D03*
X909320Y849630D02*
D03*
X604670Y941484D02*
D03*
X1135380Y831850D02*
D03*
X1136580Y810824D02*
D03*
X1083310Y873760D02*
D03*
X1092140Y859419D02*
D03*
X1059180Y835660D02*
D03*
X1046480Y860925D02*
D03*
X1019810Y892810D02*
D03*
X988163Y794359D02*
D03*
X1136650Y842010D02*
D03*
X962660Y834390D02*
D03*
X881176Y826353D02*
D03*
X547370Y739140D02*
D03*
X1117600Y764540D02*
D03*
X1019582Y763042D02*
D03*
X1066800Y781440D02*
D03*
X991870Y878840D02*
D03*
X974090D02*
D03*
X965200D02*
D03*
X904240Y857250D02*
D03*
X982980Y878840D02*
D03*
M02*
