ISO-10303-21;
HEADER;
/*Generated by software containing ST-Developer
 * from STEP Tools, Inc. (www.steptools.com) 
 */
/*OPTION: using custom renumber hook */
/*description */
/*implementation_level */
FILE_DESCRIPTION(('STEP AP242 Edition 2','STEP AP242 Edition 2''CAx-IF Rec.Pracs.---Representation and Presentation of Product Manufa
cturing Information (PMI)---4.0---2014-10-13','STEP AP242 Edition 2''CAx-IF Rec.Pracs.---Representation and Presentation of Product Manufa
cturing Information (PMI)---4.0---2014-10-13''CAx-IF Rec.Pracs.---3D Tessellated Geometry---0.4---2014-09-14','STEP AP242 Edition 2''CAx-IF Rec.Pracs.---Representation and Presentation of Product Manufa
cturing Information (PMI)---4.0---2014-10-13''CAx-IF Rec.Pracs.---3D Tessellated Geometry---0.4---2014-09-14''2;1','STEP AP242 Edition 2''CAx-IF Rec.Pracs.---Representation and Presentation of Product Manufa
cturing Information (PMI)---4.0---2014-10-13''CAx-IF Rec.Pracs.---3D Tessellated Geometry---0.4---2014-09-14''2;1''CAx-IF Rec.Pracs.---User Defined Attributes---1.5---2016-08-15'),'2;1');
/*name */
/*time_stamp */
/*author */
/*organization */
/*preprocessor_version */
/*originating_system */
/*authorisation */
FILE_NAME('/vol/tmp/translate-14643870572107385444/1-2W Res - Axial Resistor.step','2026-03-05T17:18:56',(''),(''),'ST-DEVELOPER v20','ONSHAPE BY PTC INC, 1.211','  ');
FILE_SCHEMA(('AP242_MANAGED_MODEL_BASED_3D_ENGINEERING_MIM_LF { 1 0 10303 442 3 1 4 }'));
ENDSEC;
DATA;
#10=SHAPE_REPRESENTATION_RELATIONSHIP('','',#254,#11);
#11=ADVANCED_BREP_SHAPE_REPRESENTATION('',(#252),#562);
#12=SPHERICAL_SURFACE('',#277,0.0003);
#13=SPHERICAL_SURFACE('',#278,0.0003);
#14=PLANE('',#272);
#15=PLANE('',#276);
#16=B_SPLINE_SURFACE_WITH_KNOTS('',3,3,((#335,#336,#337,#338,#339,#340,
#341,#342,#343,#344,#345),(#346,#347,#348,#349,#350,#351,#352,#353,#354,
#355,#356),(#357,#358,#359,#360,#361,#362,#363,#364,#365,#366,#367),(#368,
#369,#370,#371,#372,#373,#374,#375,#376,#377,#378)),.UNSPECIFIED.,.F.,.T.,.F.,(4,4),(1,1,1,1,1,1,1,1,1,1,1,1,1,1,1),(0.,1.),(-2.35619449019234,-1.5707963267949,-0.785398163397448,0.,0.785398163397448,1.5707963267949,2.35619449019234,3.14159265358979,3.92699081698724,4.71238898038469,5.49778714378214,6.28318530717959,7.06858347057703,7.85398163397448,8.63937979737193),.UNSPECIFIED.);
#17=B_SPLINE_SURFACE_WITH_KNOTS('',3,3,((#386,#387,#388,#389,#390,#391,
#392,#393,#394,#395,#396),(#397,#398,#399,#400,#401,#402,#403,#404,#405,
#406,#407),(#408,#409,#410,#411,#412,#413,#414,#415,#416,#417,#418),(#419,
#420,#421,#422,#423,#424,#425,#426,#427,#428,#429)),.UNSPECIFIED.,.F.,.T.,.F.,(4,4),(1,1,1,1,1,1,1,1,1,1,1,1,1,1,1),(0.,1.),(-2.35619449019234,-1.5707963267949,-0.785398163397448,0.,0.785398163397448,1.5707963267949,2.35619449019234,3.14159265358979,3.92699081698724,4.71238898038469,5.49778714378214,6.28318530717959,7.06858347057703,7.85398163397448,8.63937979737193),.UNSPECIFIED.);
#18=B_SPLINE_SURFACE_WITH_KNOTS('',3,3,((#432,#433,#434,#435,#436,#437,
#438,#439,#440,#441,#442),(#443,#444,#445,#446,#447,#448,#449,#450,#451,
#452,#453),(#454,#455,#456,#457,#458,#459,#460,#461,#462,#463,#464),(#465,
#466,#467,#468,#469,#470,#471,#472,#473,#474,#475),(#476,#477,#478,#479,
#480,#481,#482,#483,#484,#485,#486)),.UNSPECIFIED.,.F.,.T.,.F.,(4,1,4),(1,1,1,1,1,1,1,1,1,1,1,1,1,1,1),(3.14159265358979,3.83557324849079,4.52955384339178),(-2.35619449019234,-1.5707963267949,-0.785398163397448,0.,0.785398163397448,1.5707963267949,2.35619449019234,3.14159265358979,3.92699081698724,4.71238898038469,5.49778714378214,6.28318530717959,7.06858347057703,7.85398163397448,8.63937979737193),.UNSPECIFIED.);
#19=B_SPLINE_SURFACE_WITH_KNOTS('',3,3,((#494,#495,#496,#497,#498,#499,
#500,#501,#502,#503,#504),(#505,#506,#507,#508,#509,#510,#511,#512,#513,
#514,#515),(#516,#517,#518,#519,#520,#521,#522,#523,#524,#525,#526),(#527,
#528,#529,#530,#531,#532,#533,#534,#535,#536,#537),(#538,#539,#540,#541,
#542,#543,#544,#545,#546,#547,#548)),.UNSPECIFIED.,.F.,.T.,.F.,(4,1,4),(1,1,1,1,1,1,1,1,1,1,1,1,1,1,1),(4.8952241173776,5.58920471227859,6.28318530717959),(-2.35619449019234,-1.5707963267949,-0.785398163397448,0.,0.785398163397448,1.5707963267949,2.35619449019234,3.14159265358979,3.92699081698724,4.71238898038469,5.49778714378214,6.28318530717959,7.06858347057703,7.85398163397448,8.63937979737193),.UNSPECIFIED.);
#20=ELLIPSE('',#259,0.000424264068711929,0.0003);
#21=ELLIPSE('',#268,0.000424264068711928,0.0003);
#22=ORIENTED_EDGE('',*,*,#50,.T.);
#23=ORIENTED_EDGE('',*,*,#51,.F.);
#24=ORIENTED_EDGE('',*,*,#52,.T.);
#25=ORIENTED_EDGE('',*,*,#53,.F.);
#26=ORIENTED_EDGE('',*,*,#54,.T.);
#27=ORIENTED_EDGE('',*,*,#55,.F.);
#28=ORIENTED_EDGE('',*,*,#53,.T.);
#29=ORIENTED_EDGE('',*,*,#55,.T.);
#30=ORIENTED_EDGE('',*,*,#56,.F.);
#31=ORIENTED_EDGE('',*,*,#50,.F.);
#32=ORIENTED_EDGE('',*,*,#56,.T.);
#33=ORIENTED_EDGE('',*,*,#57,.F.);
#34=ORIENTED_EDGE('',*,*,#58,.T.);
#35=ORIENTED_EDGE('',*,*,#59,.T.);
#36=ORIENTED_EDGE('',*,*,#54,.F.);
#37=ORIENTED_EDGE('',*,*,#57,.T.);
#38=ORIENTED_EDGE('',*,*,#60,.T.);
#39=ORIENTED_EDGE('',*,*,#59,.F.);
#40=ORIENTED_EDGE('',*,*,#61,.F.);
#41=ORIENTED_EDGE('',*,*,#60,.F.);
#42=ORIENTED_EDGE('',*,*,#52,.F.);
#43=ORIENTED_EDGE('',*,*,#62,.T.);
#44=ORIENTED_EDGE('',*,*,#63,.F.);
#45=ORIENTED_EDGE('',*,*,#63,.T.);
#46=ORIENTED_EDGE('',*,*,#51,.T.);
#47=ORIENTED_EDGE('',*,*,#62,.F.);
#48=ORIENTED_EDGE('',*,*,#61,.T.);
#49=ORIENTED_EDGE('',*,*,#58,.F.);
#50=EDGE_CURVE('',#64,#64,#76,.T.);
#51=EDGE_CURVE('',#65,#66,#77,.T.);
#52=EDGE_CURVE('',#65,#66,#20,.F.);
#53=EDGE_CURVE('',#67,#67,#78,.T.);
#54=EDGE_CURVE('',#68,#68,#79,.T.);
#55=EDGE_CURVE('',#69,#69,#80,.T.);
#56=EDGE_CURVE('',#70,#70,#81,.T.);
#57=EDGE_CURVE('',#71,#71,#82,.T.);
#58=EDGE_CURVE('',#72,#73,#83,.T.);
#59=EDGE_CURVE('',#73,#72,#21,.T.);
#60=EDGE_CURVE('',#74,#74,#84,.T.);
#61=EDGE_CURVE('',#72,#73,#85,.T.);
#62=EDGE_CURVE('',#65,#66,#86,.T.);
#63=EDGE_CURVE('',#75,#75,#87,.T.);
#64=VERTEX_POINT('',#330);
#65=VERTEX_POINT('',#332);
#66=VERTEX_POINT('',#333);
#67=VERTEX_POINT('',#380);
#68=VERTEX_POINT('',#382);
#69=VERTEX_POINT('',#385);
#70=VERTEX_POINT('',#431);
#71=VERTEX_POINT('',#489);
#72=VERTEX_POINT('',#491);
#73=VERTEX_POINT('',#492);
#74=VERTEX_POINT('',#551);
#75=VERTEX_POINT('',#557);
#76=CIRCLE('',#257,0.0003);
#77=CIRCLE('',#258,0.0003);
#78=CIRCLE('',#260,0.001);
#79=CIRCLE('',#261,0.00165);
#80=CIRCLE('',#263,0.001);
#81=CIRCLE('',#264,0.00165);
#82=CIRCLE('',#266,0.0003);
#83=CIRCLE('',#267,0.0003);
#84=CIRCLE('',#270,0.0003);
#85=CIRCLE('',#271,0.0003);
#86=CIRCLE('',#274,0.0003);
#87=CIRCLE('',#275,0.0003);
#88=EDGE_LOOP('',(#22));
#89=EDGE_LOOP('',(#23,#24));
#90=EDGE_LOOP('',(#25));
#91=EDGE_LOOP('',(#26));
#92=EDGE_LOOP('',(#27));
#93=EDGE_LOOP('',(#28));
#94=EDGE_LOOP('',(#29));
#95=EDGE_LOOP('',(#30));
#96=EDGE_LOOP('',(#31));
#97=EDGE_LOOP('',(#32));
#98=EDGE_LOOP('',(#33));
#99=EDGE_LOOP('',(#34,#35));
#100=EDGE_LOOP('',(#36));
#101=EDGE_LOOP('',(#37));
#102=EDGE_LOOP('',(#38));
#103=EDGE_LOOP('',(#39,#40));
#104=EDGE_LOOP('',(#41));
#105=EDGE_LOOP('',(#42,#43));
#106=EDGE_LOOP('',(#44));
#107=EDGE_LOOP('',(#45));
#108=EDGE_LOOP('',(#46,#47));
#109=EDGE_LOOP('',(#48,#49));
#110=FACE_BOUND('',#88,.T.);
#111=FACE_BOUND('',#89,.T.);
#112=FACE_BOUND('',#90,.T.);
#113=FACE_BOUND('',#91,.T.);
#114=FACE_BOUND('',#92,.T.);
#115=FACE_BOUND('',#93,.T.);
#116=FACE_BOUND('',#94,.T.);
#117=FACE_BOUND('',#95,.T.);
#118=FACE_BOUND('',#96,.T.);
#119=FACE_BOUND('',#97,.T.);
#120=FACE_BOUND('',#98,.T.);
#121=FACE_BOUND('',#99,.T.);
#122=FACE_BOUND('',#100,.T.);
#123=FACE_BOUND('',#101,.T.);
#124=FACE_BOUND('',#102,.T.);
#125=FACE_BOUND('',#103,.T.);
#126=FACE_BOUND('',#104,.T.);
#127=FACE_BOUND('',#105,.T.);
#128=FACE_BOUND('',#106,.T.);
#129=FACE_BOUND('',#107,.T.);
#130=FACE_BOUND('',#108,.T.);
#131=FACE_BOUND('',#109,.T.);
#132=CYLINDRICAL_SURFACE('',#256,0.0003);
#133=CYLINDRICAL_SURFACE('',#262,0.001);
#134=CYLINDRICAL_SURFACE('',#265,0.0003);
#135=CYLINDRICAL_SURFACE('',#269,0.0003);
#136=CYLINDRICAL_SURFACE('',#273,0.0003);
#137=OVER_RIDING_STYLED_ITEM('',(#166),#150,#164);
#138=OVER_RIDING_STYLED_ITEM('',(#167),#151,#164);
#139=OVER_RIDING_STYLED_ITEM('',(#168),#152,#164);
#140=OVER_RIDING_STYLED_ITEM('',(#169),#153,#164);
#141=OVER_RIDING_STYLED_ITEM('',(#170),#154,#164);
#142=OVER_RIDING_STYLED_ITEM('',(#171),#155,#164);
#143=OVER_RIDING_STYLED_ITEM('',(#172),#156,#164);
#144=OVER_RIDING_STYLED_ITEM('',(#173),#157,#164);
#145=OVER_RIDING_STYLED_ITEM('',(#174),#158,#164);
#146=OVER_RIDING_STYLED_ITEM('',(#175),#159,#164);
#147=OVER_RIDING_STYLED_ITEM('',(#176),#160,#164);
#148=OVER_RIDING_STYLED_ITEM('',(#177),#161,#164);
#149=OVER_RIDING_STYLED_ITEM('',(#178),#162,#164);
#150=ADVANCED_FACE('Face appearance 3',(#110,#111),#132,.T.);
#151=ADVANCED_FACE('Face appearance 2',(#112,#113),#16,.F.);
#152=ADVANCED_FACE('Face appearance 2',(#114,#115),#133,.T.);
#153=ADVANCED_FACE('Face appearance 2',(#116,#117),#17,.T.);
#154=ADVANCED_FACE('Face appearance 2',(#118,#119),#18,.F.);
#155=ADVANCED_FACE('Face appearance 1',(#120,#121),#134,.T.);
#156=ADVANCED_FACE('Face appearance 2',(#122,#123),#19,.F.);
#157=ADVANCED_FACE('Face appearance 1',(#124,#125),#135,.T.);
#158=ADVANCED_FACE('Face appearance 1',(#126),#14,.F.);
#159=ADVANCED_FACE('Face appearance 1',(#127,#128),#136,.T.);
#160=ADVANCED_FACE('Face appearance 1',(#129),#15,.F.);
#161=ADVANCED_FACE('Face appearance 1',(#130),#12,.T.);
#162=ADVANCED_FACE('Face appearance 1',(#131),#13,.T.);
#163=CLOSED_SHELL('',(#150,#151,#152,#153,#154,#155,#156,#157,#158,#159,#160,#161,#162));
#164=STYLED_ITEM('',(#165),#252);
#165=PRESENTATION_STYLE_ASSIGNMENT((#179));
#166=PRESENTATION_STYLE_ASSIGNMENT((#180));
#167=PRESENTATION_STYLE_ASSIGNMENT((#181));
#168=PRESENTATION_STYLE_ASSIGNMENT((#182));
#169=PRESENTATION_STYLE_ASSIGNMENT((#183));
#170=PRESENTATION_STYLE_ASSIGNMENT((#184));
#171=PRESENTATION_STYLE_ASSIGNMENT((#185));
#172=PRESENTATION_STYLE_ASSIGNMENT((#186));
#173=PRESENTATION_STYLE_ASSIGNMENT((#187));
#174=PRESENTATION_STYLE_ASSIGNMENT((#188));
#175=PRESENTATION_STYLE_ASSIGNMENT((#189));
#176=PRESENTATION_STYLE_ASSIGNMENT((#190));
#177=PRESENTATION_STYLE_ASSIGNMENT((#191));
#178=PRESENTATION_STYLE_ASSIGNMENT((#192));
#179=SURFACE_STYLE_USAGE(.BOTH.,#193);
#180=SURFACE_STYLE_USAGE(.BOTH.,#194);
#181=SURFACE_STYLE_USAGE(.BOTH.,#195);
#182=SURFACE_STYLE_USAGE(.BOTH.,#196);
#183=SURFACE_STYLE_USAGE(.BOTH.,#197);
#184=SURFACE_STYLE_USAGE(.BOTH.,#198);
#185=SURFACE_STYLE_USAGE(.BOTH.,#199);
#186=SURFACE_STYLE_USAGE(.BOTH.,#200);
#187=SURFACE_STYLE_USAGE(.BOTH.,#201);
#188=SURFACE_STYLE_USAGE(.BOTH.,#202);
#189=SURFACE_STYLE_USAGE(.BOTH.,#203);
#190=SURFACE_STYLE_USAGE(.BOTH.,#204);
#191=SURFACE_STYLE_USAGE(.BOTH.,#205);
#192=SURFACE_STYLE_USAGE(.BOTH.,#206);
#193=SURFACE_SIDE_STYLE('',(#207));
#194=SURFACE_SIDE_STYLE('',(#208));
#195=SURFACE_SIDE_STYLE('',(#209));
#196=SURFACE_SIDE_STYLE('',(#210));
#197=SURFACE_SIDE_STYLE('',(#211));
#198=SURFACE_SIDE_STYLE('',(#212));
#199=SURFACE_SIDE_STYLE('',(#213));
#200=SURFACE_SIDE_STYLE('',(#214));
#201=SURFACE_SIDE_STYLE('',(#215));
#202=SURFACE_SIDE_STYLE('',(#216));
#203=SURFACE_SIDE_STYLE('',(#217));
#204=SURFACE_SIDE_STYLE('',(#218));
#205=SURFACE_SIDE_STYLE('',(#219));
#206=SURFACE_SIDE_STYLE('',(#220));
#207=SURFACE_STYLE_FILL_AREA(#221);
#208=SURFACE_STYLE_FILL_AREA(#222);
#209=SURFACE_STYLE_FILL_AREA(#223);
#210=SURFACE_STYLE_FILL_AREA(#224);
#211=SURFACE_STYLE_FILL_AREA(#225);
#212=SURFACE_STYLE_FILL_AREA(#226);
#213=SURFACE_STYLE_FILL_AREA(#227);
#214=SURFACE_STYLE_FILL_AREA(#228);
#215=SURFACE_STYLE_FILL_AREA(#229);
#216=SURFACE_STYLE_FILL_AREA(#230);
#217=SURFACE_STYLE_FILL_AREA(#231);
#218=SURFACE_STYLE_FILL_AREA(#232);
#219=SURFACE_STYLE_FILL_AREA(#233);
#220=SURFACE_STYLE_FILL_AREA(#234);
#221=FILL_AREA_STYLE('',(#235));
#222=FILL_AREA_STYLE('',(#236));
#223=FILL_AREA_STYLE('',(#237));
#224=FILL_AREA_STYLE('',(#238));
#225=FILL_AREA_STYLE('',(#239));
#226=FILL_AREA_STYLE('',(#240));
#227=FILL_AREA_STYLE('',(#241));
#228=FILL_AREA_STYLE('',(#242));
#229=FILL_AREA_STYLE('',(#243));
#230=FILL_AREA_STYLE('',(#244));
#231=FILL_AREA_STYLE('',(#245));
#232=FILL_AREA_STYLE('',(#246));
#233=FILL_AREA_STYLE('',(#247));
#234=FILL_AREA_STYLE('',(#248));
#235=FILL_AREA_STYLE_COLOUR('',#249);
#236=FILL_AREA_STYLE_COLOUR('',#250);
#237=FILL_AREA_STYLE_COLOUR('',#251);
#238=FILL_AREA_STYLE_COLOUR('',#251);
#239=FILL_AREA_STYLE_COLOUR('',#251);
#240=FILL_AREA_STYLE_COLOUR('',#251);
#241=FILL_AREA_STYLE_COLOUR('',#250);
#242=FILL_AREA_STYLE_COLOUR('',#251);
#243=FILL_AREA_STYLE_COLOUR('',#250);
#244=FILL_AREA_STYLE_COLOUR('',#250);
#245=FILL_AREA_STYLE_COLOUR('',#250);
#246=FILL_AREA_STYLE_COLOUR('',#250);
#247=FILL_AREA_STYLE_COLOUR('',#250);
#248=FILL_AREA_STYLE_COLOUR('',#250);
#249=COLOUR_RGB('',0.615686274509804,0.811764705882353,0.929411764705882);
#250=COLOUR_RGB('',0.917647058823529,0.917647058823529,0.917647058823529);
#251=COLOUR_RGB('',0.870588235294118,0.784313725490196,0.686274509803922);
#252=MANIFOLD_SOLID_BREP('Axial Resistor',#163);
#253=SHAPE_DEFINITION_REPRESENTATION(#567,#254);
#254=SHAPE_REPRESENTATION('Axial Resistor',(#255),#562);
#255=AXIS2_PLACEMENT_3D('',#327,#279,#280);
#256=AXIS2_PLACEMENT_3D('',#328,#281,#282);
#257=AXIS2_PLACEMENT_3D('',#329,#283,#284);
#258=AXIS2_PLACEMENT_3D('',#331,#285,#286);
#259=AXIS2_PLACEMENT_3D('',#334,#287,#288);
#260=AXIS2_PLACEMENT_3D('',#379,#289,#290);
#261=AXIS2_PLACEMENT_3D('',#381,#291,#292);
#262=AXIS2_PLACEMENT_3D('',#383,#293,#294);
#263=AXIS2_PLACEMENT_3D('',#384,#295,#296);
#264=AXIS2_PLACEMENT_3D('',#430,#297,#298);
#265=AXIS2_PLACEMENT_3D('',#487,#299,#300);
#266=AXIS2_PLACEMENT_3D('',#488,#301,#302);
#267=AXIS2_PLACEMENT_3D('',#490,#303,#304);
#268=AXIS2_PLACEMENT_3D('',#493,#305,#306);
#269=AXIS2_PLACEMENT_3D('',#549,#307,#308);
#270=AXIS2_PLACEMENT_3D('',#550,#309,#310);
#271=AXIS2_PLACEMENT_3D('',#552,#311,#312);
#272=AXIS2_PLACEMENT_3D('',#553,#313,#314);
#273=AXIS2_PLACEMENT_3D('',#554,#315,#316);
#274=AXIS2_PLACEMENT_3D('',#555,#317,#318);
#275=AXIS2_PLACEMENT_3D('',#556,#319,#320);
#276=AXIS2_PLACEMENT_3D('',#558,#321,#322);
#277=AXIS2_PLACEMENT_3D('',#559,#323,#324);
#278=AXIS2_PLACEMENT_3D('',#560,#325,#326);
#279=DIRECTION('',(0.,0.,1.));
#280=DIRECTION('',(1.,0.,0.));
#281=DIRECTION('',(-1.,-6.12323399573677E-17,0.));
#282=DIRECTION('',(-6.12323399573677E-17,1.,0.));
#283=DIRECTION('',(-1.,-6.12323399573677E-17,0.));
#284=DIRECTION('',(-6.12323399573677E-17,1.,0.));
#285=DIRECTION('',(-1.,-6.12323399573677E-17,0.));
#286=DIRECTION('',(-6.12323399573677E-17,1.,0.));
#287=DIRECTION('',(-0.707106781186548,-0.707106781186548,0.));
#288=DIRECTION('',(-0.707106781186548,0.707106781186548,0.));
#289=DIRECTION('',(-1.,-6.12323399573677E-17,0.));
#290=DIRECTION('',(-6.12323399573677E-17,1.,0.));
#291=DIRECTION('',(-1.,-6.12323399573677E-17,0.));
#292=DIRECTION('',(-6.12323399573677E-17,1.,0.));
#293=DIRECTION('',(-1.,-6.12323399573677E-17,0.));
#294=DIRECTION('',(-6.12323399573677E-17,1.,0.));
#295=DIRECTION('',(-1.,-6.12323399573677E-17,0.));
#296=DIRECTION('',(-6.12323399573677E-17,1.,0.));
#297=DIRECTION('',(-1.,-6.12323399573677E-17,0.));
#298=DIRECTION('',(-6.12323399573677E-17,1.,0.));
#299=DIRECTION('',(-1.,-6.12323399573677E-17,0.));
#300=DIRECTION('',(-6.12323399573677E-17,1.,0.));
#301=DIRECTION('',(-1.,-6.12323399573677E-17,0.));
#302=DIRECTION('',(-6.12323399573677E-17,1.,0.));
#303=DIRECTION('',(-1.,-6.12323399573677E-17,0.));
#304=DIRECTION('',(-6.12323399573677E-17,1.,0.));
#305=DIRECTION('',(-0.707106781186548,0.707106781186548,0.));
#306=DIRECTION('',(-0.707106781186548,-0.707106781186548,0.));
#307=DIRECTION('',(0.,1.,0.));
#308=DIRECTION('',(1.,0.,0.));
#309=DIRECTION('',(0.,1.,0.));
#310=DIRECTION('',(1.,0.,0.));
#311=DIRECTION('',(0.,1.,0.));
#312=DIRECTION('',(1.,0.,0.));
#313=DIRECTION('',(0.,1.,0.));
#314=DIRECTION('',(1.,0.,0.));
#315=DIRECTION('',(0.,1.,0.));
#316=DIRECTION('',(1.,0.,0.));
#317=DIRECTION('',(0.,-1.,0.));
#318=DIRECTION('',(1.,0.,0.));
#319=DIRECTION('',(0.,-1.,0.));
#320=DIRECTION('',(1.,0.,0.));
#321=DIRECTION('',(0.,1.,0.));
#322=DIRECTION('',(1.,0.,0.));
#323=DIRECTION('',(0.,0.,1.));
#324=DIRECTION('',(6.12323399573677E-17,-1.,0.));
#325=DIRECTION('',(0.,-5.77625073597835E-16,-1.));
#326=DIRECTION('',(-6.12323399573677E-17,-1.,5.77625073597835E-16));
#327=CARTESIAN_POINT('',(0.,0.,0.));
#328=CARTESIAN_POINT('',(0.,-2.58138349891623E-19,0.));
#329=CARTESIAN_POINT('',(-0.00497916520754454,-5.63024286583887E-19,0.));
#330=CARTESIAN_POINT('',(-0.00497916520754454,0.000299999999999999,0.));
#331=CARTESIAN_POINT('',(-0.00581,-6.13898245043928E-19,0.));
#332=CARTESIAN_POINT('',(-0.00581,0.,0.0003));
#333=CARTESIAN_POINT('',(-0.00581,0.,-0.0003));
#334=CARTESIAN_POINT('',(-0.00581,-5.23789557019065E-19,7.02334939311007E-19));
#335=CARTESIAN_POINT('',(0.00375,0.00129295918107052,0.00129295918107052));
#336=CARTESIAN_POINT('',(0.00375,0.00182852040946474,3.25260651745651E-19));
#337=CARTESIAN_POINT('',(0.00375,0.00129295918107052,-0.00129295918107052));
#338=CARTESIAN_POINT('',(0.00375,2.57498015965307E-19,-0.00182852040946474));
#339=CARTESIAN_POINT('',(0.00375,-0.00129295918107052,-0.00129295918107052));
#340=CARTESIAN_POINT('',(0.00375,-0.00182852040946474,-2.28275379285034E-19));
#341=CARTESIAN_POINT('',(0.00375,-0.00129295918107052,0.00129295918107052));
#342=CARTESIAN_POINT('',(0.00375,-1.01643953670516E-18,0.00182852040946474));
#343=CARTESIAN_POINT('',(0.00375,0.00129295918107052,0.00129295918107052));
#344=CARTESIAN_POINT('',(0.00375,0.00182852040946474,3.25260651745651E-19));
#345=CARTESIAN_POINT('',(0.00375,0.00129295918107052,-0.00129295918107052));
#346=CARTESIAN_POINT('',(0.00347767043279333,0.00131971161322374,0.00131971161322373));
#347=CARTESIAN_POINT('',(0.00347767043279333,0.00186635406184228,1.0842021724855E-19));
#348=CARTESIAN_POINT('',(0.00347767043279333,0.00131971161322373,-0.00131971161322373));
#349=CARTESIAN_POINT('',(0.00347767043279333,5.42101086242752E-20,-0.00186635406184228));
#350=CARTESIAN_POINT('',(0.00347767043279333,-0.00131971161322373,-0.00131971161322373));
#351=CARTESIAN_POINT('',(0.00347767043279333,-0.00186635406184228,-7.15742840429884E-20));
#352=CARTESIAN_POINT('',(0.00347767043279333,-0.00131971161322373,0.00131971161322373));
#353=CARTESIAN_POINT('',(0.00347767043279333,-1.39591029707509E-18,0.00186635406184228));
#354=CARTESIAN_POINT('',(0.00347767043279333,0.00131971161322374,0.00131971161322373));
#355=CARTESIAN_POINT('',(0.00347767043279333,0.00186635406184228,1.0842021724855E-19));
#356=CARTESIAN_POINT('',(0.00347767043279333,0.00131971161322373,-0.00131971161322373));
#357=CARTESIAN_POINT('',(0.00296429123744336,0.000749792677047351,0.00074979267704735));
#358=CARTESIAN_POINT('',(0.00296429123744336,0.00106036697284839,1.62630325872826E-19));
#359=CARTESIAN_POINT('',(0.00296429123744336,0.00074979267704735,-0.000749792677047351));
#360=CARTESIAN_POINT('',(0.00296429123744336,4.33680868994202E-19,-0.00106036697284839));
#361=CARTESIAN_POINT('',(0.00296429123744336,-0.000749792677047351,-0.00074979267704735));
#362=CARTESIAN_POINT('',(0.00296429123744336,-0.00106036697284839,-3.05567135721989E-19));
#363=CARTESIAN_POINT('',(0.00296429123744336,-0.000749792677047351,0.000749792677047351));
#364=CARTESIAN_POINT('',(0.00296429123744336,-5.6920614055489E-19,0.00106036697284839));
#365=CARTESIAN_POINT('',(0.00296429123744336,0.000749792677047351,0.00074979267704735));
#366=CARTESIAN_POINT('',(0.00296429123744336,0.00106036697284839,1.62630325872826E-19));
#367=CARTESIAN_POINT('',(0.00296429123744336,0.00074979267704735,-0.000749792677047351));
#368=CARTESIAN_POINT('',(0.0025,0.000783611624891225,0.000783611624891224));
#369=CARTESIAN_POINT('',(0.0025,0.00110819418755439,2.16840434497101E-19));
#370=CARTESIAN_POINT('',(0.0025,0.000783611624891225,-0.000783611624891225));
#371=CARTESIAN_POINT('',(0.0025,2.98155597433514E-19,-0.00110819418755439));
#372=CARTESIAN_POINT('',(0.0025,-0.000783611624891224,-0.000783611624891224));
#373=CARTESIAN_POINT('',(0.0025,-0.00110819418755439,-2.17899225681169E-19));
#374=CARTESIAN_POINT('',(0.0025,-0.000783611624891224,0.000783611624891224));
#375=CARTESIAN_POINT('',(0.0025,-6.09863722023096E-19,0.00110819418755439));
#376=CARTESIAN_POINT('',(0.0025,0.000783611624891225,0.000783611624891224));
#377=CARTESIAN_POINT('',(0.0025,0.00110819418755439,2.16840434497101E-19));
#378=CARTESIAN_POINT('',(0.0025,0.000783611624891225,-0.000783611624891225));
#379=CARTESIAN_POINT('',(0.0025,-1.05057499998203E-19,0.));
#380=CARTESIAN_POINT('',(0.0025,0.001,0.));
#381=CARTESIAN_POINT('',(0.00375,-2.85170750514936E-20,0.));
#382=CARTESIAN_POINT('',(0.00375,0.00165,0.));
#383=CARTESIAN_POINT('',(0.,-2.58138349891623E-19,0.));
#384=CARTESIAN_POINT('',(-0.0025,-4.11219199785041E-19,0.));
#385=CARTESIAN_POINT('',(-0.0025,0.001,0.));
#386=CARTESIAN_POINT('',(-0.00375,0.00129295918107052,0.00129295918107052));
#387=CARTESIAN_POINT('',(-0.00375,0.00182852040946474,4.87890977618477E-19));
#388=CARTESIAN_POINT('',(-0.00375,0.00129295918107052,-0.00129295918107052));
#389=CARTESIAN_POINT('',(-0.00375,-6.7762635780344E-21,-0.00182852040946474));
#390=CARTESIAN_POINT('',(-0.00375,-0.00129295918107052,-0.00129295918107052));
#391=CARTESIAN_POINT('',(-0.00375,-0.00182852040946474,-2.27004829864152E-19));
#392=CARTESIAN_POINT('',(-0.00375,-0.00129295918107052,0.00129295918107052));
#393=CARTESIAN_POINT('',(-0.00375,-1.45012040569936E-18,0.00182852040946474));
#394=CARTESIAN_POINT('',(-0.00375,0.00129295918107052,0.00129295918107052));
#395=CARTESIAN_POINT('',(-0.00375,0.00182852040946474,4.87890977618477E-19));
#396=CARTESIAN_POINT('',(-0.00375,0.00129295918107052,-0.00129295918107052));
#397=CARTESIAN_POINT('',(-0.00347767043279333,0.00131971161322374,0.00131971161322373));
#398=CARTESIAN_POINT('',(-0.00347767043279333,0.00186635406184228,4.33680868994202E-19));
#399=CARTESIAN_POINT('',(-0.00347767043279333,0.00131971161322373,-0.00131971161322373));
#400=CARTESIAN_POINT('',(-0.00347767043279333,-3.3881317890172E-20,-0.00186635406184228));
#401=CARTESIAN_POINT('',(-0.00347767043279333,-0.00131971161322373,-0.00131971161322373));
#402=CARTESIAN_POINT('',(-0.00347767043279333,-0.00186635406184228,-4.16740210049116E-19));
#403=CARTESIAN_POINT('',(-0.00347767043279333,-0.00131971161322373,0.00131971161322373));
#404=CARTESIAN_POINT('',(-0.00347767043279333,-1.74827600313288E-18,0.00186635406184228));
#405=CARTESIAN_POINT('',(-0.00347767043279333,0.00131971161322374,0.00131971161322373));
#406=CARTESIAN_POINT('',(-0.00347767043279333,0.00186635406184228,4.33680868994202E-19));
#407=CARTESIAN_POINT('',(-0.00347767043279333,0.00131971161322373,-0.00131971161322373));
#408=CARTESIAN_POINT('',(-0.00296429123744336,0.000749792677047352,0.000749792677047351));
#409=CARTESIAN_POINT('',(-0.00296429123744336,0.00106036697284839,1.0842021724855E-19));
#410=CARTESIAN_POINT('',(-0.00296429123744336,0.000749792677047351,-0.000749792677047351));
#411=CARTESIAN_POINT('',(-0.00296429123744336,-7.45388993583784E-20,-0.00106036697284839));
#412=CARTESIAN_POINT('',(-0.00296429123744336,-0.000749792677047352,-0.000749792677047351));
#413=CARTESIAN_POINT('',(-0.00296429123744336,-0.00106036697284839,-2.63850763069715E-19));
#414=CARTESIAN_POINT('',(-0.00296429123744336,-0.000749792677047352,0.000749792677047351));
#415=CARTESIAN_POINT('',(-0.00296429123744336,-1.19262238973405E-18,0.00106036697284839));
#416=CARTESIAN_POINT('',(-0.00296429123744336,0.000749792677047352,0.000749792677047351));
#417=CARTESIAN_POINT('',(-0.00296429123744336,0.00106036697284839,1.0842021724855E-19));
#418=CARTESIAN_POINT('',(-0.00296429123744336,0.000749792677047351,-0.000749792677047351));
#419=CARTESIAN_POINT('',(-0.0025,0.000783611624891225,0.000783611624891224));
#420=CARTESIAN_POINT('',(-0.0025,0.00110819418755439,2.43945488809238E-19));
#421=CARTESIAN_POINT('',(-0.0025,0.000783611624891224,-0.000783611624891225));
#422=CARTESIAN_POINT('',(-0.0025,-7.45388993583784E-20,-0.00110819418755439));
#423=CARTESIAN_POINT('',(-0.0025,-0.000783611624891225,-0.000783611624891225));
#424=CARTESIAN_POINT('',(-0.0025,-0.00110819418755439,-8.68208770935658E-20));
#425=CARTESIAN_POINT('',(-0.0025,-0.000783611624891225,0.000783611624891225));
#426=CARTESIAN_POINT('',(-0.0025,-8.80914265144472E-19,0.00110819418755439));
#427=CARTESIAN_POINT('',(-0.0025,0.000783611624891225,0.000783611624891224));
#428=CARTESIAN_POINT('',(-0.0025,0.00110819418755439,2.43945488809238E-19));
#429=CARTESIAN_POINT('',(-0.0025,0.000783611624891224,-0.000783611624891225));
#430=CARTESIAN_POINT('',(-0.00375,-4.87759624731751E-19,0.));
#431=CARTESIAN_POINT('',(-0.00375,0.00165,0.));
#432=CARTESIAN_POINT('',(-0.00375,0.00129295918107052,0.00129295918107052));
#433=CARTESIAN_POINT('',(-0.00375,0.00182852040946474,4.87890977618477E-19));
#434=CARTESIAN_POINT('',(-0.00375,0.00129295918107052,-0.00129295918107052));
#435=CARTESIAN_POINT('',(-0.00375,-6.7762635780344E-21,-0.00182852040946474));
#436=CARTESIAN_POINT('',(-0.00375,-0.00129295918107052,-0.00129295918107052));
#437=CARTESIAN_POINT('',(-0.00375,-0.00182852040946474,-2.27004829864152E-19));
#438=CARTESIAN_POINT('',(-0.00375,-0.00129295918107052,0.00129295918107052));
#439=CARTESIAN_POINT('',(-0.00375,-1.45012040569936E-18,0.00182852040946474));
#440=CARTESIAN_POINT('',(-0.00375,0.00129295918107052,0.00129295918107052));
#441=CARTESIAN_POINT('',(-0.00375,0.00182852040946474,4.87890977618477E-19));
#442=CARTESIAN_POINT('',(-0.00375,0.00129295918107052,-0.00129295918107052));
#443=CARTESIAN_POINT('',(-0.00403948826686154,0.00129434550041097,0.00129434550041096));
#444=CARTESIAN_POINT('',(-0.00403948826686154,0.00183048096107778,2.16840434497101E-19));
#445=CARTESIAN_POINT('',(-0.00403948826686154,0.00129434550041096,-0.00129434550041096));
#446=CARTESIAN_POINT('',(-0.00403948826686154,-2.64274279543342E-19,-0.00183048096107778));
#447=CARTESIAN_POINT('',(-0.00403948826686154,-0.00129434550041096,-0.00129434550041096));
#448=CARTESIAN_POINT('',(-0.00403948826686154,-0.00183048096107778,-2.60462631280697E-19));
#449=CARTESIAN_POINT('',(-0.00403948826686154,-0.00129434550041096,0.00129434550041096));
#450=CARTESIAN_POINT('',(-0.00403948826686154,-1.70761842166467E-18,0.00183048096107778));
#451=CARTESIAN_POINT('',(-0.00403948826686154,0.00129434550041097,0.00129434550041096));
#452=CARTESIAN_POINT('',(-0.00403948826686154,0.00183048096107778,2.16840434497101E-19));
#453=CARTESIAN_POINT('',(-0.00403948826686154,0.00129434550041096,-0.00129434550041096));
#454=CARTESIAN_POINT('',(-0.00461533679112211,0.00107574761421346,0.00107574761421346));
#455=CARTESIAN_POINT('',(-0.00461533679112211,0.00152133686571118,2.71050543121376E-19));
#456=CARTESIAN_POINT('',(-0.00461533679112211,0.00107574761421346,-0.00107574761421346));
#457=CARTESIAN_POINT('',(-0.00461533679112211,2.84603070277445E-19,-0.00152133686571118));
#458=CARTESIAN_POINT('',(-0.00461533679112211,-0.00107574761421346,-0.00107574761421346));
#459=CARTESIAN_POINT('',(-0.00461533679112211,-0.00152133686571118,-1.02914503091397E-19));
#460=CARTESIAN_POINT('',(-0.00461533679112211,-0.00107574761421346,0.00107574761421346));
#461=CARTESIAN_POINT('',(-0.00461533679112211,-9.62229428080885E-19,0.00152133686571118));
#462=CARTESIAN_POINT('',(-0.00461533679112211,0.00107574761421346,0.00107574761421346));
#463=CARTESIAN_POINT('',(-0.00461533679112211,0.00152133686571118,2.71050543121376E-19));
#464=CARTESIAN_POINT('',(-0.00461533679112211,0.00107574761421346,-0.00107574761421346));
#465=CARTESIAN_POINT('',(-0.0049278488962284,0.000529781785791545,0.000529781785791544));
#466=CARTESIAN_POINT('',(-0.00492784889622841,0.00074922458656464,1.49077798716757E-19));
#467=CARTESIAN_POINT('',(-0.0049278488962284,0.000529781785791544,-0.000529781785791545));
#468=CARTESIAN_POINT('',(-0.00492784889622841,-5.21772295508649E-19,-0.00074922458656464));
#469=CARTESIAN_POINT('',(-0.0049278488962284,-0.000529781785791545,-0.000529781785791545));
#470=CARTESIAN_POINT('',(-0.0049278488962284,-0.000749224586564641,-1.5161889755852E-19));
#471=CARTESIAN_POINT('',(-0.0049278488962284,-0.000529781785791545,0.000529781785791545));
#472=CARTESIAN_POINT('',(-0.00492784889622841,-9.0801931945661E-19,0.00074922458656464));
#473=CARTESIAN_POINT('',(-0.0049278488962284,0.000529781785791545,0.000529781785791544));
#474=CARTESIAN_POINT('',(-0.00492784889622841,0.00074922458656464,1.49077798716757E-19));
#475=CARTESIAN_POINT('',(-0.0049278488962284,0.000529781785791544,-0.000529781785791545));
#476=CARTESIAN_POINT('',(-0.00497916520754454,0.000235083487467367,0.000235083487467367));
#477=CARTESIAN_POINT('',(-0.00497916520754454,0.000332458256266316,6.09863722023096E-20));
#478=CARTESIAN_POINT('',(-0.00497916520754454,0.000235083487467367,-0.000235083487467368));
#479=CARTESIAN_POINT('',(-0.00497916520754454,-5.11607900141597E-19,-0.000332458256266317));
#480=CARTESIAN_POINT('',(-0.00497916520754454,-0.000235083487467368,-0.000235083487467368));
#481=CARTESIAN_POINT('',(-0.00497916520754454,-0.000332458256266317,-3.29284058245109E-20));
#482=CARTESIAN_POINT('',(-0.00497916520754454,-0.000235083487467368,0.000235083487467367));
#483=CARTESIAN_POINT('',(-0.00497916520754454,-7.65717784317888E-19,0.000332458256266317));
#484=CARTESIAN_POINT('',(-0.00497916520754454,0.000235083487467367,0.000235083487467367));
#485=CARTESIAN_POINT('',(-0.00497916520754454,0.000332458256266316,6.09863722023096E-20));
#486=CARTESIAN_POINT('',(-0.00497916520754454,0.000235083487467367,-0.000235083487467368));
#487=CARTESIAN_POINT('',(0.,-2.58138349891623E-19,0.));
#488=CARTESIAN_POINT('',(0.00497916520754454,4.67475868006421E-20,0.));
#489=CARTESIAN_POINT('',(0.00497916520754454,0.0003,0.));
#490=CARTESIAN_POINT('',(0.00581,9.76215452606838E-20,0.));
#491=CARTESIAN_POINT('',(0.00581,3.46575044158701E-19,0.0003));
#492=CARTESIAN_POINT('',(0.00581,0.,-0.0003));
#493=CARTESIAN_POINT('',(0.00581,4.88107726303419E-20,-9.18485099360515E-21));
#494=CARTESIAN_POINT('',(0.00497916520754454,0.000235083487467368,0.000235083487467368));
#495=CARTESIAN_POINT('',(0.00497916520754454,0.000332458256266317,5.75982404132924E-20));
#496=CARTESIAN_POINT('',(0.00497916520754454,0.000235083487467368,-0.000235083487467368));
#497=CARTESIAN_POINT('',(0.00497916520754454,1.40607469244214E-19,-0.000332458256266317));
#498=CARTESIAN_POINT('',(0.00497916520754454,-0.000235083487467368,-0.000235083487467368));
#499=CARTESIAN_POINT('',(0.00497916520754454,-0.000332458256266317,-2.31345873718831E-20));
#500=CARTESIAN_POINT('',(0.00497916520754454,-0.000235083487467368,0.000235083487467368));
#501=CARTESIAN_POINT('',(0.00497916520754454,-1.18584612615602E-19,0.000332458256266318));
#502=CARTESIAN_POINT('',(0.00497916520754454,0.000235083487467368,0.000235083487467368));
#503=CARTESIAN_POINT('',(0.00497916520754454,0.000332458256266317,5.75982404132924E-20));
#504=CARTESIAN_POINT('',(0.00497916520754454,0.000235083487467368,-0.000235083487467368));
#505=CARTESIAN_POINT('',(0.0049278488962284,0.000529781785791546,0.000529781785791545));
#506=CARTESIAN_POINT('',(0.0049278488962284,0.000749224586564641,1.0842021724855E-19));
#507=CARTESIAN_POINT('',(0.0049278488962284,0.000529781785791546,-0.000529781785791545));
#508=CARTESIAN_POINT('',(0.0049278488962284,3.28648783534669E-19,-0.000749224586564641));
#509=CARTESIAN_POINT('',(0.0049278488962284,-0.000529781785791545,-0.000529781785791545));
#510=CARTESIAN_POINT('',(0.0049278488962284,-0.000749224586564641,-1.09267250195805E-19));
#511=CARTESIAN_POINT('',(0.0049278488962284,-0.000529781785791545,0.000529781785791545));
#512=CARTESIAN_POINT('',(0.0049278488962284,-2.71050543121376E-19,0.000749224586564641));
#513=CARTESIAN_POINT('',(0.0049278488962284,0.000529781785791546,0.000529781785791545));
#514=CARTESIAN_POINT('',(0.0049278488962284,0.000749224586564641,1.0842021724855E-19));
#515=CARTESIAN_POINT('',(0.0049278488962284,0.000529781785791546,-0.000529781785791545));
#516=CARTESIAN_POINT('',(0.0046153367911221,0.00107574761421346,0.00107574761421346));
#517=CARTESIAN_POINT('',(0.0046153367911221,0.00152133686571118,3.52365706057789E-19));
#518=CARTESIAN_POINT('',(0.00461533679112211,0.00107574761421346,-0.00107574761421346));
#519=CARTESIAN_POINT('',(0.0046153367911221,5.28548559086683E-19,-0.00152133686571118));
#520=CARTESIAN_POINT('',(0.0046153367911221,-0.00107574761421346,-0.00107574761421346));
#521=CARTESIAN_POINT('',(0.00461533679112211,-0.00152133686571118,-1.44842633980485E-19));
#522=CARTESIAN_POINT('',(0.0046153367911221,-0.00107574761421346,0.00107574761421346));
#523=CARTESIAN_POINT('',(0.00461533679112211,-5.28548559086683E-19,0.00152133686571118));
#524=CARTESIAN_POINT('',(0.0046153367911221,0.00107574761421346,0.00107574761421346));
#525=CARTESIAN_POINT('',(0.0046153367911221,0.00152133686571118,3.52365706057789E-19));
#526=CARTESIAN_POINT('',(0.00461533679112211,0.00107574761421346,-0.00107574761421346));
#527=CARTESIAN_POINT('',(0.00403948826686154,0.00129434550041097,0.00129434550041096));
#528=CARTESIAN_POINT('',(0.00403948826686154,0.00183048096107778,2.98155597433514E-19));
#529=CARTESIAN_POINT('',(0.00403948826686154,0.00129434550041096,-0.00129434550041096));
#530=CARTESIAN_POINT('',(0.00403948826686154,8.80914265144472E-20,-0.00183048096107778));
#531=CARTESIAN_POINT('',(0.00403948826686154,-0.00129434550041096,-0.00129434550041096));
#532=CARTESIAN_POINT('',(0.00403948826686154,-0.00183048096107778,-2.14722852128965E-19));
#533=CARTESIAN_POINT('',(0.00403948826686154,-0.00129434550041096,0.00129434550041096));
#534=CARTESIAN_POINT('',(0.00403948826686154,-1.2603850255144E-18,0.00183048096107778));
#535=CARTESIAN_POINT('',(0.00403948826686154,0.00129434550041097,0.00129434550041096));
#536=CARTESIAN_POINT('',(0.00403948826686154,0.00183048096107778,2.98155597433514E-19));
#537=CARTESIAN_POINT('',(0.00403948826686154,0.00129434550041096,-0.00129434550041096));
#538=CARTESIAN_POINT('',(0.00375,0.00129295918107052,0.00129295918107052));
#539=CARTESIAN_POINT('',(0.00375,0.00182852040946474,3.25260651745651E-19));
#540=CARTESIAN_POINT('',(0.00375,0.00129295918107052,-0.00129295918107052));
#541=CARTESIAN_POINT('',(0.00375,2.57498015965307E-19,-0.00182852040946474));
#542=CARTESIAN_POINT('',(0.00375,-0.00129295918107052,-0.00129295918107052));
#543=CARTESIAN_POINT('',(0.00375,-0.00182852040946474,-2.28275379285034E-19));
#544=CARTESIAN_POINT('',(0.00375,-0.00129295918107052,0.00129295918107052));
#545=CARTESIAN_POINT('',(0.00375,-1.01643953670516E-18,0.00182852040946474));
#546=CARTESIAN_POINT('',(0.00375,0.00129295918107052,0.00129295918107052));
#547=CARTESIAN_POINT('',(0.00375,0.00182852040946474,3.25260651745651E-19));
#548=CARTESIAN_POINT('',(0.00375,0.00129295918107052,-0.00129295918107052));
#549=CARTESIAN_POINT('',(0.00581,-0.003,-1.83697019872103E-20));
#550=CARTESIAN_POINT('',(0.00581,-0.003,-1.83697019872103E-20));
#551=CARTESIAN_POINT('',(0.00611,-0.003,-1.83697019872103E-20));
#552=CARTESIAN_POINT('',(0.00581,0.,-1.83697019872103E-20));
#553=CARTESIAN_POINT('',(0.,-0.003,0.));
#554=CARTESIAN_POINT('',(-0.00581,-0.003,1.40466987862201E-18));
#555=CARTESIAN_POINT('',(-0.00581,0.,1.40466987862201E-18));
#556=CARTESIAN_POINT('',(-0.00581,-0.003,1.40466987862201E-18));
#557=CARTESIAN_POINT('',(-0.00551,-0.003,1.40466987862201E-18));
#558=CARTESIAN_POINT('',(0.,-0.003,0.));
#559=CARTESIAN_POINT('',(-0.00581,0.,1.40466987862201E-18));
#560=CARTESIAN_POINT('',(0.00581,0.,-1.83697019872101E-20));
#561=MECHANICAL_DESIGN_GEOMETRIC_PRESENTATION_REPRESENTATION('',(#164,#137,#138,#139,#140,#141,#142,#143,#144,#145,#146,#147,#148,#149),#562);
#562=(
GEOMETRIC_REPRESENTATION_CONTEXT(3)
GLOBAL_UNCERTAINTY_ASSIGNED_CONTEXT((#563))
GLOBAL_UNIT_ASSIGNED_CONTEXT((#566,#565,#564))
REPRESENTATION_CONTEXT('Axial Resistor','TOP_LEVEL_ASSEMBLY_PART')
);
#563=UNCERTAINTY_MEASURE_WITH_UNIT(LENGTH_MEASURE(2.E-05),#566,'DISTANCE_ACCURACY_VALUE','Maximum Tolerance applied to model');
#564=(
NAMED_UNIT(*)
SI_UNIT($,.STERADIAN.)
SOLID_ANGLE_UNIT()
);
#565=(
NAMED_UNIT(*)
PLANE_ANGLE_UNIT()
SI_UNIT($,.RADIAN.)
);
#566=(
LENGTH_UNIT()
NAMED_UNIT(*)
SI_UNIT($,.METRE.)
);
#567=PRODUCT_DEFINITION_SHAPE('','',#568);
#568=PRODUCT_DEFINITION('','',#570,#569);
#569=PRODUCT_DEFINITION_CONTEXT('',#576,'design');
#570=PRODUCT_DEFINITION_FORMATION_WITH_SPECIFIED_SOURCE('','',#572,.NOT_KNOWN.);
#571=PRODUCT_RELATED_PRODUCT_CATEGORY('','',(#572));
#572=PRODUCT('Axial Resistor','Axial Resistor','Axial Resistor',(#574));
#573=PRODUCT_CATEGORY('','');
#574=PRODUCT_CONTEXT('',#576,'mechanical');
#575=APPLICATION_PROTOCOL_DEFINITION('international standard','ap242_managed_model_based_3d_engineering',2020,#576);
#576=APPLICATION_CONTEXT('managed model based 3d engineering');
ENDSEC;
END-ISO-10303-21;
