ISO-10303-21;
HEADER;
FILE_DESCRIPTION (( 'STEP AP203' ),
    '1' );
FILE_NAME ('94669A006_Aluminum Unthreaded Spacer.STEP',
    '2026-01-08T22:14:52',
    ( 'McMaster Carr Supply' ),
    ( 'McMaster Carr Supply' ),
    'SwSTEP 2.0',
    'SolidWorks 2024',
    '' );
FILE_SCHEMA (( 'CONFIG_CONTROL_DESIGN' ));
ENDSEC;

DATA;
#1 = AXIS2_PLACEMENT_3D ( 'NONE', #5, #421, #100 ) ;
#2 = CARTESIAN_POINT ( 'NONE',  ( 0.000000000000000000, 0.000000000000000000, -2.000000000000000000 ) ) ;
#3 = DIRECTION ( 'NONE',  ( 0.000000000000000000, 0.000000000000000000, 1.000000000000000000 ) ) ;
#4 = CALENDAR_DATE ( 2026, 8, 1 ) ;
#5 = CARTESIAN_POINT ( 'NONE',  ( 0.000000000000000000, 0.000000000000000000, 2.000000000000000000 ) ) ;
#6 = CARTESIAN_POINT ( 'NONE',  ( 0.000000000000000000, 0.000000000000000000, 1.910000000000001918 ) ) ;
#7 = ORIENTED_EDGE ( 'NONE', *, *, #143, .F. ) ;
#8 = CC_DESIGN_PERSON_AND_ORGANIZATION_ASSIGNMENT ( #135, #273, ( #59 ) ) ;
#9 = DIRECTION ( 'NONE',  ( -1.000000000000000000, 0.000000000000000000, 0.000000000000000000 ) ) ;
#10 = EDGE_LOOP ( 'NONE', ( #272, #134, #408, #335 ) ) ;
#11 = CYLINDRICAL_SURFACE ( 'NONE', #445, 3.000000000000000444 ) ;
#12 = AXIS2_PLACEMENT_3D ( 'NONE', #211, #3, #390 ) ;
#13 = LINE ( 'NONE', #185, #295 ) ;
#14 = DIRECTION ( 'NONE',  ( 1.000000000000000000, 0.000000000000000000, 0.000000000000000000 ) ) ;
#15 = DIRECTION ( 'NONE',  ( -0.000000000000000000, -0.000000000000000000, -1.000000000000000000 ) ) ;
#16 = FACE_OUTER_BOUND ( 'NONE', #283, .T. ) ;
#17 = EDGE_CURVE ( 'NONE', #442, #411, #257, .T. ) ;
#18 = APPROVAL_PERSON_ORGANIZATION ( #323, #111, #151 ) ;
#19 = AXIS2_PLACEMENT_3D ( 'NONE', #145, #341, #65 ) ;
#20 = LINE ( 'NONE', #435, #182 ) ;
#21 = EDGE_CURVE ( 'NONE', #73, #266, #99, .T. ) ;
#22 = ORIENTED_EDGE ( 'NONE', *, *, #172, .T. ) ;
#23 = AXIS2_PLACEMENT_3D ( 'NONE', #293, #173, #314 ) ;
#24 = CARTESIAN_POINT ( 'NONE',  ( 0.000000000000000000, 0.000000000000000000, 2.000000000000000000 ) ) ;
#25 = LINE ( 'NONE', #163, #441 ) ;
#26 = EDGE_CURVE ( 'NONE', #73, #242, #47, .T. ) ;
#27 = DIRECTION ( 'NONE',  ( 1.000000000000000000, 0.000000000000000000, 0.000000000000000000 ) ) ;
#28 = EDGE_CURVE ( 'NONE', #266, #235, #70, .T. ) ;
#29 = VECTOR ( 'NONE', #122, 1000.000000000000000 ) ;
#30 = ORIENTED_EDGE ( 'NONE', *, *, #403, .T. ) ;
#31 = VERTEX_POINT ( 'NONE', #245 ) ;
#32 = DIRECTION ( 'NONE',  ( -1.000000000000000000, 0.000000000000000000, 0.000000000000000000 ) ) ;
#33 = CONICAL_SURFACE ( 'NONE', #304, 2.235000000000000764, 0.7853981633974482790 ) ;
#34 = DIRECTION ( 'NONE',  ( 1.000000000000000000, 0.000000000000000000, 0.000000000000000000 ) ) ;
#35 = CLOSED_SHELL ( 'NONE', ( #434, #377, #339, #303, #217, #348, #206, #446, #98, #342, #294, #370, #64, #286 ) ) ;
#36 = CARTESIAN_POINT ( 'NONE',  ( 0.000000000000000000, 0.000000000000000000, 2.000000000000000000 ) ) ;
#37 = DIRECTION ( 'NONE',  ( -0.7071067811865457964, 0.000000000000000000, -0.7071067811865492381 ) ) ;
#38 = COORDINATED_UNIVERSAL_TIME_OFFSET ( 6, 0, .BEHIND. ) ;
#39 = ORIENTED_EDGE ( 'NONE', *, *, #167, .T. ) ;
#40 = FACE_OUTER_BOUND ( 'NONE', #72, .T. ) ;
#41 = LINE ( 'NONE', #150, #29 ) ;
#42 = CARTESIAN_POINT ( 'NONE',  ( 2.235000000000002540, 0.000000000000000000, 2.000000000000000000 ) ) ;
#43 = CARTESIAN_POINT ( 'NONE',  ( 0.000000000000000000, 0.000000000000000000, -1.910000000000001030 ) ) ;
#44 = AXIS2_PLACEMENT_3D ( 'NONE', #317, #280, #176 ) ;
#45 =( NAMED_UNIT ( * ) SI_UNIT ( $, .STERADIAN. ) SOLID_ANGLE_UNIT ( ) );
#46 = EDGE_LOOP ( 'NONE', ( #416, #355 ) ) ;
#47 = LINE ( 'NONE', #152, #417 ) ;
#48 = DIRECTION ( 'NONE',  ( 1.000000000000000000, 0.000000000000000000, 0.000000000000000000 ) ) ;
#49 = EDGE_CURVE ( 'NONE', #378, #306, #231, .T. ) ;
#50 = ORIENTED_EDGE ( 'NONE', *, *, #333, .F. ) ;
#51 = ADVANCED_BREP_SHAPE_REPRESENTATION ( '94669A006_Aluminum Unthreaded Spacer', ( #161, #69 ), #202 ) ;
#52 = CARTESIAN_POINT ( 'NONE',  ( 0.000000000000000000, 0.000000000000000000, 1.864999999999999103 ) ) ;
#53 = EDGE_LOOP ( 'NONE', ( #226, #84, #96, #447 ) ) ;
#54 = APPROVAL_PERSON_ORGANIZATION ( #420, #165, #67 ) ;
#55 = DIRECTION ( 'NONE',  ( 0.000000000000000000, 0.000000000000000000, 1.000000000000000000 ) ) ;
#56 = CIRCLE ( 'NONE', #350, 2.235000000000000764 ) ;
#57 = ORIENTED_EDGE ( 'NONE', *, *, #265, .F. ) ;
#58 = EDGE_CURVE ( 'NONE', #31, #73, #336, .T. ) ;
#59 = PRODUCT_DEFINITION_FORMATION_WITH_SPECIFIED_SOURCE ( 'ANY', '', #213, .NOT_KNOWN. ) ;
#60 = CONICAL_SURFACE ( 'NONE', #192, 2.100000000000000089, 0.7853981633974530530 ) ;
#61 = ORIENTED_EDGE ( 'NONE', *, *, #311, .T. ) ;
#62 = CIRCLE ( 'NONE', #400, 2.235000000000002540 ) ;
#63 = DIRECTION ( 'NONE',  ( -1.000000000000000000, 0.000000000000000000, 0.000000000000000000 ) ) ;
#64 = ADVANCED_FACE ( 'NONE', ( #258 ), #60, .F. ) ;
#65 = DIRECTION ( 'NONE',  ( 1.000000000000000000, 0.000000000000000000, 0.000000000000000000 ) ) ;
#66 = DIRECTION ( 'NONE',  ( -0.000000000000000000, -0.000000000000000000, -1.000000000000000000 ) ) ;
#67 = APPROVAL_ROLE ( '' ) ;
#68 = ORIENTED_EDGE ( 'NONE', *, *, #440, .T. ) ;
#69 = AXIS2_PLACEMENT_3D ( 'NONE', #158, #395, #404 ) ;
#70 = CIRCLE ( 'NONE', #12, 2.100000000000000089 ) ;
#71 = VERTEX_POINT ( 'NONE', #358 ) ;
#72 = EDGE_LOOP ( 'NONE', ( #22, #136, #449, #171 ) ) ;
#73 = VERTEX_POINT ( 'NONE', #396 ) ;
#74 = ORIENTED_EDGE ( 'NONE', *, *, #259, .F. ) ;
#75 = SECURITY_CLASSIFICATION_LEVEL ( 'unclassified' ) ;
#76 = DIRECTION ( 'NONE',  ( 0.000000000000000000, 0.000000000000000000, 1.000000000000000000 ) ) ;
#77 = APPROVAL_PERSON_ORGANIZATION ( #139, #227, #241 ) ;
#78 = VERTEX_POINT ( 'NONE', #291 ) ;
#79 = DIRECTION ( 'NONE',  ( 0.7071067811865474617, 8.659560562354932858E-17, -0.7071067811865474617 ) ) ;
#80 = LINE ( 'NONE', #112, #138 ) ;
#81 = EDGE_CURVE ( 'NONE', #242, #133, #56, .T. ) ;
#82 = DIRECTION ( 'NONE',  ( 0.000000000000000000, 0.000000000000000000, 1.000000000000000000 ) ) ;
#83 = APPLICATION_PROTOCOL_DEFINITION ( 'international standard', 'config_control_design', 1994, #372 ) ;
#84 = ORIENTED_EDGE ( 'NONE', *, *, #58, .T. ) ;
#85 = DIRECTION ( 'NONE',  ( 0.000000000000000000, 0.000000000000000000, 1.000000000000000000 ) ) ;
#86 =( LENGTH_UNIT ( ) NAMED_UNIT ( * ) SI_UNIT ( .MILLI., .METRE. ) );
#87 = CARTESIAN_POINT ( 'NONE',  ( 2.910000000000002807, 3.618831291480430945E-16, 2.000000000000000000 ) ) ;
#88 = VECTOR ( 'NONE', #162, 1000.000000000000000 ) ;
#89 = DIRECTION ( 'NONE',  ( -0.000000000000000000, -0.000000000000000000, -1.000000000000000000 ) ) ;
#90 = EDGE_LOOP ( 'NONE', ( #371, #61, #103, #426 ) ) ;
#91 = DIRECTION ( 'NONE',  ( -0.000000000000000000, -0.000000000000000000, 1.000000000000000000 ) ) ;
#92 = MECHANICAL_CONTEXT ( 'NONE', #372, 'mechanical' ) ;
#93 = EDGE_CURVE ( 'NONE', #302, #378, #362, .T. ) ;
#94 = AXIS2_PLACEMENT_3D ( 'NONE', #117, #222, #431 ) ;
#95 = VERTEX_POINT ( 'NONE', #87 ) ;
#96 = ORIENTED_EDGE ( 'NONE', *, *, #21, .T. ) ;
#97 = PERSON ( 'UNSPECIFIED', 'UNSPECIFIED', 'UNSPECIFIED', ('UNSPECIFIED'), ('UNSPECIFIED'), ('UNSPECIFIED') ) ;
#98 = ADVANCED_FACE ( 'NONE', ( #114 ), #250, .F. ) ;
#99 = LINE ( 'NONE', #195, #88 ) ;
#100 = DIRECTION ( 'NONE',  ( 1.000000000000000000, 0.000000000000000000, -0.000000000000000000 ) ) ;
#101 = DIRECTION ( 'NONE',  ( -0.000000000000000000, -0.000000000000000000, 1.000000000000000000 ) ) ;
#102 = ORIENTED_EDGE ( 'NONE', *, *, #26, .T. ) ;
#103 = ORIENTED_EDGE ( 'NONE', *, *, #49, .F. ) ;
#104 = CC_DESIGN_DATE_AND_TIME_ASSIGNMENT ( #354, #423, ( #267 ) ) ;
#105 = ORIENTED_EDGE ( 'NONE', *, *, #318, .F. ) ;
#106 = CC_DESIGN_APPROVAL ( #165, ( #59 ) ) ;
#107 = AXIS2_PLACEMENT_3D ( 'NONE', #232, #313, #282 ) ;
#108 = ORIENTED_EDGE ( 'NONE', *, *, #259, .T. ) ;
#109 = CARTESIAN_POINT ( 'NONE',  ( -2.910000000000002807, 0.000000000000000000, 2.000000000000000000 ) ) ;
#110 = LINE ( 'NONE', #159, #249 ) ;
#111 = APPROVAL ( #290, 'UNSPECIFIED' ) ;
#112 = CARTESIAN_POINT ( 'NONE',  ( 2.100000000000000089, 0.000000000000000000, 1.864999999999999103 ) ) ;
#113 = CC_DESIGN_APPROVAL ( #111, ( #181 ) ) ;
#114 = FACE_OUTER_BOUND ( 'NONE', #53, .T. ) ;
#115 = VERTEX_POINT ( 'NONE', #218 ) ;
#116 = CARTESIAN_POINT ( 'NONE',  ( 0.000000000000000000, 0.000000000000000000, -1.864999999999999547 ) ) ;
#117 = CARTESIAN_POINT ( 'NONE',  ( 0.000000000000000000, 0.000000000000000000, 2.000000000000000000 ) ) ;
#118 = CALENDAR_DATE ( 2026, 8, 1 ) ;
#119 = CARTESIAN_POINT ( 'NONE',  ( 0.000000000000000000, 0.000000000000000000, -2.000000000000000000 ) ) ;
#120 = CARTESIAN_POINT ( 'NONE',  ( -2.235000000000002540, 2.737085596094337602E-16, 2.000000000000000000 ) ) ;
#121 = AXIS2_PLACEMENT_3D ( 'NONE', #124, #392, #330 ) ;
#122 = DIRECTION ( 'NONE',  ( 0.000000000000000000, 0.000000000000000000, 1.000000000000000000 ) ) ;
#123 = CIRCLE ( 'NONE', #19, 3.000000000000000444 ) ;
#124 = CARTESIAN_POINT ( 'NONE',  ( 0.000000000000000000, 0.000000000000000000, -2.000000000000000000 ) ) ;
#125 = FACE_BOUND ( 'NONE', #365, .T. ) ;
#126 = CC_DESIGN_SECURITY_CLASSIFICATION ( #267, ( #59 ) ) ;
#127 = EDGE_CURVE ( 'NONE', #302, #95, #427, .T. ) ;
#128 = DIRECTION ( 'NONE',  ( 1.000000000000000000, 0.000000000000000000, 0.000000000000000000 ) ) ;
#129 = FACE_BOUND ( 'NONE', #413, .T. ) ;
#130 = CIRCLE ( 'NONE', #438, 2.100000000000000089 ) ;
#131 = AXIS2_PLACEMENT_3D ( 'NONE', #149, #200, #9 ) ;
#132 = DIRECTION ( 'NONE',  ( 1.000000000000000000, 0.000000000000000000, 0.000000000000000000 ) ) ;
#133 = VERTEX_POINT ( 'NONE', #255 ) ;
#134 = ORIENTED_EDGE ( 'NONE', *, *, #58, .F. ) ;
#135 = PERSON_AND_ORGANIZATION ( #97, #208 ) ;
#136 = ORIENTED_EDGE ( 'NONE', *, *, #318, .T. ) ;
#137 = AXIS2_PLACEMENT_3D ( 'NONE', #43, #91, #180 ) ;
#138 = VECTOR ( 'NONE', #301, 1000.000000000000000 ) ;
#139 = PERSON_AND_ORGANIZATION ( #97, #208 ) ;
#140 = FACE_OUTER_BOUND ( 'NONE', #277, .T. ) ;
#141 = ORIENTED_EDGE ( 'NONE', *, *, #17, .F. ) ;
#142 = CARTESIAN_POINT ( 'NONE',  ( 0.000000000000000000, 0.000000000000000000, 1.864999999999999103 ) ) ;
#143 = EDGE_CURVE ( 'NONE', #235, #266, #361, .T. ) ;
#144 = PERSON_AND_ORGANIZATION ( #97, #208 ) ;
#145 = CARTESIAN_POINT ( 'NONE',  ( 0.000000000000000000, 0.000000000000000000, 1.910000000000001918 ) ) ;
#146 = PRODUCT_DEFINITION_SHAPE ( 'NONE', 'NONE',  #181 ) ;
#147 = DIRECTION ( 'NONE',  ( 1.000000000000000000, 0.000000000000000000, 0.000000000000000000 ) ) ;
#148 = VERTEX_POINT ( 'NONE', #401 ) ;
#149 = CARTESIAN_POINT ( 'NONE',  ( 0.000000000000000000, 0.000000000000000000, 2.000000000000000000 ) ) ;
#150 = CARTESIAN_POINT ( 'NONE',  ( -2.100000000000000089, 2.571758278209441957E-16, -2.000000000000000000 ) ) ;
#151 = APPROVAL_ROLE ( '' ) ;
#152 = CARTESIAN_POINT ( 'NONE',  ( 2.235000000000000764, 2.737085596094335630E-16, -2.000000000000000000 ) ) ;
#153 = DATE_AND_TIME ( #118, #397 ) ;
#154 = CYLINDRICAL_SURFACE ( 'NONE', #23, 2.100000000000000089 ) ;
#155 = DIRECTION ( 'NONE',  ( -0.7071067811865507924, 8.659560562354974766E-17, 0.7071067811865441310 ) ) ;
#156 = CONICAL_SURFACE ( 'NONE', #189, 2.100000000000000089, 0.7853981633974530530 ) ;
#157 = AXIS2_PLACEMENT_3D ( 'NONE', #422, #429, #216 ) ;
#158 = CARTESIAN_POINT ( 'NONE',  ( 0.000000000000000000, 0.000000000000000000, 0.000000000000000000 ) ) ;
#159 = CARTESIAN_POINT ( 'NONE',  ( -2.235000000000000764, 0.000000000000000000, -2.000000000000000000 ) ) ;
#160 = EDGE_CURVE ( 'NONE', #71, #148, #368, .T. ) ;
#161 = MANIFOLD_SOLID_BREP ( 'Chamfer2', #35 ) ;
#162 = DIRECTION ( 'NONE',  ( 0.000000000000000000, 0.000000000000000000, 1.000000000000000000 ) ) ;
#163 = CARTESIAN_POINT ( 'NONE',  ( 2.910000000000002807, 3.563722185518801528E-16, 2.000000000000000000 ) ) ;
#164 = LINE ( 'NONE', #175, #418 ) ;
#165 = APPROVAL ( #315, 'UNSPECIFIED' ) ;
#166 = CIRCLE ( 'NONE', #137, 3.000000000000000444 ) ;
#167 = EDGE_CURVE ( 'NONE', #31, #235, #41, .T. ) ;
#168 = ORIENTED_EDGE ( 'NONE', *, *, #403, .F. ) ;
#169 = DIRECTION ( 'NONE',  ( -0.7071067811865474617, 0.000000000000000000, -0.7071067811865474617 ) ) ;
#170 = CONICAL_SURFACE ( 'NONE', #225, 2.235000000000000764, 0.7853981633974482790 ) ;
#171 = ORIENTED_EDGE ( 'NONE', *, *, #385, .F. ) ;
#172 = EDGE_CURVE ( 'NONE', #148, #71, #166, .T. ) ;
#173 = DIRECTION ( 'NONE',  ( 0.000000000000000000, 0.000000000000000000, 1.000000000000000000 ) ) ;
#174 = CALENDAR_DATE ( 2026, 8, 1 ) ;
#175 = CARTESIAN_POINT ( 'NONE',  ( -3.000000000000000444, 3.673940397442060361E-16, -1.910000000000001030 ) ) ;
#176 = DIRECTION ( 'NONE',  ( 1.000000000000000000, 0.000000000000000000, 0.000000000000000000 ) ) ;
#177 = EDGE_LOOP ( 'NONE', ( #105, #383, #207, #300 ) ) ;
#178 = DIRECTION ( 'NONE',  ( 0.7071067811865457964, 8.659560562354910671E-17, -0.7071067811865492381 ) ) ;
#179 = ORIENTED_EDGE ( 'NONE', *, *, #369, .F. ) ;
#180 = DIRECTION ( 'NONE',  ( 1.000000000000000000, 0.000000000000000000, 0.000000000000000000 ) ) ;
#181 = PRODUCT_DEFINITION ( 'UNKNOWN', '', #59, #230 ) ;
#182 = VECTOR ( 'NONE', #155, 1000.000000000000000 ) ;
#183 = DIRECTION ( 'NONE',  ( 1.000000000000000000, 0.000000000000000000, 0.000000000000000000 ) ) ;
#184 = AXIS2_PLACEMENT_3D ( 'NONE', #428, #424, #32 ) ;
#185 = CARTESIAN_POINT ( 'NONE',  ( 3.000000000000000444, 0.000000000000000000, -1.910000000000001030 ) ) ;
#186 = DIRECTION ( 'NONE',  ( 0.000000000000000000, 0.000000000000000000, -1.000000000000000000 ) ) ;
#187 = CARTESIAN_POINT ( 'NONE',  ( 0.000000000000000000, 0.000000000000000000, -2.000000000000000000 ) ) ;
#188 = PLANE ( 'NONE',  #121 ) ;
#189 = AXIS2_PLACEMENT_3D ( 'NONE', #52, #55, #48 ) ;
#190 = ORIENTED_EDGE ( 'NONE', *, *, #359, .T. ) ;
#191 = CC_DESIGN_PERSON_AND_ORGANIZATION_ASSIGNMENT ( #292, #256, ( #181 ) ) ;
#192 = AXIS2_PLACEMENT_3D ( 'NONE', #142, #82, #253 ) ;
#193 = CALENDAR_DATE ( 2026, 8, 1 ) ;
#194 = CONICAL_SURFACE ( 'NONE', #337, 3.000000000000000444, 0.7853981633974506105 ) ;
#195 = CARTESIAN_POINT ( 'NONE',  ( 2.100000000000000089, 0.000000000000000000, -2.000000000000000000 ) ) ;
#196 = FACE_OUTER_BOUND ( 'NONE', #349, .T. ) ;
#197 = APPLICATION_CONTEXT ( 'configuration controlled 3d designs of mechanical parts and assemblies' ) ;
#198 = DIRECTION ( 'NONE',  ( 1.000000000000000000, 0.000000000000000000, 0.000000000000000000 ) ) ;
#199 = ORIENTED_EDGE ( 'NONE', *, *, #419, .T. ) ;
#200 = DIRECTION ( 'NONE',  ( 0.000000000000000000, 0.000000000000000000, -1.000000000000000000 ) ) ;
#201 = EDGE_CURVE ( 'NONE', #78, #115, #332, .T. ) ;
#202 =( GEOMETRIC_REPRESENTATION_CONTEXT ( 3 ) GLOBAL_UNCERTAINTY_ASSIGNED_CONTEXT ( ( #237 ) ) GLOBAL_UNIT_ASSIGNED_CONTEXT ( ( #86, #254, #45 ) ) REPRESENTATION_CONTEXT ( 'NONE', 'WORKASPACE' ) );
#203 = DATE_TIME_ROLE ( 'creation_date' ) ;
#204 = ORIENTED_EDGE ( 'NONE', *, *, #440, .F. ) ;
#205 = APPROVAL_DATE_TIME ( #344, #165 ) ;
#206 = ADVANCED_FACE ( 'NONE', ( #321 ), #11, .T. ) ;
#207 = ORIENTED_EDGE ( 'NONE', *, *, #385, .T. ) ;
#208 = ORGANIZATION ( 'UNSPECIFIED', 'UNSPECIFIED', '' ) ;
#209 = DIRECTION ( 'NONE',  ( 1.000000000000000000, 0.000000000000000000, 0.000000000000000000 ) ) ;
#210 = AXIS2_PLACEMENT_3D ( 'NONE', #6, #186, #425 ) ;
#211 = CARTESIAN_POINT ( 'NONE',  ( 0.000000000000000000, 0.000000000000000000, 1.864999999999999103 ) ) ;
#212 = PERSON_AND_ORGANIZATION_ROLE ( 'design_supplier' ) ;
#213 = PRODUCT ( '94669A006_Aluminum Unthreaded Spacer', '94669A006_Aluminum Unthreaded Spacer', '', ( #92 ) ) ;
#214 = ORIENTED_EDGE ( 'NONE', *, *, #172, .F. ) ;
#215 = CARTESIAN_POINT ( 'NONE',  ( 0.000000000000000000, 0.000000000000000000, -1.910000000000001030 ) ) ;
#216 = DIRECTION ( 'NONE',  ( 1.000000000000000000, 0.000000000000000000, 0.000000000000000000 ) ) ;
#217 = ADVANCED_FACE ( 'NONE', ( #16 ), #154, .F. ) ;
#218 = CARTESIAN_POINT ( 'NONE',  ( 2.910000000000001030, 0.000000000000000000, -2.000000000000000000 ) ) ;
#219 = FACE_OUTER_BOUND ( 'NONE', #436, .T. ) ;
#220 = LOCAL_TIME ( 16, 14, 52.00000000000000000, #310 ) ;
#221 = VECTOR ( 'NONE', #347, 1000.000000000000000 ) ;
#222 = DIRECTION ( 'NONE',  ( 0.000000000000000000, 0.000000000000000000, 1.000000000000000000 ) ) ;
#223 = DIRECTION ( 'NONE',  ( 0.000000000000000000, 0.000000000000000000, 1.000000000000000000 ) ) ;
#224 = EDGE_CURVE ( 'NONE', #31, #133, #110, .T. ) ;
#225 = AXIS2_PLACEMENT_3D ( 'NONE', #2, #66, #63 ) ;
#226 = ORIENTED_EDGE ( 'NONE', *, *, #167, .F. ) ;
#227 = APPROVAL ( #388, 'UNSPECIFIED' ) ;
#228 = DIRECTION ( 'NONE',  ( 1.000000000000000000, 0.000000000000000000, 0.000000000000000000 ) ) ;
#229 = ORIENTED_EDGE ( 'NONE', *, *, #93, .T. ) ;
#230 = DESIGN_CONTEXT ( 'detailed design', #197, 'design' ) ;
#231 = CIRCLE ( 'NONE', #210, 3.000000000000000444 ) ;
#232 = CARTESIAN_POINT ( 'NONE',  ( 0.000000000000000000, 0.000000000000000000, -2.000000000000000000 ) ) ;
#233 = CARTESIAN_POINT ( 'NONE',  ( 0.000000000000000000, 0.000000000000000000, -2.000000000000000000 ) ) ;
#234 = DIRECTION ( 'NONE',  ( 1.000000000000000000, 0.000000000000000000, 0.000000000000000000 ) ) ;
#235 = VERTEX_POINT ( 'NONE', #356 ) ;
#236 = EDGE_LOOP ( 'NONE', ( #168, #375, #346, #380 ) ) ;
#237 = UNCERTAINTY_MEASURE_WITH_UNIT (LENGTH_MEASURE( 1.000000000000000082E-05 ), #86, 'distance_accuracy_value', 'NONE');
#238 = ORIENTED_EDGE ( 'NONE', *, *, #143, .T. ) ;
#239 = APPROVAL_DATE_TIME ( #281, #227 ) ;
#240 = VECTOR ( 'NONE', #37, 1000.000000000000227 ) ;
#241 = APPROVAL_ROLE ( '' ) ;
#242 = VERTEX_POINT ( 'NONE', #247 ) ;
#243 = ORIENTED_EDGE ( 'NONE', *, *, #201, .T. ) ;
#244 = DIRECTION ( 'NONE',  ( 0.000000000000000000, 0.000000000000000000, 1.000000000000000000 ) ) ;
#245 = CARTESIAN_POINT ( 'NONE',  ( -2.100000000000000089, 2.571758278209441957E-16, -1.864999999999999547 ) ) ;
#246 = PERSON_AND_ORGANIZATION ( #97, #208 ) ;
#247 = CARTESIAN_POINT ( 'NONE',  ( 2.235000000000000764, 2.737085596094335630E-16, -2.000000000000000000 ) ) ;
#248 = CC_DESIGN_DATE_AND_TIME_ASSIGNMENT ( #448, #203, ( #181 ) ) ;
#249 = VECTOR ( 'NONE', #169, 1000.000000000000114 ) ;
#250 = CYLINDRICAL_SURFACE ( 'NONE', #44, 2.100000000000000089 ) ;
#251 = EDGE_LOOP ( 'NONE', ( #7, #30, #141, #50 ) ) ;
#252 = DIRECTION ( 'NONE',  ( -1.000000000000000000, 0.000000000000000000, 0.000000000000000000 ) ) ;
#253 = DIRECTION ( 'NONE',  ( 1.000000000000000000, 0.000000000000000000, 0.000000000000000000 ) ) ;
#254 =( NAMED_UNIT ( * ) PLANE_ANGLE_UNIT ( ) SI_UNIT ( $, .RADIAN. ) );
#255 = CARTESIAN_POINT ( 'NONE',  ( -2.235000000000000764, 0.000000000000000000, -2.000000000000000000 ) ) ;
#256 = PERSON_AND_ORGANIZATION_ROLE ( 'creator' ) ;
#257 = CIRCLE ( 'NONE', #406, 2.235000000000002540 ) ;
#258 = FACE_OUTER_BOUND ( 'NONE', #236, .T. ) ;
#259 = EDGE_CURVE ( 'NONE', #115, #78, #324, .T. ) ;
#260 = LINE ( 'NONE', #402, #379 ) ;
#261 = AXIS2_PLACEMENT_3D ( 'NONE', #410, #101, #234 ) ;
#262 = EDGE_CURVE ( 'NONE', #95, #302, #299, .T. ) ;
#263 = AXIS2_PLACEMENT_3D ( 'NONE', #284, #433, #183 ) ;
#264 = ORIENTED_EDGE ( 'NONE', *, *, #224, .F. ) ;
#265 = EDGE_CURVE ( 'NONE', #133, #242, #269, .T. ) ;
#266 = VERTEX_POINT ( 'NONE', #373 ) ;
#267 = SECURITY_CLASSIFICATION ( '', '', #75 ) ;
#268 = FACE_OUTER_BOUND ( 'NONE', #10, .T. ) ;
#269 = CIRCLE ( 'NONE', #107, 2.235000000000000764 ) ;
#270 = EDGE_CURVE ( 'NONE', #306, #378, #123, .T. ) ;
#271 = CARTESIAN_POINT ( 'NONE',  ( 0.000000000000000000, 0.000000000000000000, -2.000000000000000000 ) ) ;
#272 = ORIENTED_EDGE ( 'NONE', *, *, #26, .F. ) ;
#273 = PERSON_AND_ORGANIZATION_ROLE ( 'creator' ) ;
#274 = COORDINATED_UNIVERSAL_TIME_OFFSET ( 6, 0, .BEHIND. ) ;
#275 = PRODUCT_RELATED_PRODUCT_CATEGORY ( 'detail', '', ( #213 ) ) ;
#276 = CC_DESIGN_APPROVAL ( #227, ( #267 ) ) ;
#277 = EDGE_LOOP ( 'NONE', ( #407, #412, #214, #204 ) ) ;
#278 = AXIS2_PLACEMENT_3D ( 'NONE', #233, #76, #209 ) ;
#279 = FACE_OUTER_BOUND ( 'NONE', #46, .T. ) ;
#280 = DIRECTION ( 'NONE',  ( 0.000000000000000000, 0.000000000000000000, 1.000000000000000000 ) ) ;
#281 = DATE_AND_TIME ( #4, #366 ) ;
#282 = DIRECTION ( 'NONE',  ( 1.000000000000000000, 0.000000000000000000, 0.000000000000000000 ) ) ;
#283 = EDGE_LOOP ( 'NONE', ( #199, #39, #238, #381 ) ) ;
#284 = CARTESIAN_POINT ( 'NONE',  ( 0.000000000000000000, 0.000000000000000000, 1.864999999999999103 ) ) ;
#285 = ORIENTED_EDGE ( 'NONE', *, *, #265, .T. ) ;
#286 = ADVANCED_FACE ( 'NONE', ( #268 ), #170, .F. ) ;
#287 = FACE_OUTER_BOUND ( 'NONE', #90, .T. ) ;
#288 = CONICAL_SURFACE ( 'NONE', #131, 2.910000000000002807, 0.7853981633974458365 ) ;
#289 = CARTESIAN_POINT ( 'NONE',  ( 0.000000000000000000, 0.000000000000000000, -2.000000000000000000 ) ) ;
#290 = APPROVAL_STATUS ( 'not_yet_approved' ) ;
#291 = CARTESIAN_POINT ( 'NONE',  ( -2.910000000000001030, 3.618831291480429959E-16, -2.000000000000000000 ) ) ;
#292 = PERSON_AND_ORGANIZATION ( #97, #208 ) ;
#293 = CARTESIAN_POINT ( 'NONE',  ( 0.000000000000000000, 0.000000000000000000, -2.000000000000000000 ) ) ;
#294 = ADVANCED_FACE ( 'NONE', ( #196 ), #288, .T. ) ;
#295 = VECTOR ( 'NONE', #360, 1000.000000000000114 ) ;
#296 = AXIS2_PLACEMENT_3D ( 'NONE', #394, #353, #147 ) ;
#297 = DIRECTION ( 'NONE',  ( 0.000000000000000000, 0.000000000000000000, 1.000000000000000000 ) ) ;
#298 = CC_DESIGN_PERSON_AND_ORGANIZATION_ASSIGNMENT ( #144, #384, ( #267 ) ) ;
#299 = CIRCLE ( 'NONE', #399, 2.910000000000002807 ) ;
#300 = ORIENTED_EDGE ( 'NONE', *, *, #270, .T. ) ;
#301 = DIRECTION ( 'NONE',  ( 0.7071067811865507924, 0.000000000000000000, 0.7071067811865441310 ) ) ;
#302 = VERTEX_POINT ( 'NONE', #109 ) ;
#303 = ADVANCED_FACE ( 'NONE', ( #287 ), #382, .T. ) ;
#304 = AXIS2_PLACEMENT_3D ( 'NONE', #187, #89, #252 ) ;
#305 = FACE_OUTER_BOUND ( 'NONE', #319, .T. ) ;
#306 = VERTEX_POINT ( 'NONE', #444 ) ;
#307 = AXIS2_PLACEMENT_3D ( 'NONE', #271, #340, #198 ) ;
#308 = ORIENTED_EDGE ( 'NONE', *, *, #160, .F. ) ;
#309 = ORIENTED_EDGE ( 'NONE', *, *, #81, .T. ) ;
#310 = COORDINATED_UNIVERSAL_TIME_OFFSET ( 6, 0, .BEHIND. ) ;
#311 = EDGE_CURVE ( 'NONE', #95, #306, #25, .T. ) ;
#312 = SHAPE_DEFINITION_REPRESENTATION ( #146, #51 ) ;
#313 = DIRECTION ( 'NONE',  ( 0.000000000000000000, 0.000000000000000000, 1.000000000000000000 ) ) ;
#314 = DIRECTION ( 'NONE',  ( 1.000000000000000000, 0.000000000000000000, 0.000000000000000000 ) ) ;
#315 = APPROVAL_STATUS ( 'not_yet_approved' ) ;
#316 = DIRECTION ( 'NONE',  ( -0.7071067811865491270, 8.659560562354953812E-17, 0.7071067811865459074 ) ) ;
#317 = CARTESIAN_POINT ( 'NONE',  ( 0.000000000000000000, 0.000000000000000000, -2.000000000000000000 ) ) ;
#318 = EDGE_CURVE ( 'NONE', #71, #378, #351, .T. ) ;
#319 = EDGE_LOOP ( 'NONE', ( #179, #74, #68, #308 ) ) ;
#320 = CARTESIAN_POINT ( 'NONE',  ( 0.000000000000000000, 0.000000000000000000, 2.000000000000000000 ) ) ;
#321 = FACE_OUTER_BOUND ( 'NONE', #177, .T. ) ;
#322 = LOCAL_TIME ( 16, 14, 52.00000000000000000, #38 ) ;
#323 = PERSON_AND_ORGANIZATION ( #97, #208 ) ;
#324 = CIRCLE ( 'NONE', #307, 2.910000000000001030 ) ;
#325 = ORIENTED_EDGE ( 'NONE', *, *, #17, .T. ) ;
#326 = DIRECTION ( 'NONE',  ( -0.000000000000000000, -0.000000000000000000, -1.000000000000000000 ) ) ;
#327 = APPROVAL_DATE_TIME ( #153, #111 ) ;
#328 = DIRECTION ( 'NONE',  ( 1.000000000000000000, 0.000000000000000000, 0.000000000000000000 ) ) ;
#329 = FACE_OUTER_BOUND ( 'NONE', #437, .T. ) ;
#330 = DIRECTION ( 'NONE',  ( 1.000000000000000000, 0.000000000000000000, -0.000000000000000000 ) ) ;
#331 = ORIENTED_EDGE ( 'NONE', *, *, #419, .F. ) ;
#332 = CIRCLE ( 'NONE', #343, 2.910000000000001030 ) ;
#333 = EDGE_CURVE ( 'NONE', #266, #442, #80, .T. ) ;
#334 = PERSON_AND_ORGANIZATION_ROLE ( 'design_owner' ) ;
#335 = ORIENTED_EDGE ( 'NONE', *, *, #81, .F. ) ;
#336 = CIRCLE ( 'NONE', #296, 2.100000000000000089 ) ;
#337 = AXIS2_PLACEMENT_3D ( 'NONE', #215, #443, #132 ) ;
#338 = DIRECTION ( 'NONE',  ( -0.000000000000000000, -0.000000000000000000, -1.000000000000000000 ) ) ;
#339 = ADVANCED_FACE ( 'NONE', ( #140 ), #194, .T. ) ;
#340 = DIRECTION ( 'NONE',  ( -0.000000000000000000, -0.000000000000000000, -1.000000000000000000 ) ) ;
#341 = DIRECTION ( 'NONE',  ( 0.000000000000000000, 0.000000000000000000, -1.000000000000000000 ) ) ;
#342 = ADVANCED_FACE ( 'NONE', ( #129, #279 ), #409, .T. ) ;
#343 = AXIS2_PLACEMENT_3D ( 'NONE', #119, #326, #14 ) ;
#344 = DATE_AND_TIME ( #174, #220 ) ;
#345 = ORIENTED_EDGE ( 'NONE', *, *, #311, .F. ) ;
#346 = ORIENTED_EDGE ( 'NONE', *, *, #333, .T. ) ;
#347 = DIRECTION ( 'NONE',  ( 0.000000000000000000, 0.000000000000000000, 1.000000000000000000 ) ) ;
#348 = ADVANCED_FACE ( 'NONE', ( #40 ), #386, .T. ) ;
#349 = EDGE_LOOP ( 'NONE', ( #345, #393, #229, #391 ) ) ;
#350 = AXIS2_PLACEMENT_3D ( 'NONE', #357, #85, #328 ) ;
#351 = LINE ( 'NONE', #389, #221 ) ;
#352 = CC_DESIGN_PERSON_AND_ORGANIZATION_ASSIGNMENT ( #367, #334, ( #213 ) ) ;
#353 = DIRECTION ( 'NONE',  ( -0.000000000000000000, -0.000000000000000000, -1.000000000000000000 ) ) ;
#354 = DATE_AND_TIME ( #414, #322 ) ;
#355 = ORIENTED_EDGE ( 'NONE', *, *, #262, .T. ) ;
#356 = CARTESIAN_POINT ( 'NONE',  ( -2.100000000000000089, 2.571758278209441957E-16, 1.864999999999999103 ) ) ;
#357 = CARTESIAN_POINT ( 'NONE',  ( 0.000000000000000000, 0.000000000000000000, -2.000000000000000000 ) ) ;
#358 = CARTESIAN_POINT ( 'NONE',  ( -3.000000000000000444, 3.673940397442060361E-16, -1.910000000000001030 ) ) ;
#359 = EDGE_CURVE ( 'NONE', #411, #442, #62, .T. ) ;
#360 = DIRECTION ( 'NONE',  ( 0.7071067811865491270, 0.000000000000000000, 0.7071067811865459074 ) ) ;
#361 = CIRCLE ( 'NONE', #263, 2.100000000000000089 ) ;
#362 = LINE ( 'NONE', #387, #240 ) ;
#363 = COORDINATED_UNIVERSAL_TIME_OFFSET ( 6, 0, .BEHIND. ) ;
#364 = DIRECTION ( 'NONE',  ( 1.000000000000000000, 0.000000000000000000, 0.000000000000000000 ) ) ;
#365 = EDGE_LOOP ( 'NONE', ( #285, #309 ) ) ;
#366 = LOCAL_TIME ( 16, 14, 52.00000000000000000, #274 ) ;
#367 = PERSON_AND_ORGANIZATION ( #97, #208 ) ;
#368 = CIRCLE ( 'NONE', #157, 3.000000000000000444 ) ;
#369 = EDGE_CURVE ( 'NONE', #78, #71, #164, .T. ) ;
#370 = ADVANCED_FACE ( 'NONE', ( #305 ), #439, .T. ) ;
#371 = ORIENTED_EDGE ( 'NONE', *, *, #262, .F. ) ;
#372 = APPLICATION_CONTEXT ( 'configuration controlled 3d designs of mechanical parts and assemblies' ) ;
#373 = CARTESIAN_POINT ( 'NONE',  ( 2.100000000000000089, 0.000000000000000000, 1.864999999999999103 ) ) ;
#374 = DIRECTION ( 'NONE',  ( -0.000000000000000000, -0.000000000000000000, -1.000000000000000000 ) ) ;
#375 = ORIENTED_EDGE ( 'NONE', *, *, #28, .F. ) ;
#376 = FACE_OUTER_BOUND ( 'NONE', #251, .T. ) ;
#377 = ADVANCED_FACE ( 'NONE', ( #376 ), #156, .F. ) ;
#378 = VERTEX_POINT ( 'NONE', #398 ) ;
#379 = VECTOR ( 'NONE', #297, 1000.000000000000000 ) ;
#380 = ORIENTED_EDGE ( 'NONE', *, *, #359, .F. ) ;
#381 = ORIENTED_EDGE ( 'NONE', *, *, #21, .F. ) ;
#382 = CONICAL_SURFACE ( 'NONE', #184, 2.910000000000002807, 0.7853981633974458365 ) ;
#383 = ORIENTED_EDGE ( 'NONE', *, *, #160, .T. ) ;
#384 = PERSON_AND_ORGANIZATION_ROLE ( 'classification_officer' ) ;
#385 = EDGE_CURVE ( 'NONE', #148, #306, #260, .T. ) ;
#386 = CYLINDRICAL_SURFACE ( 'NONE', #278, 3.000000000000000444 ) ;
#387 = CARTESIAN_POINT ( 'NONE',  ( -2.910000000000002807, 0.000000000000000000, 2.000000000000000000 ) ) ;
#388 = APPROVAL_STATUS ( 'not_yet_approved' ) ;
#389 = CARTESIAN_POINT ( 'NONE',  ( -3.000000000000000444, 3.673940397442060361E-16, -2.000000000000000000 ) ) ;
#390 = DIRECTION ( 'NONE',  ( 1.000000000000000000, 0.000000000000000000, 0.000000000000000000 ) ) ;
#391 = ORIENTED_EDGE ( 'NONE', *, *, #270, .F. ) ;
#392 = DIRECTION ( 'NONE',  ( 0.000000000000000000, 0.000000000000000000, 1.000000000000000000 ) ) ;
#393 = ORIENTED_EDGE ( 'NONE', *, *, #127, .F. ) ;
#394 = CARTESIAN_POINT ( 'NONE',  ( 0.000000000000000000, 0.000000000000000000, -1.864999999999999547 ) ) ;
#395 = DIRECTION ( 'NONE',  ( 0.000000000000000000, 0.000000000000000000, 1.000000000000000000 ) ) ;
#396 = CARTESIAN_POINT ( 'NONE',  ( 2.100000000000000089, 0.000000000000000000, -1.864999999999999547 ) ) ;
#397 = LOCAL_TIME ( 16, 14, 52.00000000000000000, #430 ) ;
#398 = CARTESIAN_POINT ( 'NONE',  ( -3.000000000000000444, 3.673940397442060361E-16, 1.910000000000001918 ) ) ;
#399 = AXIS2_PLACEMENT_3D ( 'NONE', #36, #244, #228 ) ;
#400 = AXIS2_PLACEMENT_3D ( 'NONE', #320, #374, #27 ) ;
#401 = CARTESIAN_POINT ( 'NONE',  ( 3.000000000000000444, 0.000000000000000000, -1.910000000000001030 ) ) ;
#402 = CARTESIAN_POINT ( 'NONE',  ( 3.000000000000000444, 0.000000000000000000, -2.000000000000000000 ) ) ;
#403 = EDGE_CURVE ( 'NONE', #235, #411, #20, .T. ) ;
#404 = DIRECTION ( 'NONE',  ( 1.000000000000000000, 0.000000000000000000, 0.000000000000000000 ) ) ;
#405 = CC_DESIGN_PERSON_AND_ORGANIZATION_ASSIGNMENT ( #246, #212, ( #59 ) ) ;
#406 = AXIS2_PLACEMENT_3D ( 'NONE', #24, #338, #128 ) ;
#407 = ORIENTED_EDGE ( 'NONE', *, *, #201, .F. ) ;
#408 = ORIENTED_EDGE ( 'NONE', *, *, #224, .T. ) ;
#409 = PLANE ( 'NONE',  #1 ) ;
#410 = CARTESIAN_POINT ( 'NONE',  ( 0.000000000000000000, 0.000000000000000000, -1.910000000000001030 ) ) ;
#411 = VERTEX_POINT ( 'NONE', #120 ) ;
#412 = ORIENTED_EDGE ( 'NONE', *, *, #369, .T. ) ;
#413 = EDGE_LOOP ( 'NONE', ( #325, #190 ) ) ;
#414 = CALENDAR_DATE ( 2026, 8, 1 ) ;
#415 = LOCAL_TIME ( 16, 14, 52.00000000000000000, #363 ) ;
#416 = ORIENTED_EDGE ( 'NONE', *, *, #127, .T. ) ;
#417 = VECTOR ( 'NONE', #79, 1000.000000000000114 ) ;
#418 = VECTOR ( 'NONE', #316, 1000.000000000000114 ) ;
#419 = EDGE_CURVE ( 'NONE', #73, #31, #130, .T. ) ;
#420 = PERSON_AND_ORGANIZATION ( #97, #208 ) ;
#421 = DIRECTION ( 'NONE',  ( 0.000000000000000000, 0.000000000000000000, 1.000000000000000000 ) ) ;
#422 = CARTESIAN_POINT ( 'NONE',  ( 0.000000000000000000, 0.000000000000000000, -1.910000000000001030 ) ) ;
#423 = DATE_TIME_ROLE ( 'classification_date' ) ;
#424 = DIRECTION ( 'NONE',  ( 0.000000000000000000, 0.000000000000000000, -1.000000000000000000 ) ) ;
#425 = DIRECTION ( 'NONE',  ( 1.000000000000000000, 0.000000000000000000, 0.000000000000000000 ) ) ;
#426 = ORIENTED_EDGE ( 'NONE', *, *, #93, .F. ) ;
#427 = CIRCLE ( 'NONE', #94, 2.910000000000002807 ) ;
#428 = CARTESIAN_POINT ( 'NONE',  ( 0.000000000000000000, 0.000000000000000000, 2.000000000000000000 ) ) ;
#429 = DIRECTION ( 'NONE',  ( -0.000000000000000000, -0.000000000000000000, 1.000000000000000000 ) ) ;
#430 = COORDINATED_UNIVERSAL_TIME_OFFSET ( 6, 0, .BEHIND. ) ;
#431 = DIRECTION ( 'NONE',  ( 1.000000000000000000, 0.000000000000000000, 0.000000000000000000 ) ) ;
#432 = APPLICATION_PROTOCOL_DEFINITION ( 'international standard', 'config_control_design', 1994, #197 ) ;
#433 = DIRECTION ( 'NONE',  ( 0.000000000000000000, 0.000000000000000000, 1.000000000000000000 ) ) ;
#434 = ADVANCED_FACE ( 'NONE', ( #219 ), #33, .F. ) ;
#435 = CARTESIAN_POINT ( 'NONE',  ( -2.100000000000000089, 2.571758278209441957E-16, 1.864999999999999103 ) ) ;
#436 = EDGE_LOOP ( 'NONE', ( #331, #102, #57, #264 ) ) ;
#437 = EDGE_LOOP ( 'NONE', ( #108, #243 ) ) ;
#438 = AXIS2_PLACEMENT_3D ( 'NONE', #116, #15, #364 ) ;
#439 = CONICAL_SURFACE ( 'NONE', #261, 3.000000000000000444, 0.7853981633974506105 ) ;
#440 = EDGE_CURVE ( 'NONE', #115, #148, #13, .T. ) ;
#441 = VECTOR ( 'NONE', #178, 1000.000000000000227 ) ;
#442 = VERTEX_POINT ( 'NONE', #42 ) ;
#443 = DIRECTION ( 'NONE',  ( -0.000000000000000000, -0.000000000000000000, 1.000000000000000000 ) ) ;
#444 = CARTESIAN_POINT ( 'NONE',  ( 3.000000000000000444, 0.000000000000000000, 1.910000000000001918 ) ) ;
#445 = AXIS2_PLACEMENT_3D ( 'NONE', #289, #223, #34 ) ;
#446 = ADVANCED_FACE ( 'NONE', ( #125, #329 ), #188, .F. ) ;
#447 = ORIENTED_EDGE ( 'NONE', *, *, #28, .T. ) ;
#448 = DATE_AND_TIME ( #193, #415 ) ;
#449 = ORIENTED_EDGE ( 'NONE', *, *, #49, .T. ) ;
ENDSEC;
END-ISO-10303-21;
