ISO-10303-21;
HEADER;
/* Generated by software containing ST-Developer
 * from STEP Tools, Inc. (www.steptools.com) 
 */
/* OPTION: using custom schema-name function */

FILE_DESCRIPTION(
/* description */ (''),
/* implementation_level */ '2;1');

FILE_NAME(
/* name */ '8504Dzp.stp',
/* time_stamp */ '2017-05-28T08:25:03+08:00',
/* author */ (''),
/* organization */ (''),
/* preprocessor_version */ 'ST-DEVELOPER v16',
/* originating_system */ 'SIEMENS PLM Software NX 10.0',
/* authorisation */ '');

FILE_SCHEMA (('AUTOMOTIVE_DESIGN { 1 0 10303 214 3 1 1 1 }'));
ENDSEC;

DATA;
#10=CONTEXT_DEPENDENT_SHAPE_REPRESENTATION(#14,#28);
#11=CONTEXT_DEPENDENT_SHAPE_REPRESENTATION(#15,#29);
#12=NEXT_ASSEMBLY_USAGE_OCCURRENCE('1001',' ','UGCT8503DKT',#32,#31,$);
#13=NEXT_ASSEMBLY_USAGE_OCCURRENCE('1002',' ','UGCT8504DSG',#32,#30,$);
#14=(
REPRESENTATION_RELATIONSHIP(' ',' ',#51,#52)
REPRESENTATION_RELATIONSHIP_WITH_TRANSFORMATION(#16)
SHAPE_REPRESENTATION_RELATIONSHIP()
);
#15=(
REPRESENTATION_RELATIONSHIP(' ',' ',#50,#52)
REPRESENTATION_RELATIONSHIP_WITH_TRANSFORMATION(#17)
SHAPE_REPRESENTATION_RELATIONSHIP()
);
#16=ITEM_DEFINED_TRANSFORMATION(' ',' ',#1555,#1635);
#17=ITEM_DEFINED_TRANSFORMATION(' ',' ',#1555,#1636);
#18=SHAPE_REPRESENTATION_RELATIONSHIP('MODEL',
'relationship between ugct8504dsg-MODEL and ugct8504dsg-MODEL',#50,#20);
#19=SHAPE_REPRESENTATION_RELATIONSHIP('MODEL',
'relationship between ugct8503dkt-MODEL and ugct8503dkt-MODEL',#51,#21);
#20=ADVANCED_BREP_SHAPE_REPRESENTATION('ugct8504dsg-MODEL',(#312),#2328);
#21=ADVANCED_BREP_SHAPE_REPRESENTATION('ugct8503dkt-MODEL',(#307,#308,#309,
#310,#311),#2327);
#22=SHAPE_DEFINITION_REPRESENTATION(#25,#50);
#23=SHAPE_DEFINITION_REPRESENTATION(#26,#51);
#24=SHAPE_DEFINITION_REPRESENTATION(#27,#52);
#25=PRODUCT_DEFINITION_SHAPE('','',#30);
#26=PRODUCT_DEFINITION_SHAPE('','',#31);
#27=PRODUCT_DEFINITION_SHAPE('','',#32);
#28=PRODUCT_DEFINITION_SHAPE(' ','NAUO PRDDFN',#12);
#29=PRODUCT_DEFINITION_SHAPE(' ','NAUO PRDDFN',#13);
#30=PRODUCT_DEFINITION(' ','',#36,#33);
#31=PRODUCT_DEFINITION(' ','',#37,#34);
#32=PRODUCT_DEFINITION(' ','',#38,#35);
#33=PRODUCT_DEFINITION_CONTEXT('part definition',#49,'design');
#34=PRODUCT_DEFINITION_CONTEXT('part definition',#49,'design');
#35=PRODUCT_DEFINITION_CONTEXT('part definition',#49,'design');
#36=PRODUCT_DEFINITION_FORMATION_WITH_SPECIFIED_SOURCE(' ',' ',#42,
 .NOT_KNOWN.);
#37=PRODUCT_DEFINITION_FORMATION_WITH_SPECIFIED_SOURCE(' ',' ',#43,
 .NOT_KNOWN.);
#38=PRODUCT_DEFINITION_FORMATION_WITH_SPECIFIED_SOURCE(' ',' ',#44,
 .NOT_KNOWN.);
#39=PRODUCT_RELATED_PRODUCT_CATEGORY('part','',(#42));
#40=PRODUCT_RELATED_PRODUCT_CATEGORY('part','',(#43));
#41=PRODUCT_RELATED_PRODUCT_CATEGORY('part','',(#44));
#42=PRODUCT('ugct8504dsg','ugct8504dsg',' ',(#45));
#43=PRODUCT('ugct8503dkt','ugct8503dkt',' ',(#46));
#44=PRODUCT('8504Dzp','8504Dzp',' ',(#47));
#45=PRODUCT_CONTEXT(' ',#49,'mechanical');
#46=PRODUCT_CONTEXT(' ',#49,'mechanical');
#47=PRODUCT_CONTEXT(' ',#49,'mechanical');
#48=APPLICATION_PROTOCOL_DEFINITION('international standard',
'automotive_design',2010,#49);
#49=APPLICATION_CONTEXT(
'core data for automotive mechanical design processes');
#50=SHAPE_REPRESENTATION('ugct8504dsg-MODEL',(#1555),#2328);
#51=SHAPE_REPRESENTATION('ugct8503dkt-MODEL',(#1555),#2327);
#52=SHAPE_REPRESENTATION('8504Dzp-none',(#1555,#1635,#1636),#2326);
#53=CYLINDRICAL_SURFACE('',#1588,3.95);
#54=CYLINDRICAL_SURFACE('',#1591,3.45);
#55=CYLINDRICAL_SURFACE('',#1630,3.95);
#56=CIRCLE('',#1581,3.95);
#57=CIRCLE('',#1587,3.95);
#58=CIRCLE('',#1589,3.45);
#59=CIRCLE('',#1590,3.45);
#60=CIRCLE('',#1625,3.95);
#61=CIRCLE('',#1628,3.95);
#62=CIRCLE('',#1629,3.95);
#63=FACE_BOUND('',#552,.T.);
#64=FACE_BOUND('',#553,.T.);
#65=FACE_BOUND('',#558,.T.);
#66=FACE_BOUND('',#559,.T.);
#67=FACE_BOUND('',#560,.T.);
#68=FACE_BOUND('',#561,.T.);
#69=FACE_BOUND('',#562,.T.);
#70=FACE_BOUND('',#563,.T.);
#71=FACE_BOUND('',#598,.T.);
#72=FACE_BOUND('',#599,.T.);
#73=OVER_RIDING_STYLED_ITEM('',(#108),#319,#101);
#74=OVER_RIDING_STYLED_ITEM('',(#109),#320,#101);
#75=OVER_RIDING_STYLED_ITEM('',(#110),#321,#101);
#76=OVER_RIDING_STYLED_ITEM('',(#111),#322,#101);
#77=OVER_RIDING_STYLED_ITEM('',(#112),#323,#101);
#78=OVER_RIDING_STYLED_ITEM('',(#113),#324,#101);
#79=OVER_RIDING_STYLED_ITEM('',(#114),#325,#101);
#80=OVER_RIDING_STYLED_ITEM('',(#116),#326,#102);
#81=OVER_RIDING_STYLED_ITEM('',(#117),#327,#102);
#82=OVER_RIDING_STYLED_ITEM('',(#118),#328,#102);
#83=OVER_RIDING_STYLED_ITEM('',(#119),#329,#102);
#84=OVER_RIDING_STYLED_ITEM('',(#120),#330,#102);
#85=OVER_RIDING_STYLED_ITEM('',(#121),#331,#102);
#86=OVER_RIDING_STYLED_ITEM('',(#123),#332,#103);
#87=OVER_RIDING_STYLED_ITEM('',(#124),#333,#103);
#88=OVER_RIDING_STYLED_ITEM('',(#125),#334,#103);
#89=OVER_RIDING_STYLED_ITEM('',(#126),#335,#103);
#90=OVER_RIDING_STYLED_ITEM('',(#127),#336,#103);
#91=OVER_RIDING_STYLED_ITEM('',(#128),#337,#103);
#92=OVER_RIDING_STYLED_ITEM('',(#129),#338,#103);
#93=OVER_RIDING_STYLED_ITEM('',(#132),#369,#105);
#94=OVER_RIDING_STYLED_ITEM('',(#133),#370,#105);
#95=OVER_RIDING_STYLED_ITEM('',(#134),#371,#105);
#96=OVER_RIDING_STYLED_ITEM('',(#135),#372,#105);
#97=OVER_RIDING_STYLED_ITEM('',(#136),#373,#105);
#98=OVER_RIDING_STYLED_ITEM('',(#137),#374,#105);
#99=OVER_RIDING_STYLED_ITEM('',(#138),#375,#105);
#100=PRESENTATION_LAYER_ASSIGNMENT('1','Layer 1',(#307,#308,#309,#310,#311,
#312));
#101=STYLED_ITEM('',(#107),#307);
#102=STYLED_ITEM('',(#115),#308);
#103=STYLED_ITEM('',(#122),#309);
#104=STYLED_ITEM('',(#130),#310);
#105=STYLED_ITEM('',(#131),#311);
#106=STYLED_ITEM('',(#139),#312);
#107=PRESENTATION_STYLE_ASSIGNMENT((#140));
#108=PRESENTATION_STYLE_ASSIGNMENT((#141));
#109=PRESENTATION_STYLE_ASSIGNMENT((#142));
#110=PRESENTATION_STYLE_ASSIGNMENT((#143));
#111=PRESENTATION_STYLE_ASSIGNMENT((#144));
#112=PRESENTATION_STYLE_ASSIGNMENT((#145));
#113=PRESENTATION_STYLE_ASSIGNMENT((#146));
#114=PRESENTATION_STYLE_ASSIGNMENT((#147));
#115=PRESENTATION_STYLE_ASSIGNMENT((#148));
#116=PRESENTATION_STYLE_ASSIGNMENT((#149));
#117=PRESENTATION_STYLE_ASSIGNMENT((#150));
#118=PRESENTATION_STYLE_ASSIGNMENT((#151));
#119=PRESENTATION_STYLE_ASSIGNMENT((#152));
#120=PRESENTATION_STYLE_ASSIGNMENT((#153));
#121=PRESENTATION_STYLE_ASSIGNMENT((#154));
#122=PRESENTATION_STYLE_ASSIGNMENT((#155));
#123=PRESENTATION_STYLE_ASSIGNMENT((#156));
#124=PRESENTATION_STYLE_ASSIGNMENT((#157));
#125=PRESENTATION_STYLE_ASSIGNMENT((#158));
#126=PRESENTATION_STYLE_ASSIGNMENT((#159));
#127=PRESENTATION_STYLE_ASSIGNMENT((#160));
#128=PRESENTATION_STYLE_ASSIGNMENT((#161));
#129=PRESENTATION_STYLE_ASSIGNMENT((#162));
#130=PRESENTATION_STYLE_ASSIGNMENT((#163));
#131=PRESENTATION_STYLE_ASSIGNMENT((#164));
#132=PRESENTATION_STYLE_ASSIGNMENT((#165));
#133=PRESENTATION_STYLE_ASSIGNMENT((#166));
#134=PRESENTATION_STYLE_ASSIGNMENT((#167));
#135=PRESENTATION_STYLE_ASSIGNMENT((#168));
#136=PRESENTATION_STYLE_ASSIGNMENT((#169));
#137=PRESENTATION_STYLE_ASSIGNMENT((#170));
#138=PRESENTATION_STYLE_ASSIGNMENT((#171));
#139=PRESENTATION_STYLE_ASSIGNMENT((#172));
#140=SURFACE_STYLE_USAGE(.BOTH.,#173);
#141=SURFACE_STYLE_USAGE(.BOTH.,#174);
#142=SURFACE_STYLE_USAGE(.BOTH.,#175);
#143=SURFACE_STYLE_USAGE(.BOTH.,#176);
#144=SURFACE_STYLE_USAGE(.BOTH.,#177);
#145=SURFACE_STYLE_USAGE(.BOTH.,#178);
#146=SURFACE_STYLE_USAGE(.BOTH.,#179);
#147=SURFACE_STYLE_USAGE(.BOTH.,#180);
#148=SURFACE_STYLE_USAGE(.BOTH.,#181);
#149=SURFACE_STYLE_USAGE(.BOTH.,#182);
#150=SURFACE_STYLE_USAGE(.BOTH.,#183);
#151=SURFACE_STYLE_USAGE(.BOTH.,#184);
#152=SURFACE_STYLE_USAGE(.BOTH.,#185);
#153=SURFACE_STYLE_USAGE(.BOTH.,#186);
#154=SURFACE_STYLE_USAGE(.BOTH.,#187);
#155=SURFACE_STYLE_USAGE(.BOTH.,#188);
#156=SURFACE_STYLE_USAGE(.BOTH.,#189);
#157=SURFACE_STYLE_USAGE(.BOTH.,#190);
#158=SURFACE_STYLE_USAGE(.BOTH.,#191);
#159=SURFACE_STYLE_USAGE(.BOTH.,#192);
#160=SURFACE_STYLE_USAGE(.BOTH.,#193);
#161=SURFACE_STYLE_USAGE(.BOTH.,#194);
#162=SURFACE_STYLE_USAGE(.BOTH.,#195);
#163=SURFACE_STYLE_USAGE(.BOTH.,#196);
#164=SURFACE_STYLE_USAGE(.BOTH.,#197);
#165=SURFACE_STYLE_USAGE(.BOTH.,#198);
#166=SURFACE_STYLE_USAGE(.BOTH.,#199);
#167=SURFACE_STYLE_USAGE(.BOTH.,#200);
#168=SURFACE_STYLE_USAGE(.BOTH.,#201);
#169=SURFACE_STYLE_USAGE(.BOTH.,#202);
#170=SURFACE_STYLE_USAGE(.BOTH.,#203);
#171=SURFACE_STYLE_USAGE(.BOTH.,#204);
#172=SURFACE_STYLE_USAGE(.BOTH.,#205);
#173=SURFACE_SIDE_STYLE('',(#206));
#174=SURFACE_SIDE_STYLE('',(#207));
#175=SURFACE_SIDE_STYLE('',(#208));
#176=SURFACE_SIDE_STYLE('',(#209));
#177=SURFACE_SIDE_STYLE('',(#210));
#178=SURFACE_SIDE_STYLE('',(#211));
#179=SURFACE_SIDE_STYLE('',(#212));
#180=SURFACE_SIDE_STYLE('',(#213));
#181=SURFACE_SIDE_STYLE('',(#214));
#182=SURFACE_SIDE_STYLE('',(#215));
#183=SURFACE_SIDE_STYLE('',(#216));
#184=SURFACE_SIDE_STYLE('',(#217));
#185=SURFACE_SIDE_STYLE('',(#218));
#186=SURFACE_SIDE_STYLE('',(#219));
#187=SURFACE_SIDE_STYLE('',(#220));
#188=SURFACE_SIDE_STYLE('',(#221));
#189=SURFACE_SIDE_STYLE('',(#222));
#190=SURFACE_SIDE_STYLE('',(#223));
#191=SURFACE_SIDE_STYLE('',(#224));
#192=SURFACE_SIDE_STYLE('',(#225));
#193=SURFACE_SIDE_STYLE('',(#226));
#194=SURFACE_SIDE_STYLE('',(#227));
#195=SURFACE_SIDE_STYLE('',(#228));
#196=SURFACE_SIDE_STYLE('',(#229));
#197=SURFACE_SIDE_STYLE('',(#230));
#198=SURFACE_SIDE_STYLE('',(#231));
#199=SURFACE_SIDE_STYLE('',(#232));
#200=SURFACE_SIDE_STYLE('',(#233));
#201=SURFACE_SIDE_STYLE('',(#234));
#202=SURFACE_SIDE_STYLE('',(#235));
#203=SURFACE_SIDE_STYLE('',(#236));
#204=SURFACE_SIDE_STYLE('',(#237));
#205=SURFACE_SIDE_STYLE('',(#238));
#206=SURFACE_STYLE_FILL_AREA(#239);
#207=SURFACE_STYLE_FILL_AREA(#240);
#208=SURFACE_STYLE_FILL_AREA(#241);
#209=SURFACE_STYLE_FILL_AREA(#242);
#210=SURFACE_STYLE_FILL_AREA(#243);
#211=SURFACE_STYLE_FILL_AREA(#244);
#212=SURFACE_STYLE_FILL_AREA(#245);
#213=SURFACE_STYLE_FILL_AREA(#246);
#214=SURFACE_STYLE_FILL_AREA(#247);
#215=SURFACE_STYLE_FILL_AREA(#248);
#216=SURFACE_STYLE_FILL_AREA(#249);
#217=SURFACE_STYLE_FILL_AREA(#250);
#218=SURFACE_STYLE_FILL_AREA(#251);
#219=SURFACE_STYLE_FILL_AREA(#252);
#220=SURFACE_STYLE_FILL_AREA(#253);
#221=SURFACE_STYLE_FILL_AREA(#254);
#222=SURFACE_STYLE_FILL_AREA(#255);
#223=SURFACE_STYLE_FILL_AREA(#256);
#224=SURFACE_STYLE_FILL_AREA(#257);
#225=SURFACE_STYLE_FILL_AREA(#258);
#226=SURFACE_STYLE_FILL_AREA(#259);
#227=SURFACE_STYLE_FILL_AREA(#260);
#228=SURFACE_STYLE_FILL_AREA(#261);
#229=SURFACE_STYLE_FILL_AREA(#262);
#230=SURFACE_STYLE_FILL_AREA(#263);
#231=SURFACE_STYLE_FILL_AREA(#264);
#232=SURFACE_STYLE_FILL_AREA(#265);
#233=SURFACE_STYLE_FILL_AREA(#266);
#234=SURFACE_STYLE_FILL_AREA(#267);
#235=SURFACE_STYLE_FILL_AREA(#268);
#236=SURFACE_STYLE_FILL_AREA(#269);
#237=SURFACE_STYLE_FILL_AREA(#270);
#238=SURFACE_STYLE_FILL_AREA(#271);
#239=FILL_AREA_STYLE('',(#272));
#240=FILL_AREA_STYLE('',(#273));
#241=FILL_AREA_STYLE('',(#274));
#242=FILL_AREA_STYLE('',(#275));
#243=FILL_AREA_STYLE('',(#276));
#244=FILL_AREA_STYLE('',(#277));
#245=FILL_AREA_STYLE('',(#278));
#246=FILL_AREA_STYLE('',(#279));
#247=FILL_AREA_STYLE('',(#280));
#248=FILL_AREA_STYLE('',(#281));
#249=FILL_AREA_STYLE('',(#282));
#250=FILL_AREA_STYLE('',(#283));
#251=FILL_AREA_STYLE('',(#284));
#252=FILL_AREA_STYLE('',(#285));
#253=FILL_AREA_STYLE('',(#286));
#254=FILL_AREA_STYLE('',(#287));
#255=FILL_AREA_STYLE('',(#288));
#256=FILL_AREA_STYLE('',(#289));
#257=FILL_AREA_STYLE('',(#290));
#258=FILL_AREA_STYLE('',(#291));
#259=FILL_AREA_STYLE('',(#292));
#260=FILL_AREA_STYLE('',(#293));
#261=FILL_AREA_STYLE('',(#294));
#262=FILL_AREA_STYLE('',(#295));
#263=FILL_AREA_STYLE('',(#296));
#264=FILL_AREA_STYLE('',(#297));
#265=FILL_AREA_STYLE('',(#298));
#266=FILL_AREA_STYLE('',(#299));
#267=FILL_AREA_STYLE('',(#300));
#268=FILL_AREA_STYLE('',(#301));
#269=FILL_AREA_STYLE('',(#302));
#270=FILL_AREA_STYLE('',(#303));
#271=FILL_AREA_STYLE('',(#304));
#272=FILL_AREA_STYLE_COLOUR('',#305);
#273=FILL_AREA_STYLE_COLOUR('',#306);
#274=FILL_AREA_STYLE_COLOUR('',#306);
#275=FILL_AREA_STYLE_COLOUR('',#306);
#276=FILL_AREA_STYLE_COLOUR('',#306);
#277=FILL_AREA_STYLE_COLOUR('',#306);
#278=FILL_AREA_STYLE_COLOUR('',#306);
#279=FILL_AREA_STYLE_COLOUR('',#306);
#280=FILL_AREA_STYLE_COLOUR('',#305);
#281=FILL_AREA_STYLE_COLOUR('',#306);
#282=FILL_AREA_STYLE_COLOUR('',#306);
#283=FILL_AREA_STYLE_COLOUR('',#306);
#284=FILL_AREA_STYLE_COLOUR('',#306);
#285=FILL_AREA_STYLE_COLOUR('',#306);
#286=FILL_AREA_STYLE_COLOUR('',#306);
#287=FILL_AREA_STYLE_COLOUR('',#305);
#288=FILL_AREA_STYLE_COLOUR('',#306);
#289=FILL_AREA_STYLE_COLOUR('',#306);
#290=FILL_AREA_STYLE_COLOUR('',#306);
#291=FILL_AREA_STYLE_COLOUR('',#306);
#292=FILL_AREA_STYLE_COLOUR('',#306);
#293=FILL_AREA_STYLE_COLOUR('',#306);
#294=FILL_AREA_STYLE_COLOUR('',#306);
#295=FILL_AREA_STYLE_COLOUR('',#305);
#296=FILL_AREA_STYLE_COLOUR('',#305);
#297=FILL_AREA_STYLE_COLOUR('',#306);
#298=FILL_AREA_STYLE_COLOUR('',#306);
#299=FILL_AREA_STYLE_COLOUR('',#306);
#300=FILL_AREA_STYLE_COLOUR('',#306);
#301=FILL_AREA_STYLE_COLOUR('',#306);
#302=FILL_AREA_STYLE_COLOUR('',#306);
#303=FILL_AREA_STYLE_COLOUR('',#306);
#304=FILL_AREA_STYLE_COLOUR('',#305);
#305=COLOUR_RGB('Orange',1.,0.6,0.);
#306=COLOUR_RGB('Light Gray',0.8,0.8,0.8);
#307=MANIFOLD_SOLID_BREP('',#313);
#308=MANIFOLD_SOLID_BREP('',#314);
#309=MANIFOLD_SOLID_BREP('',#315);
#310=MANIFOLD_SOLID_BREP('',#316);
#311=MANIFOLD_SOLID_BREP('',#317);
#312=MANIFOLD_SOLID_BREP('',#318);
#313=CLOSED_SHELL('',(#319,#320,#321,#322,#323,#324,#325));
#314=CLOSED_SHELL('',(#326,#327,#328,#329,#330,#331));
#315=CLOSED_SHELL('',(#332,#333,#334,#335,#336,#337,#338));
#316=CLOSED_SHELL('',(#339,#340,#341,#342,#343,#344,#345,#346,#347,#348,
#349,#350,#351,#352,#353,#354,#355,#356,#357,#358,#359,#360,#361,#362,#363,
#364,#365,#366,#367,#368));
#317=CLOSED_SHELL('',(#369,#370,#371,#372,#373,#374,#375));
#318=CLOSED_SHELL('',(#376,#377,#378,#379,#380,#381,#382,#383,#384,#385,
#386,#387,#388,#389,#390));
#319=ADVANCED_FACE('',(#460),#391,.T.);
#320=ADVANCED_FACE('',(#461),#392,.T.);
#321=ADVANCED_FACE('',(#462),#393,.T.);
#322=ADVANCED_FACE('',(#463),#394,.T.);
#323=ADVANCED_FACE('',(#464),#395,.T.);
#324=ADVANCED_FACE('',(#465),#396,.T.);
#325=ADVANCED_FACE('',(#466),#397,.F.);
#326=ADVANCED_FACE('',(#467),#398,.T.);
#327=ADVANCED_FACE('',(#468),#399,.T.);
#328=ADVANCED_FACE('',(#469),#400,.T.);
#329=ADVANCED_FACE('',(#470),#401,.T.);
#330=ADVANCED_FACE('',(#471),#402,.F.);
#331=ADVANCED_FACE('',(#472),#403,.T.);
#332=ADVANCED_FACE('',(#473),#404,.T.);
#333=ADVANCED_FACE('',(#474),#405,.T.);
#334=ADVANCED_FACE('',(#475),#406,.T.);
#335=ADVANCED_FACE('',(#476),#407,.T.);
#336=ADVANCED_FACE('',(#477),#408,.T.);
#337=ADVANCED_FACE('',(#478),#409,.F.);
#338=ADVANCED_FACE('',(#479),#410,.T.);
#339=ADVANCED_FACE('',(#480),#411,.T.);
#340=ADVANCED_FACE('',(#481),#412,.T.);
#341=ADVANCED_FACE('',(#482),#413,.T.);
#342=ADVANCED_FACE('',(#483),#414,.T.);
#343=ADVANCED_FACE('',(#484),#415,.T.);
#344=ADVANCED_FACE('',(#63,#64),#416,.F.);
#345=ADVANCED_FACE('',(#485),#417,.T.);
#346=ADVANCED_FACE('',(#486),#418,.T.);
#347=ADVANCED_FACE('',(#487),#419,.T.);
#348=ADVANCED_FACE('',(#488),#420,.T.);
#349=ADVANCED_FACE('',(#65,#66),#53,.T.);
#350=ADVANCED_FACE('',(#67,#68),#54,.F.);
#351=ADVANCED_FACE('',(#69,#70),#421,.T.);
#352=ADVANCED_FACE('',(#489),#422,.T.);
#353=ADVANCED_FACE('',(#490),#423,.T.);
#354=ADVANCED_FACE('',(#491),#424,.T.);
#355=ADVANCED_FACE('',(#492),#425,.T.);
#356=ADVANCED_FACE('',(#493),#426,.F.);
#357=ADVANCED_FACE('',(#494),#427,.T.);
#358=ADVANCED_FACE('',(#495),#428,.T.);
#359=ADVANCED_FACE('',(#496),#429,.T.);
#360=ADVANCED_FACE('',(#497),#430,.F.);
#361=ADVANCED_FACE('',(#498),#431,.T.);
#362=ADVANCED_FACE('',(#499),#432,.T.);
#363=ADVANCED_FACE('',(#500),#433,.T.);
#364=ADVANCED_FACE('',(#501),#434,.F.);
#365=ADVANCED_FACE('',(#502),#435,.F.);
#366=ADVANCED_FACE('',(#503),#436,.F.);
#367=ADVANCED_FACE('',(#504),#437,.F.);
#368=ADVANCED_FACE('',(#505),#438,.T.);
#369=ADVANCED_FACE('',(#506),#439,.T.);
#370=ADVANCED_FACE('',(#507),#440,.T.);
#371=ADVANCED_FACE('',(#508),#441,.T.);
#372=ADVANCED_FACE('',(#509),#442,.T.);
#373=ADVANCED_FACE('',(#510),#443,.T.);
#374=ADVANCED_FACE('',(#511),#444,.T.);
#375=ADVANCED_FACE('',(#512),#445,.F.);
#376=ADVANCED_FACE('',(#513),#446,.F.);
#377=ADVANCED_FACE('',(#514),#447,.F.);
#378=ADVANCED_FACE('',(#515),#448,.F.);
#379=ADVANCED_FACE('',(#516),#449,.F.);
#380=ADVANCED_FACE('',(#517),#450,.F.);
#381=ADVANCED_FACE('',(#518),#451,.F.);
#382=ADVANCED_FACE('',(#519),#452,.F.);
#383=ADVANCED_FACE('',(#520),#453,.F.);
#384=ADVANCED_FACE('',(#521),#454,.T.);
#385=ADVANCED_FACE('',(#522),#455,.F.);
#386=ADVANCED_FACE('',(#71,#72),#55,.F.);
#387=ADVANCED_FACE('',(#523),#456,.T.);
#388=ADVANCED_FACE('',(#524),#457,.F.);
#389=ADVANCED_FACE('',(#525),#458,.F.);
#390=ADVANCED_FACE('',(#526),#459,.F.);
#391=PLANE('',#1556);
#392=PLANE('',#1557);
#393=PLANE('',#1558);
#394=PLANE('',#1559);
#395=PLANE('',#1560);
#396=PLANE('',#1561);
#397=PLANE('',#1562);
#398=PLANE('',#1563);
#399=PLANE('',#1564);
#400=PLANE('',#1565);
#401=PLANE('',#1566);
#402=PLANE('',#1567);
#403=PLANE('',#1568);
#404=PLANE('',#1569);
#405=PLANE('',#1570);
#406=PLANE('',#1571);
#407=PLANE('',#1572);
#408=PLANE('',#1573);
#409=PLANE('',#1574);
#410=PLANE('',#1575);
#411=PLANE('',#1576);
#412=PLANE('',#1577);
#413=PLANE('',#1578);
#414=PLANE('',#1579);
#415=PLANE('',#1580);
#416=PLANE('',#1582);
#417=PLANE('',#1583);
#418=PLANE('',#1584);
#419=PLANE('',#1585);
#420=PLANE('',#1586);
#421=PLANE('',#1592);
#422=PLANE('',#1593);
#423=PLANE('',#1594);
#424=PLANE('',#1595);
#425=PLANE('',#1596);
#426=PLANE('',#1597);
#427=PLANE('',#1598);
#428=PLANE('',#1599);
#429=PLANE('',#1600);
#430=PLANE('',#1601);
#431=PLANE('',#1602);
#432=PLANE('',#1603);
#433=PLANE('',#1604);
#434=PLANE('',#1605);
#435=PLANE('',#1606);
#436=PLANE('',#1607);
#437=PLANE('',#1608);
#438=PLANE('',#1609);
#439=PLANE('',#1610);
#440=PLANE('',#1611);
#441=PLANE('',#1612);
#442=PLANE('',#1613);
#443=PLANE('',#1614);
#444=PLANE('',#1615);
#445=PLANE('',#1616);
#446=PLANE('',#1617);
#447=PLANE('',#1618);
#448=PLANE('',#1619);
#449=PLANE('',#1620);
#450=PLANE('',#1621);
#451=PLANE('',#1622);
#452=PLANE('',#1623);
#453=PLANE('',#1624);
#454=PLANE('',#1626);
#455=PLANE('',#1627);
#456=PLANE('',#1631);
#457=PLANE('',#1632);
#458=PLANE('',#1633);
#459=PLANE('',#1634);
#460=FACE_OUTER_BOUND('',#527,.T.);
#461=FACE_OUTER_BOUND('',#528,.T.);
#462=FACE_OUTER_BOUND('',#529,.T.);
#463=FACE_OUTER_BOUND('',#530,.T.);
#464=FACE_OUTER_BOUND('',#531,.T.);
#465=FACE_OUTER_BOUND('',#532,.T.);
#466=FACE_OUTER_BOUND('',#533,.T.);
#467=FACE_OUTER_BOUND('',#534,.T.);
#468=FACE_OUTER_BOUND('',#535,.T.);
#469=FACE_OUTER_BOUND('',#536,.T.);
#470=FACE_OUTER_BOUND('',#537,.T.);
#471=FACE_OUTER_BOUND('',#538,.T.);
#472=FACE_OUTER_BOUND('',#539,.T.);
#473=FACE_OUTER_BOUND('',#540,.T.);
#474=FACE_OUTER_BOUND('',#541,.T.);
#475=FACE_OUTER_BOUND('',#542,.T.);
#476=FACE_OUTER_BOUND('',#543,.T.);
#477=FACE_OUTER_BOUND('',#544,.T.);
#478=FACE_OUTER_BOUND('',#545,.T.);
#479=FACE_OUTER_BOUND('',#546,.T.);
#480=FACE_OUTER_BOUND('',#547,.T.);
#481=FACE_OUTER_BOUND('',#548,.T.);
#482=FACE_OUTER_BOUND('',#549,.T.);
#483=FACE_OUTER_BOUND('',#550,.T.);
#484=FACE_OUTER_BOUND('',#551,.T.);
#485=FACE_OUTER_BOUND('',#554,.T.);
#486=FACE_OUTER_BOUND('',#555,.T.);
#487=FACE_OUTER_BOUND('',#556,.T.);
#488=FACE_OUTER_BOUND('',#557,.T.);
#489=FACE_OUTER_BOUND('',#564,.T.);
#490=FACE_OUTER_BOUND('',#565,.T.);
#491=FACE_OUTER_BOUND('',#566,.T.);
#492=FACE_OUTER_BOUND('',#567,.T.);
#493=FACE_OUTER_BOUND('',#568,.T.);
#494=FACE_OUTER_BOUND('',#569,.T.);
#495=FACE_OUTER_BOUND('',#570,.T.);
#496=FACE_OUTER_BOUND('',#571,.T.);
#497=FACE_OUTER_BOUND('',#572,.T.);
#498=FACE_OUTER_BOUND('',#573,.T.);
#499=FACE_OUTER_BOUND('',#574,.T.);
#500=FACE_OUTER_BOUND('',#575,.T.);
#501=FACE_OUTER_BOUND('',#576,.T.);
#502=FACE_OUTER_BOUND('',#577,.T.);
#503=FACE_OUTER_BOUND('',#578,.T.);
#504=FACE_OUTER_BOUND('',#579,.T.);
#505=FACE_OUTER_BOUND('',#580,.T.);
#506=FACE_OUTER_BOUND('',#581,.T.);
#507=FACE_OUTER_BOUND('',#582,.T.);
#508=FACE_OUTER_BOUND('',#583,.T.);
#509=FACE_OUTER_BOUND('',#584,.T.);
#510=FACE_OUTER_BOUND('',#585,.T.);
#511=FACE_OUTER_BOUND('',#586,.T.);
#512=FACE_OUTER_BOUND('',#587,.T.);
#513=FACE_OUTER_BOUND('',#588,.T.);
#514=FACE_OUTER_BOUND('',#589,.T.);
#515=FACE_OUTER_BOUND('',#590,.T.);
#516=FACE_OUTER_BOUND('',#591,.T.);
#517=FACE_OUTER_BOUND('',#592,.T.);
#518=FACE_OUTER_BOUND('',#593,.T.);
#519=FACE_OUTER_BOUND('',#594,.T.);
#520=FACE_OUTER_BOUND('',#595,.T.);
#521=FACE_OUTER_BOUND('',#596,.T.);
#522=FACE_OUTER_BOUND('',#597,.T.);
#523=FACE_OUTER_BOUND('',#600,.T.);
#524=FACE_OUTER_BOUND('',#601,.T.);
#525=FACE_OUTER_BOUND('',#602,.T.);
#526=FACE_OUTER_BOUND('',#603,.T.);
#527=EDGE_LOOP('',(#604,#605,#606,#607));
#528=EDGE_LOOP('',(#608,#609,#610,#611));
#529=EDGE_LOOP('',(#612,#613,#614,#615));
#530=EDGE_LOOP('',(#616,#617,#618,#619));
#531=EDGE_LOOP('',(#620,#621,#622,#623));
#532=EDGE_LOOP('',(#624,#625,#626,#627,#628));
#533=EDGE_LOOP('',(#629,#630,#631,#632,#633));
#534=EDGE_LOOP('',(#634,#635,#636,#637));
#535=EDGE_LOOP('',(#638,#639,#640,#641));
#536=EDGE_LOOP('',(#642,#643,#644,#645));
#537=EDGE_LOOP('',(#646,#647,#648,#649));
#538=EDGE_LOOP('',(#650,#651,#652,#653));
#539=EDGE_LOOP('',(#654,#655,#656,#657));
#540=EDGE_LOOP('',(#658,#659,#660,#661));
#541=EDGE_LOOP('',(#662,#663,#664,#665));
#542=EDGE_LOOP('',(#666,#667,#668,#669));
#543=EDGE_LOOP('',(#670,#671,#672,#673));
#544=EDGE_LOOP('',(#674,#675,#676,#677));
#545=EDGE_LOOP('',(#678,#679,#680,#681,#682));
#546=EDGE_LOOP('',(#683,#684,#685,#686,#687));
#547=EDGE_LOOP('',(#688,#689,#690,#691,#692,#693,#694,#695));
#548=EDGE_LOOP('',(#696,#697,#698,#699,#700,#701,#702,#703,#704,#705,#706,
#707,#708,#709,#710,#711,#712,#713,#714,#715,#716,#717,#718,#719));
#549=EDGE_LOOP('',(#720,#721,#722,#723,#724,#725,#726,#727));
#550=EDGE_LOOP('',(#728,#729,#730,#731,#732,#733,#734,#735));
#551=EDGE_LOOP('',(#736,#737,#738,#739,#740,#741,#742,#743));
#552=EDGE_LOOP('',(#744,#745,#746,#747,#748,#749,#750,#751));
#553=EDGE_LOOP('',(#752));
#554=EDGE_LOOP('',(#753,#754,#755,#756));
#555=EDGE_LOOP('',(#757,#758,#759,#760));
#556=EDGE_LOOP('',(#761,#762,#763,#764));
#557=EDGE_LOOP('',(#765,#766,#767,#768));
#558=EDGE_LOOP('',(#769));
#559=EDGE_LOOP('',(#770));
#560=EDGE_LOOP('',(#771));
#561=EDGE_LOOP('',(#772));
#562=EDGE_LOOP('',(#773));
#563=EDGE_LOOP('',(#774));
#564=EDGE_LOOP('',(#775));
#565=EDGE_LOOP('',(#776,#777,#778,#779));
#566=EDGE_LOOP('',(#780,#781,#782,#783));
#567=EDGE_LOOP('',(#784,#785,#786,#787));
#568=EDGE_LOOP('',(#788,#789,#790,#791));
#569=EDGE_LOOP('',(#792,#793,#794,#795));
#570=EDGE_LOOP('',(#796,#797,#798,#799));
#571=EDGE_LOOP('',(#800,#801,#802,#803));
#572=EDGE_LOOP('',(#804,#805,#806,#807));
#573=EDGE_LOOP('',(#808,#809,#810,#811));
#574=EDGE_LOOP('',(#812,#813,#814,#815));
#575=EDGE_LOOP('',(#816,#817,#818,#819));
#576=EDGE_LOOP('',(#820,#821,#822,#823));
#577=EDGE_LOOP('',(#824,#825,#826,#827));
#578=EDGE_LOOP('',(#828,#829,#830,#831));
#579=EDGE_LOOP('',(#832,#833,#834,#835));
#580=EDGE_LOOP('',(#836,#837,#838,#839));
#581=EDGE_LOOP('',(#840,#841,#842,#843));
#582=EDGE_LOOP('',(#844,#845,#846,#847));
#583=EDGE_LOOP('',(#848,#849,#850,#851));
#584=EDGE_LOOP('',(#852,#853,#854,#855));
#585=EDGE_LOOP('',(#856,#857,#858,#859));
#586=EDGE_LOOP('',(#860,#861,#862,#863,#864));
#587=EDGE_LOOP('',(#865,#866,#867,#868,#869));
#588=EDGE_LOOP('',(#870,#871,#872,#873));
#589=EDGE_LOOP('',(#874,#875,#876,#877));
#590=EDGE_LOOP('',(#878,#879,#880,#881));
#591=EDGE_LOOP('',(#882,#883,#884,#885));
#592=EDGE_LOOP('',(#886,#887,#888,#889));
#593=EDGE_LOOP('',(#890,#891,#892,#893));
#594=EDGE_LOOP('',(#894,#895,#896,#897,#898,#899,#900,#901));
#595=EDGE_LOOP('',(#902,#903,#904,#905));
#596=EDGE_LOOP('',(#906,#907,#908,#909,#910,#911,#912,#913,#914,#915,#916,
#917));
#597=EDGE_LOOP('',(#918,#919,#920,#921,#922,#923,#924,#925));
#598=EDGE_LOOP('',(#926));
#599=EDGE_LOOP('',(#927,#928,#929,#930));
#600=EDGE_LOOP('',(#931));
#601=EDGE_LOOP('',(#932,#933,#934,#935));
#602=EDGE_LOOP('',(#936,#937,#938,#939));
#603=EDGE_LOOP('',(#940,#941,#942,#943));
#604=ORIENTED_EDGE('',*,*,#1059,.F.);
#605=ORIENTED_EDGE('',*,*,#1060,.F.);
#606=ORIENTED_EDGE('',*,*,#1061,.T.);
#607=ORIENTED_EDGE('',*,*,#1062,.T.);
#608=ORIENTED_EDGE('',*,*,#1063,.F.);
#609=ORIENTED_EDGE('',*,*,#1062,.F.);
#610=ORIENTED_EDGE('',*,*,#1064,.T.);
#611=ORIENTED_EDGE('',*,*,#1065,.T.);
#612=ORIENTED_EDGE('',*,*,#1066,.F.);
#613=ORIENTED_EDGE('',*,*,#1065,.F.);
#614=ORIENTED_EDGE('',*,*,#1067,.T.);
#615=ORIENTED_EDGE('',*,*,#1068,.T.);
#616=ORIENTED_EDGE('',*,*,#1069,.F.);
#617=ORIENTED_EDGE('',*,*,#1068,.F.);
#618=ORIENTED_EDGE('',*,*,#1070,.T.);
#619=ORIENTED_EDGE('',*,*,#1071,.T.);
#620=ORIENTED_EDGE('',*,*,#1072,.F.);
#621=ORIENTED_EDGE('',*,*,#1071,.F.);
#622=ORIENTED_EDGE('',*,*,#1073,.T.);
#623=ORIENTED_EDGE('',*,*,#1060,.T.);
#624=ORIENTED_EDGE('',*,*,#1061,.F.);
#625=ORIENTED_EDGE('',*,*,#1073,.F.);
#626=ORIENTED_EDGE('',*,*,#1070,.F.);
#627=ORIENTED_EDGE('',*,*,#1067,.F.);
#628=ORIENTED_EDGE('',*,*,#1064,.F.);
#629=ORIENTED_EDGE('',*,*,#1059,.T.);
#630=ORIENTED_EDGE('',*,*,#1063,.T.);
#631=ORIENTED_EDGE('',*,*,#1066,.T.);
#632=ORIENTED_EDGE('',*,*,#1069,.T.);
#633=ORIENTED_EDGE('',*,*,#1072,.T.);
#634=ORIENTED_EDGE('',*,*,#1074,.F.);
#635=ORIENTED_EDGE('',*,*,#1075,.F.);
#636=ORIENTED_EDGE('',*,*,#1076,.T.);
#637=ORIENTED_EDGE('',*,*,#1077,.T.);
#638=ORIENTED_EDGE('',*,*,#1078,.F.);
#639=ORIENTED_EDGE('',*,*,#1077,.F.);
#640=ORIENTED_EDGE('',*,*,#1079,.T.);
#641=ORIENTED_EDGE('',*,*,#1080,.T.);
#642=ORIENTED_EDGE('',*,*,#1081,.F.);
#643=ORIENTED_EDGE('',*,*,#1080,.F.);
#644=ORIENTED_EDGE('',*,*,#1082,.T.);
#645=ORIENTED_EDGE('',*,*,#1083,.T.);
#646=ORIENTED_EDGE('',*,*,#1084,.F.);
#647=ORIENTED_EDGE('',*,*,#1083,.F.);
#648=ORIENTED_EDGE('',*,*,#1085,.T.);
#649=ORIENTED_EDGE('',*,*,#1075,.T.);
#650=ORIENTED_EDGE('',*,*,#1076,.F.);
#651=ORIENTED_EDGE('',*,*,#1085,.F.);
#652=ORIENTED_EDGE('',*,*,#1082,.F.);
#653=ORIENTED_EDGE('',*,*,#1079,.F.);
#654=ORIENTED_EDGE('',*,*,#1074,.T.);
#655=ORIENTED_EDGE('',*,*,#1078,.T.);
#656=ORIENTED_EDGE('',*,*,#1081,.T.);
#657=ORIENTED_EDGE('',*,*,#1084,.T.);
#658=ORIENTED_EDGE('',*,*,#1086,.F.);
#659=ORIENTED_EDGE('',*,*,#1087,.F.);
#660=ORIENTED_EDGE('',*,*,#1088,.T.);
#661=ORIENTED_EDGE('',*,*,#1089,.T.);
#662=ORIENTED_EDGE('',*,*,#1090,.F.);
#663=ORIENTED_EDGE('',*,*,#1089,.F.);
#664=ORIENTED_EDGE('',*,*,#1091,.T.);
#665=ORIENTED_EDGE('',*,*,#1092,.T.);
#666=ORIENTED_EDGE('',*,*,#1093,.F.);
#667=ORIENTED_EDGE('',*,*,#1092,.F.);
#668=ORIENTED_EDGE('',*,*,#1094,.T.);
#669=ORIENTED_EDGE('',*,*,#1095,.T.);
#670=ORIENTED_EDGE('',*,*,#1096,.F.);
#671=ORIENTED_EDGE('',*,*,#1095,.F.);
#672=ORIENTED_EDGE('',*,*,#1097,.T.);
#673=ORIENTED_EDGE('',*,*,#1098,.T.);
#674=ORIENTED_EDGE('',*,*,#1099,.F.);
#675=ORIENTED_EDGE('',*,*,#1098,.F.);
#676=ORIENTED_EDGE('',*,*,#1100,.T.);
#677=ORIENTED_EDGE('',*,*,#1087,.T.);
#678=ORIENTED_EDGE('',*,*,#1088,.F.);
#679=ORIENTED_EDGE('',*,*,#1100,.F.);
#680=ORIENTED_EDGE('',*,*,#1097,.F.);
#681=ORIENTED_EDGE('',*,*,#1094,.F.);
#682=ORIENTED_EDGE('',*,*,#1091,.F.);
#683=ORIENTED_EDGE('',*,*,#1086,.T.);
#684=ORIENTED_EDGE('',*,*,#1090,.T.);
#685=ORIENTED_EDGE('',*,*,#1093,.T.);
#686=ORIENTED_EDGE('',*,*,#1096,.T.);
#687=ORIENTED_EDGE('',*,*,#1099,.T.);
#688=ORIENTED_EDGE('',*,*,#1101,.F.);
#689=ORIENTED_EDGE('',*,*,#1102,.T.);
#690=ORIENTED_EDGE('',*,*,#1103,.F.);
#691=ORIENTED_EDGE('',*,*,#1104,.F.);
#692=ORIENTED_EDGE('',*,*,#1105,.T.);
#693=ORIENTED_EDGE('',*,*,#1106,.T.);
#694=ORIENTED_EDGE('',*,*,#1107,.F.);
#695=ORIENTED_EDGE('',*,*,#1108,.F.);
#696=ORIENTED_EDGE('',*,*,#1109,.F.);
#697=ORIENTED_EDGE('',*,*,#1110,.F.);
#698=ORIENTED_EDGE('',*,*,#1111,.F.);
#699=ORIENTED_EDGE('',*,*,#1107,.T.);
#700=ORIENTED_EDGE('',*,*,#1112,.T.);
#701=ORIENTED_EDGE('',*,*,#1113,.T.);
#702=ORIENTED_EDGE('',*,*,#1114,.T.);
#703=ORIENTED_EDGE('',*,*,#1115,.T.);
#704=ORIENTED_EDGE('',*,*,#1116,.T.);
#705=ORIENTED_EDGE('',*,*,#1117,.T.);
#706=ORIENTED_EDGE('',*,*,#1118,.T.);
#707=ORIENTED_EDGE('',*,*,#1119,.T.);
#708=ORIENTED_EDGE('',*,*,#1120,.T.);
#709=ORIENTED_EDGE('',*,*,#1121,.T.);
#710=ORIENTED_EDGE('',*,*,#1122,.T.);
#711=ORIENTED_EDGE('',*,*,#1123,.T.);
#712=ORIENTED_EDGE('',*,*,#1124,.T.);
#713=ORIENTED_EDGE('',*,*,#1125,.T.);
#714=ORIENTED_EDGE('',*,*,#1126,.T.);
#715=ORIENTED_EDGE('',*,*,#1127,.T.);
#716=ORIENTED_EDGE('',*,*,#1128,.T.);
#717=ORIENTED_EDGE('',*,*,#1129,.T.);
#718=ORIENTED_EDGE('',*,*,#1130,.T.);
#719=ORIENTED_EDGE('',*,*,#1103,.T.);
#720=ORIENTED_EDGE('',*,*,#1131,.T.);
#721=ORIENTED_EDGE('',*,*,#1132,.T.);
#722=ORIENTED_EDGE('',*,*,#1125,.F.);
#723=ORIENTED_EDGE('',*,*,#1133,.F.);
#724=ORIENTED_EDGE('',*,*,#1134,.T.);
#725=ORIENTED_EDGE('',*,*,#1135,.T.);
#726=ORIENTED_EDGE('',*,*,#1129,.F.);
#727=ORIENTED_EDGE('',*,*,#1136,.F.);
#728=ORIENTED_EDGE('',*,*,#1137,.T.);
#729=ORIENTED_EDGE('',*,*,#1138,.T.);
#730=ORIENTED_EDGE('',*,*,#1119,.F.);
#731=ORIENTED_EDGE('',*,*,#1139,.F.);
#732=ORIENTED_EDGE('',*,*,#1140,.T.);
#733=ORIENTED_EDGE('',*,*,#1141,.T.);
#734=ORIENTED_EDGE('',*,*,#1123,.F.);
#735=ORIENTED_EDGE('',*,*,#1142,.F.);
#736=ORIENTED_EDGE('',*,*,#1143,.T.);
#737=ORIENTED_EDGE('',*,*,#1144,.T.);
#738=ORIENTED_EDGE('',*,*,#1113,.F.);
#739=ORIENTED_EDGE('',*,*,#1145,.F.);
#740=ORIENTED_EDGE('',*,*,#1146,.T.);
#741=ORIENTED_EDGE('',*,*,#1147,.T.);
#742=ORIENTED_EDGE('',*,*,#1117,.F.);
#743=ORIENTED_EDGE('',*,*,#1148,.F.);
#744=ORIENTED_EDGE('',*,*,#1149,.F.);
#745=ORIENTED_EDGE('',*,*,#1140,.F.);
#746=ORIENTED_EDGE('',*,*,#1150,.F.);
#747=ORIENTED_EDGE('',*,*,#1146,.F.);
#748=ORIENTED_EDGE('',*,*,#1151,.F.);
#749=ORIENTED_EDGE('',*,*,#1105,.F.);
#750=ORIENTED_EDGE('',*,*,#1152,.F.);
#751=ORIENTED_EDGE('',*,*,#1134,.F.);
#752=ORIENTED_EDGE('',*,*,#1153,.F.);
#753=ORIENTED_EDGE('',*,*,#1124,.F.);
#754=ORIENTED_EDGE('',*,*,#1141,.F.);
#755=ORIENTED_EDGE('',*,*,#1149,.T.);
#756=ORIENTED_EDGE('',*,*,#1133,.T.);
#757=ORIENTED_EDGE('',*,*,#1130,.F.);
#758=ORIENTED_EDGE('',*,*,#1135,.F.);
#759=ORIENTED_EDGE('',*,*,#1152,.T.);
#760=ORIENTED_EDGE('',*,*,#1104,.T.);
#761=ORIENTED_EDGE('',*,*,#1112,.F.);
#762=ORIENTED_EDGE('',*,*,#1106,.F.);
#763=ORIENTED_EDGE('',*,*,#1151,.T.);
#764=ORIENTED_EDGE('',*,*,#1145,.T.);
#765=ORIENTED_EDGE('',*,*,#1118,.F.);
#766=ORIENTED_EDGE('',*,*,#1147,.F.);
#767=ORIENTED_EDGE('',*,*,#1150,.T.);
#768=ORIENTED_EDGE('',*,*,#1139,.T.);
#769=ORIENTED_EDGE('',*,*,#1154,.F.);
#770=ORIENTED_EDGE('',*,*,#1153,.T.);
#771=ORIENTED_EDGE('',*,*,#1155,.T.);
#772=ORIENTED_EDGE('',*,*,#1156,.F.);
#773=ORIENTED_EDGE('',*,*,#1154,.T.);
#774=ORIENTED_EDGE('',*,*,#1155,.F.);
#775=ORIENTED_EDGE('',*,*,#1156,.T.);
#776=ORIENTED_EDGE('',*,*,#1115,.F.);
#777=ORIENTED_EDGE('',*,*,#1157,.T.);
#778=ORIENTED_EDGE('',*,*,#1158,.F.);
#779=ORIENTED_EDGE('',*,*,#1159,.F.);
#780=ORIENTED_EDGE('',*,*,#1116,.F.);
#781=ORIENTED_EDGE('',*,*,#1159,.T.);
#782=ORIENTED_EDGE('',*,*,#1160,.F.);
#783=ORIENTED_EDGE('',*,*,#1148,.T.);
#784=ORIENTED_EDGE('',*,*,#1114,.F.);
#785=ORIENTED_EDGE('',*,*,#1144,.F.);
#786=ORIENTED_EDGE('',*,*,#1161,.F.);
#787=ORIENTED_EDGE('',*,*,#1157,.F.);
#788=ORIENTED_EDGE('',*,*,#1158,.T.);
#789=ORIENTED_EDGE('',*,*,#1161,.T.);
#790=ORIENTED_EDGE('',*,*,#1143,.F.);
#791=ORIENTED_EDGE('',*,*,#1160,.T.);
#792=ORIENTED_EDGE('',*,*,#1122,.F.);
#793=ORIENTED_EDGE('',*,*,#1162,.T.);
#794=ORIENTED_EDGE('',*,*,#1163,.F.);
#795=ORIENTED_EDGE('',*,*,#1142,.T.);
#796=ORIENTED_EDGE('',*,*,#1120,.F.);
#797=ORIENTED_EDGE('',*,*,#1138,.F.);
#798=ORIENTED_EDGE('',*,*,#1164,.F.);
#799=ORIENTED_EDGE('',*,*,#1165,.F.);
#800=ORIENTED_EDGE('',*,*,#1121,.F.);
#801=ORIENTED_EDGE('',*,*,#1165,.T.);
#802=ORIENTED_EDGE('',*,*,#1166,.F.);
#803=ORIENTED_EDGE('',*,*,#1162,.F.);
#804=ORIENTED_EDGE('',*,*,#1163,.T.);
#805=ORIENTED_EDGE('',*,*,#1166,.T.);
#806=ORIENTED_EDGE('',*,*,#1164,.T.);
#807=ORIENTED_EDGE('',*,*,#1137,.F.);
#808=ORIENTED_EDGE('',*,*,#1128,.F.);
#809=ORIENTED_EDGE('',*,*,#1167,.T.);
#810=ORIENTED_EDGE('',*,*,#1168,.F.);
#811=ORIENTED_EDGE('',*,*,#1136,.T.);
#812=ORIENTED_EDGE('',*,*,#1126,.F.);
#813=ORIENTED_EDGE('',*,*,#1132,.F.);
#814=ORIENTED_EDGE('',*,*,#1169,.F.);
#815=ORIENTED_EDGE('',*,*,#1170,.F.);
#816=ORIENTED_EDGE('',*,*,#1127,.F.);
#817=ORIENTED_EDGE('',*,*,#1170,.T.);
#818=ORIENTED_EDGE('',*,*,#1171,.F.);
#819=ORIENTED_EDGE('',*,*,#1167,.F.);
#820=ORIENTED_EDGE('',*,*,#1168,.T.);
#821=ORIENTED_EDGE('',*,*,#1171,.T.);
#822=ORIENTED_EDGE('',*,*,#1169,.T.);
#823=ORIENTED_EDGE('',*,*,#1131,.F.);
#824=ORIENTED_EDGE('',*,*,#1109,.T.);
#825=ORIENTED_EDGE('',*,*,#1102,.F.);
#826=ORIENTED_EDGE('',*,*,#1172,.T.);
#827=ORIENTED_EDGE('',*,*,#1173,.F.);
#828=ORIENTED_EDGE('',*,*,#1111,.T.);
#829=ORIENTED_EDGE('',*,*,#1174,.T.);
#830=ORIENTED_EDGE('',*,*,#1175,.T.);
#831=ORIENTED_EDGE('',*,*,#1108,.T.);
#832=ORIENTED_EDGE('',*,*,#1110,.T.);
#833=ORIENTED_EDGE('',*,*,#1173,.T.);
#834=ORIENTED_EDGE('',*,*,#1176,.T.);
#835=ORIENTED_EDGE('',*,*,#1174,.F.);
#836=ORIENTED_EDGE('',*,*,#1172,.F.);
#837=ORIENTED_EDGE('',*,*,#1101,.T.);
#838=ORIENTED_EDGE('',*,*,#1175,.F.);
#839=ORIENTED_EDGE('',*,*,#1176,.F.);
#840=ORIENTED_EDGE('',*,*,#1177,.F.);
#841=ORIENTED_EDGE('',*,*,#1178,.F.);
#842=ORIENTED_EDGE('',*,*,#1179,.T.);
#843=ORIENTED_EDGE('',*,*,#1180,.T.);
#844=ORIENTED_EDGE('',*,*,#1181,.F.);
#845=ORIENTED_EDGE('',*,*,#1180,.F.);
#846=ORIENTED_EDGE('',*,*,#1182,.T.);
#847=ORIENTED_EDGE('',*,*,#1183,.T.);
#848=ORIENTED_EDGE('',*,*,#1184,.F.);
#849=ORIENTED_EDGE('',*,*,#1183,.F.);
#850=ORIENTED_EDGE('',*,*,#1185,.T.);
#851=ORIENTED_EDGE('',*,*,#1186,.T.);
#852=ORIENTED_EDGE('',*,*,#1187,.F.);
#853=ORIENTED_EDGE('',*,*,#1186,.F.);
#854=ORIENTED_EDGE('',*,*,#1188,.T.);
#855=ORIENTED_EDGE('',*,*,#1189,.T.);
#856=ORIENTED_EDGE('',*,*,#1190,.F.);
#857=ORIENTED_EDGE('',*,*,#1189,.F.);
#858=ORIENTED_EDGE('',*,*,#1191,.T.);
#859=ORIENTED_EDGE('',*,*,#1178,.T.);
#860=ORIENTED_EDGE('',*,*,#1179,.F.);
#861=ORIENTED_EDGE('',*,*,#1191,.F.);
#862=ORIENTED_EDGE('',*,*,#1188,.F.);
#863=ORIENTED_EDGE('',*,*,#1185,.F.);
#864=ORIENTED_EDGE('',*,*,#1182,.F.);
#865=ORIENTED_EDGE('',*,*,#1177,.T.);
#866=ORIENTED_EDGE('',*,*,#1181,.T.);
#867=ORIENTED_EDGE('',*,*,#1184,.T.);
#868=ORIENTED_EDGE('',*,*,#1187,.T.);
#869=ORIENTED_EDGE('',*,*,#1190,.T.);
#870=ORIENTED_EDGE('',*,*,#1192,.T.);
#871=ORIENTED_EDGE('',*,*,#1193,.F.);
#872=ORIENTED_EDGE('',*,*,#1194,.F.);
#873=ORIENTED_EDGE('',*,*,#1195,.T.);
#874=ORIENTED_EDGE('',*,*,#1196,.T.);
#875=ORIENTED_EDGE('',*,*,#1197,.F.);
#876=ORIENTED_EDGE('',*,*,#1198,.F.);
#877=ORIENTED_EDGE('',*,*,#1193,.T.);
#878=ORIENTED_EDGE('',*,*,#1199,.T.);
#879=ORIENTED_EDGE('',*,*,#1200,.F.);
#880=ORIENTED_EDGE('',*,*,#1201,.F.);
#881=ORIENTED_EDGE('',*,*,#1197,.T.);
#882=ORIENTED_EDGE('',*,*,#1202,.T.);
#883=ORIENTED_EDGE('',*,*,#1203,.F.);
#884=ORIENTED_EDGE('',*,*,#1204,.F.);
#885=ORIENTED_EDGE('',*,*,#1200,.T.);
#886=ORIENTED_EDGE('',*,*,#1205,.T.);
#887=ORIENTED_EDGE('',*,*,#1206,.F.);
#888=ORIENTED_EDGE('',*,*,#1207,.F.);
#889=ORIENTED_EDGE('',*,*,#1203,.T.);
#890=ORIENTED_EDGE('',*,*,#1208,.T.);
#891=ORIENTED_EDGE('',*,*,#1209,.F.);
#892=ORIENTED_EDGE('',*,*,#1210,.F.);
#893=ORIENTED_EDGE('',*,*,#1206,.T.);
#894=ORIENTED_EDGE('',*,*,#1211,.F.);
#895=ORIENTED_EDGE('',*,*,#1212,.T.);
#896=ORIENTED_EDGE('',*,*,#1213,.F.);
#897=ORIENTED_EDGE('',*,*,#1209,.T.);
#898=ORIENTED_EDGE('',*,*,#1214,.T.);
#899=ORIENTED_EDGE('',*,*,#1215,.F.);
#900=ORIENTED_EDGE('',*,*,#1216,.F.);
#901=ORIENTED_EDGE('',*,*,#1217,.F.);
#902=ORIENTED_EDGE('',*,*,#1218,.T.);
#903=ORIENTED_EDGE('',*,*,#1195,.F.);
#904=ORIENTED_EDGE('',*,*,#1219,.F.);
#905=ORIENTED_EDGE('',*,*,#1215,.T.);
#906=ORIENTED_EDGE('',*,*,#1220,.F.);
#907=ORIENTED_EDGE('',*,*,#1216,.T.);
#908=ORIENTED_EDGE('',*,*,#1219,.T.);
#909=ORIENTED_EDGE('',*,*,#1194,.T.);
#910=ORIENTED_EDGE('',*,*,#1198,.T.);
#911=ORIENTED_EDGE('',*,*,#1201,.T.);
#912=ORIENTED_EDGE('',*,*,#1204,.T.);
#913=ORIENTED_EDGE('',*,*,#1207,.T.);
#914=ORIENTED_EDGE('',*,*,#1210,.T.);
#915=ORIENTED_EDGE('',*,*,#1213,.T.);
#916=ORIENTED_EDGE('',*,*,#1221,.F.);
#917=ORIENTED_EDGE('',*,*,#1222,.F.);
#918=ORIENTED_EDGE('',*,*,#1192,.F.);
#919=ORIENTED_EDGE('',*,*,#1218,.F.);
#920=ORIENTED_EDGE('',*,*,#1214,.F.);
#921=ORIENTED_EDGE('',*,*,#1208,.F.);
#922=ORIENTED_EDGE('',*,*,#1205,.F.);
#923=ORIENTED_EDGE('',*,*,#1202,.F.);
#924=ORIENTED_EDGE('',*,*,#1199,.F.);
#925=ORIENTED_EDGE('',*,*,#1196,.F.);
#926=ORIENTED_EDGE('',*,*,#1223,.T.);
#927=ORIENTED_EDGE('',*,*,#1224,.F.);
#928=ORIENTED_EDGE('',*,*,#1225,.T.);
#929=ORIENTED_EDGE('',*,*,#1222,.T.);
#930=ORIENTED_EDGE('',*,*,#1226,.F.);
#931=ORIENTED_EDGE('',*,*,#1223,.F.);
#932=ORIENTED_EDGE('',*,*,#1220,.T.);
#933=ORIENTED_EDGE('',*,*,#1225,.F.);
#934=ORIENTED_EDGE('',*,*,#1227,.T.);
#935=ORIENTED_EDGE('',*,*,#1217,.T.);
#936=ORIENTED_EDGE('',*,*,#1221,.T.);
#937=ORIENTED_EDGE('',*,*,#1212,.F.);
#938=ORIENTED_EDGE('',*,*,#1228,.T.);
#939=ORIENTED_EDGE('',*,*,#1226,.T.);
#940=ORIENTED_EDGE('',*,*,#1211,.T.);
#941=ORIENTED_EDGE('',*,*,#1227,.F.);
#942=ORIENTED_EDGE('',*,*,#1224,.T.);
#943=ORIENTED_EDGE('',*,*,#1228,.F.);
#944=VERTEX_POINT('',#1966);
#945=VERTEX_POINT('',#1967);
#946=VERTEX_POINT('',#1969);
#947=VERTEX_POINT('',#1971);
#948=VERTEX_POINT('',#1975);
#949=VERTEX_POINT('',#1977);
#950=VERTEX_POINT('',#1981);
#951=VERTEX_POINT('',#1983);
#952=VERTEX_POINT('',#1987);
#953=VERTEX_POINT('',#1989);
#954=VERTEX_POINT('',#1998);
#955=VERTEX_POINT('',#1999);
#956=VERTEX_POINT('',#2001);
#957=VERTEX_POINT('',#2003);
#958=VERTEX_POINT('',#2007);
#959=VERTEX_POINT('',#2009);
#960=VERTEX_POINT('',#2013);
#961=VERTEX_POINT('',#2015);
#962=VERTEX_POINT('',#2024);
#963=VERTEX_POINT('',#2025);
#964=VERTEX_POINT('',#2027);
#965=VERTEX_POINT('',#2029);
#966=VERTEX_POINT('',#2033);
#967=VERTEX_POINT('',#2035);
#968=VERTEX_POINT('',#2039);
#969=VERTEX_POINT('',#2041);
#970=VERTEX_POINT('',#2045);
#971=VERTEX_POINT('',#2047);
#972=VERTEX_POINT('',#2056);
#973=VERTEX_POINT('',#2057);
#974=VERTEX_POINT('',#2059);
#975=VERTEX_POINT('',#2061);
#976=VERTEX_POINT('',#2063);
#977=VERTEX_POINT('',#2065);
#978=VERTEX_POINT('',#2067);
#979=VERTEX_POINT('',#2069);
#980=VERTEX_POINT('',#2073);
#981=VERTEX_POINT('',#2075);
#982=VERTEX_POINT('',#2078);
#983=VERTEX_POINT('',#2080);
#984=VERTEX_POINT('',#2082);
#985=VERTEX_POINT('',#2084);
#986=VERTEX_POINT('',#2086);
#987=VERTEX_POINT('',#2088);
#988=VERTEX_POINT('',#2090);
#989=VERTEX_POINT('',#2092);
#990=VERTEX_POINT('',#2094);
#991=VERTEX_POINT('',#2096);
#992=VERTEX_POINT('',#2098);
#993=VERTEX_POINT('',#2100);
#994=VERTEX_POINT('',#2102);
#995=VERTEX_POINT('',#2104);
#996=VERTEX_POINT('',#2106);
#997=VERTEX_POINT('',#2108);
#998=VERTEX_POINT('',#2110);
#999=VERTEX_POINT('',#2112);
#1000=VERTEX_POINT('',#2116);
#1001=VERTEX_POINT('',#2117);
#1002=VERTEX_POINT('',#2120);
#1003=VERTEX_POINT('',#2122);
#1004=VERTEX_POINT('',#2127);
#1005=VERTEX_POINT('',#2128);
#1006=VERTEX_POINT('',#2131);
#1007=VERTEX_POINT('',#2133);
#1008=VERTEX_POINT('',#2138);
#1009=VERTEX_POINT('',#2139);
#1010=VERTEX_POINT('',#2142);
#1011=VERTEX_POINT('',#2144);
#1012=VERTEX_POINT('',#2153);
#1013=VERTEX_POINT('',#2160);
#1014=VERTEX_POINT('',#2163);
#1015=VERTEX_POINT('',#2165);
#1016=VERTEX_POINT('',#2170);
#1017=VERTEX_POINT('',#2172);
#1018=VERTEX_POINT('',#2181);
#1019=VERTEX_POINT('',#2185);
#1020=VERTEX_POINT('',#2192);
#1021=VERTEX_POINT('',#2196);
#1022=VERTEX_POINT('',#2203);
#1023=VERTEX_POINT('',#2207);
#1024=VERTEX_POINT('',#2214);
#1025=VERTEX_POINT('',#2215);
#1026=VERTEX_POINT('',#2217);
#1027=VERTEX_POINT('',#2219);
#1028=VERTEX_POINT('',#2223);
#1029=VERTEX_POINT('',#2225);
#1030=VERTEX_POINT('',#2229);
#1031=VERTEX_POINT('',#2231);
#1032=VERTEX_POINT('',#2235);
#1033=VERTEX_POINT('',#2237);
#1034=VERTEX_POINT('',#2246);
#1035=VERTEX_POINT('',#2247);
#1036=VERTEX_POINT('',#2249);
#1037=VERTEX_POINT('',#2251);
#1038=VERTEX_POINT('',#2255);
#1039=VERTEX_POINT('',#2257);
#1040=VERTEX_POINT('',#2261);
#1041=VERTEX_POINT('',#2263);
#1042=VERTEX_POINT('',#2267);
#1043=VERTEX_POINT('',#2269);
#1044=VERTEX_POINT('',#2273);
#1045=VERTEX_POINT('',#2275);
#1046=VERTEX_POINT('',#2279);
#1047=VERTEX_POINT('',#2281);
#1048=VERTEX_POINT('',#2285);
#1049=VERTEX_POINT('',#2286);
#1050=VERTEX_POINT('',#2288);
#1051=VERTEX_POINT('',#2291);
#1052=VERTEX_POINT('',#2293);
#1053=VERTEX_POINT('',#2295);
#1054=VERTEX_POINT('',#2302);
#1055=VERTEX_POINT('',#2304);
#1056=VERTEX_POINT('',#2309);
#1057=VERTEX_POINT('',#2311);
#1058=VERTEX_POINT('',#2312);
#1059=EDGE_CURVE('',#944,#945,#1229,.T.);
#1060=EDGE_CURVE('',#946,#944,#1230,.T.);
#1061=EDGE_CURVE('',#946,#947,#1231,.T.);
#1062=EDGE_CURVE('',#947,#945,#1232,.T.);
#1063=EDGE_CURVE('',#945,#948,#1233,.T.);
#1064=EDGE_CURVE('',#947,#949,#1234,.T.);
#1065=EDGE_CURVE('',#949,#948,#1235,.T.);
#1066=EDGE_CURVE('',#948,#950,#1236,.T.);
#1067=EDGE_CURVE('',#949,#951,#1237,.T.);
#1068=EDGE_CURVE('',#951,#950,#1238,.T.);
#1069=EDGE_CURVE('',#950,#952,#1239,.T.);
#1070=EDGE_CURVE('',#951,#953,#1240,.T.);
#1071=EDGE_CURVE('',#953,#952,#1241,.T.);
#1072=EDGE_CURVE('',#952,#944,#1242,.T.);
#1073=EDGE_CURVE('',#953,#946,#1243,.T.);
#1074=EDGE_CURVE('',#954,#955,#1244,.T.);
#1075=EDGE_CURVE('',#956,#954,#1245,.T.);
#1076=EDGE_CURVE('',#956,#957,#1246,.T.);
#1077=EDGE_CURVE('',#957,#955,#1247,.T.);
#1078=EDGE_CURVE('',#955,#958,#1248,.T.);
#1079=EDGE_CURVE('',#957,#959,#1249,.T.);
#1080=EDGE_CURVE('',#959,#958,#1250,.T.);
#1081=EDGE_CURVE('',#958,#960,#1251,.T.);
#1082=EDGE_CURVE('',#959,#961,#1252,.T.);
#1083=EDGE_CURVE('',#961,#960,#1253,.T.);
#1084=EDGE_CURVE('',#960,#954,#1254,.T.);
#1085=EDGE_CURVE('',#961,#956,#1255,.T.);
#1086=EDGE_CURVE('',#962,#963,#1256,.T.);
#1087=EDGE_CURVE('',#964,#962,#1257,.T.);
#1088=EDGE_CURVE('',#964,#965,#1258,.T.);
#1089=EDGE_CURVE('',#965,#963,#1259,.T.);
#1090=EDGE_CURVE('',#963,#966,#1260,.T.);
#1091=EDGE_CURVE('',#965,#967,#1261,.T.);
#1092=EDGE_CURVE('',#967,#966,#1262,.T.);
#1093=EDGE_CURVE('',#966,#968,#1263,.T.);
#1094=EDGE_CURVE('',#967,#969,#1264,.T.);
#1095=EDGE_CURVE('',#969,#968,#1265,.T.);
#1096=EDGE_CURVE('',#968,#970,#1266,.T.);
#1097=EDGE_CURVE('',#969,#971,#1267,.T.);
#1098=EDGE_CURVE('',#971,#970,#1268,.T.);
#1099=EDGE_CURVE('',#970,#962,#1269,.T.);
#1100=EDGE_CURVE('',#971,#964,#1270,.T.);
#1101=EDGE_CURVE('',#972,#973,#1271,.T.);
#1102=EDGE_CURVE('',#972,#974,#1272,.T.);
#1103=EDGE_CURVE('',#975,#974,#1273,.T.);
#1104=EDGE_CURVE('',#976,#975,#1274,.T.);
#1105=EDGE_CURVE('',#976,#977,#1275,.T.);
#1106=EDGE_CURVE('',#977,#978,#1276,.T.);
#1107=EDGE_CURVE('',#979,#978,#1277,.T.);
#1108=EDGE_CURVE('',#973,#979,#1278,.T.);
#1109=EDGE_CURVE('',#980,#974,#1279,.T.);
#1110=EDGE_CURVE('',#981,#980,#1280,.T.);
#1111=EDGE_CURVE('',#979,#981,#1281,.T.);
#1112=EDGE_CURVE('',#978,#982,#1282,.T.);
#1113=EDGE_CURVE('',#982,#983,#1283,.T.);
#1114=EDGE_CURVE('',#983,#984,#1284,.T.);
#1115=EDGE_CURVE('',#984,#985,#1285,.T.);
#1116=EDGE_CURVE('',#985,#986,#1286,.T.);
#1117=EDGE_CURVE('',#986,#987,#1287,.T.);
#1118=EDGE_CURVE('',#987,#988,#1288,.T.);
#1119=EDGE_CURVE('',#988,#989,#1289,.T.);
#1120=EDGE_CURVE('',#989,#990,#1290,.T.);
#1121=EDGE_CURVE('',#990,#991,#1291,.T.);
#1122=EDGE_CURVE('',#991,#992,#1292,.T.);
#1123=EDGE_CURVE('',#992,#993,#1293,.T.);
#1124=EDGE_CURVE('',#993,#994,#1294,.T.);
#1125=EDGE_CURVE('',#994,#995,#1295,.T.);
#1126=EDGE_CURVE('',#995,#996,#1296,.T.);
#1127=EDGE_CURVE('',#996,#997,#1297,.T.);
#1128=EDGE_CURVE('',#997,#998,#1298,.T.);
#1129=EDGE_CURVE('',#998,#999,#1299,.T.);
#1130=EDGE_CURVE('',#999,#975,#1300,.T.);
#1131=EDGE_CURVE('',#1000,#1001,#1301,.T.);
#1132=EDGE_CURVE('',#1001,#995,#1302,.T.);
#1133=EDGE_CURVE('',#1002,#994,#1303,.T.);
#1134=EDGE_CURVE('',#1002,#1003,#1304,.T.);
#1135=EDGE_CURVE('',#1003,#999,#1305,.T.);
#1136=EDGE_CURVE('',#1000,#998,#1306,.T.);
#1137=EDGE_CURVE('',#1004,#1005,#1307,.T.);
#1138=EDGE_CURVE('',#1005,#989,#1308,.T.);
#1139=EDGE_CURVE('',#1006,#988,#1309,.T.);
#1140=EDGE_CURVE('',#1006,#1007,#1310,.T.);
#1141=EDGE_CURVE('',#1007,#993,#1311,.T.);
#1142=EDGE_CURVE('',#1004,#992,#1312,.T.);
#1143=EDGE_CURVE('',#1008,#1009,#1313,.T.);
#1144=EDGE_CURVE('',#1009,#983,#1314,.T.);
#1145=EDGE_CURVE('',#1010,#982,#1315,.T.);
#1146=EDGE_CURVE('',#1010,#1011,#1316,.T.);
#1147=EDGE_CURVE('',#1011,#987,#1317,.T.);
#1148=EDGE_CURVE('',#1008,#986,#1318,.T.);
#1149=EDGE_CURVE('',#1007,#1002,#1319,.T.);
#1150=EDGE_CURVE('',#1011,#1006,#1320,.T.);
#1151=EDGE_CURVE('',#977,#1010,#1321,.T.);
#1152=EDGE_CURVE('',#1003,#976,#1322,.T.);
#1153=EDGE_CURVE('',#1012,#1012,#56,.T.);
#1154=EDGE_CURVE('',#1013,#1013,#57,.T.);
#1155=EDGE_CURVE('',#1014,#1014,#58,.T.);
#1156=EDGE_CURVE('',#1015,#1015,#59,.T.);
#1157=EDGE_CURVE('',#984,#1016,#1323,.T.);
#1158=EDGE_CURVE('',#1017,#1016,#1324,.T.);
#1159=EDGE_CURVE('',#985,#1017,#1325,.T.);
#1160=EDGE_CURVE('',#1008,#1017,#1326,.T.);
#1161=EDGE_CURVE('',#1016,#1009,#1327,.T.);
#1162=EDGE_CURVE('',#991,#1018,#1328,.T.);
#1163=EDGE_CURVE('',#1004,#1018,#1329,.T.);
#1164=EDGE_CURVE('',#1019,#1005,#1330,.T.);
#1165=EDGE_CURVE('',#990,#1019,#1331,.T.);
#1166=EDGE_CURVE('',#1018,#1019,#1332,.T.);
#1167=EDGE_CURVE('',#997,#1020,#1333,.T.);
#1168=EDGE_CURVE('',#1000,#1020,#1334,.T.);
#1169=EDGE_CURVE('',#1021,#1001,#1335,.T.);
#1170=EDGE_CURVE('',#996,#1021,#1336,.T.);
#1171=EDGE_CURVE('',#1020,#1021,#1337,.T.);
#1172=EDGE_CURVE('',#972,#1022,#1338,.T.);
#1173=EDGE_CURVE('',#980,#1022,#1339,.T.);
#1174=EDGE_CURVE('',#981,#1023,#1340,.T.);
#1175=EDGE_CURVE('',#1023,#973,#1341,.T.);
#1176=EDGE_CURVE('',#1022,#1023,#1342,.T.);
#1177=EDGE_CURVE('',#1024,#1025,#1343,.T.);
#1178=EDGE_CURVE('',#1026,#1024,#1344,.T.);
#1179=EDGE_CURVE('',#1026,#1027,#1345,.T.);
#1180=EDGE_CURVE('',#1027,#1025,#1346,.T.);
#1181=EDGE_CURVE('',#1025,#1028,#1347,.T.);
#1182=EDGE_CURVE('',#1027,#1029,#1348,.T.);
#1183=EDGE_CURVE('',#1029,#1028,#1349,.T.);
#1184=EDGE_CURVE('',#1028,#1030,#1350,.T.);
#1185=EDGE_CURVE('',#1029,#1031,#1351,.T.);
#1186=EDGE_CURVE('',#1031,#1030,#1352,.T.);
#1187=EDGE_CURVE('',#1030,#1032,#1353,.T.);
#1188=EDGE_CURVE('',#1031,#1033,#1354,.T.);
#1189=EDGE_CURVE('',#1033,#1032,#1355,.T.);
#1190=EDGE_CURVE('',#1032,#1024,#1356,.T.);
#1191=EDGE_CURVE('',#1033,#1026,#1357,.T.);
#1192=EDGE_CURVE('',#1034,#1035,#1358,.T.);
#1193=EDGE_CURVE('',#1036,#1035,#1359,.T.);
#1194=EDGE_CURVE('',#1037,#1036,#1360,.T.);
#1195=EDGE_CURVE('',#1037,#1034,#1361,.T.);
#1196=EDGE_CURVE('',#1035,#1038,#1362,.T.);
#1197=EDGE_CURVE('',#1039,#1038,#1363,.T.);
#1198=EDGE_CURVE('',#1036,#1039,#1364,.T.);
#1199=EDGE_CURVE('',#1038,#1040,#1365,.T.);
#1200=EDGE_CURVE('',#1041,#1040,#1366,.T.);
#1201=EDGE_CURVE('',#1039,#1041,#1367,.T.);
#1202=EDGE_CURVE('',#1040,#1042,#1368,.T.);
#1203=EDGE_CURVE('',#1043,#1042,#1369,.T.);
#1204=EDGE_CURVE('',#1041,#1043,#1370,.T.);
#1205=EDGE_CURVE('',#1042,#1044,#1371,.T.);
#1206=EDGE_CURVE('',#1045,#1044,#1372,.T.);
#1207=EDGE_CURVE('',#1043,#1045,#1373,.T.);
#1208=EDGE_CURVE('',#1044,#1046,#1374,.T.);
#1209=EDGE_CURVE('',#1047,#1046,#1375,.T.);
#1210=EDGE_CURVE('',#1045,#1047,#1376,.T.);
#1211=EDGE_CURVE('',#1048,#1049,#1377,.T.);
#1212=EDGE_CURVE('',#1048,#1050,#1378,.T.);
#1213=EDGE_CURVE('',#1047,#1050,#1379,.T.);
#1214=EDGE_CURVE('',#1046,#1051,#1380,.T.);
#1215=EDGE_CURVE('',#1052,#1051,#1381,.T.);
#1216=EDGE_CURVE('',#1053,#1052,#1382,.T.);
#1217=EDGE_CURVE('',#1049,#1053,#1383,.T.);
#1218=EDGE_CURVE('',#1051,#1034,#1384,.T.);
#1219=EDGE_CURVE('',#1052,#1037,#1385,.T.);
#1220=EDGE_CURVE('',#1053,#1054,#1386,.T.);
#1221=EDGE_CURVE('',#1055,#1050,#1387,.T.);
#1222=EDGE_CURVE('',#1054,#1055,#60,.T.);
#1223=EDGE_CURVE('',#1056,#1056,#61,.T.);
#1224=EDGE_CURVE('',#1057,#1058,#62,.T.);
#1225=EDGE_CURVE('',#1057,#1054,#1388,.T.);
#1226=EDGE_CURVE('',#1058,#1055,#1389,.T.);
#1227=EDGE_CURVE('',#1057,#1049,#1390,.T.);
#1228=EDGE_CURVE('',#1048,#1058,#1391,.T.);
#1229=LINE('',#1965,#1392);
#1230=LINE('',#1968,#1393);
#1231=LINE('',#1970,#1394);
#1232=LINE('',#1972,#1395);
#1233=LINE('',#1974,#1396);
#1234=LINE('',#1976,#1397);
#1235=LINE('',#1978,#1398);
#1236=LINE('',#1980,#1399);
#1237=LINE('',#1982,#1400);
#1238=LINE('',#1984,#1401);
#1239=LINE('',#1986,#1402);
#1240=LINE('',#1988,#1403);
#1241=LINE('',#1990,#1404);
#1242=LINE('',#1992,#1405);
#1243=LINE('',#1993,#1406);
#1244=LINE('',#1997,#1407);
#1245=LINE('',#2000,#1408);
#1246=LINE('',#2002,#1409);
#1247=LINE('',#2004,#1410);
#1248=LINE('',#2006,#1411);
#1249=LINE('',#2008,#1412);
#1250=LINE('',#2010,#1413);
#1251=LINE('',#2012,#1414);
#1252=LINE('',#2014,#1415);
#1253=LINE('',#2016,#1416);
#1254=LINE('',#2018,#1417);
#1255=LINE('',#2019,#1418);
#1256=LINE('',#2023,#1419);
#1257=LINE('',#2026,#1420);
#1258=LINE('',#2028,#1421);
#1259=LINE('',#2030,#1422);
#1260=LINE('',#2032,#1423);
#1261=LINE('',#2034,#1424);
#1262=LINE('',#2036,#1425);
#1263=LINE('',#2038,#1426);
#1264=LINE('',#2040,#1427);
#1265=LINE('',#2042,#1428);
#1266=LINE('',#2044,#1429);
#1267=LINE('',#2046,#1430);
#1268=LINE('',#2048,#1431);
#1269=LINE('',#2050,#1432);
#1270=LINE('',#2051,#1433);
#1271=LINE('',#2055,#1434);
#1272=LINE('',#2058,#1435);
#1273=LINE('',#2060,#1436);
#1274=LINE('',#2062,#1437);
#1275=LINE('',#2064,#1438);
#1276=LINE('',#2066,#1439);
#1277=LINE('',#2068,#1440);
#1278=LINE('',#2070,#1441);
#1279=LINE('',#2072,#1442);
#1280=LINE('',#2074,#1443);
#1281=LINE('',#2076,#1444);
#1282=LINE('',#2077,#1445);
#1283=LINE('',#2079,#1446);
#1284=LINE('',#2081,#1447);
#1285=LINE('',#2083,#1448);
#1286=LINE('',#2085,#1449);
#1287=LINE('',#2087,#1450);
#1288=LINE('',#2089,#1451);
#1289=LINE('',#2091,#1452);
#1290=LINE('',#2093,#1453);
#1291=LINE('',#2095,#1454);
#1292=LINE('',#2097,#1455);
#1293=LINE('',#2099,#1456);
#1294=LINE('',#2101,#1457);
#1295=LINE('',#2103,#1458);
#1296=LINE('',#2105,#1459);
#1297=LINE('',#2107,#1460);
#1298=LINE('',#2109,#1461);
#1299=LINE('',#2111,#1462);
#1300=LINE('',#2113,#1463);
#1301=LINE('',#2115,#1464);
#1302=LINE('',#2118,#1465);
#1303=LINE('',#2119,#1466);
#1304=LINE('',#2121,#1467);
#1305=LINE('',#2123,#1468);
#1306=LINE('',#2124,#1469);
#1307=LINE('',#2126,#1470);
#1308=LINE('',#2129,#1471);
#1309=LINE('',#2130,#1472);
#1310=LINE('',#2132,#1473);
#1311=LINE('',#2134,#1474);
#1312=LINE('',#2135,#1475);
#1313=LINE('',#2137,#1476);
#1314=LINE('',#2140,#1477);
#1315=LINE('',#2141,#1478);
#1316=LINE('',#2143,#1479);
#1317=LINE('',#2145,#1480);
#1318=LINE('',#2146,#1481);
#1319=LINE('',#2148,#1482);
#1320=LINE('',#2149,#1483);
#1321=LINE('',#2150,#1484);
#1322=LINE('',#2151,#1485);
#1323=LINE('',#2169,#1486);
#1324=LINE('',#2171,#1487);
#1325=LINE('',#2173,#1488);
#1326=LINE('',#2175,#1489);
#1327=LINE('',#2177,#1490);
#1328=LINE('',#2180,#1491);
#1329=LINE('',#2182,#1492);
#1330=LINE('',#2184,#1493);
#1331=LINE('',#2186,#1494);
#1332=LINE('',#2188,#1495);
#1333=LINE('',#2191,#1496);
#1334=LINE('',#2193,#1497);
#1335=LINE('',#2195,#1498);
#1336=LINE('',#2197,#1499);
#1337=LINE('',#2199,#1500);
#1338=LINE('',#2202,#1501);
#1339=LINE('',#2204,#1502);
#1340=LINE('',#2206,#1503);
#1341=LINE('',#2208,#1504);
#1342=LINE('',#2210,#1505);
#1343=LINE('',#2213,#1506);
#1344=LINE('',#2216,#1507);
#1345=LINE('',#2218,#1508);
#1346=LINE('',#2220,#1509);
#1347=LINE('',#2222,#1510);
#1348=LINE('',#2224,#1511);
#1349=LINE('',#2226,#1512);
#1350=LINE('',#2228,#1513);
#1351=LINE('',#2230,#1514);
#1352=LINE('',#2232,#1515);
#1353=LINE('',#2234,#1516);
#1354=LINE('',#2236,#1517);
#1355=LINE('',#2238,#1518);
#1356=LINE('',#2240,#1519);
#1357=LINE('',#2241,#1520);
#1358=LINE('',#2245,#1521);
#1359=LINE('',#2248,#1522);
#1360=LINE('',#2250,#1523);
#1361=LINE('',#2252,#1524);
#1362=LINE('',#2254,#1525);
#1363=LINE('',#2256,#1526);
#1364=LINE('',#2258,#1527);
#1365=LINE('',#2260,#1528);
#1366=LINE('',#2262,#1529);
#1367=LINE('',#2264,#1530);
#1368=LINE('',#2266,#1531);
#1369=LINE('',#2268,#1532);
#1370=LINE('',#2270,#1533);
#1371=LINE('',#2272,#1534);
#1372=LINE('',#2274,#1535);
#1373=LINE('',#2276,#1536);
#1374=LINE('',#2278,#1537);
#1375=LINE('',#2280,#1538);
#1376=LINE('',#2282,#1539);
#1377=LINE('',#2284,#1540);
#1378=LINE('',#2287,#1541);
#1379=LINE('',#2289,#1542);
#1380=LINE('',#2290,#1543);
#1381=LINE('',#2292,#1544);
#1382=LINE('',#2294,#1545);
#1383=LINE('',#2296,#1546);
#1384=LINE('',#2298,#1547);
#1385=LINE('',#2299,#1548);
#1386=LINE('',#2301,#1549);
#1387=LINE('',#2303,#1550);
#1388=LINE('',#2313,#1551);
#1389=LINE('',#2314,#1552);
#1390=LINE('',#2317,#1553);
#1391=LINE('',#2319,#1554);
#1392=VECTOR('',#1639,1.);
#1393=VECTOR('',#1640,1.);
#1394=VECTOR('',#1641,1.);
#1395=VECTOR('',#1642,1.);
#1396=VECTOR('',#1645,1.);
#1397=VECTOR('',#1646,1.);
#1398=VECTOR('',#1647,1.);
#1399=VECTOR('',#1650,1.);
#1400=VECTOR('',#1651,1.);
#1401=VECTOR('',#1652,1.);
#1402=VECTOR('',#1655,1.);
#1403=VECTOR('',#1656,1.);
#1404=VECTOR('',#1657,1.);
#1405=VECTOR('',#1660,1.);
#1406=VECTOR('',#1661,1.);
#1407=VECTOR('',#1668,1.);
#1408=VECTOR('',#1669,1.);
#1409=VECTOR('',#1670,1.);
#1410=VECTOR('',#1671,1.);
#1411=VECTOR('',#1674,1.);
#1412=VECTOR('',#1675,1.);
#1413=VECTOR('',#1676,1.);
#1414=VECTOR('',#1679,1.);
#1415=VECTOR('',#1680,1.);
#1416=VECTOR('',#1681,1.);
#1417=VECTOR('',#1684,1.);
#1418=VECTOR('',#1685,1.);
#1419=VECTOR('',#1692,1.);
#1420=VECTOR('',#1693,1.);
#1421=VECTOR('',#1694,1.);
#1422=VECTOR('',#1695,1.);
#1423=VECTOR('',#1698,1.);
#1424=VECTOR('',#1699,1.);
#1425=VECTOR('',#1700,1.);
#1426=VECTOR('',#1703,1.);
#1427=VECTOR('',#1704,1.);
#1428=VECTOR('',#1705,1.);
#1429=VECTOR('',#1708,1.);
#1430=VECTOR('',#1709,1.);
#1431=VECTOR('',#1710,1.);
#1432=VECTOR('',#1713,1.);
#1433=VECTOR('',#1714,1.);
#1434=VECTOR('',#1721,1.);
#1435=VECTOR('',#1722,1.);
#1436=VECTOR('',#1723,1.);
#1437=VECTOR('',#1724,1.);
#1438=VECTOR('',#1725,1.);
#1439=VECTOR('',#1726,1.);
#1440=VECTOR('',#1727,1.);
#1441=VECTOR('',#1728,1.);
#1442=VECTOR('',#1731,1.);
#1443=VECTOR('',#1732,1.);
#1444=VECTOR('',#1733,1.);
#1445=VECTOR('',#1734,1.);
#1446=VECTOR('',#1735,1.);
#1447=VECTOR('',#1736,1.);
#1448=VECTOR('',#1737,1.);
#1449=VECTOR('',#1738,1.);
#1450=VECTOR('',#1739,1.);
#1451=VECTOR('',#1740,1.);
#1452=VECTOR('',#1741,1.);
#1453=VECTOR('',#1742,1.);
#1454=VECTOR('',#1743,1.);
#1455=VECTOR('',#1744,1.);
#1456=VECTOR('',#1745,1.);
#1457=VECTOR('',#1746,1.);
#1458=VECTOR('',#1747,1.);
#1459=VECTOR('',#1748,1.);
#1460=VECTOR('',#1749,1.);
#1461=VECTOR('',#1750,1.);
#1462=VECTOR('',#1751,1.);
#1463=VECTOR('',#1752,1.);
#1464=VECTOR('',#1755,1.);
#1465=VECTOR('',#1756,1.);
#1466=VECTOR('',#1757,1.);
#1467=VECTOR('',#1758,1.);
#1468=VECTOR('',#1759,1.);
#1469=VECTOR('',#1760,1.);
#1470=VECTOR('',#1763,1.);
#1471=VECTOR('',#1764,1.);
#1472=VECTOR('',#1765,1.);
#1473=VECTOR('',#1766,1.);
#1474=VECTOR('',#1767,1.);
#1475=VECTOR('',#1768,1.);
#1476=VECTOR('',#1771,1.);
#1477=VECTOR('',#1772,1.);
#1478=VECTOR('',#1773,1.);
#1479=VECTOR('',#1774,1.);
#1480=VECTOR('',#1775,1.);
#1481=VECTOR('',#1776,1.);
#1482=VECTOR('',#1779,1.);
#1483=VECTOR('',#1780,1.);
#1484=VECTOR('',#1781,1.);
#1485=VECTOR('',#1782,1.);
#1486=VECTOR('',#1809,1.);
#1487=VECTOR('',#1810,1.);
#1488=VECTOR('',#1811,1.);
#1489=VECTOR('',#1814,1.);
#1490=VECTOR('',#1817,1.);
#1491=VECTOR('',#1822,1.);
#1492=VECTOR('',#1823,1.);
#1493=VECTOR('',#1826,1.);
#1494=VECTOR('',#1827,1.);
#1495=VECTOR('',#1830,1.);
#1496=VECTOR('',#1835,1.);
#1497=VECTOR('',#1836,1.);
#1498=VECTOR('',#1839,1.);
#1499=VECTOR('',#1840,1.);
#1500=VECTOR('',#1843,1.);
#1501=VECTOR('',#1848,1.);
#1502=VECTOR('',#1849,1.);
#1503=VECTOR('',#1852,1.);
#1504=VECTOR('',#1853,1.);
#1505=VECTOR('',#1856,1.);
#1506=VECTOR('',#1861,1.);
#1507=VECTOR('',#1862,1.);
#1508=VECTOR('',#1863,1.);
#1509=VECTOR('',#1864,1.);
#1510=VECTOR('',#1867,1.);
#1511=VECTOR('',#1868,1.);
#1512=VECTOR('',#1869,1.);
#1513=VECTOR('',#1872,1.);
#1514=VECTOR('',#1873,1.);
#1515=VECTOR('',#1874,1.);
#1516=VECTOR('',#1877,1.);
#1517=VECTOR('',#1878,1.);
#1518=VECTOR('',#1879,1.);
#1519=VECTOR('',#1882,1.);
#1520=VECTOR('',#1883,1.);
#1521=VECTOR('',#1890,1.);
#1522=VECTOR('',#1891,1.);
#1523=VECTOR('',#1892,1.);
#1524=VECTOR('',#1893,1.);
#1525=VECTOR('',#1896,1.);
#1526=VECTOR('',#1897,1.);
#1527=VECTOR('',#1898,1.);
#1528=VECTOR('',#1901,1.);
#1529=VECTOR('',#1902,1.);
#1530=VECTOR('',#1903,1.);
#1531=VECTOR('',#1906,1.);
#1532=VECTOR('',#1907,1.);
#1533=VECTOR('',#1908,1.);
#1534=VECTOR('',#1911,1.);
#1535=VECTOR('',#1912,1.);
#1536=VECTOR('',#1913,1.);
#1537=VECTOR('',#1916,1.);
#1538=VECTOR('',#1917,1.);
#1539=VECTOR('',#1918,1.);
#1540=VECTOR('',#1921,1.);
#1541=VECTOR('',#1922,1.);
#1542=VECTOR('',#1923,1.);
#1543=VECTOR('',#1924,1.);
#1544=VECTOR('',#1925,1.);
#1545=VECTOR('',#1926,1.);
#1546=VECTOR('',#1927,1.);
#1547=VECTOR('',#1930,1.);
#1548=VECTOR('',#1931,1.);
#1549=VECTOR('',#1934,1.);
#1550=VECTOR('',#1935,1.);
#1551=VECTOR('',#1946,1.);
#1552=VECTOR('',#1947,1.);
#1553=VECTOR('',#1952,1.);
#1554=VECTOR('',#1955,1.);
#1555=AXIS2_PLACEMENT_3D('',#1964,#1637,#1638);
#1556=AXIS2_PLACEMENT_3D('',#1973,#1643,#1644);
#1557=AXIS2_PLACEMENT_3D('',#1979,#1648,#1649);
#1558=AXIS2_PLACEMENT_3D('',#1985,#1653,#1654);
#1559=AXIS2_PLACEMENT_3D('',#1991,#1658,#1659);
#1560=AXIS2_PLACEMENT_3D('',#1994,#1662,#1663);
#1561=AXIS2_PLACEMENT_3D('',#1995,#1664,#1665);
#1562=AXIS2_PLACEMENT_3D('',#1996,#1666,#1667);
#1563=AXIS2_PLACEMENT_3D('',#2005,#1672,#1673);
#1564=AXIS2_PLACEMENT_3D('',#2011,#1677,#1678);
#1565=AXIS2_PLACEMENT_3D('',#2017,#1682,#1683);
#1566=AXIS2_PLACEMENT_3D('',#2020,#1686,#1687);
#1567=AXIS2_PLACEMENT_3D('',#2021,#1688,#1689);
#1568=AXIS2_PLACEMENT_3D('',#2022,#1690,#1691);
#1569=AXIS2_PLACEMENT_3D('',#2031,#1696,#1697);
#1570=AXIS2_PLACEMENT_3D('',#2037,#1701,#1702);
#1571=AXIS2_PLACEMENT_3D('',#2043,#1706,#1707);
#1572=AXIS2_PLACEMENT_3D('',#2049,#1711,#1712);
#1573=AXIS2_PLACEMENT_3D('',#2052,#1715,#1716);
#1574=AXIS2_PLACEMENT_3D('',#2053,#1717,#1718);
#1575=AXIS2_PLACEMENT_3D('',#2054,#1719,#1720);
#1576=AXIS2_PLACEMENT_3D('',#2071,#1729,#1730);
#1577=AXIS2_PLACEMENT_3D('',#2114,#1753,#1754);
#1578=AXIS2_PLACEMENT_3D('',#2125,#1761,#1762);
#1579=AXIS2_PLACEMENT_3D('',#2136,#1769,#1770);
#1580=AXIS2_PLACEMENT_3D('',#2147,#1777,#1778);
#1581=AXIS2_PLACEMENT_3D('',#2152,#1783,#1784);
#1582=AXIS2_PLACEMENT_3D('',#2154,#1785,#1786);
#1583=AXIS2_PLACEMENT_3D('',#2155,#1787,#1788);
#1584=AXIS2_PLACEMENT_3D('',#2156,#1789,#1790);
#1585=AXIS2_PLACEMENT_3D('',#2157,#1791,#1792);
#1586=AXIS2_PLACEMENT_3D('',#2158,#1793,#1794);
#1587=AXIS2_PLACEMENT_3D('',#2159,#1795,#1796);
#1588=AXIS2_PLACEMENT_3D('',#2161,#1797,#1798);
#1589=AXIS2_PLACEMENT_3D('',#2162,#1799,#1800);
#1590=AXIS2_PLACEMENT_3D('',#2164,#1801,#1802);
#1591=AXIS2_PLACEMENT_3D('',#2166,#1803,#1804);
#1592=AXIS2_PLACEMENT_3D('',#2167,#1805,#1806);
#1593=AXIS2_PLACEMENT_3D('',#2168,#1807,#1808);
#1594=AXIS2_PLACEMENT_3D('',#2174,#1812,#1813);
#1595=AXIS2_PLACEMENT_3D('',#2176,#1815,#1816);
#1596=AXIS2_PLACEMENT_3D('',#2178,#1818,#1819);
#1597=AXIS2_PLACEMENT_3D('',#2179,#1820,#1821);
#1598=AXIS2_PLACEMENT_3D('',#2183,#1824,#1825);
#1599=AXIS2_PLACEMENT_3D('',#2187,#1828,#1829);
#1600=AXIS2_PLACEMENT_3D('',#2189,#1831,#1832);
#1601=AXIS2_PLACEMENT_3D('',#2190,#1833,#1834);
#1602=AXIS2_PLACEMENT_3D('',#2194,#1837,#1838);
#1603=AXIS2_PLACEMENT_3D('',#2198,#1841,#1842);
#1604=AXIS2_PLACEMENT_3D('',#2200,#1844,#1845);
#1605=AXIS2_PLACEMENT_3D('',#2201,#1846,#1847);
#1606=AXIS2_PLACEMENT_3D('',#2205,#1850,#1851);
#1607=AXIS2_PLACEMENT_3D('',#2209,#1854,#1855);
#1608=AXIS2_PLACEMENT_3D('',#2211,#1857,#1858);
#1609=AXIS2_PLACEMENT_3D('',#2212,#1859,#1860);
#1610=AXIS2_PLACEMENT_3D('',#2221,#1865,#1866);
#1611=AXIS2_PLACEMENT_3D('',#2227,#1870,#1871);
#1612=AXIS2_PLACEMENT_3D('',#2233,#1875,#1876);
#1613=AXIS2_PLACEMENT_3D('',#2239,#1880,#1881);
#1614=AXIS2_PLACEMENT_3D('',#2242,#1884,#1885);
#1615=AXIS2_PLACEMENT_3D('',#2243,#1886,#1887);
#1616=AXIS2_PLACEMENT_3D('',#2244,#1888,#1889);
#1617=AXIS2_PLACEMENT_3D('',#2253,#1894,#1895);
#1618=AXIS2_PLACEMENT_3D('',#2259,#1899,#1900);
#1619=AXIS2_PLACEMENT_3D('',#2265,#1904,#1905);
#1620=AXIS2_PLACEMENT_3D('',#2271,#1909,#1910);
#1621=AXIS2_PLACEMENT_3D('',#2277,#1914,#1915);
#1622=AXIS2_PLACEMENT_3D('',#2283,#1919,#1920);
#1623=AXIS2_PLACEMENT_3D('',#2297,#1928,#1929);
#1624=AXIS2_PLACEMENT_3D('',#2300,#1932,#1933);
#1625=AXIS2_PLACEMENT_3D('',#2305,#1936,#1937);
#1626=AXIS2_PLACEMENT_3D('',#2306,#1938,#1939);
#1627=AXIS2_PLACEMENT_3D('',#2307,#1940,#1941);
#1628=AXIS2_PLACEMENT_3D('',#2308,#1942,#1943);
#1629=AXIS2_PLACEMENT_3D('',#2310,#1944,#1945);
#1630=AXIS2_PLACEMENT_3D('',#2315,#1948,#1949);
#1631=AXIS2_PLACEMENT_3D('',#2316,#1950,#1951);
#1632=AXIS2_PLACEMENT_3D('',#2318,#1953,#1954);
#1633=AXIS2_PLACEMENT_3D('',#2320,#1956,#1957);
#1634=AXIS2_PLACEMENT_3D('',#2321,#1958,#1959);
#1635=AXIS2_PLACEMENT_3D('',#2322,#1960,#1961);
#1636=AXIS2_PLACEMENT_3D('',#2323,#1962,#1963);
#1637=DIRECTION('',(0.,0.,1.));
#1638=DIRECTION('',(1.,0.,0.));
#1639=DIRECTION('',(0.707106781186547,0.707106781186548,0.));
#1640=DIRECTION('',(0.,0.,-1.));
#1641=DIRECTION('',(0.707106781186547,0.707106781186548,0.));
#1642=DIRECTION('',(0.,0.,-1.));
#1643=DIRECTION('',(-0.707106781186548,0.707106781186547,0.));
#1644=DIRECTION('',(-0.707106781186547,-0.707106781186548,0.));
#1645=DIRECTION('',(1.,2.29994012502506E-15,0.));
#1646=DIRECTION('',(1.,2.29994012502506E-15,0.));
#1647=DIRECTION('',(0.,0.,-1.));
#1648=DIRECTION('',(-2.29994012502506E-15,1.,0.));
#1649=DIRECTION('',(-1.,-2.30024332914525E-15,0.));
#1650=DIRECTION('',(1.53329341668337E-15,-1.,0.));
#1651=DIRECTION('',(1.53329341668337E-15,-1.,0.));
#1652=DIRECTION('',(0.,0.,-1.));
#1653=DIRECTION('',(1.,1.53329341668337E-15,0.));
#1654=DIRECTION('',(-1.5334955527635E-15,1.,0.));
#1655=DIRECTION('',(-0.707106781186548,-0.707106781186547,0.));
#1656=DIRECTION('',(-0.707106781186548,-0.707106781186547,0.));
#1657=DIRECTION('',(0.,0.,-1.));
#1658=DIRECTION('',(0.707106781186547,-0.707106781186548,0.));
#1659=DIRECTION('',(0.707106781186548,0.707106781186547,0.));
#1660=DIRECTION('',(-0.707106781186547,0.707106781186548,0.));
#1661=DIRECTION('',(-0.707106781186547,0.707106781186548,0.));
#1662=DIRECTION('',(-0.707106781186548,-0.707106781186547,0.));
#1663=DIRECTION('',(0.707106781186547,-0.707106781186548,0.));
#1664=DIRECTION('',(0.,0.,1.));
#1665=DIRECTION('',(1.,0.,0.));
#1666=DIRECTION('',(0.,0.,1.));
#1667=DIRECTION('',(1.,0.,0.));
#1668=DIRECTION('',(-0.707106781186548,0.707106781186547,0.));
#1669=DIRECTION('',(0.,0.,-1.));
#1670=DIRECTION('',(-0.707106781186548,0.707106781186547,0.));
#1671=DIRECTION('',(0.,0.,-1.));
#1672=DIRECTION('',(-0.707106781186547,-0.707106781186548,0.));
#1673=DIRECTION('',(0.707106781186548,-0.707106781186547,0.));
#1674=DIRECTION('',(0.707106781186545,0.70710678118655,0.));
#1675=DIRECTION('',(0.707106781186545,0.70710678118655,0.));
#1676=DIRECTION('',(0.,0.,-1.));
#1677=DIRECTION('',(-0.70710678118655,0.707106781186545,0.));
#1678=DIRECTION('',(-0.707106781186545,-0.70710678118655,0.));
#1679=DIRECTION('',(0.707106781186547,-0.707106781186548,0.));
#1680=DIRECTION('',(0.707106781186547,-0.707106781186548,0.));
#1681=DIRECTION('',(0.,0.,-1.));
#1682=DIRECTION('',(0.707106781186548,0.707106781186547,0.));
#1683=DIRECTION('',(-0.707106781186547,0.707106781186548,0.));
#1684=DIRECTION('',(-0.707106781186547,-0.707106781186548,0.));
#1685=DIRECTION('',(-0.707106781186547,-0.707106781186548,0.));
#1686=DIRECTION('',(0.707106781186548,-0.707106781186547,0.));
#1687=DIRECTION('',(0.707106781186547,0.707106781186548,0.));
#1688=DIRECTION('',(0.,0.,-1.));
#1689=DIRECTION('',(-1.,0.,0.));
#1690=DIRECTION('',(0.,0.,-1.));
#1691=DIRECTION('',(-1.,0.,0.));
#1692=DIRECTION('',(-0.707106781186547,0.707106781186548,0.));
#1693=DIRECTION('',(0.,0.,-1.));
#1694=DIRECTION('',(-0.707106781186547,0.707106781186548,0.));
#1695=DIRECTION('',(0.,0.,-1.));
#1696=DIRECTION('',(-0.707106781186548,-0.707106781186547,0.));
#1697=DIRECTION('',(0.707106781186547,-0.707106781186548,0.));
#1698=DIRECTION('',(0.707106781186547,0.707106781186548,0.));
#1699=DIRECTION('',(0.707106781186547,0.707106781186548,0.));
#1700=DIRECTION('',(0.,0.,-1.));
#1701=DIRECTION('',(-0.707106781186548,0.707106781186547,0.));
#1702=DIRECTION('',(-0.707106781186547,-0.707106781186548,0.));
#1703=DIRECTION('',(0.707106781186548,-0.707106781186547,0.));
#1704=DIRECTION('',(0.707106781186548,-0.707106781186547,0.));
#1705=DIRECTION('',(0.,0.,-1.));
#1706=DIRECTION('',(0.707106781186547,0.707106781186548,0.));
#1707=DIRECTION('',(-0.707106781186548,0.707106781186547,0.));
#1708=DIRECTION('',(-1.53329341668337E-15,-1.,0.));
#1709=DIRECTION('',(-1.53329341668337E-15,-1.,0.));
#1710=DIRECTION('',(0.,0.,-1.));
#1711=DIRECTION('',(1.,-1.53329341668337E-15,0.));
#1712=DIRECTION('',(1.5334955527635E-15,1.,0.));
#1713=DIRECTION('',(-1.,2.29994012502506E-15,0.));
#1714=DIRECTION('',(-1.,2.29994012502506E-15,0.));
#1715=DIRECTION('',(-2.29994012502506E-15,-1.,0.));
#1716=DIRECTION('',(1.,-2.30024332914525E-15,0.));
#1717=DIRECTION('',(0.,0.,-1.));
#1718=DIRECTION('',(-1.,0.,0.));
#1719=DIRECTION('',(0.,0.,-1.));
#1720=DIRECTION('',(-1.,0.,0.));
#1721=DIRECTION('',(0.707106781186547,0.707106781186548,0.));
#1722=DIRECTION('',(0.,0.,-1.));
#1723=DIRECTION('',(0.707106781186547,0.707106781186548,0.));
#1724=DIRECTION('',(0.,0.,-1.));
#1725=DIRECTION('',(0.707106781186547,0.707106781186548,0.));
#1726=DIRECTION('',(0.,0.,-1.));
#1727=DIRECTION('',(0.707106781186547,0.707106781186548,0.));
#1728=DIRECTION('',(0.,0.,-1.));
#1729=DIRECTION('',(-0.707106781186548,0.707106781186547,0.));
#1730=DIRECTION('',(-0.707106781186547,-0.707106781186548,0.));
#1731=DIRECTION('',(-0.707106781186547,0.707106781186547,0.));
#1732=DIRECTION('',(-0.707106781186547,-0.707106781186548,0.));
#1733=DIRECTION('',(0.707106781186547,-0.707106781186547,0.));
#1734=DIRECTION('',(1.,0.,0.));
#1735=DIRECTION('',(0.707106781186547,-0.707106781186548,0.));
#1736=DIRECTION('',(-0.707106781186547,-0.707106781186547,0.));
#1737=DIRECTION('',(0.707106781186547,-0.707106781186548,0.));
#1738=DIRECTION('',(0.707106781186547,0.707106781186547,0.));
#1739=DIRECTION('',(0.707106781186547,-0.707106781186548,0.));
#1740=DIRECTION('',(1.5770213417971E-16,-1.,0.));
#1741=DIRECTION('',(-0.707106781186547,-0.707106781186548,0.));
#1742=DIRECTION('',(-0.707106781186547,0.707106781186547,0.));
#1743=DIRECTION('',(-0.707106781186547,-0.707106781186548,0.));
#1744=DIRECTION('',(0.707106781186547,-0.707106781186547,0.));
#1745=DIRECTION('',(-0.707106781186547,-0.707106781186548,0.));
#1746=DIRECTION('',(-1.,0.,0.));
#1747=DIRECTION('',(-0.707106781186547,0.707106781186548,0.));
#1748=DIRECTION('',(0.707106781186547,0.707106781186547,0.));
#1749=DIRECTION('',(-0.707106781186547,0.707106781186548,0.));
#1750=DIRECTION('',(-0.707106781186547,-0.707106781186547,0.));
#1751=DIRECTION('',(-0.707106781186547,0.707106781186548,0.));
#1752=DIRECTION('',(1.5770213417971E-16,1.,0.));
#1753=DIRECTION('',(0.,0.,-1.));
#1754=DIRECTION('',(-1.,0.,0.));
#1755=DIRECTION('',(0.707106781186547,-0.707106781186548,0.));
#1756=DIRECTION('',(0.,0.,-1.));
#1757=DIRECTION('',(0.,0.,-1.));
#1758=DIRECTION('',(-0.707106781186547,0.707106781186548,0.));
#1759=DIRECTION('',(0.,0.,-1.));
#1760=DIRECTION('',(0.,0.,-1.));
#1761=DIRECTION('',(-0.707106781186548,-0.707106781186547,0.));
#1762=DIRECTION('',(0.707106781186547,-0.707106781186548,0.));
#1763=DIRECTION('',(0.707106781186547,0.707106781186548,0.));
#1764=DIRECTION('',(0.,0.,-1.));
#1765=DIRECTION('',(0.,0.,-1.));
#1766=DIRECTION('',(-0.707106781186547,-0.707106781186548,0.));
#1767=DIRECTION('',(0.,0.,-1.));
#1768=DIRECTION('',(0.,0.,-1.));
#1769=DIRECTION('',(0.707106781186548,-0.707106781186547,0.));
#1770=DIRECTION('',(0.707106781186547,0.707106781186548,0.));
#1771=DIRECTION('',(-0.707106781186547,0.707106781186548,0.));
#1772=DIRECTION('',(0.,0.,-1.));
#1773=DIRECTION('',(0.,0.,-1.));
#1774=DIRECTION('',(0.707106781186547,-0.707106781186548,0.));
#1775=DIRECTION('',(0.,0.,-1.));
#1776=DIRECTION('',(0.,0.,-1.));
#1777=DIRECTION('',(0.707106781186548,0.707106781186547,0.));
#1778=DIRECTION('',(-0.707106781186547,0.707106781186548,0.));
#1779=DIRECTION('',(-1.,0.,0.));
#1780=DIRECTION('',(1.5770213417971E-16,-1.,0.));
#1781=DIRECTION('',(1.,0.,0.));
#1782=DIRECTION('',(1.5770213417971E-16,1.,0.));
#1783=DIRECTION('',(0.,0.,1.));
#1784=DIRECTION('',(0.707106781186547,0.707106781186548,0.));
#1785=DIRECTION('',(0.,0.,-1.));
#1786=DIRECTION('',(-1.,0.,0.));
#1787=DIRECTION('',(0.,-1.,0.));
#1788=DIRECTION('',(0.,0.,-1.));
#1789=DIRECTION('',(-1.,1.5770213417971E-16,0.));
#1790=DIRECTION('',(-1.57859836313889E-16,-1.,0.));
#1791=DIRECTION('',(0.,1.,0.));
#1792=DIRECTION('',(0.,0.,1.));
#1793=DIRECTION('',(1.,1.5770213417971E-16,0.));
#1794=DIRECTION('',(-1.57859836313889E-16,1.,0.));
#1795=DIRECTION('',(0.,0.,1.));
#1796=DIRECTION('',(0.707106781186547,0.707106781186548,0.));
#1797=DIRECTION('',(0.,0.,-1.));
#1798=DIRECTION('',(-1.,0.,0.));
#1799=DIRECTION('',(0.,0.,1.));
#1800=DIRECTION('',(0.707106781186547,0.707106781186548,0.));
#1801=DIRECTION('',(0.,0.,1.));
#1802=DIRECTION('',(0.707106781186547,0.707106781186548,0.));
#1803=DIRECTION('',(0.,0.,-1.));
#1804=DIRECTION('',(-1.,0.,0.));
#1805=DIRECTION('',(0.,0.,1.));
#1806=DIRECTION('',(1.,0.,0.));
#1807=DIRECTION('',(0.,0.,1.));
#1808=DIRECTION('',(1.,0.,0.));
#1809=DIRECTION('',(0.,0.,1.));
#1810=DIRECTION('',(-0.707106781186547,0.707106781186548,0.));
#1811=DIRECTION('',(0.,0.,1.));
#1812=DIRECTION('',(0.707106781186548,0.707106781186547,0.));
#1813=DIRECTION('',(-0.707106781186547,0.707106781186548,0.));
#1814=DIRECTION('',(-0.707106781186547,-0.707106781186547,0.));
#1815=DIRECTION('',(-0.707106781186548,0.707106781186548,0.));
#1816=DIRECTION('',(-0.707106781186548,-0.707106781186548,0.));
#1817=DIRECTION('',(0.707106781186547,0.707106781186547,0.));
#1818=DIRECTION('',(0.707106781186548,-0.707106781186548,0.));
#1819=DIRECTION('',(0.707106781186548,0.707106781186548,0.));
#1820=DIRECTION('',(0.,0.,1.));
#1821=DIRECTION('',(1.,0.,0.));
#1822=DIRECTION('',(0.,0.,1.));
#1823=DIRECTION('',(-0.707106781186547,0.707106781186547,0.));
#1824=DIRECTION('',(0.707106781186548,0.707106781186548,0.));
#1825=DIRECTION('',(-0.707106781186548,0.707106781186548,0.));
#1826=DIRECTION('',(0.707106781186547,-0.707106781186547,0.));
#1827=DIRECTION('',(0.,0.,1.));
#1828=DIRECTION('',(-0.707106781186548,-0.707106781186548,0.));
#1829=DIRECTION('',(0.707106781186548,-0.707106781186548,0.));
#1830=DIRECTION('',(0.707106781186547,0.707106781186548,0.));
#1831=DIRECTION('',(0.707106781186548,-0.707106781186547,0.));
#1832=DIRECTION('',(0.707106781186547,0.707106781186548,0.));
#1833=DIRECTION('',(0.,0.,1.));
#1834=DIRECTION('',(1.,0.,0.));
#1835=DIRECTION('',(0.,0.,1.));
#1836=DIRECTION('',(0.707106781186547,0.707106781186547,0.));
#1837=DIRECTION('',(0.707106781186548,-0.707106781186548,0.));
#1838=DIRECTION('',(0.707106781186548,0.707106781186548,0.));
#1839=DIRECTION('',(-0.707106781186547,-0.707106781186547,0.));
#1840=DIRECTION('',(0.,0.,1.));
#1841=DIRECTION('',(-0.707106781186548,0.707106781186548,0.));
#1842=DIRECTION('',(-0.707106781186548,-0.707106781186548,0.));
#1843=DIRECTION('',(0.707106781186547,-0.707106781186548,0.));
#1844=DIRECTION('',(-0.707106781186548,-0.707106781186547,0.));
#1845=DIRECTION('',(0.707106781186547,-0.707106781186548,0.));
#1846=DIRECTION('',(0.,0.,1.));
#1847=DIRECTION('',(1.,0.,0.));
#1848=DIRECTION('',(0.707106781186547,-0.707106781186547,0.));
#1849=DIRECTION('',(0.,0.,1.));
#1850=DIRECTION('',(-0.707106781186548,-0.707106781186548,0.));
#1851=DIRECTION('',(0.707106781186548,-0.707106781186548,0.));
#1852=DIRECTION('',(0.,0.,1.));
#1853=DIRECTION('',(-0.707106781186547,0.707106781186547,0.));
#1854=DIRECTION('',(0.707106781186548,0.707106781186548,0.));
#1855=DIRECTION('',(-0.707106781186548,0.707106781186548,0.));
#1856=DIRECTION('',(0.707106781186547,0.707106781186548,0.));
#1857=DIRECTION('',(0.707106781186548,-0.707106781186547,0.));
#1858=DIRECTION('',(0.707106781186547,0.707106781186548,0.));
#1859=DIRECTION('',(0.,0.,-1.));
#1860=DIRECTION('',(-1.,0.,0.));
#1861=DIRECTION('',(-1.53329341668337E-15,1.,0.));
#1862=DIRECTION('',(0.,0.,-1.));
#1863=DIRECTION('',(-1.53329341668337E-15,1.,0.));
#1864=DIRECTION('',(0.,0.,-1.));
#1865=DIRECTION('',(-1.,-1.53329341668337E-15,0.));
#1866=DIRECTION('',(1.5334955527635E-15,-1.,0.));
#1867=DIRECTION('',(0.707106781186548,0.707106781186547,0.));
#1868=DIRECTION('',(0.707106781186548,0.707106781186547,0.));
#1869=DIRECTION('',(0.,0.,-1.));
#1870=DIRECTION('',(-0.707106781186547,0.707106781186548,0.));
#1871=DIRECTION('',(-0.707106781186548,-0.707106781186547,0.));
#1872=DIRECTION('',(0.707106781186547,-0.707106781186548,0.));
#1873=DIRECTION('',(0.707106781186547,-0.707106781186548,0.));
#1874=DIRECTION('',(0.,0.,-1.));
#1875=DIRECTION('',(0.707106781186548,0.707106781186547,0.));
#1876=DIRECTION('',(-0.707106781186547,0.707106781186548,0.));
#1877=DIRECTION('',(-0.707106781186547,-0.707106781186548,0.));
#1878=DIRECTION('',(-0.707106781186547,-0.707106781186548,0.));
#1879=DIRECTION('',(0.,0.,-1.));
#1880=DIRECTION('',(0.707106781186548,-0.707106781186547,0.));
#1881=DIRECTION('',(0.707106781186547,0.707106781186548,0.));
#1882=DIRECTION('',(-1.,-2.29994012502506E-15,0.));
#1883=DIRECTION('',(-1.,-2.29994012502506E-15,0.));
#1884=DIRECTION('',(2.29994012502506E-15,-1.,0.));
#1885=DIRECTION('',(1.,2.30024332914525E-15,0.));
#1886=DIRECTION('',(0.,0.,1.));
#1887=DIRECTION('',(1.,0.,0.));
#1888=DIRECTION('',(0.,0.,1.));
#1889=DIRECTION('',(1.,0.,0.));
#1890=DIRECTION('',(1.,0.,0.));
#1891=DIRECTION('',(0.,0.,-1.));
#1892=DIRECTION('',(1.,0.,0.));
#1893=DIRECTION('',(0.,0.,-1.));
#1894=DIRECTION('',(0.,1.,0.));
#1895=DIRECTION('',(0.,0.,1.));
#1896=DIRECTION('',(0.707106781186548,0.707106781186547,0.));
#1897=DIRECTION('',(0.,0.,-1.));
#1898=DIRECTION('',(0.707106781186548,0.707106781186547,0.));
#1899=DIRECTION('',(-0.707106781186547,0.707106781186548,0.));
#1900=DIRECTION('',(-0.707106781186548,-0.707106781186547,0.));
#1901=DIRECTION('',(-1.5770213417971E-16,1.,0.));
#1902=DIRECTION('',(0.,0.,-1.));
#1903=DIRECTION('',(-1.5770213417971E-16,1.,0.));
#1904=DIRECTION('',(-1.,-1.5770213417971E-16,0.));
#1905=DIRECTION('',(1.57859836313889E-16,-1.,0.));
#1906=DIRECTION('',(-0.707106781186548,0.707106781186547,0.));
#1907=DIRECTION('',(0.,0.,-1.));
#1908=DIRECTION('',(-0.707106781186548,0.707106781186547,0.));
#1909=DIRECTION('',(-0.707106781186547,-0.707106781186548,0.));
#1910=DIRECTION('',(0.707106781186548,-0.707106781186547,0.));
#1911=DIRECTION('',(-1.,0.,0.));
#1912=DIRECTION('',(0.,0.,-1.));
#1913=DIRECTION('',(-1.,0.,0.));
#1914=DIRECTION('',(0.,-1.,0.));
#1915=DIRECTION('',(0.,0.,-1.));
#1916=DIRECTION('',(-0.707106781186548,-0.707106781186547,0.));
#1917=DIRECTION('',(0.,0.,-1.));
#1918=DIRECTION('',(-0.707106781186548,-0.707106781186547,0.));
#1919=DIRECTION('',(0.707106781186547,-0.707106781186548,0.));
#1920=DIRECTION('',(0.707106781186548,0.707106781186547,0.));
#1921=DIRECTION('',(-2.89120579329468E-16,-1.,0.));
#1922=DIRECTION('',(0.,0.,1.));
#1923=DIRECTION('',(-1.5770213417971E-16,-1.,0.));
#1924=DIRECTION('',(-1.5770213417971E-16,-1.,0.));
#1925=DIRECTION('',(0.,0.,-1.));
#1926=DIRECTION('',(-1.5770213417971E-16,-1.,0.));
#1927=DIRECTION('',(0.,0.,1.));
#1928=DIRECTION('',(1.,-1.5770213417971E-16,0.));
#1929=DIRECTION('',(1.57859836313889E-16,1.,0.));
#1930=DIRECTION('',(0.707106781186548,-0.707106781186547,0.));
#1931=DIRECTION('',(0.707106781186548,-0.707106781186547,0.));
#1932=DIRECTION('',(0.707106781186547,0.707106781186548,0.));
#1933=DIRECTION('',(-0.707106781186548,0.707106781186547,0.));
#1934=DIRECTION('',(1.,-2.18335039044454E-15,0.));
#1935=DIRECTION('',(-1.,2.18335039044452E-15,0.));
#1936=DIRECTION('',(0.,0.,1.));
#1937=DIRECTION('',(1.,0.,0.));
#1938=DIRECTION('',(0.,0.,1.));
#1939=DIRECTION('',(1.,0.,0.));
#1940=DIRECTION('',(0.,0.,1.));
#1941=DIRECTION('',(1.,0.,0.));
#1942=DIRECTION('',(0.,0.,-1.));
#1943=DIRECTION('',(1.,0.,0.));
#1944=DIRECTION('',(0.,0.,-1.));
#1945=DIRECTION('',(1.,1.22464679914735E-16,0.));
#1946=DIRECTION('',(0.,0.,1.));
#1947=DIRECTION('',(0.,0.,1.));
#1948=DIRECTION('',(0.,0.,1.));
#1949=DIRECTION('',(1.,0.,0.));
#1950=DIRECTION('',(0.,0.,1.));
#1951=DIRECTION('',(1.,0.,0.));
#1952=DIRECTION('',(-1.,2.18335039044454E-15,0.));
#1953=DIRECTION('',(-2.18335039044454E-15,-1.,0.));
#1954=DIRECTION('',(1.,-2.18336633495131E-15,0.));
#1955=DIRECTION('',(1.,-2.18335039044452E-15,0.));
#1956=DIRECTION('',(2.18335039044452E-15,1.,0.));
#1957=DIRECTION('',(-1.,2.18336633495131E-15,0.));
#1958=DIRECTION('',(0.,0.,-1.));
#1959=DIRECTION('',(-1.,0.,0.));
#1960=DIRECTION('',(0.,0.,1.));
#1961=DIRECTION('',(1.,0.,0.));
#1962=DIRECTION('',(0.,0.,-1.));
#1963=DIRECTION('',(0.,-1.,0.));
#1964=CARTESIAN_POINT('',(0.,0.,0.));
#1965=CARTESIAN_POINT('',(2.79289321881345,3.92426406871193,0.));
#1966=CARTESIAN_POINT('',(2.79289321881345,3.92426406871193,0.));
#1967=CARTESIAN_POINT('',(3.11862915010152,4.25,0.));
#1968=CARTESIAN_POINT('',(2.79289321881345,3.92426406871193,0.2));
#1969=CARTESIAN_POINT('',(2.79289321881345,3.92426406871193,0.2));
#1970=CARTESIAN_POINT('',(2.79289321881345,3.92426406871193,0.2));
#1971=CARTESIAN_POINT('',(3.11862915010152,4.25,0.2));
#1972=CARTESIAN_POINT('',(3.11862915010152,4.25,0.2));
#1973=CARTESIAN_POINT('',(2.79289321881345,3.92426406871193,0.2));
#1974=CARTESIAN_POINT('',(3.11862915010152,4.25,0.));
#1975=CARTESIAN_POINT('',(4.25,4.25,0.));
#1976=CARTESIAN_POINT('',(3.11862915010152,4.25,0.2));
#1977=CARTESIAN_POINT('',(4.25,4.25,0.2));
#1978=CARTESIAN_POINT('',(4.25,4.25,0.2));
#1979=CARTESIAN_POINT('',(3.11862915010152,4.25,0.2));
#1980=CARTESIAN_POINT('',(4.25,4.25,0.));
#1981=CARTESIAN_POINT('',(4.25,3.11862915010152,0.));
#1982=CARTESIAN_POINT('',(4.25,4.25,0.2));
#1983=CARTESIAN_POINT('',(4.25,3.11862915010152,0.2));
#1984=CARTESIAN_POINT('',(4.25,3.11862915010152,0.2));
#1985=CARTESIAN_POINT('',(4.25,4.25,0.2));
#1986=CARTESIAN_POINT('',(4.25,3.11862915010152,0.));
#1987=CARTESIAN_POINT('',(3.92426406871193,2.79289321881345,0.));
#1988=CARTESIAN_POINT('',(4.25,3.11862915010152,0.2));
#1989=CARTESIAN_POINT('',(3.92426406871193,2.79289321881345,0.2));
#1990=CARTESIAN_POINT('',(3.92426406871193,2.79289321881345,0.2));
#1991=CARTESIAN_POINT('',(4.25,3.11862915010152,0.2));
#1992=CARTESIAN_POINT('',(3.92426406871193,2.79289321881345,0.));
#1993=CARTESIAN_POINT('',(3.92426406871193,2.79289321881345,0.2));
#1994=CARTESIAN_POINT('',(3.92426406871193,2.79289321881345,0.2));
#1995=CARTESIAN_POINT('',(0.,0.,0.2));
#1996=CARTESIAN_POINT('',(0.,0.,0.));
#1997=CARTESIAN_POINT('',(-3.92426406871193,2.79289321881345,0.));
#1998=CARTESIAN_POINT('',(-3.92426406871193,2.79289321881345,0.));
#1999=CARTESIAN_POINT('',(-4.25,3.11862915010152,0.));
#2000=CARTESIAN_POINT('',(-3.92426406871193,2.79289321881345,0.2));
#2001=CARTESIAN_POINT('',(-3.92426406871193,2.79289321881345,0.2));
#2002=CARTESIAN_POINT('',(-3.92426406871193,2.79289321881345,0.2));
#2003=CARTESIAN_POINT('',(-4.25,3.11862915010152,0.2));
#2004=CARTESIAN_POINT('',(-4.25,3.11862915010152,0.2));
#2005=CARTESIAN_POINT('',(-3.92426406871193,2.79289321881345,0.2));
#2006=CARTESIAN_POINT('',(-4.25,3.11862915010152,0.));
#2007=CARTESIAN_POINT('',(-3.11862915010152,4.25,0.));
#2008=CARTESIAN_POINT('',(-4.25,3.11862915010152,0.2));
#2009=CARTESIAN_POINT('',(-3.11862915010152,4.25,0.2));
#2010=CARTESIAN_POINT('',(-3.11862915010152,4.25,0.2));
#2011=CARTESIAN_POINT('',(-4.25,3.11862915010152,0.2));
#2012=CARTESIAN_POINT('',(-3.11862915010152,4.25,0.));
#2013=CARTESIAN_POINT('',(-2.79289321881345,3.92426406871193,0.));
#2014=CARTESIAN_POINT('',(-3.11862915010152,4.25,0.2));
#2015=CARTESIAN_POINT('',(-2.79289321881345,3.92426406871193,0.2));
#2016=CARTESIAN_POINT('',(-2.79289321881345,3.92426406871193,0.2));
#2017=CARTESIAN_POINT('',(-3.11862915010152,4.25,0.2));
#2018=CARTESIAN_POINT('',(-2.79289321881346,3.92426406871193,0.));
#2019=CARTESIAN_POINT('',(-2.79289321881346,3.92426406871193,0.2));
#2020=CARTESIAN_POINT('',(-2.79289321881346,3.92426406871193,0.2));
#2021=CARTESIAN_POINT('',(0.,0.,0.2));
#2022=CARTESIAN_POINT('',(0.,0.,0.));
#2023=CARTESIAN_POINT('',(3.11862915010152,-4.25,0.));
#2024=CARTESIAN_POINT('',(3.11862915010152,-4.25,0.));
#2025=CARTESIAN_POINT('',(2.79289321881345,-3.92426406871193,0.));
#2026=CARTESIAN_POINT('',(3.11862915010152,-4.25,0.2));
#2027=CARTESIAN_POINT('',(3.11862915010152,-4.25,0.2));
#2028=CARTESIAN_POINT('',(3.11862915010152,-4.25,0.2));
#2029=CARTESIAN_POINT('',(2.79289321881345,-3.92426406871193,0.2));
#2030=CARTESIAN_POINT('',(2.79289321881345,-3.92426406871193,0.2));
#2031=CARTESIAN_POINT('',(3.11862915010152,-4.25,0.2));
#2032=CARTESIAN_POINT('',(2.79289321881346,-3.92426406871193,0.));
#2033=CARTESIAN_POINT('',(3.92426406871193,-2.79289321881345,0.));
#2034=CARTESIAN_POINT('',(2.79289321881346,-3.92426406871193,0.2));
#2035=CARTESIAN_POINT('',(3.92426406871193,-2.79289321881345,0.2));
#2036=CARTESIAN_POINT('',(3.92426406871193,-2.79289321881345,0.2));
#2037=CARTESIAN_POINT('',(2.79289321881346,-3.92426406871193,0.2));
#2038=CARTESIAN_POINT('',(3.92426406871193,-2.79289321881345,0.));
#2039=CARTESIAN_POINT('',(4.25,-3.11862915010152,0.));
#2040=CARTESIAN_POINT('',(3.92426406871193,-2.79289321881345,0.2));
#2041=CARTESIAN_POINT('',(4.25,-3.11862915010152,0.2));
#2042=CARTESIAN_POINT('',(4.25,-3.11862915010152,0.2));
#2043=CARTESIAN_POINT('',(3.92426406871193,-2.79289321881345,0.2));
#2044=CARTESIAN_POINT('',(4.25,-3.11862915010152,0.));
#2045=CARTESIAN_POINT('',(4.25,-4.25,0.));
#2046=CARTESIAN_POINT('',(4.25,-3.11862915010152,0.2));
#2047=CARTESIAN_POINT('',(4.25,-4.25,0.2));
#2048=CARTESIAN_POINT('',(4.25,-4.25,0.2));
#2049=CARTESIAN_POINT('',(4.25,-3.11862915010152,0.2));
#2050=CARTESIAN_POINT('',(4.25,-4.25,0.));
#2051=CARTESIAN_POINT('',(4.25,-4.25,0.2));
#2052=CARTESIAN_POINT('',(4.25,-4.25,0.2));
#2053=CARTESIAN_POINT('',(0.,0.,0.2));
#2054=CARTESIAN_POINT('',(0.,0.,0.));
#2055=CARTESIAN_POINT('',(-4.06568542494924,2.93431457505076,0.2));
#2056=CARTESIAN_POINT('',(-4.06568542494924,2.93431457505076,0.2));
#2057=CARTESIAN_POINT('',(-2.93431457505076,4.06568542494924,0.2));
#2058=CARTESIAN_POINT('',(-4.06568542494924,2.93431457505076,0.2));
#2059=CARTESIAN_POINT('',(-4.06568542494924,2.93431457505076,0.));
#2060=CARTESIAN_POINT('',(-4.25,2.75,0.));
#2061=CARTESIAN_POINT('',(-4.25,2.75,0.));
#2062=CARTESIAN_POINT('',(-4.25,2.75,1.55));
#2063=CARTESIAN_POINT('',(-4.25,2.75,1.55));
#2064=CARTESIAN_POINT('',(-4.25,2.75,1.55));
#2065=CARTESIAN_POINT('',(-2.75,4.25,1.55));
#2066=CARTESIAN_POINT('',(-2.75,4.25,1.55));
#2067=CARTESIAN_POINT('',(-2.75,4.25,0.));
#2068=CARTESIAN_POINT('',(-4.25,2.75,0.));
#2069=CARTESIAN_POINT('',(-2.93431457505076,4.06568542494924,0.));
#2070=CARTESIAN_POINT('',(-2.93431457505076,4.06568542494924,0.2));
#2071=CARTESIAN_POINT('',(-4.25,2.75,1.55));
#2072=CARTESIAN_POINT('',(-3.92426406871193,2.79289321881345,0.));
#2073=CARTESIAN_POINT('',(-3.92426406871193,2.79289321881345,0.));
#2074=CARTESIAN_POINT('',(-2.79289321881346,3.92426406871193,0.));
#2075=CARTESIAN_POINT('',(-2.79289321881345,3.92426406871193,0.));
#2076=CARTESIAN_POINT('',(-2.93431457505076,4.06568542494924,0.));
#2077=CARTESIAN_POINT('',(-2.75,4.25,0.));
#2078=CARTESIAN_POINT('',(2.75,4.25,0.));
#2079=CARTESIAN_POINT('',(2.75,4.25,0.));
#2080=CARTESIAN_POINT('',(2.93431457505076,4.06568542494924,0.));
#2081=CARTESIAN_POINT('',(2.93431457505076,4.06568542494924,0.));
#2082=CARTESIAN_POINT('',(2.79289321881346,3.92426406871193,0.));
#2083=CARTESIAN_POINT('',(2.79289321881346,3.92426406871193,0.));
#2084=CARTESIAN_POINT('',(3.92426406871193,2.79289321881345,0.));
#2085=CARTESIAN_POINT('',(3.92426406871193,2.79289321881345,0.));
#2086=CARTESIAN_POINT('',(4.06568542494924,2.93431457505076,0.));
#2087=CARTESIAN_POINT('',(2.75,4.25,0.));
#2088=CARTESIAN_POINT('',(4.25,2.75,0.));
#2089=CARTESIAN_POINT('',(4.25,2.75,0.));
#2090=CARTESIAN_POINT('',(4.25,-2.75,0.));
#2091=CARTESIAN_POINT('',(4.25,-2.75,0.));
#2092=CARTESIAN_POINT('',(4.06568542494924,-2.93431457505076,0.));
#2093=CARTESIAN_POINT('',(4.06568542494924,-2.93431457505076,0.));
#2094=CARTESIAN_POINT('',(3.92426406871193,-2.79289321881345,0.));
#2095=CARTESIAN_POINT('',(3.92426406871193,-2.79289321881345,0.));
#2096=CARTESIAN_POINT('',(2.79289321881345,-3.92426406871193,0.));
#2097=CARTESIAN_POINT('',(2.79289321881345,-3.92426406871193,0.));
#2098=CARTESIAN_POINT('',(2.93431457505076,-4.06568542494924,0.));
#2099=CARTESIAN_POINT('',(4.25,-2.75,0.));
#2100=CARTESIAN_POINT('',(2.75,-4.25,0.));
#2101=CARTESIAN_POINT('',(2.75,-4.25,0.));
#2102=CARTESIAN_POINT('',(-2.75,-4.25,0.));
#2103=CARTESIAN_POINT('',(-2.75,-4.25,0.));
#2104=CARTESIAN_POINT('',(-2.93431457505076,-4.06568542494924,0.));
#2105=CARTESIAN_POINT('',(-2.93431457505076,-4.06568542494924,0.));
#2106=CARTESIAN_POINT('',(-2.79289321881345,-3.92426406871193,0.));
#2107=CARTESIAN_POINT('',(-2.79289321881346,-3.92426406871193,0.));
#2108=CARTESIAN_POINT('',(-3.92426406871193,-2.79289321881345,0.));
#2109=CARTESIAN_POINT('',(-3.92426406871193,-2.79289321881345,0.));
#2110=CARTESIAN_POINT('',(-4.06568542494924,-2.93431457505076,0.));
#2111=CARTESIAN_POINT('',(-2.75,-4.25,0.));
#2112=CARTESIAN_POINT('',(-4.25,-2.75,0.));
#2113=CARTESIAN_POINT('',(-4.25,-2.75,0.));
#2114=CARTESIAN_POINT('',(0.,0.,0.));
#2115=CARTESIAN_POINT('',(-4.06568542494924,-2.93431457505076,0.2));
#2116=CARTESIAN_POINT('',(-4.06568542494924,-2.93431457505076,0.2));
#2117=CARTESIAN_POINT('',(-2.93431457505076,-4.06568542494924,0.2));
#2118=CARTESIAN_POINT('',(-2.93431457505076,-4.06568542494924,0.2));
#2119=CARTESIAN_POINT('',(-2.75,-4.25,1.55));
#2120=CARTESIAN_POINT('',(-2.75,-4.25,1.55));
#2121=CARTESIAN_POINT('',(-2.75,-4.25,1.55));
#2122=CARTESIAN_POINT('',(-4.25,-2.75,1.55));
#2123=CARTESIAN_POINT('',(-4.25,-2.75,1.55));
#2124=CARTESIAN_POINT('',(-4.06568542494924,-2.93431457505076,0.2));
#2125=CARTESIAN_POINT('',(-2.75,-4.25,1.55));
#2126=CARTESIAN_POINT('',(2.93431457505076,-4.06568542494924,0.2));
#2127=CARTESIAN_POINT('',(2.93431457505076,-4.06568542494924,0.2));
#2128=CARTESIAN_POINT('',(4.06568542494924,-2.93431457505076,0.2));
#2129=CARTESIAN_POINT('',(4.06568542494924,-2.93431457505076,0.2));
#2130=CARTESIAN_POINT('',(4.25,-2.75,1.55));
#2131=CARTESIAN_POINT('',(4.25,-2.75,1.55));
#2132=CARTESIAN_POINT('',(4.25,-2.75,1.55));
#2133=CARTESIAN_POINT('',(2.75,-4.25,1.55));
#2134=CARTESIAN_POINT('',(2.75,-4.25,1.55));
#2135=CARTESIAN_POINT('',(2.93431457505076,-4.06568542494924,0.2));
#2136=CARTESIAN_POINT('',(4.25,-2.75,1.55));
#2137=CARTESIAN_POINT('',(4.06568542494924,2.93431457505076,0.2));
#2138=CARTESIAN_POINT('',(4.06568542494924,2.93431457505076,0.2));
#2139=CARTESIAN_POINT('',(2.93431457505076,4.06568542494924,0.2));
#2140=CARTESIAN_POINT('',(2.93431457505076,4.06568542494924,0.2));
#2141=CARTESIAN_POINT('',(2.75,4.25,1.55));
#2142=CARTESIAN_POINT('',(2.75,4.25,1.55));
#2143=CARTESIAN_POINT('',(2.75,4.25,1.55));
#2144=CARTESIAN_POINT('',(4.25,2.75,1.55));
#2145=CARTESIAN_POINT('',(4.25,2.75,1.55));
#2146=CARTESIAN_POINT('',(4.06568542494924,2.93431457505076,0.2));
#2147=CARTESIAN_POINT('',(2.75,4.25,1.55));
#2148=CARTESIAN_POINT('',(2.75,-4.25,1.55));
#2149=CARTESIAN_POINT('',(4.25,2.75,1.55));
#2150=CARTESIAN_POINT('',(-2.75,4.25,1.55));
#2151=CARTESIAN_POINT('',(-4.25,-2.75,1.55));
#2152=CARTESIAN_POINT('',(0.,0.,1.55));
#2153=CARTESIAN_POINT('',(2.79307178568686,2.79307178568686,1.55));
#2154=CARTESIAN_POINT('',(0.,0.,1.55));
#2155=CARTESIAN_POINT('',(2.75,-4.25,1.55));
#2156=CARTESIAN_POINT('',(-4.25,-2.75,1.55));
#2157=CARTESIAN_POINT('',(-2.75,4.25,1.55));
#2158=CARTESIAN_POINT('',(4.25,2.75,1.55));
#2159=CARTESIAN_POINT('',(0.,0.,1.95));
#2160=CARTESIAN_POINT('',(2.79307178568686,2.79307178568686,1.95));
#2161=CARTESIAN_POINT('',(0.,0.,1.95));
#2162=CARTESIAN_POINT('',(0.,0.,1.95));
#2163=CARTESIAN_POINT('',(2.43951839509359,2.43951839509359,1.95));
#2164=CARTESIAN_POINT('',(0.,0.,0.750000000000001));
#2165=CARTESIAN_POINT('',(2.43951839509359,2.43951839509359,0.750000000000001));
#2166=CARTESIAN_POINT('',(0.,0.,1.95));
#2167=CARTESIAN_POINT('',(0.,0.,1.95));
#2168=CARTESIAN_POINT('',(0.,0.,0.750000000000001));
#2169=CARTESIAN_POINT('',(2.79289321881346,3.92426406871193,0.2));
#2170=CARTESIAN_POINT('',(2.79289321881346,3.92426406871193,0.2));
#2171=CARTESIAN_POINT('',(2.79289321881346,3.92426406871193,0.2));
#2172=CARTESIAN_POINT('',(3.92426406871193,2.79289321881345,0.2));
#2173=CARTESIAN_POINT('',(3.92426406871193,2.79289321881345,0.2));
#2174=CARTESIAN_POINT('',(2.79289321881346,3.92426406871193,0.2));
#2175=CARTESIAN_POINT('',(3.92426406871193,2.79289321881345,0.2));
#2176=CARTESIAN_POINT('',(3.92426406871193,2.79289321881345,0.2));
#2177=CARTESIAN_POINT('',(2.93431457505076,4.06568542494924,0.2));
#2178=CARTESIAN_POINT('',(2.93431457505076,4.06568542494924,0.2));
#2179=CARTESIAN_POINT('',(0.,0.,0.2));
#2180=CARTESIAN_POINT('',(2.79289321881345,-3.92426406871193,0.2));
#2181=CARTESIAN_POINT('',(2.79289321881345,-3.92426406871193,0.2));
#2182=CARTESIAN_POINT('',(2.79289321881345,-3.92426406871193,0.2));
#2183=CARTESIAN_POINT('',(2.79289321881345,-3.92426406871193,0.2));
#2184=CARTESIAN_POINT('',(4.06568542494924,-2.93431457505076,0.2));
#2185=CARTESIAN_POINT('',(3.92426406871193,-2.79289321881345,0.2));
#2186=CARTESIAN_POINT('',(3.92426406871193,-2.79289321881345,0.2));
#2187=CARTESIAN_POINT('',(4.06568542494924,-2.93431457505076,0.2));
#2188=CARTESIAN_POINT('',(3.92426406871193,-2.79289321881345,0.2));
#2189=CARTESIAN_POINT('',(3.92426406871193,-2.79289321881345,0.2));
#2190=CARTESIAN_POINT('',(0.,0.,0.2));
#2191=CARTESIAN_POINT('',(-3.92426406871193,-2.79289321881345,0.2));
#2192=CARTESIAN_POINT('',(-3.92426406871193,-2.79289321881345,0.2));
#2193=CARTESIAN_POINT('',(-3.92426406871193,-2.79289321881345,0.2));
#2194=CARTESIAN_POINT('',(-3.92426406871193,-2.79289321881345,0.2));
#2195=CARTESIAN_POINT('',(-2.93431457505076,-4.06568542494924,0.2));
#2196=CARTESIAN_POINT('',(-2.79289321881345,-3.92426406871193,0.2));
#2197=CARTESIAN_POINT('',(-2.79289321881345,-3.92426406871193,0.2));
#2198=CARTESIAN_POINT('',(-2.93431457505076,-4.06568542494924,0.2));
#2199=CARTESIAN_POINT('',(-2.79289321881346,-3.92426406871193,0.2));
#2200=CARTESIAN_POINT('',(-2.79289321881346,-3.92426406871193,0.2));
#2201=CARTESIAN_POINT('',(0.,0.,0.2));
#2202=CARTESIAN_POINT('',(-3.92426406871193,2.79289321881345,0.2));
#2203=CARTESIAN_POINT('',(-3.92426406871193,2.79289321881345,0.2));
#2204=CARTESIAN_POINT('',(-3.92426406871193,2.79289321881345,0.2));
#2205=CARTESIAN_POINT('',(-3.92426406871193,2.79289321881345,0.2));
#2206=CARTESIAN_POINT('',(-2.79289321881345,3.92426406871193,0.2));
#2207=CARTESIAN_POINT('',(-2.79289321881345,3.92426406871193,0.2));
#2208=CARTESIAN_POINT('',(-2.93431457505076,4.06568542494924,0.2));
#2209=CARTESIAN_POINT('',(-2.93431457505076,4.06568542494924,0.2));
#2210=CARTESIAN_POINT('',(-2.79289321881346,3.92426406871193,0.2));
#2211=CARTESIAN_POINT('',(-2.79289321881346,3.92426406871193,0.2));
#2212=CARTESIAN_POINT('',(0.,0.,0.2));
#2213=CARTESIAN_POINT('',(-4.25,-4.25,0.));
#2214=CARTESIAN_POINT('',(-4.25,-4.25,0.));
#2215=CARTESIAN_POINT('',(-4.25,-3.11862915010152,0.));
#2216=CARTESIAN_POINT('',(-4.25,-4.25,0.2));
#2217=CARTESIAN_POINT('',(-4.25,-4.25,0.2));
#2218=CARTESIAN_POINT('',(-4.25,-4.25,0.2));
#2219=CARTESIAN_POINT('',(-4.25,-3.11862915010152,0.2));
#2220=CARTESIAN_POINT('',(-4.25,-3.11862915010152,0.2));
#2221=CARTESIAN_POINT('',(-4.25,-4.25,0.2));
#2222=CARTESIAN_POINT('',(-4.25,-3.11862915010152,0.));
#2223=CARTESIAN_POINT('',(-3.92426406871193,-2.79289321881345,0.));
#2224=CARTESIAN_POINT('',(-4.25,-3.11862915010152,0.2));
#2225=CARTESIAN_POINT('',(-3.92426406871193,-2.79289321881345,0.2));
#2226=CARTESIAN_POINT('',(-3.92426406871193,-2.79289321881345,0.2));
#2227=CARTESIAN_POINT('',(-4.25,-3.11862915010152,0.2));
#2228=CARTESIAN_POINT('',(-3.92426406871193,-2.79289321881345,0.));
#2229=CARTESIAN_POINT('',(-2.79289321881346,-3.92426406871193,0.));
#2230=CARTESIAN_POINT('',(-3.92426406871193,-2.79289321881345,0.2));
#2231=CARTESIAN_POINT('',(-2.79289321881346,-3.92426406871193,0.2));
#2232=CARTESIAN_POINT('',(-2.79289321881346,-3.92426406871193,0.2));
#2233=CARTESIAN_POINT('',(-3.92426406871193,-2.79289321881345,0.2));
#2234=CARTESIAN_POINT('',(-2.79289321881345,-3.92426406871193,0.));
#2235=CARTESIAN_POINT('',(-3.11862915010152,-4.25,0.));
#2236=CARTESIAN_POINT('',(-2.79289321881345,-3.92426406871193,0.2));
#2237=CARTESIAN_POINT('',(-3.11862915010152,-4.25,0.2));
#2238=CARTESIAN_POINT('',(-3.11862915010152,-4.25,0.2));
#2239=CARTESIAN_POINT('',(-2.79289321881345,-3.92426406871193,0.2));
#2240=CARTESIAN_POINT('',(-3.11862915010152,-4.25,0.));
#2241=CARTESIAN_POINT('',(-3.11862915010152,-4.25,0.2));
#2242=CARTESIAN_POINT('',(-3.11862915010152,-4.25,0.2));
#2243=CARTESIAN_POINT('',(0.,0.,0.2));
#2244=CARTESIAN_POINT('',(0.,0.,0.));
#2245=CARTESIAN_POINT('',(-2.75,-4.25,0.));
#2246=CARTESIAN_POINT('',(-2.75,-4.25,0.));
#2247=CARTESIAN_POINT('',(2.75,-4.25,0.));
#2248=CARTESIAN_POINT('',(2.75,-4.25,2.45));
#2249=CARTESIAN_POINT('',(2.75,-4.25,2.45));
#2250=CARTESIAN_POINT('',(-2.75,-4.25,2.45));
#2251=CARTESIAN_POINT('',(-2.75,-4.25,2.45));
#2252=CARTESIAN_POINT('',(-2.75,-4.25,2.45));
#2253=CARTESIAN_POINT('',(-2.75,-4.25,2.45));
#2254=CARTESIAN_POINT('',(2.75,-4.25,0.));
#2255=CARTESIAN_POINT('',(4.25,-2.75,0.));
#2256=CARTESIAN_POINT('',(4.25,-2.75,2.45));
#2257=CARTESIAN_POINT('',(4.25,-2.75,2.45));
#2258=CARTESIAN_POINT('',(2.75,-4.25,2.45));
#2259=CARTESIAN_POINT('',(2.75,-4.25,2.45));
#2260=CARTESIAN_POINT('',(4.25,-2.75,0.));
#2261=CARTESIAN_POINT('',(4.25,2.75,0.));
#2262=CARTESIAN_POINT('',(4.25,2.75,2.45));
#2263=CARTESIAN_POINT('',(4.25,2.75,2.45));
#2264=CARTESIAN_POINT('',(4.25,-2.75,2.45));
#2265=CARTESIAN_POINT('',(4.25,-2.75,2.45));
#2266=CARTESIAN_POINT('',(4.25,2.75,0.));
#2267=CARTESIAN_POINT('',(2.75,4.25,0.));
#2268=CARTESIAN_POINT('',(2.75,4.25,2.45));
#2269=CARTESIAN_POINT('',(2.75,4.25,2.45));
#2270=CARTESIAN_POINT('',(4.25,2.75,2.45));
#2271=CARTESIAN_POINT('',(4.25,2.75,2.45));
#2272=CARTESIAN_POINT('',(2.75,4.25,0.));
#2273=CARTESIAN_POINT('',(-2.75,4.25,0.));
#2274=CARTESIAN_POINT('',(-2.75,4.25,2.45));
#2275=CARTESIAN_POINT('',(-2.75,4.25,2.45));
#2276=CARTESIAN_POINT('',(2.75,4.25,2.45));
#2277=CARTESIAN_POINT('',(2.75,4.25,2.45));
#2278=CARTESIAN_POINT('',(-2.75,4.25,0.));
#2279=CARTESIAN_POINT('',(-4.25,2.75,0.));
#2280=CARTESIAN_POINT('',(-4.25,2.75,2.45));
#2281=CARTESIAN_POINT('',(-4.25,2.75,2.45));
#2282=CARTESIAN_POINT('',(-2.75,4.25,2.45));
#2283=CARTESIAN_POINT('',(-2.75,4.25,2.45));
#2284=CARTESIAN_POINT('',(-4.25,1.50000000000001,0.65));
#2285=CARTESIAN_POINT('',(-4.25,1.50000000000001,0.65));
#2286=CARTESIAN_POINT('',(-4.25,-1.49999999999999,0.65));
#2287=CARTESIAN_POINT('',(-4.25,1.50000000000001,0.65));
#2288=CARTESIAN_POINT('',(-4.25,1.50000000000001,2.45));
#2289=CARTESIAN_POINT('',(-4.25,2.75,2.45));
#2290=CARTESIAN_POINT('',(-4.25,2.75,0.));
#2291=CARTESIAN_POINT('',(-4.25,-2.75,0.));
#2292=CARTESIAN_POINT('',(-4.25,-2.75,2.45));
#2293=CARTESIAN_POINT('',(-4.25,-2.75,2.45));
#2294=CARTESIAN_POINT('',(-4.25,2.75,2.45));
#2295=CARTESIAN_POINT('',(-4.25,-1.49999999999999,2.45));
#2296=CARTESIAN_POINT('',(-4.25,-1.49999999999999,0.65));
#2297=CARTESIAN_POINT('',(-4.25,2.75,2.45));
#2298=CARTESIAN_POINT('',(-4.25,-2.75,0.));
#2299=CARTESIAN_POINT('',(-4.25,-2.75,2.45));
#2300=CARTESIAN_POINT('',(-4.25,-2.75,2.45));
#2301=CARTESIAN_POINT('',(-4.25,-1.49999999999999,2.45));
#2302=CARTESIAN_POINT('',(-3.6541072781187,-1.49999999999999,2.45));
#2303=CARTESIAN_POINT('',(-3.65410727811869,1.50000000000001,2.45));
#2304=CARTESIAN_POINT('',(-3.65410727811543,1.50000000000795,2.45));
#2305=CARTESIAN_POINT('',(0.,0.,2.45));
#2306=CARTESIAN_POINT('',(0.,0.,2.45));
#2307=CARTESIAN_POINT('',(0.,0.,0.));
#2308=CARTESIAN_POINT('',(0.,0.,0.25));
#2309=CARTESIAN_POINT('',(3.95,0.,0.25));
#2310=CARTESIAN_POINT('',(0.,0.,0.65));
#2311=CARTESIAN_POINT('',(-3.6541072781187,-1.49999999999999,0.65));
#2312=CARTESIAN_POINT('',(-3.65410727811543,1.50000000000795,0.65));
#2313=CARTESIAN_POINT('',(-3.6541072781187,-1.49999999999999,0.65));
#2314=CARTESIAN_POINT('',(-3.65410727811543,1.50000000000795,0.65));
#2315=CARTESIAN_POINT('',(0.,0.,0.25));
#2316=CARTESIAN_POINT('',(0.,0.,0.25));
#2317=CARTESIAN_POINT('',(-4.25,-1.49999999999999,0.65));
#2318=CARTESIAN_POINT('',(-4.25,-1.49999999999999,0.65));
#2319=CARTESIAN_POINT('',(-3.65410727811869,1.50000000000001,0.65));
#2320=CARTESIAN_POINT('',(-3.65410727811869,1.50000000000001,0.65));
#2321=CARTESIAN_POINT('',(0.,0.,0.65));
#2322=CARTESIAN_POINT('',(0.,0.,0.));
#2323=CARTESIAN_POINT('',(0.,0.,4.));
#2324=MECHANICAL_DESIGN_GEOMETRIC_PRESENTATION_REPRESENTATION('',(#101,
#73,#74,#75,#76,#77,#78,#79,#102,#80,#81,#82,#83,#84,#85,#103,#86,#87,#88,
#89,#90,#91,#92,#104,#105,#93,#94,#95,#96,#97,#98,#99),#2327);
#2325=MECHANICAL_DESIGN_GEOMETRIC_PRESENTATION_REPRESENTATION('',(#106),
#2328);
#2326=(
GEOMETRIC_REPRESENTATION_CONTEXT(3)
GLOBAL_UNCERTAINTY_ASSIGNED_CONTEXT((#2329))
GLOBAL_UNIT_ASSIGNED_CONTEXT((#2337,#2333,#2332))
REPRESENTATION_CONTEXT('8504Dzp','TOP_LEVEL_ASSEMBLY_PART')
);
#2327=(
GEOMETRIC_REPRESENTATION_CONTEXT(3)
GLOBAL_UNCERTAINTY_ASSIGNED_CONTEXT((#2330))
GLOBAL_UNIT_ASSIGNED_CONTEXT((#2337,#2333,#2332))
REPRESENTATION_CONTEXT('ugct8503dkt','COMPONENT_PART')
);
#2328=(
GEOMETRIC_REPRESENTATION_CONTEXT(3)
GLOBAL_UNCERTAINTY_ASSIGNED_CONTEXT((#2331))
GLOBAL_UNIT_ASSIGNED_CONTEXT((#2337,#2333,#2332))
REPRESENTATION_CONTEXT('ugct8504dsg','COMPONENT_PART')
);
#2329=UNCERTAINTY_MEASURE_WITH_UNIT(LENGTH_MEASURE(2.E-5),#2337,
'DISTANCE_ACCURACY_VALUE','Maximum Tolerance applied to model');
#2330=UNCERTAINTY_MEASURE_WITH_UNIT(LENGTH_MEASURE(2.E-5),#2337,
'DISTANCE_ACCURACY_VALUE','Maximum Tolerance applied to model');
#2331=UNCERTAINTY_MEASURE_WITH_UNIT(LENGTH_MEASURE(2.E-5),#2337,
'DISTANCE_ACCURACY_VALUE','Maximum Tolerance applied to model');
#2332=(
NAMED_UNIT(*)
SI_UNIT($,.STERADIAN.)
SOLID_ANGLE_UNIT()
);
#2333=(
CONVERSION_BASED_UNIT('DEGREE',#2335)
NAMED_UNIT(#2334)
PLANE_ANGLE_UNIT()
);
#2334=DIMENSIONAL_EXPONENTS(0.,0.,0.,0.,0.,0.,0.);
#2335=PLANE_ANGLE_MEASURE_WITH_UNIT(PLANE_ANGLE_MEASURE(0.0174532925),#2336);
#2336=(
NAMED_UNIT(*)
PLANE_ANGLE_UNIT()
SI_UNIT($,.RADIAN.)
);
#2337=(
LENGTH_UNIT()
NAMED_UNIT(*)
SI_UNIT(.MILLI.,.METRE.)
);
ENDSEC;
END-ISO-10303-21;
