ISO-10303-21;
HEADER;
/* Generated by software containing ST-Developer
 * from STEP Tools, Inc. (www.steptools.com) 
 */
/* OPTION: using custom renumber hook */

FILE_DESCRIPTION(
/* description */ ('STEP AP242 Edition 2',
'CAx-IF Rec.Pracs.---Representation and Presentation of Product Manufa
cturing Information (PMI)---4.0---2014-10-13',
'CAx-IF Rec.Pracs.---3D Tessellated Geometry---0.4---2014-09-14','2;1',
'CAx-IF Rec.Pracs.---User Defined Attributes---1.5---2016-08-15'),
/* implementation_level */ '2;1');

FILE_NAME(
/* name */ 'Thru-Hole Caps - Right-Angle Thru-Hole Cap h=21.5 d=10mm',
/* time_stamp */ '2026-09-28T00:03:00Z',
/* author */ (''),
/* organization */ (''),
/* preprocessor_version */ 'ST-DEVELOPER v20',
/* originating_system */ 'ONSHAPE BY PTC INC, 1.221',
/* authorisation */ '  ');

FILE_SCHEMA (('AP242_MANAGED_MODEL_BASED_3D_ENGINEERING_MIM_LF { 1 0 10303 442 3 1 4 }'));
ENDSEC;

DATA;
#10=SHAPE_REPRESENTATION_RELATIONSHIP('','',#196,#11);
#11=ADVANCED_BREP_SHAPE_REPRESENTATION('',(#194),#304);
#12=SPHERICAL_SURFACE('',#219,0.0003);
#13=SPHERICAL_SURFACE('',#220,0.0003);
#14=ELLIPSE('',#206,0.000424264068711928,0.0003);
#15=ELLIPSE('',#210,0.000424264068711928,0.0003);
#16=OVER_RIDING_STYLED_ITEM('',(#139),#128,#137);
#17=OVER_RIDING_STYLED_ITEM('',(#140),#129,#137);
#18=OVER_RIDING_STYLED_ITEM('',(#141),#130,#137);
#19=OVER_RIDING_STYLED_ITEM('',(#142),#131,#137);
#20=OVER_RIDING_STYLED_ITEM('',(#143),#132,#137);
#21=OVER_RIDING_STYLED_ITEM('',(#144),#133,#137);
#22=OVER_RIDING_STYLED_ITEM('',(#145),#134,#137);
#23=OVER_RIDING_STYLED_ITEM('',(#146),#135,#137);
#24=CYLINDRICAL_SURFACE('',#202,0.005);
#25=CYLINDRICAL_SURFACE('',#205,0.0003);
#26=CYLINDRICAL_SURFACE('',#208,0.0003);
#27=CYLINDRICAL_SURFACE('',#211,0.0003);
#28=CYLINDRICAL_SURFACE('',#215,0.0003);
#29=ORIENTED_EDGE('',*,*,#53,.T.);
#30=ORIENTED_EDGE('',*,*,#54,.T.);
#31=ORIENTED_EDGE('',*,*,#55,.F.);
#32=ORIENTED_EDGE('',*,*,#56,.T.);
#33=ORIENTED_EDGE('',*,*,#54,.F.);
#34=ORIENTED_EDGE('',*,*,#56,.F.);
#35=ORIENTED_EDGE('',*,*,#57,.F.);
#36=ORIENTED_EDGE('',*,*,#58,.T.);
#37=ORIENTED_EDGE('',*,*,#53,.F.);
#38=ORIENTED_EDGE('',*,*,#59,.F.);
#39=ORIENTED_EDGE('',*,*,#60,.T.);
#40=ORIENTED_EDGE('',*,*,#55,.T.);
#41=ORIENTED_EDGE('',*,*,#61,.T.);
#42=ORIENTED_EDGE('',*,*,#60,.F.);
#43=ORIENTED_EDGE('',*,*,#62,.F.);
#44=ORIENTED_EDGE('',*,*,#61,.F.);
#45=ORIENTED_EDGE('',*,*,#63,.T.);
#46=ORIENTED_EDGE('',*,*,#64,.F.);
#47=ORIENTED_EDGE('',*,*,#57,.T.);
#48=ORIENTED_EDGE('',*,*,#63,.F.);
#49=ORIENTED_EDGE('',*,*,#58,.F.);
#50=ORIENTED_EDGE('',*,*,#64,.T.);
#51=ORIENTED_EDGE('',*,*,#62,.T.);
#52=ORIENTED_EDGE('',*,*,#59,.T.);
#53=EDGE_CURVE('',#65,#65,#75,.T.);
#54=EDGE_CURVE('',#66,#66,#76,.T.);
#55=EDGE_CURVE('',#67,#67,#77,.T.);
#56=EDGE_CURVE('',#68,#68,#78,.T.);
#57=EDGE_CURVE('',#69,#70,#14,.F.);
#58=EDGE_CURVE('',#69,#70,#79,.T.);
#59=EDGE_CURVE('',#71,#72,#80,.T.);
#60=EDGE_CURVE('',#71,#72,#15,.T.);
#61=EDGE_CURVE('',#73,#73,#81,.T.);
#62=EDGE_CURVE('',#72,#71,#82,.T.);
#63=EDGE_CURVE('',#74,#74,#83,.T.);
#64=EDGE_CURVE('',#69,#70,#84,.T.);
#65=VERTEX_POINT('',#272);
#66=VERTEX_POINT('',#274);
#67=VERTEX_POINT('',#276);
#68=VERTEX_POINT('',#279);
#69=VERTEX_POINT('',#283);
#70=VERTEX_POINT('',#284);
#71=VERTEX_POINT('',#288);
#72=VERTEX_POINT('',#289);
#73=VERTEX_POINT('',#293);
#74=VERTEX_POINT('',#298);
#75=CIRCLE('',#199,0.0003);
#76=CIRCLE('',#200,0.005);
#77=CIRCLE('',#201,0.0003);
#78=CIRCLE('',#203,0.005);
#79=CIRCLE('',#207,0.0003);
#80=CIRCLE('',#209,0.0003);
#81=CIRCLE('',#212,0.0003);
#82=CIRCLE('',#213,0.0003);
#83=CIRCLE('',#216,0.0003);
#84=CIRCLE('',#217,0.0003);
#85=EDGE_LOOP('',(#29));
#86=EDGE_LOOP('',(#30));
#87=EDGE_LOOP('',(#31));
#88=EDGE_LOOP('',(#32));
#89=EDGE_LOOP('',(#33));
#90=EDGE_LOOP('',(#34));
#91=EDGE_LOOP('',(#35,#36));
#92=EDGE_LOOP('',(#37));
#93=EDGE_LOOP('',(#38,#39));
#94=EDGE_LOOP('',(#40));
#95=EDGE_LOOP('',(#41));
#96=EDGE_LOOP('',(#42,#43));
#97=EDGE_LOOP('',(#44));
#98=EDGE_LOOP('',(#45));
#99=EDGE_LOOP('',(#46,#47));
#100=EDGE_LOOP('',(#48));
#101=EDGE_LOOP('',(#49,#50));
#102=EDGE_LOOP('',(#51,#52));
#103=FACE_BOUND('',#85,.T.);
#104=FACE_BOUND('',#86,.T.);
#105=FACE_BOUND('',#87,.T.);
#106=FACE_BOUND('',#88,.T.);
#107=FACE_BOUND('',#89,.T.);
#108=FACE_BOUND('',#90,.T.);
#109=FACE_BOUND('',#91,.T.);
#110=FACE_BOUND('',#92,.T.);
#111=FACE_BOUND('',#93,.T.);
#112=FACE_BOUND('',#94,.T.);
#113=FACE_BOUND('',#95,.T.);
#114=FACE_BOUND('',#96,.T.);
#115=FACE_BOUND('',#97,.T.);
#116=FACE_BOUND('',#98,.T.);
#117=FACE_BOUND('',#99,.T.);
#118=FACE_BOUND('',#100,.T.);
#119=FACE_BOUND('',#101,.T.);
#120=FACE_BOUND('',#102,.T.);
#121=PLANE('',#198);
#122=PLANE('',#204);
#123=PLANE('',#214);
#124=PLANE('',#218);
#125=ADVANCED_FACE('',(#103,#104,#105),#121,.T.);
#126=ADVANCED_FACE('',(#106,#107),#24,.T.);
#127=ADVANCED_FACE('',(#108),#122,.F.);
#128=ADVANCED_FACE('Face appearance 1',(#109,#110),#25,.T.);
#129=ADVANCED_FACE('Face appearance 1',(#111,#112),#26,.T.);
#130=ADVANCED_FACE('Face appearance 1',(#113,#114),#27,.T.);
#131=ADVANCED_FACE('Face appearance 1',(#115),#123,.F.);
#132=ADVANCED_FACE('Face appearance 1',(#116,#117),#28,.T.);
#133=ADVANCED_FACE('Face appearance 1',(#118),#124,.F.);
#134=ADVANCED_FACE('Face appearance 1',(#119),#12,.T.);
#135=ADVANCED_FACE('Face appearance 1',(#120),#13,.T.);
#136=CLOSED_SHELL('',(#125,#126,#127,#128,#129,#130,#131,#132,#133,#134,
#135));
#137=STYLED_ITEM('',(#138),#194);
#138=PRESENTATION_STYLE_ASSIGNMENT((#147));
#139=PRESENTATION_STYLE_ASSIGNMENT((#148));
#140=PRESENTATION_STYLE_ASSIGNMENT((#149));
#141=PRESENTATION_STYLE_ASSIGNMENT((#150));
#142=PRESENTATION_STYLE_ASSIGNMENT((#151));
#143=PRESENTATION_STYLE_ASSIGNMENT((#152));
#144=PRESENTATION_STYLE_ASSIGNMENT((#153));
#145=PRESENTATION_STYLE_ASSIGNMENT((#154));
#146=PRESENTATION_STYLE_ASSIGNMENT((#155));
#147=SURFACE_STYLE_USAGE(.BOTH.,#156);
#148=SURFACE_STYLE_USAGE(.BOTH.,#157);
#149=SURFACE_STYLE_USAGE(.BOTH.,#158);
#150=SURFACE_STYLE_USAGE(.BOTH.,#159);
#151=SURFACE_STYLE_USAGE(.BOTH.,#160);
#152=SURFACE_STYLE_USAGE(.BOTH.,#161);
#153=SURFACE_STYLE_USAGE(.BOTH.,#162);
#154=SURFACE_STYLE_USAGE(.BOTH.,#163);
#155=SURFACE_STYLE_USAGE(.BOTH.,#164);
#156=SURFACE_SIDE_STYLE('',(#165));
#157=SURFACE_SIDE_STYLE('',(#166));
#158=SURFACE_SIDE_STYLE('',(#167));
#159=SURFACE_SIDE_STYLE('',(#168));
#160=SURFACE_SIDE_STYLE('',(#169));
#161=SURFACE_SIDE_STYLE('',(#170));
#162=SURFACE_SIDE_STYLE('',(#171));
#163=SURFACE_SIDE_STYLE('',(#172));
#164=SURFACE_SIDE_STYLE('',(#173));
#165=SURFACE_STYLE_FILL_AREA(#174);
#166=SURFACE_STYLE_FILL_AREA(#175);
#167=SURFACE_STYLE_FILL_AREA(#176);
#168=SURFACE_STYLE_FILL_AREA(#177);
#169=SURFACE_STYLE_FILL_AREA(#178);
#170=SURFACE_STYLE_FILL_AREA(#179);
#171=SURFACE_STYLE_FILL_AREA(#180);
#172=SURFACE_STYLE_FILL_AREA(#181);
#173=SURFACE_STYLE_FILL_AREA(#182);
#174=FILL_AREA_STYLE('',(#183));
#175=FILL_AREA_STYLE('',(#184));
#176=FILL_AREA_STYLE('',(#185));
#177=FILL_AREA_STYLE('',(#186));
#178=FILL_AREA_STYLE('',(#187));
#179=FILL_AREA_STYLE('',(#188));
#180=FILL_AREA_STYLE('',(#189));
#181=FILL_AREA_STYLE('',(#190));
#182=FILL_AREA_STYLE('',(#191));
#183=FILL_AREA_STYLE_COLOUR('',#192);
#184=FILL_AREA_STYLE_COLOUR('',#193);
#185=FILL_AREA_STYLE_COLOUR('',#193);
#186=FILL_AREA_STYLE_COLOUR('',#193);
#187=FILL_AREA_STYLE_COLOUR('',#193);
#188=FILL_AREA_STYLE_COLOUR('',#193);
#189=FILL_AREA_STYLE_COLOUR('',#193);
#190=FILL_AREA_STYLE_COLOUR('',#193);
#191=FILL_AREA_STYLE_COLOUR('',#193);
#192=COLOUR_RGB('',0.4,0.4,0.4);
#193=COLOUR_RGB('',0.752941176470588,0.752941176470588,0.752941176470588);
#194=MANIFOLD_SOLID_BREP('Right-Angle Thru-Hole Cap h=21.5 d=10mm',#136);
#195=SHAPE_DEFINITION_REPRESENTATION(#309,#196);
#196=SHAPE_REPRESENTATION('Right-Angle Thru-Hole Cap h=21.5 d=10mm',(#197),
#304);
#197=AXIS2_PLACEMENT_3D('',#269,#221,#222);
#198=AXIS2_PLACEMENT_3D('',#270,#223,#224);
#199=AXIS2_PLACEMENT_3D('',#271,#225,#226);
#200=AXIS2_PLACEMENT_3D('',#273,#227,#228);
#201=AXIS2_PLACEMENT_3D('',#275,#229,#230);
#202=AXIS2_PLACEMENT_3D('',#277,#231,#232);
#203=AXIS2_PLACEMENT_3D('',#278,#233,#234);
#204=AXIS2_PLACEMENT_3D('',#280,#235,#236);
#205=AXIS2_PLACEMENT_3D('',#281,#237,#238);
#206=AXIS2_PLACEMENT_3D('',#282,#239,#240);
#207=AXIS2_PLACEMENT_3D('',#285,#241,#242);
#208=AXIS2_PLACEMENT_3D('',#286,#243,#244);
#209=AXIS2_PLACEMENT_3D('',#287,#245,#246);
#210=AXIS2_PLACEMENT_3D('',#290,#247,#248);
#211=AXIS2_PLACEMENT_3D('',#291,#249,#250);
#212=AXIS2_PLACEMENT_3D('',#292,#251,#252);
#213=AXIS2_PLACEMENT_3D('',#294,#253,#254);
#214=AXIS2_PLACEMENT_3D('',#295,#255,#256);
#215=AXIS2_PLACEMENT_3D('',#296,#257,#258);
#216=AXIS2_PLACEMENT_3D('',#297,#259,#260);
#217=AXIS2_PLACEMENT_3D('',#299,#261,#262);
#218=AXIS2_PLACEMENT_3D('',#300,#263,#264);
#219=AXIS2_PLACEMENT_3D('',#301,#265,#266);
#220=AXIS2_PLACEMENT_3D('',#302,#267,#268);
#221=DIRECTION('',(0.,0.,1.));
#222=DIRECTION('',(1.,0.,0.));
#223=DIRECTION('',(0.,-1.,0.));
#224=DIRECTION('',(1.,0.,0.));
#225=DIRECTION('',(0.,1.,0.));
#226=DIRECTION('',(0.,0.,-1.));
#227=DIRECTION('',(0.,-1.,0.));
#228=DIRECTION('',(0.,0.,-1.));
#229=DIRECTION('',(0.,-1.,0.));
#230=DIRECTION('',(0.,0.,-1.));
#231=DIRECTION('',(0.,-1.,0.));
#232=DIRECTION('',(0.,0.,-1.));
#233=DIRECTION('',(0.,-1.,0.));
#234=DIRECTION('',(0.,0.,-1.));
#235=DIRECTION('',(0.,-1.,0.));
#236=DIRECTION('',(1.,0.,0.));
#237=DIRECTION('',(0.,1.,0.));
#238=DIRECTION('',(0.,0.,1.));
#239=DIRECTION('',(0.,0.707106781186548,0.707106781186548));
#240=DIRECTION('',(0.,0.707106781186548,-0.707106781186548));
#241=DIRECTION('',(0.,1.,0.));
#242=DIRECTION('',(0.,0.,-1.));
#243=DIRECTION('',(0.,1.,0.));
#244=DIRECTION('',(0.,0.,1.));
#245=DIRECTION('',(0.,-1.,0.));
#246=DIRECTION('',(0.,0.,-1.));
#247=DIRECTION('',(0.,0.707106781186548,0.707106781186548));
#248=DIRECTION('',(0.,0.707106781186548,-0.707106781186548));
#249=DIRECTION('',(0.,0.,1.));
#250=DIRECTION('',(1.,0.,0.));
#251=DIRECTION('',(0.,0.,1.));
#252=DIRECTION('',(1.,0.,0.));
#253=DIRECTION('',(0.,0.,1.));
#254=DIRECTION('',(1.,0.,0.));
#255=DIRECTION('',(0.,0.,1.));
#256=DIRECTION('',(1.,0.,0.));
#257=DIRECTION('',(0.,0.,1.));
#258=DIRECTION('',(1.,0.,0.));
#259=DIRECTION('',(0.,0.,1.));
#260=DIRECTION('',(1.,0.,0.));
#261=DIRECTION('',(0.,0.,1.));
#262=DIRECTION('',(1.,0.,0.));
#263=DIRECTION('',(0.,0.,1.));
#264=DIRECTION('',(1.,0.,0.));
#265=DIRECTION('',(1.,0.,0.));
#266=DIRECTION('',(0.,0.,-1.));
#267=DIRECTION('',(1.,0.,0.));
#268=DIRECTION('',(0.,0.,-1.));
#269=CARTESIAN_POINT('',(0.,0.,0.));
#270=CARTESIAN_POINT('',(0.,0.,0.));
#271=CARTESIAN_POINT('',(0.0025,0.,6.30693101560887E-19));
#272=CARTESIAN_POINT('',(0.0025,0.,-0.000299999999999999));
#273=CARTESIAN_POINT('',(0.,0.,3.06161699786838E-19));
#274=CARTESIAN_POINT('',(0.,0.,-0.005));
#275=CARTESIAN_POINT('',(-0.0025,0.,1.83697019872103E-20));
#276=CARTESIAN_POINT('',(-0.0025,0.,-0.0003));
#277=CARTESIAN_POINT('',(0.,0.0215,3.06161699786838E-19));
#278=CARTESIAN_POINT('',(0.,0.0215,3.06161699786838E-19));
#279=CARTESIAN_POINT('',(0.,0.0215,-0.005));
#280=CARTESIAN_POINT('',(0.,0.0215,0.));
#281=CARTESIAN_POINT('',(0.0025,-0.002,6.30693101560887E-19));
#282=CARTESIAN_POINT('',(0.0025,-0.002,7.49027419774645E-19));
#283=CARTESIAN_POINT('',(0.0022,-0.002,0.));
#284=CARTESIAN_POINT('',(0.0028,-0.002,0.));
#285=CARTESIAN_POINT('',(0.0025,-0.002,6.30693101560887E-19));
#286=CARTESIAN_POINT('',(-0.0025,-0.002,1.83697019872103E-20));
#287=CARTESIAN_POINT('',(-0.0025,-0.002,1.83697019872103E-20));
#288=CARTESIAN_POINT('',(-0.0022,-0.002,0.));
#289=CARTESIAN_POINT('',(-0.0028,-0.002,0.));
#290=CARTESIAN_POINT('',(-0.0025,-0.002,9.18485099360515E-21));
#291=CARTESIAN_POINT('',(-0.0025,-0.002,-0.007));
#292=CARTESIAN_POINT('',(-0.0025,-0.002,-0.007));
#293=CARTESIAN_POINT('',(-0.0022,-0.002,-0.007));
#294=CARTESIAN_POINT('',(-0.0025,-0.002,0.));
#295=CARTESIAN_POINT('',(0.,-0.002,-0.007));
#296=CARTESIAN_POINT('',(0.0025,-0.002,-0.007));
#297=CARTESIAN_POINT('',(0.0025,-0.002,-0.007));
#298=CARTESIAN_POINT('',(0.0028,-0.002,-0.007));
#299=CARTESIAN_POINT('',(0.0025,-0.002,0.));
#300=CARTESIAN_POINT('',(0.,-0.002,-0.007));
#301=CARTESIAN_POINT('',(0.0025,-0.002,6.30693101560887E-19));
#302=CARTESIAN_POINT('',(-0.0025,-0.002,1.83697019872103E-20));
#303=MECHANICAL_DESIGN_GEOMETRIC_PRESENTATION_REPRESENTATION('',(#137,#16,
#17,#18,#19,#20,#21,#22,#23),#304);
#304=(
GEOMETRIC_REPRESENTATION_CONTEXT(3)
GLOBAL_UNCERTAINTY_ASSIGNED_CONTEXT((#305))
GLOBAL_UNIT_ASSIGNED_CONTEXT((#308,#307,#306))
REPRESENTATION_CONTEXT('Right-Angle Thru-Hole Cap h=21.5 d=10mm',
'TOP_LEVEL_ASSEMBLY_PART')
);
#305=UNCERTAINTY_MEASURE_WITH_UNIT(LENGTH_MEASURE(1.E-8),#308,
'DISTANCE_ACCURACY_VALUE','Maximum Tolerance applied to model');
#306=(
NAMED_UNIT(*)
SI_UNIT($,.STERADIAN.)
SOLID_ANGLE_UNIT()
);
#307=(
NAMED_UNIT(*)
PLANE_ANGLE_UNIT()
SI_UNIT($,.RADIAN.)
);
#308=(
LENGTH_UNIT()
NAMED_UNIT(*)
SI_UNIT($,.METRE.)
);
#309=PRODUCT_DEFINITION_SHAPE('','',#310);
#310=PRODUCT_DEFINITION('','',#312,#311);
#311=PRODUCT_DEFINITION_CONTEXT('',#318,'design');
#312=PRODUCT_DEFINITION_FORMATION_WITH_SPECIFIED_SOURCE('','',#314,
 .NOT_KNOWN.);
#313=PRODUCT_RELATED_PRODUCT_CATEGORY('','',(#314));
#314=PRODUCT('Right-Angle Thru-Hole Cap h=21.5 d=10mm',
'Right-Angle Thru-Hole Cap h=21.5 d=10mm',
'Right-Angle Thru-Hole Cap h=21.5 d=10mm',(#316));
#315=PRODUCT_CATEGORY('','');
#316=PRODUCT_CONTEXT('',#318,'mechanical');
#317=APPLICATION_PROTOCOL_DEFINITION('international standard',
'ap242_managed_model_based_3d_engineering',2020,#318);
#318=APPLICATION_CONTEXT('managed model based 3d engineering');
ENDSEC;
END-ISO-10303-21;
