ISO-10303-21;
HEADER;
/* Generated by software containing ST-Developer
 * from STEP Tools, Inc. (www.steptools.com) 
 */
/* OPTION: using custom renumber hook */

FILE_DESCRIPTION(
/* description */ ('STEP AP242 Edition 2',
'CAx-IF Rec.Pracs.---Representation and Presentation of Product Manufa
cturing Information (PMI)---4.0---2014-10-13',
'CAx-IF Rec.Pracs.---3D Tessellated Geometry---0.4---2014-09-14','2;1',
'CAx-IF Rec.Pracs.---User Defined Attributes---1.5---2016-08-15'),
/* implementation_level */ '2;1');

FILE_NAME(
/* name */ 'NTC Thermistor - 5mm Pitch NTC',
/* time_stamp */ '2026-06-01T20:45:54Z',
/* author */ (''),
/* organization */ (''),
/* preprocessor_version */ 'ST-DEVELOPER v20',
/* originating_system */ 'ONSHAPE BY PTC INC, 1.215',
/* authorisation */ '  ');

FILE_SCHEMA (('AP242_MANAGED_MODEL_BASED_3D_ENGINEERING_MIM_LF { 1 0 10303 442 3 1 4 }'));
ENDSEC;

DATA;
#10=SHAPE_REPRESENTATION_RELATIONSHIP('','',#188,#11);
#11=ADVANCED_BREP_SHAPE_REPRESENTATION('',(#186),#328);
#12=TOROIDAL_SURFACE('',#202,0.00145,0.001);
#13=CYLINDRICAL_SURFACE('',#195,0.00025);
#14=CYLINDRICAL_SURFACE('',#199,0.00025);
#15=B_SPLINE_CURVE_WITH_KNOTS('',3,(#260,#261,#262,#263,#264,#265,#266),
 .UNSPECIFIED.,.F.,.F.,(4,1,1,1,4),(0.,0.000167790490510386,0.000335580981020773,
0.000503371471531159,0.000671161962041545),.UNSPECIFIED.);
#16=B_SPLINE_CURVE_WITH_KNOTS('',3,(#269,#270,#271,#272,#273,#274,#275),
 .UNSPECIFIED.,.F.,.F.,(4,1,1,1,4),(0.,0.000167800606267365,0.000335601212534731,
0.000503401818802096,0.000671202425069461),.UNSPECIFIED.);
#17=B_SPLINE_CURVE_WITH_KNOTS('',3,(#304,#305,#306,#307,#308,#309,#310),
 .UNSPECIFIED.,.F.,.F.,(4,1,1,1,4),(0.,0.000167800606267365,0.000335601212534731,
0.000503401818802096,0.000671202425069461),.UNSPECIFIED.);
#18=B_SPLINE_CURVE_WITH_KNOTS('',3,(#313,#314,#315,#316,#317,#318,#319),
 .UNSPECIFIED.,.F.,.F.,(4,1,1,1,4),(0.,0.000167790490510387,0.000335580981020775,
0.000503371471531162,0.00067116196204155),.UNSPECIFIED.);
#19=B_SPLINE_SURFACE_WITH_KNOTS('',3,1,((#238,#239),(#240,#241),(#242,#243),
(#244,#245),(#246,#247),(#248,#249),(#250,#251),(#252,#253),(#254,#255),
(#256,#257),(#258,#259)),.SURF_OF_LINEAR_EXTRUSION.,.T.,.F.,.F.,(1,1,1,
1,1,1,1,1,1,1,1,1,1,1,1),(2,2),(-0.375,-0.25,-0.125,0.,0.125,0.25,0.375,
0.5,0.625,0.75,0.875,1.,1.125,1.25,1.375),(0.,1.),.UNSPECIFIED.);
#20=B_SPLINE_SURFACE_WITH_KNOTS('',3,1,((#282,#283),(#284,#285),(#286,#287),
(#288,#289),(#290,#291),(#292,#293),(#294,#295),(#296,#297),(#298,#299),
(#300,#301),(#302,#303)),.SURF_OF_LINEAR_EXTRUSION.,.T.,.F.,.F.,(1,1,1,
1,1,1,1,1,1,1,1,1,1,1,1),(2,2),(-0.375,-0.25,-0.125,0.,0.125,0.25,0.375,
0.5,0.625,0.75,0.875,1.,1.125,1.25,1.375),(0.,1.),.UNSPECIFIED.);
#21=ORIENTED_EDGE('',*,*,#41,.T.);
#22=ORIENTED_EDGE('',*,*,#42,.T.);
#23=ORIENTED_EDGE('',*,*,#43,.T.);
#24=ORIENTED_EDGE('',*,*,#44,.T.);
#25=ORIENTED_EDGE('',*,*,#45,.F.);
#26=ORIENTED_EDGE('',*,*,#46,.F.);
#27=ORIENTED_EDGE('',*,*,#45,.T.);
#28=ORIENTED_EDGE('',*,*,#46,.T.);
#29=ORIENTED_EDGE('',*,*,#47,.T.);
#30=ORIENTED_EDGE('',*,*,#48,.T.);
#31=ORIENTED_EDGE('',*,*,#49,.F.);
#32=ORIENTED_EDGE('',*,*,#50,.F.);
#33=ORIENTED_EDGE('',*,*,#49,.T.);
#34=ORIENTED_EDGE('',*,*,#50,.T.);
#35=ORIENTED_EDGE('',*,*,#48,.F.);
#36=ORIENTED_EDGE('',*,*,#47,.F.);
#37=ORIENTED_EDGE('',*,*,#41,.F.);
#38=ORIENTED_EDGE('',*,*,#44,.F.);
#39=ORIENTED_EDGE('',*,*,#43,.F.);
#40=ORIENTED_EDGE('',*,*,#42,.F.);
#41=EDGE_CURVE('',#51,#51,#61,.T.);
#42=EDGE_CURVE('',#52,#52,#62,.F.);
#43=EDGE_CURVE('',#53,#54,#15,.T.);
#44=EDGE_CURVE('',#54,#53,#16,.T.);
#45=EDGE_CURVE('',#55,#55,#63,.T.);
#46=EDGE_CURVE('',#56,#56,#64,.T.);
#47=EDGE_CURVE('',#57,#58,#17,.T.);
#48=EDGE_CURVE('',#58,#57,#18,.T.);
#49=EDGE_CURVE('',#59,#59,#65,.F.);
#50=EDGE_CURVE('',#60,#60,#66,.F.);
#51=VERTEX_POINT('',#234);
#52=VERTEX_POINT('',#237);
#53=VERTEX_POINT('',#267);
#54=VERTEX_POINT('',#268);
#55=VERTEX_POINT('',#277);
#56=VERTEX_POINT('',#280);
#57=VERTEX_POINT('',#311);
#58=VERTEX_POINT('',#312);
#59=VERTEX_POINT('',#321);
#60=VERTEX_POINT('',#324);
#61=CIRCLE('',#191,0.00145);
#62=CIRCLE('',#193,0.00145);
#63=CIRCLE('',#194,0.00025);
#64=CIRCLE('',#196,0.00025);
#65=CIRCLE('',#198,0.00025);
#66=CIRCLE('',#200,0.00025);
#67=EDGE_LOOP('',(#21));
#68=EDGE_LOOP('',(#22));
#69=EDGE_LOOP('',(#23,#24));
#70=EDGE_LOOP('',(#25));
#71=EDGE_LOOP('',(#26));
#72=EDGE_LOOP('',(#27));
#73=EDGE_LOOP('',(#28));
#74=EDGE_LOOP('',(#29,#30));
#75=EDGE_LOOP('',(#31));
#76=EDGE_LOOP('',(#32));
#77=EDGE_LOOP('',(#33));
#78=EDGE_LOOP('',(#34));
#79=EDGE_LOOP('',(#35,#36));
#80=EDGE_LOOP('',(#37));
#81=EDGE_LOOP('',(#38,#39));
#82=EDGE_LOOP('',(#40));
#83=FACE_BOUND('',#67,.T.);
#84=FACE_BOUND('',#68,.T.);
#85=FACE_BOUND('',#69,.T.);
#86=FACE_BOUND('',#70,.T.);
#87=FACE_BOUND('',#71,.T.);
#88=FACE_BOUND('',#72,.T.);
#89=FACE_BOUND('',#73,.T.);
#90=FACE_BOUND('',#74,.T.);
#91=FACE_BOUND('',#75,.T.);
#92=FACE_BOUND('',#76,.T.);
#93=FACE_BOUND('',#77,.T.);
#94=FACE_BOUND('',#78,.T.);
#95=FACE_BOUND('',#79,.T.);
#96=FACE_BOUND('',#80,.T.);
#97=FACE_BOUND('',#81,.T.);
#98=FACE_BOUND('',#82,.T.);
#99=PLANE('',#190);
#100=PLANE('',#192);
#101=PLANE('',#197);
#102=PLANE('',#201);
#103=OVER_RIDING_STYLED_ITEM('',(#124),#112,#122);
#104=OVER_RIDING_STYLED_ITEM('',(#125),#113,#122);
#105=OVER_RIDING_STYLED_ITEM('',(#126),#114,#122);
#106=OVER_RIDING_STYLED_ITEM('',(#127),#115,#122);
#107=OVER_RIDING_STYLED_ITEM('',(#128),#116,#122);
#108=OVER_RIDING_STYLED_ITEM('',(#129),#117,#122);
#109=OVER_RIDING_STYLED_ITEM('',(#130),#118,#122);
#110=OVER_RIDING_STYLED_ITEM('',(#131),#119,#122);
#111=OVER_RIDING_STYLED_ITEM('',(#132),#120,#122);
#112=ADVANCED_FACE('Face appearance 2',(#83),#99,.T.);
#113=ADVANCED_FACE('Face appearance 3',(#84),#100,.F.);
#114=ADVANCED_FACE('Face appearance 1',(#85,#86),#19,.T.);
#115=ADVANCED_FACE('Face appearance 1',(#87,#88),#13,.T.);
#116=ADVANCED_FACE('Face appearance 1',(#89),#101,.T.);
#117=ADVANCED_FACE('Face appearance 1',(#90,#91),#20,.T.);
#118=ADVANCED_FACE('Face appearance 1',(#92,#93),#14,.T.);
#119=ADVANCED_FACE('Face appearance 1',(#94),#102,.T.);
#120=ADVANCED_FACE('Face appearance 2',(#95,#96,#97,#98),#12,.T.);
#121=CLOSED_SHELL('',(#112,#113,#114,#115,#116,#117,#118,#119,#120));
#122=STYLED_ITEM('',(#123),#186);
#123=PRESENTATION_STYLE_ASSIGNMENT((#133));
#124=PRESENTATION_STYLE_ASSIGNMENT((#134));
#125=PRESENTATION_STYLE_ASSIGNMENT((#135));
#126=PRESENTATION_STYLE_ASSIGNMENT((#136));
#127=PRESENTATION_STYLE_ASSIGNMENT((#137));
#128=PRESENTATION_STYLE_ASSIGNMENT((#138));
#129=PRESENTATION_STYLE_ASSIGNMENT((#139));
#130=PRESENTATION_STYLE_ASSIGNMENT((#140));
#131=PRESENTATION_STYLE_ASSIGNMENT((#141));
#132=PRESENTATION_STYLE_ASSIGNMENT((#142));
#133=SURFACE_STYLE_USAGE(.BOTH.,#143);
#134=SURFACE_STYLE_USAGE(.BOTH.,#144);
#135=SURFACE_STYLE_USAGE(.BOTH.,#145);
#136=SURFACE_STYLE_USAGE(.BOTH.,#146);
#137=SURFACE_STYLE_USAGE(.BOTH.,#147);
#138=SURFACE_STYLE_USAGE(.BOTH.,#148);
#139=SURFACE_STYLE_USAGE(.BOTH.,#149);
#140=SURFACE_STYLE_USAGE(.BOTH.,#150);
#141=SURFACE_STYLE_USAGE(.BOTH.,#151);
#142=SURFACE_STYLE_USAGE(.BOTH.,#152);
#143=SURFACE_SIDE_STYLE('',(#153));
#144=SURFACE_SIDE_STYLE('',(#154));
#145=SURFACE_SIDE_STYLE('',(#155));
#146=SURFACE_SIDE_STYLE('',(#156));
#147=SURFACE_SIDE_STYLE('',(#157));
#148=SURFACE_SIDE_STYLE('',(#158));
#149=SURFACE_SIDE_STYLE('',(#159));
#150=SURFACE_SIDE_STYLE('',(#160));
#151=SURFACE_SIDE_STYLE('',(#161));
#152=SURFACE_SIDE_STYLE('',(#162));
#153=SURFACE_STYLE_FILL_AREA(#163);
#154=SURFACE_STYLE_FILL_AREA(#164);
#155=SURFACE_STYLE_FILL_AREA(#165);
#156=SURFACE_STYLE_FILL_AREA(#166);
#157=SURFACE_STYLE_FILL_AREA(#167);
#158=SURFACE_STYLE_FILL_AREA(#168);
#159=SURFACE_STYLE_FILL_AREA(#169);
#160=SURFACE_STYLE_FILL_AREA(#170);
#161=SURFACE_STYLE_FILL_AREA(#171);
#162=SURFACE_STYLE_FILL_AREA(#172);
#163=FILL_AREA_STYLE('',(#173));
#164=FILL_AREA_STYLE('',(#174));
#165=FILL_AREA_STYLE('',(#175));
#166=FILL_AREA_STYLE('',(#176));
#167=FILL_AREA_STYLE('',(#177));
#168=FILL_AREA_STYLE('',(#178));
#169=FILL_AREA_STYLE('',(#179));
#170=FILL_AREA_STYLE('',(#180));
#171=FILL_AREA_STYLE('',(#181));
#172=FILL_AREA_STYLE('',(#182));
#173=FILL_AREA_STYLE_COLOUR('',#183);
#174=FILL_AREA_STYLE_COLOUR('',#184);
#175=FILL_AREA_STYLE_COLOUR('',#184);
#176=FILL_AREA_STYLE_COLOUR('',#185);
#177=FILL_AREA_STYLE_COLOUR('',#185);
#178=FILL_AREA_STYLE_COLOUR('',#185);
#179=FILL_AREA_STYLE_COLOUR('',#185);
#180=FILL_AREA_STYLE_COLOUR('',#185);
#181=FILL_AREA_STYLE_COLOUR('',#185);
#182=FILL_AREA_STYLE_COLOUR('',#184);
#183=COLOUR_RGB('',0.615686274509804,0.811764705882353,0.929411764705882);
#184=COLOUR_RGB('',0.4,0.4,0.4);
#185=COLOUR_RGB('',0.6,0.607843137254902,0.607843137254902);
#186=MANIFOLD_SOLID_BREP('5mm Pitch NTC',#121);
#187=SHAPE_DEFINITION_REPRESENTATION(#333,#188);
#188=SHAPE_REPRESENTATION('5mm Pitch NTC',(#189),#328);
#189=AXIS2_PLACEMENT_3D('',#231,#203,#204);
#190=AXIS2_PLACEMENT_3D('',#232,#205,#206);
#191=AXIS2_PLACEMENT_3D('',#233,#207,#208);
#192=AXIS2_PLACEMENT_3D('',#235,#209,#210);
#193=AXIS2_PLACEMENT_3D('',#236,#211,#212);
#194=AXIS2_PLACEMENT_3D('',#276,#213,#214);
#195=AXIS2_PLACEMENT_3D('',#278,#215,#216);
#196=AXIS2_PLACEMENT_3D('',#279,#217,#218);
#197=AXIS2_PLACEMENT_3D('',#281,#219,#220);
#198=AXIS2_PLACEMENT_3D('',#320,#221,#222);
#199=AXIS2_PLACEMENT_3D('',#322,#223,#224);
#200=AXIS2_PLACEMENT_3D('',#323,#225,#226);
#201=AXIS2_PLACEMENT_3D('',#325,#227,#228);
#202=AXIS2_PLACEMENT_3D('',#326,#229,#230);
#203=DIRECTION('',(0.,0.,1.));
#204=DIRECTION('',(1.,0.,0.));
#205=DIRECTION('',(0.,0.,1.));
#206=DIRECTION('',(1.,0.,0.));
#207=DIRECTION('',(0.,0.,1.));
#208=DIRECTION('',(0.,-1.,0.));
#209=DIRECTION('',(0.,0.,1.));
#210=DIRECTION('',(1.,0.,0.));
#211=DIRECTION('',(0.,0.,1.));
#212=DIRECTION('',(0.,-1.,0.));
#213=DIRECTION('',(0.,-1.,0.));
#214=DIRECTION('',(-1.,0.,0.));
#215=DIRECTION('',(2.77555756156289E-16,-1.,0.));
#216=DIRECTION('',(-1.,-2.77555756156289E-16,0.));
#217=DIRECTION('',(0.,-1.,0.));
#218=DIRECTION('',(-1.,0.,0.));
#219=DIRECTION('',(0.,-1.,0.));
#220=DIRECTION('',(1.,0.,0.));
#221=DIRECTION('',(0.,1.,0.));
#222=DIRECTION('',(-1.,0.,0.));
#223=DIRECTION('',(0.,-1.,0.));
#224=DIRECTION('',(-1.,0.,0.));
#225=DIRECTION('',(0.,1.,0.));
#226=DIRECTION('',(-1.,0.,0.));
#227=DIRECTION('',(0.,-1.,0.));
#228=DIRECTION('',(1.,0.,0.));
#229=DIRECTION('',(0.,0.,1.));
#230=DIRECTION('',(0.,-1.,0.));
#231=CARTESIAN_POINT('',(0.,0.,0.));
#232=CARTESIAN_POINT('',(0.,0.,0.001));
#233=CARTESIAN_POINT('',(0.,1.50019232895551E-19,0.001));
#234=CARTESIAN_POINT('',(0.,-0.00145,0.001));
#235=CARTESIAN_POINT('',(0.,0.,-0.001));
#236=CARTESIAN_POINT('',(0.,1.50019232895551E-19,-0.001));
#237=CARTESIAN_POINT('',(0.,-0.00145,-0.001));
#238=CARTESIAN_POINT('',(-0.00279089147346521,-0.00252039378319901,-0.000169351440936142));
#239=CARTESIAN_POINT('',(-0.0018391681614486,-0.0015686704711824,-0.000169351440936142));
#240=CARTESIAN_POINT('',(-0.00281303022968587,-0.00249825502697836,1.84189091250216E-8));
#241=CARTESIAN_POINT('',(-0.00186130691766926,-0.00154653171496175,1.84189091250216E-8));
#242=CARTESIAN_POINT('',(-0.002790843377784,-0.00252044187888023,0.000169277765299642));
#243=CARTESIAN_POINT('',(-0.00183912006576739,-0.00156871856686362,0.000169277765299642));
#244=CARTESIAN_POINT('',(-0.0026805810304995,-0.00263070422616473,0.000290389300766304));
#245=CARTESIAN_POINT('',(-0.00172885771848288,-0.00167898091414812,0.000290389300766304));
#246=CARTESIAN_POINT('',(-0.00257041423838775,-0.00274087101827648,0.000169164931510551));
#247=CARTESIAN_POINT('',(-0.00161869092637114,-0.00178914770625987,0.000169164931510551));
#248=CARTESIAN_POINT('',(-0.00254825888384224,-0.00276302637282199,-7.52538803655499E-8));
#249=CARTESIAN_POINT('',(-0.00159653557182563,-0.00181130306080538,-7.52538803655499E-8));
#250=CARTESIAN_POINT('',(-0.00257040599653411,-0.00274087926013011,-0.000168906209539761));
#251=CARTESIAN_POINT('',(-0.0016186826845175,-0.0017891559481135,-0.000168906209539761));
#252=CARTESIAN_POINT('',(-0.00268026057461923,-0.002631024682045,-0.000290434821293376));
#253=CARTESIAN_POINT('',(-0.00172853726260262,-0.00167930137002839,-0.000290434821293376));
#254=CARTESIAN_POINT('',(-0.00279089147346521,-0.00252039378319901,-0.000169351440936142));
#255=CARTESIAN_POINT('',(-0.0018391681614486,-0.0015686704711824,-0.000169351440936142));
#256=CARTESIAN_POINT('',(-0.00281303022968587,-0.00249825502697836,1.84189091250216E-8));
#257=CARTESIAN_POINT('',(-0.00186130691766926,-0.00154653171496175,1.84189091250216E-8));
#258=CARTESIAN_POINT('',(-0.002790843377784,-0.00252044187888023,0.000169277765299642));
#259=CARTESIAN_POINT('',(-0.00183912006576739,-0.00156871856686362,0.000169277765299642));
#260=CARTESIAN_POINT('',(-0.00187590555940932,-0.00157590555940932,0.));
#261=CARTESIAN_POINT('',(-0.00187590555940932,-0.00157590555940932,-5.67383390519078E-5));
#262=CARTESIAN_POINT('',(-0.00185553264574909,-0.0015851069149088,-0.000168944506466706));
#263=CARTESIAN_POINT('',(-0.00172890519087927,-0.00167851977139516,-0.000290373478772944));
#264=CARTESIAN_POINT('',(-0.00163841504633186,-0.0018085218776664,-0.000169560424524934));
#265=CARTESIAN_POINT('',(-0.00162952305564281,-0.00182952305564281,-5.67905729245259E-5));
#266=CARTESIAN_POINT('',(-0.00162952305564281,-0.00182952305564281,-1.5308084989342E-20));
#267=CARTESIAN_POINT('',(-0.00187590555940932,-0.00157590555940932,0.));
#268=CARTESIAN_POINT('',(-0.0016295230556428,-0.0018295230556428,0.));
#269=CARTESIAN_POINT('',(-0.0016295230556428,-0.0018295230556428,0.));
#270=CARTESIAN_POINT('',(-0.0016295230556428,-0.0018295230556428,5.67411736184591E-5));
#271=CARTESIAN_POINT('',(-0.00163840924003364,-0.0018086731430363,0.000168804473573223));
#272=CARTESIAN_POINT('',(-0.00172804250627708,-0.00167940984891506,0.000290366198984469));
#273=CARTESIAN_POINT('',(-0.00185537431118151,-0.00158512012343962,0.000169720723661738));
#274=CARTESIAN_POINT('',(-0.00187590555940931,-0.00157590555940932,5.67884358428992E-5));
#275=CARTESIAN_POINT('',(-0.00187590555940931,-0.00157590555940932,1.53080849893419E-20));
#276=CARTESIAN_POINT('',(-0.00255,-0.0025,1.53080849893419E-20));
#277=CARTESIAN_POINT('',(-0.0028,-0.0025,1.53080849893419E-20));
#278=CARTESIAN_POINT('',(-0.00255,-0.0025,1.53080849893419E-20));
#279=CARTESIAN_POINT('',(-0.00255,-0.0055,1.53080849893419E-20));
#280=CARTESIAN_POINT('',(-0.0028,-0.0055,1.53080849893419E-20));
#281=CARTESIAN_POINT('',(-4.9999999999998E-5,-0.0055,0.));
#282=CARTESIAN_POINT('',(0.0016187014193738,-0.00178913495153687,0.000169606305035538));
#283=CARTESIAN_POINT('',(0.00257043076053075,-0.00274086429269382,0.00016960630503554));
#284=CARTESIAN_POINT('',(0.00159654631889814,-0.00181129005201249,-2.42026124644821E-7));
#285=CARTESIAN_POINT('',(0.0025482756600551,-0.00276301939316944,-2.42026124642295E-7));
#286=CARTESIAN_POINT('',(0.00161862241776561,-0.00178921395314516,-0.00016863820053695));
#287=CARTESIAN_POINT('',(0.00257035175892257,-0.00274094329430211,-0.000168638200536947));
#288=CARTESIAN_POINT('',(0.00172837450764584,-0.0016794618632648,-0.000290421790131328));
#289=CARTESIAN_POINT('',(0.00268010384880279,-0.00263119120442175,-0.000290421790131325));
#290=CARTESIAN_POINT('',(0.00183901597661164,-0.00156882039429903,-0.000169667132722602));
#291=CARTESIAN_POINT('',(0.00279074531776859,-0.00252054973545598,-0.000169667132722599));
#292=CARTESIAN_POINT('',(0.00186130369283475,-0.00154653267807591,-5.47550256902537E-7));
#293=CARTESIAN_POINT('',(0.00281303303399171,-0.00249826201923286,-5.4755025690001E-7));
#294=CARTESIAN_POINT('',(0.00183927665901648,-0.00156855971189417,0.000168658181133044));
#295=CARTESIAN_POINT('',(0.00279100600017343,-0.00252028905305113,0.000168658181133047));
#296=CARTESIAN_POINT('',(0.00172949124683242,-0.00167834512407825,0.000290431903743608));
#297=CARTESIAN_POINT('',(0.00268122058798937,-0.0026300744652352,0.000290431903743611));
#298=CARTESIAN_POINT('',(0.0016187014193738,-0.00178913495153687,0.000169606305035538));
#299=CARTESIAN_POINT('',(0.00257043076053075,-0.00274086429269382,0.00016960630503554));
#300=CARTESIAN_POINT('',(0.00159654631889814,-0.00181129005201249,-2.42026124644821E-7));
#301=CARTESIAN_POINT('',(0.0025482756600551,-0.00276301939316944,-2.42026124642295E-7));
#302=CARTESIAN_POINT('',(0.00161862241776561,-0.00178921395314516,-0.00016863820053695));
#303=CARTESIAN_POINT('',(0.00257035175892257,-0.00274094329430211,-0.000168638200536947));
#304=CARTESIAN_POINT('',(0.0016295230556428,-0.0018295230556428,0.));
#305=CARTESIAN_POINT('',(0.0016295230556428,-0.0018295230556428,-5.67411736184591E-5));
#306=CARTESIAN_POINT('',(0.00163840924003364,-0.0018086731430363,-0.000168804473573223));
#307=CARTESIAN_POINT('',(0.00172804250627708,-0.00167940984891506,-0.000290366198984468));
#308=CARTESIAN_POINT('',(0.00185537431118151,-0.00158512012343962,-0.000169720723661738));
#309=CARTESIAN_POINT('',(0.00187590555940931,-0.00157590555940932,-5.67884358428986E-5));
#310=CARTESIAN_POINT('',(0.00187590555940931,-0.00157590555940932,6.58247654541701E-19));
#311=CARTESIAN_POINT('',(0.0016295230556428,-0.0018295230556428,0.));
#312=CARTESIAN_POINT('',(0.00187590555940932,-0.00157590555940932,0.));
#313=CARTESIAN_POINT('',(0.00187590555940932,-0.00157590555940932,0.));
#314=CARTESIAN_POINT('',(0.00187590555940932,-0.00157590555940932,5.6738339051908E-5));
#315=CARTESIAN_POINT('',(0.00185553264574909,-0.0015851069149088,0.000168944506466706));
#316=CARTESIAN_POINT('',(0.00172890519087927,-0.00167851977139516,0.000290373478772945));
#317=CARTESIAN_POINT('',(0.00163841504633186,-0.00180852187766639,0.000169560424524935));
#318=CARTESIAN_POINT('',(0.0016295230556428,-0.00182952305564281,5.67905729245266E-5));
#319=CARTESIAN_POINT('',(0.0016295230556428,-0.00182952305564281,6.27631484563022E-19));
#320=CARTESIAN_POINT('',(0.00255,-0.0025,6.27631484563018E-19));
#321=CARTESIAN_POINT('',(0.0023,-0.0025,6.27631484563018E-19));
#322=CARTESIAN_POINT('',(0.00255,-0.0025,6.27631484563018E-19));
#323=CARTESIAN_POINT('',(0.00255,-0.0055,6.27631484563018E-19));
#324=CARTESIAN_POINT('',(0.0023,-0.0055,6.27631484563018E-19));
#325=CARTESIAN_POINT('',(4.99999999999993E-5,-0.0055,0.));
#326=CARTESIAN_POINT('',(0.,1.50019232895551E-19,0.));
#327=MECHANICAL_DESIGN_GEOMETRIC_PRESENTATION_REPRESENTATION('',(#122,#103,
#104,#105,#106,#107,#108,#109,#110,#111),#328);
#328=(
GEOMETRIC_REPRESENTATION_CONTEXT(3)
GLOBAL_UNCERTAINTY_ASSIGNED_CONTEXT((#329))
GLOBAL_UNIT_ASSIGNED_CONTEXT((#332,#331,#330))
REPRESENTATION_CONTEXT('5mm Pitch NTC','TOP_LEVEL_ASSEMBLY_PART')
);
#329=UNCERTAINTY_MEASURE_WITH_UNIT(LENGTH_MEASURE(2.E-5),#332,
'DISTANCE_ACCURACY_VALUE','Maximum Tolerance applied to model');
#330=(
NAMED_UNIT(*)
SI_UNIT($,.STERADIAN.)
SOLID_ANGLE_UNIT()
);
#331=(
NAMED_UNIT(*)
PLANE_ANGLE_UNIT()
SI_UNIT($,.RADIAN.)
);
#332=(
LENGTH_UNIT()
NAMED_UNIT(*)
SI_UNIT($,.METRE.)
);
#333=PRODUCT_DEFINITION_SHAPE('','',#334);
#334=PRODUCT_DEFINITION('','',#336,#335);
#335=PRODUCT_DEFINITION_CONTEXT('',#342,'design');
#336=PRODUCT_DEFINITION_FORMATION_WITH_SPECIFIED_SOURCE('','',#338,
 .NOT_KNOWN.);
#337=PRODUCT_RELATED_PRODUCT_CATEGORY('','',(#338));
#338=PRODUCT('5mm Pitch NTC','5mm Pitch NTC','5mm Pitch NTC',(#340));
#339=PRODUCT_CATEGORY('','');
#340=PRODUCT_CONTEXT('',#342,'mechanical');
#341=APPLICATION_PROTOCOL_DEFINITION('international standard',
'ap242_managed_model_based_3d_engineering',2020,#342);
#342=APPLICATION_CONTEXT('managed model based 3d engineering');
ENDSEC;
END-ISO-10303-21;
