ISO-10303-21;
HEADER;
/* Generated by software containing ST-Developer
 * from STEP Tools, Inc. (www.steptools.com) 
 */
/* OPTION: using custom renumber hook */

FILE_DESCRIPTION(
/* description */ ('STEP AP242 Edition 2',
'CAx-IF Rec.Pracs.---Representation and Presentation of Product Manufa
cturing Information (PMI)---4.0---2014-10-13',
'CAx-IF Rec.Pracs.---3D Tessellated Geometry---0.4---2014-09-14','2;1',
'CAx-IF Rec.Pracs.---User Defined Attributes---1.5---2016-08-15'),
/* implementation_level */ '2;1');

FILE_NAME(
/* name */ 'Sub - [Piezo Accelerometer] 540C',
/* time_stamp */ '2026-07-14T21:33:35Z',
/* author */ (''),
/* organization */ (''),
/* preprocessor_version */ 'ST-DEVELOPER v20',
/* originating_system */ 'ONSHAPE BY PTC INC, 1.217',
/* authorisation */ '  ');

FILE_SCHEMA (('AP242_MANAGED_MODEL_BASED_3D_ENGINEERING_MIM_LF { 1 0 10303 442 3 1 4 }'));
ENDSEC;

DATA;
#10=SHAPE_REPRESENTATION_RELATIONSHIP('','',#224,#11);
#11=ADVANCED_BREP_SHAPE_REPRESENTATION('',(#222),#377);
#12=CONICAL_SURFACE('',#245,0.00425,0.785398163397448);
#13=CYLINDRICAL_SURFACE('',#241,0.0045);
#14=CYLINDRICAL_SURFACE('',#246,0.00075);
#15=CYLINDRICAL_SURFACE('',#247,0.00075);
#16=CYLINDRICAL_SURFACE('',#248,0.00075);
#17=CYLINDRICAL_SURFACE('',#249,0.00075);
#18=CIRCLE('',#231,0.00075);
#19=CIRCLE('',#232,0.00075);
#20=CIRCLE('',#233,0.00075);
#21=CIRCLE('',#234,0.00075);
#22=CIRCLE('',#236,0.0045);
#23=CIRCLE('',#237,0.00075);
#24=CIRCLE('',#238,0.00075);
#25=CIRCLE('',#239,0.00075);
#26=CIRCLE('',#240,0.00075);
#27=CIRCLE('',#242,0.0045);
#28=CIRCLE('',#244,0.00425);
#29=ORIENTED_EDGE('',*,*,#83,.F.);
#30=ORIENTED_EDGE('',*,*,#84,.T.);
#31=ORIENTED_EDGE('',*,*,#85,.T.);
#32=ORIENTED_EDGE('',*,*,#86,.F.);
#33=ORIENTED_EDGE('',*,*,#87,.F.);
#34=ORIENTED_EDGE('',*,*,#88,.T.);
#35=ORIENTED_EDGE('',*,*,#89,.T.);
#36=ORIENTED_EDGE('',*,*,#90,.F.);
#37=ORIENTED_EDGE('',*,*,#91,.F.);
#38=ORIENTED_EDGE('',*,*,#92,.T.);
#39=ORIENTED_EDGE('',*,*,#93,.T.);
#40=ORIENTED_EDGE('',*,*,#94,.F.);
#41=ORIENTED_EDGE('',*,*,#95,.F.);
#42=ORIENTED_EDGE('',*,*,#96,.T.);
#43=ORIENTED_EDGE('',*,*,#97,.T.);
#44=ORIENTED_EDGE('',*,*,#98,.F.);
#45=ORIENTED_EDGE('',*,*,#85,.F.);
#46=ORIENTED_EDGE('',*,*,#99,.T.);
#47=ORIENTED_EDGE('',*,*,#97,.F.);
#48=ORIENTED_EDGE('',*,*,#100,.F.);
#49=ORIENTED_EDGE('',*,*,#93,.F.);
#50=ORIENTED_EDGE('',*,*,#101,.T.);
#51=ORIENTED_EDGE('',*,*,#89,.F.);
#52=ORIENTED_EDGE('',*,*,#102,.F.);
#53=ORIENTED_EDGE('',*,*,#103,.F.);
#54=ORIENTED_EDGE('',*,*,#95,.T.);
#55=ORIENTED_EDGE('',*,*,#104,.F.);
#56=ORIENTED_EDGE('',*,*,#83,.T.);
#57=ORIENTED_EDGE('',*,*,#105,.T.);
#58=ORIENTED_EDGE('',*,*,#87,.T.);
#59=ORIENTED_EDGE('',*,*,#106,.F.);
#60=ORIENTED_EDGE('',*,*,#91,.T.);
#61=ORIENTED_EDGE('',*,*,#107,.T.);
#62=ORIENTED_EDGE('',*,*,#108,.T.);
#63=ORIENTED_EDGE('',*,*,#103,.T.);
#64=ORIENTED_EDGE('',*,*,#109,.T.);
#65=ORIENTED_EDGE('',*,*,#108,.F.);
#66=ORIENTED_EDGE('',*,*,#109,.F.);
#67=ORIENTED_EDGE('',*,*,#107,.F.);
#68=ORIENTED_EDGE('',*,*,#94,.T.);
#69=ORIENTED_EDGE('',*,*,#100,.T.);
#70=ORIENTED_EDGE('',*,*,#96,.F.);
#71=ORIENTED_EDGE('',*,*,#92,.F.);
#72=ORIENTED_EDGE('',*,*,#106,.T.);
#73=ORIENTED_EDGE('',*,*,#90,.T.);
#74=ORIENTED_EDGE('',*,*,#101,.F.);
#75=ORIENTED_EDGE('',*,*,#105,.F.);
#76=ORIENTED_EDGE('',*,*,#86,.T.);
#77=ORIENTED_EDGE('',*,*,#102,.T.);
#78=ORIENTED_EDGE('',*,*,#88,.F.);
#79=ORIENTED_EDGE('',*,*,#84,.F.);
#80=ORIENTED_EDGE('',*,*,#104,.T.);
#81=ORIENTED_EDGE('',*,*,#98,.T.);
#82=ORIENTED_EDGE('',*,*,#99,.F.);
#83=EDGE_CURVE('',#110,#111,#129,.T.);
#84=EDGE_CURVE('',#110,#112,#130,.T.);
#85=EDGE_CURVE('',#112,#113,#131,.T.);
#86=EDGE_CURVE('',#111,#113,#132,.T.);
#87=EDGE_CURVE('',#114,#115,#133,.T.);
#88=EDGE_CURVE('',#114,#116,#134,.T.);
#89=EDGE_CURVE('',#116,#117,#135,.T.);
#90=EDGE_CURVE('',#115,#117,#136,.T.);
#91=EDGE_CURVE('',#118,#119,#137,.T.);
#92=EDGE_CURVE('',#118,#120,#138,.T.);
#93=EDGE_CURVE('',#120,#121,#139,.T.);
#94=EDGE_CURVE('',#119,#121,#140,.T.);
#95=EDGE_CURVE('',#122,#123,#141,.T.);
#96=EDGE_CURVE('',#122,#124,#142,.T.);
#97=EDGE_CURVE('',#124,#125,#143,.T.);
#98=EDGE_CURVE('',#123,#125,#144,.T.);
#99=EDGE_CURVE('',#112,#125,#18,.T.);
#100=EDGE_CURVE('',#121,#124,#19,.T.);
#101=EDGE_CURVE('',#120,#117,#20,.T.);
#102=EDGE_CURVE('',#113,#116,#21,.T.);
#103=EDGE_CURVE('',#126,#126,#22,.T.);
#104=EDGE_CURVE('',#110,#123,#23,.T.);
#105=EDGE_CURVE('',#111,#114,#24,.F.);
#106=EDGE_CURVE('',#118,#115,#25,.T.);
#107=EDGE_CURVE('',#119,#122,#26,.F.);
#108=EDGE_CURVE('',#127,#127,#27,.F.);
#109=EDGE_CURVE('',#128,#128,#28,.T.);
#110=VERTEX_POINT('',#319);
#111=VERTEX_POINT('',#320);
#112=VERTEX_POINT('',#322);
#113=VERTEX_POINT('',#324);
#114=VERTEX_POINT('',#328);
#115=VERTEX_POINT('',#329);
#116=VERTEX_POINT('',#331);
#117=VERTEX_POINT('',#333);
#118=VERTEX_POINT('',#337);
#119=VERTEX_POINT('',#338);
#120=VERTEX_POINT('',#340);
#121=VERTEX_POINT('',#342);
#122=VERTEX_POINT('',#346);
#123=VERTEX_POINT('',#347);
#124=VERTEX_POINT('',#349);
#125=VERTEX_POINT('',#351);
#126=VERTEX_POINT('',#360);
#127=VERTEX_POINT('',#367);
#128=VERTEX_POINT('',#370);
#129=LINE('',#318,#145);
#130=LINE('',#321,#146);
#131=LINE('',#323,#147);
#132=LINE('',#325,#148);
#133=LINE('',#327,#149);
#134=LINE('',#330,#150);
#135=LINE('',#332,#151);
#136=LINE('',#334,#152);
#137=LINE('',#336,#153);
#138=LINE('',#339,#154);
#139=LINE('',#341,#155);
#140=LINE('',#343,#156);
#141=LINE('',#345,#157);
#142=LINE('',#348,#158);
#143=LINE('',#350,#159);
#144=LINE('',#352,#160);
#145=VECTOR('',#254,1.);
#146=VECTOR('',#255,1.);
#147=VECTOR('',#256,1.);
#148=VECTOR('',#257,1.);
#149=VECTOR('',#260,1.);
#150=VECTOR('',#261,1.);
#151=VECTOR('',#262,1.);
#152=VECTOR('',#263,1.);
#153=VECTOR('',#266,1.);
#154=VECTOR('',#267,1.);
#155=VECTOR('',#268,1.);
#156=VECTOR('',#269,1.);
#157=VECTOR('',#272,1.);
#158=VECTOR('',#273,1.);
#159=VECTOR('',#274,1.);
#160=VECTOR('',#275,1.);
#161=EDGE_LOOP('',(#29,#30,#31,#32));
#162=EDGE_LOOP('',(#33,#34,#35,#36));
#163=EDGE_LOOP('',(#37,#38,#39,#40));
#164=EDGE_LOOP('',(#41,#42,#43,#44));
#165=EDGE_LOOP('',(#45,#46,#47,#48,#49,#50,#51,#52));
#166=EDGE_LOOP('',(#53));
#167=EDGE_LOOP('',(#54,#55,#56,#57,#58,#59,#60,#61));
#168=EDGE_LOOP('',(#62));
#169=EDGE_LOOP('',(#63));
#170=EDGE_LOOP('',(#64));
#171=EDGE_LOOP('',(#65));
#172=EDGE_LOOP('',(#66));
#173=EDGE_LOOP('',(#67,#68,#69,#70));
#174=EDGE_LOOP('',(#71,#72,#73,#74));
#175=EDGE_LOOP('',(#75,#76,#77,#78));
#176=EDGE_LOOP('',(#79,#80,#81,#82));
#177=FACE_BOUND('',#161,.T.);
#178=FACE_BOUND('',#162,.T.);
#179=FACE_BOUND('',#163,.T.);
#180=FACE_BOUND('',#164,.T.);
#181=FACE_BOUND('',#165,.T.);
#182=FACE_BOUND('',#166,.T.);
#183=FACE_BOUND('',#167,.T.);
#184=FACE_BOUND('',#168,.T.);
#185=FACE_BOUND('',#169,.T.);
#186=FACE_BOUND('',#170,.T.);
#187=FACE_BOUND('',#171,.T.);
#188=FACE_BOUND('',#172,.T.);
#189=FACE_BOUND('',#173,.T.);
#190=FACE_BOUND('',#174,.T.);
#191=FACE_BOUND('',#175,.T.);
#192=FACE_BOUND('',#176,.T.);
#193=PLANE('',#226);
#194=PLANE('',#227);
#195=PLANE('',#228);
#196=PLANE('',#229);
#197=PLANE('',#230);
#198=PLANE('',#235);
#199=PLANE('',#243);
#200=ADVANCED_FACE('',(#177),#193,.T.);
#201=ADVANCED_FACE('',(#178),#194,.T.);
#202=ADVANCED_FACE('',(#179),#195,.T.);
#203=ADVANCED_FACE('',(#180),#196,.T.);
#204=ADVANCED_FACE('',(#181),#197,.F.);
#205=ADVANCED_FACE('',(#182,#183),#198,.T.);
#206=ADVANCED_FACE('',(#184,#185),#13,.T.);
#207=ADVANCED_FACE('',(#186),#199,.T.);
#208=ADVANCED_FACE('',(#187,#188),#12,.T.);
#209=ADVANCED_FACE('',(#189),#14,.F.);
#210=ADVANCED_FACE('',(#190),#15,.F.);
#211=ADVANCED_FACE('',(#191),#16,.F.);
#212=ADVANCED_FACE('',(#192),#17,.F.);
#213=CLOSED_SHELL('',(#200,#201,#202,#203,#204,#205,#206,#207,#208,#209,
#210,#211,#212));
#214=STYLED_ITEM('',(#215),#222);
#215=PRESENTATION_STYLE_ASSIGNMENT((#216));
#216=SURFACE_STYLE_USAGE(.BOTH.,#217);
#217=SURFACE_SIDE_STYLE('',(#218));
#218=SURFACE_STYLE_FILL_AREA(#219);
#219=FILL_AREA_STYLE('',(#220));
#220=FILL_AREA_STYLE_COLOUR('',#221);
#221=COLOUR_RGB('',0.556862745098039,0.556862745098039,0.556862745098039);
#222=MANIFOLD_SOLID_BREP('[Piezo Accelerometer] 540C',#213);
#223=SHAPE_DEFINITION_REPRESENTATION(#382,#224);
#224=SHAPE_REPRESENTATION('[Piezo Accelerometer] 540C',(#225),#377);
#225=AXIS2_PLACEMENT_3D('',#316,#250,#251);
#226=AXIS2_PLACEMENT_3D('',#317,#252,#253);
#227=AXIS2_PLACEMENT_3D('',#326,#258,#259);
#228=AXIS2_PLACEMENT_3D('',#335,#264,#265);
#229=AXIS2_PLACEMENT_3D('',#344,#270,#271);
#230=AXIS2_PLACEMENT_3D('',#353,#276,#277);
#231=AXIS2_PLACEMENT_3D('',#354,#278,#279);
#232=AXIS2_PLACEMENT_3D('',#355,#280,#281);
#233=AXIS2_PLACEMENT_3D('',#356,#282,#283);
#234=AXIS2_PLACEMENT_3D('',#357,#284,#285);
#235=AXIS2_PLACEMENT_3D('',#358,#286,#287);
#236=AXIS2_PLACEMENT_3D('',#359,#288,#289);
#237=AXIS2_PLACEMENT_3D('',#361,#290,#291);
#238=AXIS2_PLACEMENT_3D('',#362,#292,#293);
#239=AXIS2_PLACEMENT_3D('',#363,#294,#295);
#240=AXIS2_PLACEMENT_3D('',#364,#296,#297);
#241=AXIS2_PLACEMENT_3D('',#365,#298,#299);
#242=AXIS2_PLACEMENT_3D('',#366,#300,#301);
#243=AXIS2_PLACEMENT_3D('',#368,#302,#303);
#244=AXIS2_PLACEMENT_3D('',#369,#304,#305);
#245=AXIS2_PLACEMENT_3D('',#371,#306,#307);
#246=AXIS2_PLACEMENT_3D('',#372,#308,#309);
#247=AXIS2_PLACEMENT_3D('',#373,#310,#311);
#248=AXIS2_PLACEMENT_3D('',#374,#312,#313);
#249=AXIS2_PLACEMENT_3D('',#375,#314,#315);
#250=DIRECTION('',(0.,0.,1.));
#251=DIRECTION('',(1.,0.,0.));
#252=DIRECTION('',(-1.,0.,0.));
#253=DIRECTION('',(0.,1.,0.));
#254=DIRECTION('',(0.,0.,1.));
#255=DIRECTION('',(0.,-1.,0.));
#256=DIRECTION('',(0.,0.,1.));
#257=DIRECTION('',(0.,-1.,0.));
#258=DIRECTION('',(0.,0.,1.));
#259=DIRECTION('',(0.,-1.,0.));
#260=DIRECTION('',(1.,0.,0.));
#261=DIRECTION('',(0.,-1.,0.));
#262=DIRECTION('',(1.,0.,0.));
#263=DIRECTION('',(0.,-1.,0.));
#264=DIRECTION('',(1.,0.,0.));
#265=DIRECTION('',(0.,-1.,0.));
#266=DIRECTION('',(0.,0.,-1.));
#267=DIRECTION('',(0.,-1.,0.));
#268=DIRECTION('',(0.,0.,-1.));
#269=DIRECTION('',(0.,-1.,0.));
#270=DIRECTION('',(0.,0.,-1.));
#271=DIRECTION('',(0.,1.,0.));
#272=DIRECTION('',(-1.,0.,0.));
#273=DIRECTION('',(0.,-1.,0.));
#274=DIRECTION('',(-1.,0.,0.));
#275=DIRECTION('',(0.,-1.,0.));
#276=DIRECTION('',(0.,1.,0.));
#277=DIRECTION('',(1.,0.,0.));
#278=DIRECTION('',(0.,1.,0.));
#279=DIRECTION('',(-1.,0.,0.));
#280=DIRECTION('',(0.,-1.,0.));
#281=DIRECTION('',(-1.,0.,0.));
#282=DIRECTION('',(0.,1.,0.));
#283=DIRECTION('',(-1.,0.,0.));
#284=DIRECTION('',(0.,-1.,0.));
#285=DIRECTION('',(-1.,0.,0.));
#286=DIRECTION('',(0.,1.,0.));
#287=DIRECTION('',(1.,0.,0.));
#288=DIRECTION('',(0.,1.,0.));
#289=DIRECTION('',(1.,0.,0.));
#290=DIRECTION('',(0.,1.,0.));
#291=DIRECTION('',(1.,0.,0.));
#292=DIRECTION('',(0.,1.,0.));
#293=DIRECTION('',(1.,0.,0.));
#294=DIRECTION('',(0.,1.,0.));
#295=DIRECTION('',(1.,0.,0.));
#296=DIRECTION('',(0.,1.,0.));
#297=DIRECTION('',(1.,0.,0.));
#298=DIRECTION('',(0.,-1.,0.));
#299=DIRECTION('',(-1.,0.,0.));
#300=DIRECTION('',(0.,1.,0.));
#301=DIRECTION('',(1.,0.,0.));
#302=DIRECTION('',(0.,1.,0.));
#303=DIRECTION('',(1.,0.,0.));
#304=DIRECTION('',(0.,1.,0.));
#305=DIRECTION('',(1.,0.,0.));
#306=DIRECTION('',(0.,-1.,0.));
#307=DIRECTION('',(-1.,0.,0.));
#308=DIRECTION('',(0.,-1.,0.));
#309=DIRECTION('',(-1.,0.,0.));
#310=DIRECTION('',(0.,-1.,0.));
#311=DIRECTION('',(-1.,0.,0.));
#312=DIRECTION('',(0.,-1.,0.));
#313=DIRECTION('',(-1.,0.,0.));
#314=DIRECTION('',(0.,-1.,0.));
#315=DIRECTION('',(-1.,0.,0.));
#316=CARTESIAN_POINT('',(0.,0.,0.));
#317=CARTESIAN_POINT('',(-0.005,-0.001,0.));
#318=CARTESIAN_POINT('',(-0.005,0.,0.));
#319=CARTESIAN_POINT('',(-0.005,0.,-0.00425));
#320=CARTESIAN_POINT('',(-0.005,0.,0.00425));
#321=CARTESIAN_POINT('',(-0.005,2.00000000000005E-6,-0.00425));
#322=CARTESIAN_POINT('',(-0.005,-0.001,-0.00425));
#323=CARTESIAN_POINT('',(-0.005,-0.001,0.));
#324=CARTESIAN_POINT('',(-0.005,-0.001,0.00425));
#325=CARTESIAN_POINT('',(-0.005,2.00000000000005E-6,0.00425));
#326=CARTESIAN_POINT('',(0.,-0.001,0.005));
#327=CARTESIAN_POINT('',(0.,0.,0.005));
#328=CARTESIAN_POINT('',(-0.00425,0.,0.005));
#329=CARTESIAN_POINT('',(0.00425,0.,0.005));
#330=CARTESIAN_POINT('',(-0.00425,2.00000000000005E-6,0.005));
#331=CARTESIAN_POINT('',(-0.00425,-0.001,0.005));
#332=CARTESIAN_POINT('',(0.,-0.001,0.005));
#333=CARTESIAN_POINT('',(0.00425,-0.001,0.005));
#334=CARTESIAN_POINT('',(0.00425,2.00000000000005E-6,0.005));
#335=CARTESIAN_POINT('',(0.005,-0.001,0.));
#336=CARTESIAN_POINT('',(0.005,0.,0.));
#337=CARTESIAN_POINT('',(0.005,0.,0.00425));
#338=CARTESIAN_POINT('',(0.005,0.,-0.00425));
#339=CARTESIAN_POINT('',(0.005,2.00000000000005E-6,0.00425));
#340=CARTESIAN_POINT('',(0.005,-0.001,0.00425));
#341=CARTESIAN_POINT('',(0.005,-0.001,0.));
#342=CARTESIAN_POINT('',(0.005,-0.001,-0.00425));
#343=CARTESIAN_POINT('',(0.005,2.00000000000005E-6,-0.00425));
#344=CARTESIAN_POINT('',(0.,-0.001,-0.005));
#345=CARTESIAN_POINT('',(0.,0.,-0.005));
#346=CARTESIAN_POINT('',(0.00425,0.,-0.005));
#347=CARTESIAN_POINT('',(-0.00425,0.,-0.005));
#348=CARTESIAN_POINT('',(0.00425,2.00000000000005E-6,-0.005));
#349=CARTESIAN_POINT('',(0.00425,-0.001,-0.005));
#350=CARTESIAN_POINT('',(0.,-0.001,-0.005));
#351=CARTESIAN_POINT('',(-0.00425,-0.001,-0.005));
#352=CARTESIAN_POINT('',(-0.00425,2.00000000000005E-6,-0.005));
#353=CARTESIAN_POINT('',(-8.67361737988404E-19,-0.001,0.));
#354=CARTESIAN_POINT('',(-0.005,-0.001,-0.005));
#355=CARTESIAN_POINT('',(0.005,-0.001,-0.005));
#356=CARTESIAN_POINT('',(0.005,-0.001,0.005));
#357=CARTESIAN_POINT('',(-0.005,-0.001,0.005));
#358=CARTESIAN_POINT('',(-8.67361737988404E-19,0.,0.));
#359=CARTESIAN_POINT('',(0.,0.,-2.75545529808154E-19));
#360=CARTESIAN_POINT('',(0.0045,0.,-2.75545529808154E-19));
#361=CARTESIAN_POINT('',(-0.005,0.,-0.005));
#362=CARTESIAN_POINT('',(-0.005,0.,0.005));
#363=CARTESIAN_POINT('',(0.005,0.,0.005));
#364=CARTESIAN_POINT('',(0.005,0.,-0.005));
#365=CARTESIAN_POINT('',(0.,0.0044,-2.75545529808154E-19));
#366=CARTESIAN_POINT('',(0.,0.00415,-2.75545529808154E-19));
#367=CARTESIAN_POINT('',(0.0045,0.00415,-2.75545529808154E-19));
#368=CARTESIAN_POINT('',(-8.67361737988404E-19,0.0044,0.));
#369=CARTESIAN_POINT('',(0.,0.0044,-2.75545529808154E-19));
#370=CARTESIAN_POINT('',(0.00425,0.0044,-2.75545529808154E-19));
#371=CARTESIAN_POINT('',(0.,0.0044,-2.75545529808154E-19));
#372=CARTESIAN_POINT('',(0.005,2.00000000000005E-6,-0.005));
#373=CARTESIAN_POINT('',(0.005,2.00000000000005E-6,0.005));
#374=CARTESIAN_POINT('',(-0.005,2.00000000000005E-6,0.005));
#375=CARTESIAN_POINT('',(-0.005,2.00000000000005E-6,-0.005));
#376=MECHANICAL_DESIGN_GEOMETRIC_PRESENTATION_REPRESENTATION('',(#214),
#377);
#377=(
GEOMETRIC_REPRESENTATION_CONTEXT(3)
GLOBAL_UNCERTAINTY_ASSIGNED_CONTEXT((#378))
GLOBAL_UNIT_ASSIGNED_CONTEXT((#381,#380,#379))
REPRESENTATION_CONTEXT('[Piezo Accelerometer] 540C',
'TOP_LEVEL_ASSEMBLY_PART')
);
#378=UNCERTAINTY_MEASURE_WITH_UNIT(LENGTH_MEASURE(1.E-8),#381,
'DISTANCE_ACCURACY_VALUE','Maximum Tolerance applied to model');
#379=(
NAMED_UNIT(*)
SI_UNIT($,.STERADIAN.)
SOLID_ANGLE_UNIT()
);
#380=(
NAMED_UNIT(*)
PLANE_ANGLE_UNIT()
SI_UNIT($,.RADIAN.)
);
#381=(
LENGTH_UNIT()
NAMED_UNIT(*)
SI_UNIT($,.METRE.)
);
#382=PRODUCT_DEFINITION_SHAPE('','',#383);
#383=PRODUCT_DEFINITION('','',#385,#384);
#384=PRODUCT_DEFINITION_CONTEXT('',#391,'design');
#385=PRODUCT_DEFINITION_FORMATION_WITH_SPECIFIED_SOURCE('','',#387,
 .NOT_KNOWN.);
#386=PRODUCT_RELATED_PRODUCT_CATEGORY('','',(#387));
#387=PRODUCT('[Piezo Accelerometer] 540C','[Piezo Accelerometer] 540C',
'[Piezo Accelerometer] 540C',(#389));
#388=PRODUCT_CATEGORY('','');
#389=PRODUCT_CONTEXT('',#391,'mechanical');
#390=APPLICATION_PROTOCOL_DEFINITION('international standard',
'ap242_managed_model_based_3d_engineering',2020,#391);
#391=APPLICATION_CONTEXT('managed model based 3d engineering');
ENDSEC;
END-ISO-10303-21;
