ISO-10303-21;
HEADER;
/* Generated by software containing ST-Developer
 * from STEP Tools, Inc. (www.steptools.com) 
 */
/* OPTION: using custom renumber hook */

FILE_DESCRIPTION(
/* description */ ('STEP AP242 Edition 2',
'CAx-IF Rec.Pracs.---Representation and Presentation of Product Manufa
cturing Information (PMI)---4.0---2014-10-13',
'CAx-IF Rec.Pracs.---3D Tessellated Geometry---0.4---2014-09-14','2;1',
'CAx-IF Rec.Pracs.---User Defined Attributes---1.5---2016-08-15'),
/* implementation_level */ '2;1');

FILE_NAME(
/* name */ 'Misc Parts - Limit Sw w Swivel',
/* time_stamp */ '2026-09-07T19:19:46Z',
/* author */ (''),
/* organization */ (''),
/* preprocessor_version */ 'ST-DEVELOPER v20',
/* originating_system */ 'ONSHAPE BY PTC INC, 1.220',
/* authorisation */ '  ');

FILE_SCHEMA (('AP242_MANAGED_MODEL_BASED_3D_ENGINEERING_MIM_LF { 1 0 10303 442 3 1 4 }'));
ENDSEC;

DATA;
#10=SHAPE_REPRESENTATION_RELATIONSHIP('','',#1353,#11);
#11=ADVANCED_BREP_SHAPE_REPRESENTATION('',(#1351),#2027);
#12=DRAUGHTING_PRE_DEFINED_COLOUR('red');
#13=OVER_RIDING_STYLED_ITEM('',(#1128),#1077,#1126);
#14=OVER_RIDING_STYLED_ITEM('',(#1129),#1078,#1126);
#15=OVER_RIDING_STYLED_ITEM('',(#1130),#1079,#1126);
#16=OVER_RIDING_STYLED_ITEM('',(#1131),#1080,#1126);
#17=OVER_RIDING_STYLED_ITEM('',(#1132),#1081,#1126);
#18=OVER_RIDING_STYLED_ITEM('',(#1133),#1082,#1126);
#19=OVER_RIDING_STYLED_ITEM('',(#1134),#1083,#1126);
#20=OVER_RIDING_STYLED_ITEM('',(#1135),#1084,#1126);
#21=OVER_RIDING_STYLED_ITEM('',(#1136),#1085,#1126);
#22=OVER_RIDING_STYLED_ITEM('',(#1137),#1086,#1126);
#23=OVER_RIDING_STYLED_ITEM('',(#1138),#1087,#1126);
#24=OVER_RIDING_STYLED_ITEM('',(#1139),#1088,#1126);
#25=OVER_RIDING_STYLED_ITEM('',(#1140),#1089,#1126);
#26=OVER_RIDING_STYLED_ITEM('',(#1141),#1090,#1126);
#27=OVER_RIDING_STYLED_ITEM('',(#1142),#1091,#1126);
#28=OVER_RIDING_STYLED_ITEM('',(#1143),#1098,#1126);
#29=OVER_RIDING_STYLED_ITEM('',(#1144),#1099,#1126);
#30=OVER_RIDING_STYLED_ITEM('',(#1145),#1100,#1126);
#31=OVER_RIDING_STYLED_ITEM('',(#1146),#1101,#1126);
#32=OVER_RIDING_STYLED_ITEM('',(#1147),#1102,#1126);
#33=OVER_RIDING_STYLED_ITEM('',(#1148),#1103,#1126);
#34=OVER_RIDING_STYLED_ITEM('',(#1149),#1104,#1126);
#35=OVER_RIDING_STYLED_ITEM('',(#1150),#1105,#1126);
#36=OVER_RIDING_STYLED_ITEM('',(#1151),#1106,#1126);
#37=OVER_RIDING_STYLED_ITEM('',(#1152),#1107,#1126);
#38=OVER_RIDING_STYLED_ITEM('',(#1153),#1108,#1126);
#39=OVER_RIDING_STYLED_ITEM('',(#1154),#1109,#1126);
#40=OVER_RIDING_STYLED_ITEM('',(#1155),#1110,#1126);
#41=OVER_RIDING_STYLED_ITEM('',(#1156),#1111,#1126);
#42=OVER_RIDING_STYLED_ITEM('',(#1157),#1112,#1126);
#43=OVER_RIDING_STYLED_ITEM('',(#1158),#1113,#1126);
#44=OVER_RIDING_STYLED_ITEM('',(#1159),#1114,#1126);
#45=OVER_RIDING_STYLED_ITEM('',(#1160),#1115,#1126);
#46=OVER_RIDING_STYLED_ITEM('',(#1161),#1116,#1126);
#47=OVER_RIDING_STYLED_ITEM('',(#1162),#1117,#1126);
#48=OVER_RIDING_STYLED_ITEM('',(#1163),#1118,#1126);
#49=CIRCLE('',#1362,0.00105);
#50=CIRCLE('',#1363,0.00105);
#51=CIRCLE('',#1365,0.00105);
#52=CIRCLE('',#1366,0.00105);
#53=CIRCLE('',#1392,0.0004);
#54=CIRCLE('',#1395,0.0004);
#55=CIRCLE('',#1400,5.E-5);
#56=CIRCLE('',#1401,5.E-5);
#57=CIRCLE('',#1405,0.000349999999999995);
#58=CIRCLE('',#1406,0.000349999999999995);
#59=CIRCLE('',#1409,0.0015);
#60=CIRCLE('',#1411,0.0015);
#61=CIRCLE('',#1414,0.0015);
#62=CIRCLE('',#1416,0.0005);
#63=CIRCLE('',#1419,0.0015);
#64=CIRCLE('',#1421,0.0005);
#65=CIRCLE('',#1423,0.000500000000000116);
#66=CIRCLE('',#1424,0.000500000000000116);
#67=CIRCLE('',#1426,0.001);
#68=CIRCLE('',#1427,0.001);
#69=CIRCLE('',#1431,0.0025);
#70=CIRCLE('',#1432,0.0025);
#71=CYLINDRICAL_SURFACE('',#1361,0.00105);
#72=CYLINDRICAL_SURFACE('',#1364,0.00105);
#73=CYLINDRICAL_SURFACE('',#1396,0.0004);
#74=CYLINDRICAL_SURFACE('',#1399,5.E-5);
#75=CYLINDRICAL_SURFACE('',#1404,0.000349999999999995);
#76=CYLINDRICAL_SURFACE('',#1413,0.0015);
#77=CYLINDRICAL_SURFACE('',#1418,0.0015);
#78=CYLINDRICAL_SURFACE('',#1422,0.0005);
#79=CYLINDRICAL_SURFACE('',#1425,0.001);
#80=CYLINDRICAL_SURFACE('',#1430,0.0025);
#81=ORIENTED_EDGE('',*,*,#373,.F.);
#82=ORIENTED_EDGE('',*,*,#374,.T.);
#83=ORIENTED_EDGE('',*,*,#375,.T.);
#84=ORIENTED_EDGE('',*,*,#376,.F.);
#85=ORIENTED_EDGE('',*,*,#377,.F.);
#86=ORIENTED_EDGE('',*,*,#378,.T.);
#87=ORIENTED_EDGE('',*,*,#379,.T.);
#88=ORIENTED_EDGE('',*,*,#380,.F.);
#89=ORIENTED_EDGE('',*,*,#381,.F.);
#90=ORIENTED_EDGE('',*,*,#382,.T.);
#91=ORIENTED_EDGE('',*,*,#383,.T.);
#92=ORIENTED_EDGE('',*,*,#384,.F.);
#93=ORIENTED_EDGE('',*,*,#385,.F.);
#94=ORIENTED_EDGE('',*,*,#386,.T.);
#95=ORIENTED_EDGE('',*,*,#387,.T.);
#96=ORIENTED_EDGE('',*,*,#388,.T.);
#97=ORIENTED_EDGE('',*,*,#389,.F.);
#98=ORIENTED_EDGE('',*,*,#390,.F.);
#99=ORIENTED_EDGE('',*,*,#391,.F.);
#100=ORIENTED_EDGE('',*,*,#392,.T.);
#101=ORIENTED_EDGE('',*,*,#393,.T.);
#102=ORIENTED_EDGE('',*,*,#394,.T.);
#103=ORIENTED_EDGE('',*,*,#395,.F.);
#104=ORIENTED_EDGE('',*,*,#396,.F.);
#105=ORIENTED_EDGE('',*,*,#397,.F.);
#106=ORIENTED_EDGE('',*,*,#398,.F.);
#107=ORIENTED_EDGE('',*,*,#399,.T.);
#108=ORIENTED_EDGE('',*,*,#391,.T.);
#109=ORIENTED_EDGE('',*,*,#400,.F.);
#110=ORIENTED_EDGE('',*,*,#401,.T.);
#111=ORIENTED_EDGE('',*,*,#402,.T.);
#112=ORIENTED_EDGE('',*,*,#403,.F.);
#113=ORIENTED_EDGE('',*,*,#404,.F.);
#114=ORIENTED_EDGE('',*,*,#405,.T.);
#115=ORIENTED_EDGE('',*,*,#406,.T.);
#116=ORIENTED_EDGE('',*,*,#407,.F.);
#117=ORIENTED_EDGE('',*,*,#408,.T.);
#118=ORIENTED_EDGE('',*,*,#409,.F.);
#119=ORIENTED_EDGE('',*,*,#410,.F.);
#120=ORIENTED_EDGE('',*,*,#398,.T.);
#121=ORIENTED_EDGE('',*,*,#411,.T.);
#122=ORIENTED_EDGE('',*,*,#388,.F.);
#123=ORIENTED_EDGE('',*,*,#412,.F.);
#124=ORIENTED_EDGE('',*,*,#409,.T.);
#125=ORIENTED_EDGE('',*,*,#413,.T.);
#126=ORIENTED_EDGE('',*,*,#414,.F.);
#127=ORIENTED_EDGE('',*,*,#415,.F.);
#128=ORIENTED_EDGE('',*,*,#416,.T.);
#129=ORIENTED_EDGE('',*,*,#387,.F.);
#130=ORIENTED_EDGE('',*,*,#417,.T.);
#131=ORIENTED_EDGE('',*,*,#418,.F.);
#132=ORIENTED_EDGE('',*,*,#419,.T.);
#133=ORIENTED_EDGE('',*,*,#379,.F.);
#134=ORIENTED_EDGE('',*,*,#420,.T.);
#135=ORIENTED_EDGE('',*,*,#421,.F.);
#136=ORIENTED_EDGE('',*,*,#422,.T.);
#137=ORIENTED_EDGE('',*,*,#392,.F.);
#138=ORIENTED_EDGE('',*,*,#399,.F.);
#139=ORIENTED_EDGE('',*,*,#410,.T.);
#140=ORIENTED_EDGE('',*,*,#412,.T.);
#141=ORIENTED_EDGE('',*,*,#413,.F.);
#142=ORIENTED_EDGE('',*,*,#415,.T.);
#143=ORIENTED_EDGE('',*,*,#423,.T.);
#144=ORIENTED_EDGE('',*,*,#424,.T.);
#145=ORIENTED_EDGE('',*,*,#385,.T.);
#146=ORIENTED_EDGE('',*,*,#411,.F.);
#147=ORIENTED_EDGE('',*,*,#408,.F.);
#148=ORIENTED_EDGE('',*,*,#397,.T.);
#149=ORIENTED_EDGE('',*,*,#390,.T.);
#150=ORIENTED_EDGE('',*,*,#425,.T.);
#151=ORIENTED_EDGE('',*,*,#426,.T.);
#152=ORIENTED_EDGE('',*,*,#427,.T.);
#153=ORIENTED_EDGE('',*,*,#377,.T.);
#154=ORIENTED_EDGE('',*,*,#428,.T.);
#155=ORIENTED_EDGE('',*,*,#414,.T.);
#156=ORIENTED_EDGE('',*,*,#416,.F.);
#157=ORIENTED_EDGE('',*,*,#374,.F.);
#158=ORIENTED_EDGE('',*,*,#429,.F.);
#159=ORIENTED_EDGE('',*,*,#430,.T.);
#160=ORIENTED_EDGE('',*,*,#431,.T.);
#161=ORIENTED_EDGE('',*,*,#373,.T.);
#162=ORIENTED_EDGE('',*,*,#432,.F.);
#163=ORIENTED_EDGE('',*,*,#433,.F.);
#164=ORIENTED_EDGE('',*,*,#429,.T.);
#165=ORIENTED_EDGE('',*,*,#376,.T.);
#166=ORIENTED_EDGE('',*,*,#434,.F.);
#167=ORIENTED_EDGE('',*,*,#435,.F.);
#168=ORIENTED_EDGE('',*,*,#432,.T.);
#169=ORIENTED_EDGE('',*,*,#375,.F.);
#170=ORIENTED_EDGE('',*,*,#431,.F.);
#171=ORIENTED_EDGE('',*,*,#436,.T.);
#172=ORIENTED_EDGE('',*,*,#434,.T.);
#173=ORIENTED_EDGE('',*,*,#430,.F.);
#174=ORIENTED_EDGE('',*,*,#433,.T.);
#175=ORIENTED_EDGE('',*,*,#435,.T.);
#176=ORIENTED_EDGE('',*,*,#436,.F.);
#177=ORIENTED_EDGE('',*,*,#394,.F.);
#178=ORIENTED_EDGE('',*,*,#437,.F.);
#179=ORIENTED_EDGE('',*,*,#438,.T.);
#180=ORIENTED_EDGE('',*,*,#439,.T.);
#181=ORIENTED_EDGE('',*,*,#393,.F.);
#182=ORIENTED_EDGE('',*,*,#440,.F.);
#183=ORIENTED_EDGE('',*,*,#441,.T.);
#184=ORIENTED_EDGE('',*,*,#437,.T.);
#185=ORIENTED_EDGE('',*,*,#396,.T.);
#186=ORIENTED_EDGE('',*,*,#442,.F.);
#187=ORIENTED_EDGE('',*,*,#443,.F.);
#188=ORIENTED_EDGE('',*,*,#440,.T.);
#189=ORIENTED_EDGE('',*,*,#395,.T.);
#190=ORIENTED_EDGE('',*,*,#439,.F.);
#191=ORIENTED_EDGE('',*,*,#444,.F.);
#192=ORIENTED_EDGE('',*,*,#442,.T.);
#193=ORIENTED_EDGE('',*,*,#438,.F.);
#194=ORIENTED_EDGE('',*,*,#441,.F.);
#195=ORIENTED_EDGE('',*,*,#443,.T.);
#196=ORIENTED_EDGE('',*,*,#444,.T.);
#197=ORIENTED_EDGE('',*,*,#382,.F.);
#198=ORIENTED_EDGE('',*,*,#445,.F.);
#199=ORIENTED_EDGE('',*,*,#446,.T.);
#200=ORIENTED_EDGE('',*,*,#447,.T.);
#201=ORIENTED_EDGE('',*,*,#381,.T.);
#202=ORIENTED_EDGE('',*,*,#448,.F.);
#203=ORIENTED_EDGE('',*,*,#449,.F.);
#204=ORIENTED_EDGE('',*,*,#445,.T.);
#205=ORIENTED_EDGE('',*,*,#384,.T.);
#206=ORIENTED_EDGE('',*,*,#450,.F.);
#207=ORIENTED_EDGE('',*,*,#451,.F.);
#208=ORIENTED_EDGE('',*,*,#448,.T.);
#209=ORIENTED_EDGE('',*,*,#383,.F.);
#210=ORIENTED_EDGE('',*,*,#447,.F.);
#211=ORIENTED_EDGE('',*,*,#452,.T.);
#212=ORIENTED_EDGE('',*,*,#450,.T.);
#213=ORIENTED_EDGE('',*,*,#446,.F.);
#214=ORIENTED_EDGE('',*,*,#449,.T.);
#215=ORIENTED_EDGE('',*,*,#451,.T.);
#216=ORIENTED_EDGE('',*,*,#452,.F.);
#217=ORIENTED_EDGE('',*,*,#418,.T.);
#218=ORIENTED_EDGE('',*,*,#453,.T.);
#219=ORIENTED_EDGE('',*,*,#423,.F.);
#220=ORIENTED_EDGE('',*,*,#454,.T.);
#221=ORIENTED_EDGE('',*,*,#421,.T.);
#222=ORIENTED_EDGE('',*,*,#455,.T.);
#223=ORIENTED_EDGE('',*,*,#426,.F.);
#224=ORIENTED_EDGE('',*,*,#456,.T.);
#225=ORIENTED_EDGE('',*,*,#424,.F.);
#226=ORIENTED_EDGE('',*,*,#453,.F.);
#227=ORIENTED_EDGE('',*,*,#417,.F.);
#228=ORIENTED_EDGE('',*,*,#386,.F.);
#229=ORIENTED_EDGE('',*,*,#428,.F.);
#230=ORIENTED_EDGE('',*,*,#380,.T.);
#231=ORIENTED_EDGE('',*,*,#419,.F.);
#232=ORIENTED_EDGE('',*,*,#454,.F.);
#233=ORIENTED_EDGE('',*,*,#427,.F.);
#234=ORIENTED_EDGE('',*,*,#455,.F.);
#235=ORIENTED_EDGE('',*,*,#420,.F.);
#236=ORIENTED_EDGE('',*,*,#378,.F.);
#237=ORIENTED_EDGE('',*,*,#425,.F.);
#238=ORIENTED_EDGE('',*,*,#389,.T.);
#239=ORIENTED_EDGE('',*,*,#422,.F.);
#240=ORIENTED_EDGE('',*,*,#456,.F.);
#241=ORIENTED_EDGE('',*,*,#457,.F.);
#242=ORIENTED_EDGE('',*,*,#458,.T.);
#243=ORIENTED_EDGE('',*,*,#459,.T.);
#244=ORIENTED_EDGE('',*,*,#405,.F.);
#245=ORIENTED_EDGE('',*,*,#460,.F.);
#246=ORIENTED_EDGE('',*,*,#461,.T.);
#247=ORIENTED_EDGE('',*,*,#457,.T.);
#248=ORIENTED_EDGE('',*,*,#404,.T.);
#249=ORIENTED_EDGE('',*,*,#462,.F.);
#250=ORIENTED_EDGE('',*,*,#463,.T.);
#251=ORIENTED_EDGE('',*,*,#460,.T.);
#252=ORIENTED_EDGE('',*,*,#407,.T.);
#253=ORIENTED_EDGE('',*,*,#464,.T.);
#254=ORIENTED_EDGE('',*,*,#462,.T.);
#255=ORIENTED_EDGE('',*,*,#406,.F.);
#256=ORIENTED_EDGE('',*,*,#459,.F.);
#257=ORIENTED_EDGE('',*,*,#458,.F.);
#258=ORIENTED_EDGE('',*,*,#461,.F.);
#259=ORIENTED_EDGE('',*,*,#463,.F.);
#260=ORIENTED_EDGE('',*,*,#464,.F.);
#261=ORIENTED_EDGE('',*,*,#465,.F.);
#262=ORIENTED_EDGE('',*,*,#466,.F.);
#263=ORIENTED_EDGE('',*,*,#467,.T.);
#264=ORIENTED_EDGE('',*,*,#468,.F.);
#265=ORIENTED_EDGE('',*,*,#469,.F.);
#266=ORIENTED_EDGE('',*,*,#470,.T.);
#267=ORIENTED_EDGE('',*,*,#471,.T.);
#268=ORIENTED_EDGE('',*,*,#472,.T.);
#269=ORIENTED_EDGE('',*,*,#473,.F.);
#270=ORIENTED_EDGE('',*,*,#474,.F.);
#271=ORIENTED_EDGE('',*,*,#475,.T.);
#272=ORIENTED_EDGE('',*,*,#466,.T.);
#273=ORIENTED_EDGE('',*,*,#476,.T.);
#274=ORIENTED_EDGE('',*,*,#477,.F.);
#275=ORIENTED_EDGE('',*,*,#478,.F.);
#276=ORIENTED_EDGE('',*,*,#474,.T.);
#277=ORIENTED_EDGE('',*,*,#479,.F.);
#278=ORIENTED_EDGE('',*,*,#402,.F.);
#279=ORIENTED_EDGE('',*,*,#480,.T.);
#280=ORIENTED_EDGE('',*,*,#477,.T.);
#281=ORIENTED_EDGE('',*,*,#481,.T.);
#282=ORIENTED_EDGE('',*,*,#482,.F.);
#283=ORIENTED_EDGE('',*,*,#483,.F.);
#284=ORIENTED_EDGE('',*,*,#400,.T.);
#285=ORIENTED_EDGE('',*,*,#484,.F.);
#286=ORIENTED_EDGE('',*,*,#485,.F.);
#287=ORIENTED_EDGE('',*,*,#486,.T.);
#288=ORIENTED_EDGE('',*,*,#482,.T.);
#289=ORIENTED_EDGE('',*,*,#487,.F.);
#290=ORIENTED_EDGE('',*,*,#488,.T.);
#291=ORIENTED_EDGE('',*,*,#470,.F.);
#292=ORIENTED_EDGE('',*,*,#489,.F.);
#293=ORIENTED_EDGE('',*,*,#490,.T.);
#294=ORIENTED_EDGE('',*,*,#491,.T.);
#295=ORIENTED_EDGE('',*,*,#485,.T.);
#296=ORIENTED_EDGE('',*,*,#492,.F.);
#297=ORIENTED_EDGE('',*,*,#467,.F.);
#298=ORIENTED_EDGE('',*,*,#475,.F.);
#299=ORIENTED_EDGE('',*,*,#478,.T.);
#300=ORIENTED_EDGE('',*,*,#480,.F.);
#301=ORIENTED_EDGE('',*,*,#401,.F.);
#302=ORIENTED_EDGE('',*,*,#483,.T.);
#303=ORIENTED_EDGE('',*,*,#486,.F.);
#304=ORIENTED_EDGE('',*,*,#491,.F.);
#305=ORIENTED_EDGE('',*,*,#493,.T.);
#306=ORIENTED_EDGE('',*,*,#494,.T.);
#307=ORIENTED_EDGE('',*,*,#465,.T.);
#308=ORIENTED_EDGE('',*,*,#495,.F.);
#309=ORIENTED_EDGE('',*,*,#496,.F.);
#310=ORIENTED_EDGE('',*,*,#492,.T.);
#311=ORIENTED_EDGE('',*,*,#484,.T.);
#312=ORIENTED_EDGE('',*,*,#481,.F.);
#313=ORIENTED_EDGE('',*,*,#403,.T.);
#314=ORIENTED_EDGE('',*,*,#479,.T.);
#315=ORIENTED_EDGE('',*,*,#476,.F.);
#316=ORIENTED_EDGE('',*,*,#473,.T.);
#317=ORIENTED_EDGE('',*,*,#493,.F.);
#318=ORIENTED_EDGE('',*,*,#490,.F.);
#319=ORIENTED_EDGE('',*,*,#497,.T.);
#320=ORIENTED_EDGE('',*,*,#498,.T.);
#321=ORIENTED_EDGE('',*,*,#494,.F.);
#322=ORIENTED_EDGE('',*,*,#498,.F.);
#323=ORIENTED_EDGE('',*,*,#499,.T.);
#324=ORIENTED_EDGE('',*,*,#468,.T.);
#325=ORIENTED_EDGE('',*,*,#500,.F.);
#326=ORIENTED_EDGE('',*,*,#497,.F.);
#327=ORIENTED_EDGE('',*,*,#489,.T.);
#328=ORIENTED_EDGE('',*,*,#469,.T.);
#329=ORIENTED_EDGE('',*,*,#499,.F.);
#330=ORIENTED_EDGE('',*,*,#496,.T.);
#331=ORIENTED_EDGE('',*,*,#501,.F.);
#332=ORIENTED_EDGE('',*,*,#502,.F.);
#333=ORIENTED_EDGE('',*,*,#487,.T.);
#334=ORIENTED_EDGE('',*,*,#495,.T.);
#335=ORIENTED_EDGE('',*,*,#472,.F.);
#336=ORIENTED_EDGE('',*,*,#503,.F.);
#337=ORIENTED_EDGE('',*,*,#501,.T.);
#338=ORIENTED_EDGE('',*,*,#504,.F.);
#339=ORIENTED_EDGE('',*,*,#502,.T.);
#340=ORIENTED_EDGE('',*,*,#503,.T.);
#341=ORIENTED_EDGE('',*,*,#471,.F.);
#342=ORIENTED_EDGE('',*,*,#488,.F.);
#343=ORIENTED_EDGE('',*,*,#505,.F.);
#344=ORIENTED_EDGE('',*,*,#506,.T.);
#345=ORIENTED_EDGE('',*,*,#507,.T.);
#346=ORIENTED_EDGE('',*,*,#508,.F.);
#347=ORIENTED_EDGE('',*,*,#504,.T.);
#348=ORIENTED_EDGE('',*,*,#500,.T.);
#349=ORIENTED_EDGE('',*,*,#509,.F.);
#350=ORIENTED_EDGE('',*,*,#510,.F.);
#351=ORIENTED_EDGE('',*,*,#511,.T.);
#352=ORIENTED_EDGE('',*,*,#512,.T.);
#353=ORIENTED_EDGE('',*,*,#513,.F.);
#354=ORIENTED_EDGE('',*,*,#507,.F.);
#355=ORIENTED_EDGE('',*,*,#514,.T.);
#356=ORIENTED_EDGE('',*,*,#510,.T.);
#357=ORIENTED_EDGE('',*,*,#515,.T.);
#358=ORIENTED_EDGE('',*,*,#512,.F.);
#359=ORIENTED_EDGE('',*,*,#516,.F.);
#360=ORIENTED_EDGE('',*,*,#505,.T.);
#361=ORIENTED_EDGE('',*,*,#517,.F.);
#362=ORIENTED_EDGE('',*,*,#518,.T.);
#363=ORIENTED_EDGE('',*,*,#511,.F.);
#364=ORIENTED_EDGE('',*,*,#514,.F.);
#365=ORIENTED_EDGE('',*,*,#506,.F.);
#366=ORIENTED_EDGE('',*,*,#516,.T.);
#367=ORIENTED_EDGE('',*,*,#517,.T.);
#368=ORIENTED_EDGE('',*,*,#509,.T.);
#369=ORIENTED_EDGE('',*,*,#515,.F.);
#370=ORIENTED_EDGE('',*,*,#508,.T.);
#371=ORIENTED_EDGE('',*,*,#513,.T.);
#372=ORIENTED_EDGE('',*,*,#518,.F.);
#373=EDGE_CURVE('',#519,#520,#619,.T.);
#374=EDGE_CURVE('',#519,#521,#620,.T.);
#375=EDGE_CURVE('',#521,#522,#621,.T.);
#376=EDGE_CURVE('',#520,#522,#622,.T.);
#377=EDGE_CURVE('',#523,#524,#623,.T.);
#378=EDGE_CURVE('',#523,#525,#624,.T.);
#379=EDGE_CURVE('',#525,#526,#625,.T.);
#380=EDGE_CURVE('',#524,#526,#626,.T.);
#381=EDGE_CURVE('',#527,#528,#627,.T.);
#382=EDGE_CURVE('',#527,#529,#628,.T.);
#383=EDGE_CURVE('',#529,#530,#629,.T.);
#384=EDGE_CURVE('',#528,#530,#630,.T.);
#385=EDGE_CURVE('',#531,#532,#631,.T.);
#386=EDGE_CURVE('',#531,#533,#632,.T.);
#387=EDGE_CURVE('',#533,#534,#633,.T.);
#388=EDGE_CURVE('',#534,#532,#634,.T.);
#389=EDGE_CURVE('',#535,#536,#635,.T.);
#390=EDGE_CURVE('',#537,#535,#636,.T.);
#391=EDGE_CURVE('',#538,#537,#637,.T.);
#392=EDGE_CURVE('',#538,#536,#638,.T.);
#393=EDGE_CURVE('',#539,#540,#639,.T.);
#394=EDGE_CURVE('',#540,#541,#640,.T.);
#395=EDGE_CURVE('',#542,#541,#641,.T.);
#396=EDGE_CURVE('',#539,#542,#642,.T.);
#397=EDGE_CURVE('',#543,#537,#643,.T.);
#398=EDGE_CURVE('',#544,#543,#644,.T.);
#399=EDGE_CURVE('',#544,#538,#645,.T.);
#400=EDGE_CURVE('',#545,#546,#646,.T.);
#401=EDGE_CURVE('',#545,#547,#647,.T.);
#402=EDGE_CURVE('',#547,#548,#648,.T.);
#403=EDGE_CURVE('',#546,#548,#649,.T.);
#404=EDGE_CURVE('',#549,#550,#650,.T.);
#405=EDGE_CURVE('',#549,#551,#651,.T.);
#406=EDGE_CURVE('',#551,#552,#652,.T.);
#407=EDGE_CURVE('',#550,#552,#653,.T.);
#408=EDGE_CURVE('',#543,#553,#654,.T.);
#409=EDGE_CURVE('',#554,#553,#655,.T.);
#410=EDGE_CURVE('',#544,#554,#656,.T.);
#411=EDGE_CURVE('',#553,#532,#657,.T.);
#412=EDGE_CURVE('',#554,#534,#658,.T.);
#413=EDGE_CURVE('',#555,#555,#49,.T.);
#414=EDGE_CURVE('',#556,#556,#50,.T.);
#415=EDGE_CURVE('',#557,#557,#51,.T.);
#416=EDGE_CURVE('',#558,#558,#52,.T.);
#417=EDGE_CURVE('',#533,#559,#659,.F.);
#418=EDGE_CURVE('',#560,#559,#660,.T.);
#419=EDGE_CURVE('',#560,#526,#661,.T.);
#420=EDGE_CURVE('',#525,#561,#662,.F.);
#421=EDGE_CURVE('',#562,#561,#663,.T.);
#422=EDGE_CURVE('',#562,#536,#664,.T.);
#423=EDGE_CURVE('',#563,#564,#665,.T.);
#424=EDGE_CURVE('',#564,#531,#666,.F.);
#425=EDGE_CURVE('',#535,#565,#667,.T.);
#426=EDGE_CURVE('',#565,#566,#668,.T.);
#427=EDGE_CURVE('',#566,#523,#669,.F.);
#428=EDGE_CURVE('',#524,#563,#670,.T.);
#429=EDGE_CURVE('',#567,#519,#671,.T.);
#430=EDGE_CURVE('',#567,#568,#672,.T.);
#431=EDGE_CURVE('',#568,#521,#673,.T.);
#432=EDGE_CURVE('',#569,#520,#674,.T.);
#433=EDGE_CURVE('',#567,#569,#675,.T.);
#434=EDGE_CURVE('',#570,#522,#676,.T.);
#435=EDGE_CURVE('',#569,#570,#677,.T.);
#436=EDGE_CURVE('',#568,#570,#678,.T.);
#437=EDGE_CURVE('',#571,#540,#679,.T.);
#438=EDGE_CURVE('',#571,#572,#680,.T.);
#439=EDGE_CURVE('',#572,#541,#681,.T.);
#440=EDGE_CURVE('',#573,#539,#682,.T.);
#441=EDGE_CURVE('',#573,#571,#683,.T.);
#442=EDGE_CURVE('',#574,#542,#684,.T.);
#443=EDGE_CURVE('',#573,#574,#685,.T.);
#444=EDGE_CURVE('',#574,#572,#686,.T.);
#445=EDGE_CURVE('',#575,#527,#687,.T.);
#446=EDGE_CURVE('',#575,#576,#688,.T.);
#447=EDGE_CURVE('',#576,#529,#689,.T.);
#448=EDGE_CURVE('',#577,#528,#690,.T.);
#449=EDGE_CURVE('',#575,#577,#691,.T.);
#450=EDGE_CURVE('',#578,#530,#692,.T.);
#451=EDGE_CURVE('',#577,#578,#693,.T.);
#452=EDGE_CURVE('',#576,#578,#694,.T.);
#453=EDGE_CURVE('',#559,#564,#695,.T.);
#454=EDGE_CURVE('',#563,#560,#696,.T.);
#455=EDGE_CURVE('',#561,#566,#697,.T.);
#456=EDGE_CURVE('',#565,#562,#698,.T.);
#457=EDGE_CURVE('',#579,#549,#699,.T.);
#458=EDGE_CURVE('',#579,#580,#700,.T.);
#459=EDGE_CURVE('',#580,#551,#701,.T.);
#460=EDGE_CURVE('',#581,#550,#702,.T.);
#461=EDGE_CURVE('',#581,#579,#53,.F.);
#462=EDGE_CURVE('',#582,#552,#703,.T.);
#463=EDGE_CURVE('',#582,#581,#704,.F.);
#464=EDGE_CURVE('',#580,#582,#54,.T.);
#465=EDGE_CURVE('',#583,#584,#705,.T.);
#466=EDGE_CURVE('',#585,#583,#706,.T.);
#467=EDGE_CURVE('',#585,#586,#707,.T.);
#468=EDGE_CURVE('',#587,#586,#708,.T.);
#469=EDGE_CURVE('',#588,#587,#709,.T.);
#470=EDGE_CURVE('',#588,#589,#710,.T.);
#471=EDGE_CURVE('',#589,#590,#711,.T.);
#472=EDGE_CURVE('',#590,#584,#712,.T.);
#473=EDGE_CURVE('',#591,#583,#713,.T.);
#474=EDGE_CURVE('',#592,#591,#714,.T.);
#475=EDGE_CURVE('',#592,#585,#715,.T.);
#476=EDGE_CURVE('',#591,#593,#55,.T.);
#477=EDGE_CURVE('',#594,#593,#716,.T.);
#478=EDGE_CURVE('',#592,#594,#56,.T.);
#479=EDGE_CURVE('',#548,#593,#717,.T.);
#480=EDGE_CURVE('',#547,#594,#718,.T.);
#481=EDGE_CURVE('',#546,#595,#719,.T.);
#482=EDGE_CURVE('',#596,#595,#720,.T.);
#483=EDGE_CURVE('',#545,#596,#721,.T.);
#484=EDGE_CURVE('',#597,#595,#57,.T.);
#485=EDGE_CURVE('',#598,#597,#722,.T.);
#486=EDGE_CURVE('',#598,#596,#58,.T.);
#487=EDGE_CURVE('',#599,#600,#723,.T.);
#488=EDGE_CURVE('',#599,#589,#724,.T.);
#489=EDGE_CURVE('',#601,#588,#725,.T.);
#490=EDGE_CURVE('',#601,#602,#726,.T.);
#491=EDGE_CURVE('',#602,#598,#727,.T.);
#492=EDGE_CURVE('',#600,#597,#728,.T.);
#493=EDGE_CURVE('',#602,#603,#729,.T.);
#494=EDGE_CURVE('',#603,#586,#59,.T.);
#495=EDGE_CURVE('',#604,#584,#60,.T.);
#496=EDGE_CURVE('',#600,#604,#730,.T.);
#497=EDGE_CURVE('',#601,#605,#731,.T.);
#498=EDGE_CURVE('',#605,#603,#732,.T.);
#499=EDGE_CURVE('',#605,#587,#61,.T.);
#500=EDGE_CURVE('',#606,#606,#62,.F.);
#501=EDGE_CURVE('',#607,#604,#733,.T.);
#502=EDGE_CURVE('',#599,#607,#734,.T.);
#503=EDGE_CURVE('',#607,#590,#63,.T.);
#504=EDGE_CURVE('',#608,#608,#64,.F.);
#505=EDGE_CURVE('',#609,#610,#735,.T.);
#506=EDGE_CURVE('',#609,#611,#65,.T.);
#507=EDGE_CURVE('',#611,#612,#736,.T.);
#508=EDGE_CURVE('',#610,#612,#66,.T.);
#509=EDGE_CURVE('',#613,#614,#67,.T.);
#510=EDGE_CURVE('',#615,#613,#737,.T.);
#511=EDGE_CURVE('',#615,#616,#68,.T.);
#512=EDGE_CURVE('',#616,#614,#738,.T.);
#513=EDGE_CURVE('',#612,#613,#739,.T.);
#514=EDGE_CURVE('',#611,#615,#740,.T.);
#515=EDGE_CURVE('',#610,#614,#741,.T.);
#516=EDGE_CURVE('',#609,#616,#742,.T.);
#517=EDGE_CURVE('',#617,#617,#69,.T.);
#518=EDGE_CURVE('',#618,#618,#70,.T.);
#519=VERTEX_POINT('',#1724);
#520=VERTEX_POINT('',#1725);
#521=VERTEX_POINT('',#1727);
#522=VERTEX_POINT('',#1729);
#523=VERTEX_POINT('',#1732);
#524=VERTEX_POINT('',#1733);
#525=VERTEX_POINT('',#1735);
#526=VERTEX_POINT('',#1737);
#527=VERTEX_POINT('',#1741);
#528=VERTEX_POINT('',#1742);
#529=VERTEX_POINT('',#1744);
#530=VERTEX_POINT('',#1746);
#531=VERTEX_POINT('',#1749);
#532=VERTEX_POINT('',#1750);
#533=VERTEX_POINT('',#1752);
#534=VERTEX_POINT('',#1754);
#535=VERTEX_POINT('',#1758);
#536=VERTEX_POINT('',#1759);
#537=VERTEX_POINT('',#1761);
#538=VERTEX_POINT('',#1763);
#539=VERTEX_POINT('',#1766);
#540=VERTEX_POINT('',#1767);
#541=VERTEX_POINT('',#1769);
#542=VERTEX_POINT('',#1771);
#543=VERTEX_POINT('',#1775);
#544=VERTEX_POINT('',#1777);
#545=VERTEX_POINT('',#1781);
#546=VERTEX_POINT('',#1782);
#547=VERTEX_POINT('',#1784);
#548=VERTEX_POINT('',#1786);
#549=VERTEX_POINT('',#1789);
#550=VERTEX_POINT('',#1790);
#551=VERTEX_POINT('',#1792);
#552=VERTEX_POINT('',#1794);
#553=VERTEX_POINT('',#1797);
#554=VERTEX_POINT('',#1799);
#555=VERTEX_POINT('',#1806);
#556=VERTEX_POINT('',#1808);
#557=VERTEX_POINT('',#1811);
#558=VERTEX_POINT('',#1813);
#559=VERTEX_POINT('',#1816);
#560=VERTEX_POINT('',#1818);
#561=VERTEX_POINT('',#1821);
#562=VERTEX_POINT('',#1823);
#563=VERTEX_POINT('',#1827);
#564=VERTEX_POINT('',#1828);
#565=VERTEX_POINT('',#1831);
#566=VERTEX_POINT('',#1833);
#567=VERTEX_POINT('',#1838);
#568=VERTEX_POINT('',#1840);
#569=VERTEX_POINT('',#1844);
#570=VERTEX_POINT('',#1848);
#571=VERTEX_POINT('',#1855);
#572=VERTEX_POINT('',#1857);
#573=VERTEX_POINT('',#1861);
#574=VERTEX_POINT('',#1865);
#575=VERTEX_POINT('',#1872);
#576=VERTEX_POINT('',#1874);
#577=VERTEX_POINT('',#1878);
#578=VERTEX_POINT('',#1882);
#579=VERTEX_POINT('',#1899);
#580=VERTEX_POINT('',#1901);
#581=VERTEX_POINT('',#1905);
#582=VERTEX_POINT('',#1909);
#583=VERTEX_POINT('',#1916);
#584=VERTEX_POINT('',#1917);
#585=VERTEX_POINT('',#1919);
#586=VERTEX_POINT('',#1921);
#587=VERTEX_POINT('',#1923);
#588=VERTEX_POINT('',#1925);
#589=VERTEX_POINT('',#1927);
#590=VERTEX_POINT('',#1929);
#591=VERTEX_POINT('',#1933);
#592=VERTEX_POINT('',#1935);
#593=VERTEX_POINT('',#1939);
#594=VERTEX_POINT('',#1941);
#595=VERTEX_POINT('',#1948);
#596=VERTEX_POINT('',#1950);
#597=VERTEX_POINT('',#1954);
#598=VERTEX_POINT('',#1956);
#599=VERTEX_POINT('',#1960);
#600=VERTEX_POINT('',#1961);
#601=VERTEX_POINT('',#1964);
#602=VERTEX_POINT('',#1966);
#603=VERTEX_POINT('',#1971);
#604=VERTEX_POINT('',#1975);
#605=VERTEX_POINT('',#1979);
#606=VERTEX_POINT('',#1985);
#607=VERTEX_POINT('',#1988);
#608=VERTEX_POINT('',#1994);
#609=VERTEX_POINT('',#1997);
#610=VERTEX_POINT('',#1998);
#611=VERTEX_POINT('',#2000);
#612=VERTEX_POINT('',#2002);
#613=VERTEX_POINT('',#2006);
#614=VERTEX_POINT('',#2007);
#615=VERTEX_POINT('',#2009);
#616=VERTEX_POINT('',#2011);
#617=VERTEX_POINT('',#2021);
#618=VERTEX_POINT('',#2023);
#619=LINE('',#1723,#743);
#620=LINE('',#1726,#744);
#621=LINE('',#1728,#745);
#622=LINE('',#1730,#746);
#623=LINE('',#1731,#747);
#624=LINE('',#1734,#748);
#625=LINE('',#1736,#749);
#626=LINE('',#1738,#750);
#627=LINE('',#1740,#751);
#628=LINE('',#1743,#752);
#629=LINE('',#1745,#753);
#630=LINE('',#1747,#754);
#631=LINE('',#1748,#755);
#632=LINE('',#1751,#756);
#633=LINE('',#1753,#757);
#634=LINE('',#1755,#758);
#635=LINE('',#1757,#759);
#636=LINE('',#1760,#760);
#637=LINE('',#1762,#761);
#638=LINE('',#1764,#762);
#639=LINE('',#1765,#763);
#640=LINE('',#1768,#764);
#641=LINE('',#1770,#765);
#642=LINE('',#1772,#766);
#643=LINE('',#1774,#767);
#644=LINE('',#1776,#768);
#645=LINE('',#1778,#769);
#646=LINE('',#1780,#770);
#647=LINE('',#1783,#771);
#648=LINE('',#1785,#772);
#649=LINE('',#1787,#773);
#650=LINE('',#1788,#774);
#651=LINE('',#1791,#775);
#652=LINE('',#1793,#776);
#653=LINE('',#1795,#777);
#654=LINE('',#1796,#778);
#655=LINE('',#1798,#779);
#656=LINE('',#1800,#780);
#657=LINE('',#1802,#781);
#658=LINE('',#1803,#782);
#659=LINE('',#1815,#783);
#660=LINE('',#1817,#784);
#661=LINE('',#1819,#785);
#662=LINE('',#1820,#786);
#663=LINE('',#1822,#787);
#664=LINE('',#1824,#788);
#665=LINE('',#1826,#789);
#666=LINE('',#1829,#790);
#667=LINE('',#1830,#791);
#668=LINE('',#1832,#792);
#669=LINE('',#1834,#793);
#670=LINE('',#1835,#794);
#671=LINE('',#1837,#795);
#672=LINE('',#1839,#796);
#673=LINE('',#1841,#797);
#674=LINE('',#1843,#798);
#675=LINE('',#1845,#799);
#676=LINE('',#1847,#800);
#677=LINE('',#1849,#801);
#678=LINE('',#1851,#802);
#679=LINE('',#1854,#803);
#680=LINE('',#1856,#804);
#681=LINE('',#1858,#805);
#682=LINE('',#1860,#806);
#683=LINE('',#1862,#807);
#684=LINE('',#1864,#808);
#685=LINE('',#1866,#809);
#686=LINE('',#1868,#810);
#687=LINE('',#1871,#811);
#688=LINE('',#1873,#812);
#689=LINE('',#1875,#813);
#690=LINE('',#1877,#814);
#691=LINE('',#1879,#815);
#692=LINE('',#1881,#816);
#693=LINE('',#1883,#817);
#694=LINE('',#1885,#818);
#695=LINE('',#1888,#819);
#696=LINE('',#1889,#820);
#697=LINE('',#1891,#821);
#698=LINE('',#1892,#822);
#699=LINE('',#1898,#823);
#700=LINE('',#1900,#824);
#701=LINE('',#1902,#825);
#702=LINE('',#1904,#826);
#703=LINE('',#1908,#827);
#704=LINE('',#1910,#828);
#705=LINE('',#1915,#829);
#706=LINE('',#1918,#830);
#707=LINE('',#1920,#831);
#708=LINE('',#1922,#832);
#709=LINE('',#1924,#833);
#710=LINE('',#1926,#834);
#711=LINE('',#1928,#835);
#712=LINE('',#1930,#836);
#713=LINE('',#1932,#837);
#714=LINE('',#1934,#838);
#715=LINE('',#1936,#839);
#716=LINE('',#1940,#840);
#717=LINE('',#1944,#841);
#718=LINE('',#1945,#842);
#719=LINE('',#1947,#843);
#720=LINE('',#1949,#844);
#721=LINE('',#1951,#845);
#722=LINE('',#1955,#846);
#723=LINE('',#1959,#847);
#724=LINE('',#1962,#848);
#725=LINE('',#1963,#849);
#726=LINE('',#1965,#850);
#727=LINE('',#1967,#851);
#728=LINE('',#1968,#852);
#729=LINE('',#1970,#853);
#730=LINE('',#1976,#854);
#731=LINE('',#1978,#855);
#732=LINE('',#1980,#856);
#733=LINE('',#1987,#857);
#734=LINE('',#1989,#858);
#735=LINE('',#1996,#859);
#736=LINE('',#2001,#860);
#737=LINE('',#2008,#861);
#738=LINE('',#2012,#862);
#739=LINE('',#2014,#863);
#740=LINE('',#2015,#864);
#741=LINE('',#2017,#865);
#742=LINE('',#2018,#866);
#743=VECTOR('',#1439,1.);
#744=VECTOR('',#1440,1.);
#745=VECTOR('',#1441,1.);
#746=VECTOR('',#1442,1.);
#747=VECTOR('',#1443,1.);
#748=VECTOR('',#1444,1.);
#749=VECTOR('',#1445,1.);
#750=VECTOR('',#1446,1.);
#751=VECTOR('',#1449,1.);
#752=VECTOR('',#1450,1.);
#753=VECTOR('',#1451,1.);
#754=VECTOR('',#1452,1.);
#755=VECTOR('',#1453,1.);
#756=VECTOR('',#1454,1.);
#757=VECTOR('',#1455,1.);
#758=VECTOR('',#1456,1.);
#759=VECTOR('',#1459,1.);
#760=VECTOR('',#1460,1.);
#761=VECTOR('',#1461,1.);
#762=VECTOR('',#1462,1.);
#763=VECTOR('',#1463,1.);
#764=VECTOR('',#1464,1.);
#765=VECTOR('',#1465,1.);
#766=VECTOR('',#1466,1.);
#767=VECTOR('',#1469,1.);
#768=VECTOR('',#1470,1.);
#769=VECTOR('',#1471,1.);
#770=VECTOR('',#1474,1.);
#771=VECTOR('',#1475,1.);
#772=VECTOR('',#1476,1.);
#773=VECTOR('',#1477,1.);
#774=VECTOR('',#1478,1.);
#775=VECTOR('',#1479,1.);
#776=VECTOR('',#1480,1.);
#777=VECTOR('',#1481,1.);
#778=VECTOR('',#1482,1.);
#779=VECTOR('',#1483,1.);
#780=VECTOR('',#1484,1.);
#781=VECTOR('',#1487,1.);
#782=VECTOR('',#1488,1.);
#783=VECTOR('',#1503,1.);
#784=VECTOR('',#1504,1.);
#785=VECTOR('',#1505,1.);
#786=VECTOR('',#1506,1.);
#787=VECTOR('',#1507,1.);
#788=VECTOR('',#1508,1.);
#789=VECTOR('',#1511,1.);
#790=VECTOR('',#1512,1.);
#791=VECTOR('',#1513,1.);
#792=VECTOR('',#1514,1.);
#793=VECTOR('',#1515,1.);
#794=VECTOR('',#1516,1.);
#795=VECTOR('',#1519,1.);
#796=VECTOR('',#1520,1.);
#797=VECTOR('',#1521,1.);
#798=VECTOR('',#1524,1.);
#799=VECTOR('',#1525,1.);
#800=VECTOR('',#1528,1.);
#801=VECTOR('',#1529,1.);
#802=VECTOR('',#1532,1.);
#803=VECTOR('',#1537,1.);
#804=VECTOR('',#1538,1.);
#805=VECTOR('',#1539,1.);
#806=VECTOR('',#1542,1.);
#807=VECTOR('',#1543,1.);
#808=VECTOR('',#1546,1.);
#809=VECTOR('',#1547,1.);
#810=VECTOR('',#1550,1.);
#811=VECTOR('',#1555,1.);
#812=VECTOR('',#1556,1.);
#813=VECTOR('',#1557,1.);
#814=VECTOR('',#1560,1.);
#815=VECTOR('',#1561,1.);
#816=VECTOR('',#1564,1.);
#817=VECTOR('',#1565,1.);
#818=VECTOR('',#1568,1.);
#819=VECTOR('',#1573,1.);
#820=VECTOR('',#1574,1.);
#821=VECTOR('',#1577,1.);
#822=VECTOR('',#1578,1.);
#823=VECTOR('',#1589,1.);
#824=VECTOR('',#1590,1.);
#825=VECTOR('',#1591,1.);
#826=VECTOR('',#1594,1.);
#827=VECTOR('',#1599,1.);
#828=VECTOR('',#1600,1.);
#829=VECTOR('',#1609,1.);
#830=VECTOR('',#1610,1.);
#831=VECTOR('',#1611,1.);
#832=VECTOR('',#1612,1.);
#833=VECTOR('',#1613,1.);
#834=VECTOR('',#1614,1.);
#835=VECTOR('',#1615,1.);
#836=VECTOR('',#1616,1.);
#837=VECTOR('',#1619,1.);
#838=VECTOR('',#1620,1.);
#839=VECTOR('',#1621,1.);
#840=VECTOR('',#1626,1.);
#841=VECTOR('',#1631,1.);
#842=VECTOR('',#1632,1.);
#843=VECTOR('',#1635,1.);
#844=VECTOR('',#1636,1.);
#845=VECTOR('',#1637,1.);
#846=VECTOR('',#1642,1.);
#847=VECTOR('',#1647,1.);
#848=VECTOR('',#1648,1.);
#849=VECTOR('',#1649,1.);
#850=VECTOR('',#1650,1.);
#851=VECTOR('',#1651,1.);
#852=VECTOR('',#1652,1.);
#853=VECTOR('',#1655,1.);
#854=VECTOR('',#1662,1.);
#855=VECTOR('',#1665,1.);
#856=VECTOR('',#1666,1.);
#857=VECTOR('',#1677,1.);
#858=VECTOR('',#1678,1.);
#859=VECTOR('',#1689,1.);
#860=VECTOR('',#1692,1.);
#861=VECTOR('',#1699,1.);
#862=VECTOR('',#1702,1.);
#863=VECTOR('',#1705,1.);
#864=VECTOR('',#1706,1.);
#865=VECTOR('',#1709,1.);
#866=VECTOR('',#1710,1.);
#867=EDGE_LOOP('',(#81,#82,#83,#84));
#868=EDGE_LOOP('',(#85,#86,#87,#88));
#869=EDGE_LOOP('',(#89,#90,#91,#92));
#870=EDGE_LOOP('',(#93,#94,#95,#96));
#871=EDGE_LOOP('',(#97,#98,#99,#100));
#872=EDGE_LOOP('',(#101,#102,#103,#104));
#873=EDGE_LOOP('',(#105,#106,#107,#108));
#874=EDGE_LOOP('',(#109,#110,#111,#112));
#875=EDGE_LOOP('',(#113,#114,#115,#116));
#876=EDGE_LOOP('',(#117,#118,#119,#120));
#877=EDGE_LOOP('',(#121,#122,#123,#124));
#878=EDGE_LOOP('',(#125));
#879=EDGE_LOOP('',(#126));
#880=EDGE_LOOP('',(#127));
#881=EDGE_LOOP('',(#128));
#882=EDGE_LOOP('',(#129,#130,#131,#132,#133,#134,#135,#136,#137,#138,#139,
#140));
#883=EDGE_LOOP('',(#141));
#884=EDGE_LOOP('',(#142));
#885=EDGE_LOOP('',(#143,#144,#145,#146,#147,#148,#149,#150,#151,#152,#153,
#154));
#886=EDGE_LOOP('',(#155));
#887=EDGE_LOOP('',(#156));
#888=EDGE_LOOP('',(#157,#158,#159,#160));
#889=EDGE_LOOP('',(#161,#162,#163,#164));
#890=EDGE_LOOP('',(#165,#166,#167,#168));
#891=EDGE_LOOP('',(#169,#170,#171,#172));
#892=EDGE_LOOP('',(#173,#174,#175,#176));
#893=EDGE_LOOP('',(#177,#178,#179,#180));
#894=EDGE_LOOP('',(#181,#182,#183,#184));
#895=EDGE_LOOP('',(#185,#186,#187,#188));
#896=EDGE_LOOP('',(#189,#190,#191,#192));
#897=EDGE_LOOP('',(#193,#194,#195,#196));
#898=EDGE_LOOP('',(#197,#198,#199,#200));
#899=EDGE_LOOP('',(#201,#202,#203,#204));
#900=EDGE_LOOP('',(#205,#206,#207,#208));
#901=EDGE_LOOP('',(#209,#210,#211,#212));
#902=EDGE_LOOP('',(#213,#214,#215,#216));
#903=EDGE_LOOP('',(#217,#218,#219,#220));
#904=EDGE_LOOP('',(#221,#222,#223,#224));
#905=EDGE_LOOP('',(#225,#226,#227,#228));
#906=EDGE_LOOP('',(#229,#230,#231,#232));
#907=EDGE_LOOP('',(#233,#234,#235,#236));
#908=EDGE_LOOP('',(#237,#238,#239,#240));
#909=EDGE_LOOP('',(#241,#242,#243,#244));
#910=EDGE_LOOP('',(#245,#246,#247,#248));
#911=EDGE_LOOP('',(#249,#250,#251,#252));
#912=EDGE_LOOP('',(#253,#254,#255,#256));
#913=EDGE_LOOP('',(#257,#258,#259,#260));
#914=EDGE_LOOP('',(#261,#262,#263,#264,#265,#266,#267,#268));
#915=EDGE_LOOP('',(#269,#270,#271,#272));
#916=EDGE_LOOP('',(#273,#274,#275,#276));
#917=EDGE_LOOP('',(#277,#278,#279,#280));
#918=EDGE_LOOP('',(#281,#282,#283,#284));
#919=EDGE_LOOP('',(#285,#286,#287,#288));
#920=EDGE_LOOP('',(#289,#290,#291,#292,#293,#294,#295,#296));
#921=EDGE_LOOP('',(#297,#298,#299,#300,#301,#302,#303,#304,#305,#306));
#922=EDGE_LOOP('',(#307,#308,#309,#310,#311,#312,#313,#314,#315,#316));
#923=EDGE_LOOP('',(#317,#318,#319,#320));
#924=EDGE_LOOP('',(#321,#322,#323,#324));
#925=EDGE_LOOP('',(#325));
#926=EDGE_LOOP('',(#326,#327,#328,#329));
#927=EDGE_LOOP('',(#330,#331,#332,#333));
#928=EDGE_LOOP('',(#334,#335,#336,#337));
#929=EDGE_LOOP('',(#338));
#930=EDGE_LOOP('',(#339,#340,#341,#342));
#931=EDGE_LOOP('',(#343,#344,#345,#346));
#932=EDGE_LOOP('',(#347));
#933=EDGE_LOOP('',(#348));
#934=EDGE_LOOP('',(#349,#350,#351,#352));
#935=EDGE_LOOP('',(#353,#354,#355,#356));
#936=EDGE_LOOP('',(#357,#358,#359,#360));
#937=EDGE_LOOP('',(#361));
#938=EDGE_LOOP('',(#362));
#939=EDGE_LOOP('',(#363,#364,#365,#366));
#940=EDGE_LOOP('',(#367));
#941=EDGE_LOOP('',(#368,#369,#370,#371));
#942=EDGE_LOOP('',(#372));
#943=FACE_BOUND('',#867,.T.);
#944=FACE_BOUND('',#868,.T.);
#945=FACE_BOUND('',#869,.T.);
#946=FACE_BOUND('',#870,.T.);
#947=FACE_BOUND('',#871,.T.);
#948=FACE_BOUND('',#872,.T.);
#949=FACE_BOUND('',#873,.T.);
#950=FACE_BOUND('',#874,.T.);
#951=FACE_BOUND('',#875,.T.);
#952=FACE_BOUND('',#876,.T.);
#953=FACE_BOUND('',#877,.T.);
#954=FACE_BOUND('',#878,.T.);
#955=FACE_BOUND('',#879,.T.);
#956=FACE_BOUND('',#880,.T.);
#957=FACE_BOUND('',#881,.T.);
#958=FACE_BOUND('',#882,.T.);
#959=FACE_BOUND('',#883,.T.);
#960=FACE_BOUND('',#884,.T.);
#961=FACE_BOUND('',#885,.T.);
#962=FACE_BOUND('',#886,.T.);
#963=FACE_BOUND('',#887,.T.);
#964=FACE_BOUND('',#888,.T.);
#965=FACE_BOUND('',#889,.T.);
#966=FACE_BOUND('',#890,.T.);
#967=FACE_BOUND('',#891,.T.);
#968=FACE_BOUND('',#892,.T.);
#969=FACE_BOUND('',#893,.T.);
#970=FACE_BOUND('',#894,.T.);
#971=FACE_BOUND('',#895,.T.);
#972=FACE_BOUND('',#896,.T.);
#973=FACE_BOUND('',#897,.T.);
#974=FACE_BOUND('',#898,.T.);
#975=FACE_BOUND('',#899,.T.);
#976=FACE_BOUND('',#900,.T.);
#977=FACE_BOUND('',#901,.T.);
#978=FACE_BOUND('',#902,.T.);
#979=FACE_BOUND('',#903,.T.);
#980=FACE_BOUND('',#904,.T.);
#981=FACE_BOUND('',#905,.T.);
#982=FACE_BOUND('',#906,.T.);
#983=FACE_BOUND('',#907,.T.);
#984=FACE_BOUND('',#908,.T.);
#985=FACE_BOUND('',#909,.T.);
#986=FACE_BOUND('',#910,.T.);
#987=FACE_BOUND('',#911,.T.);
#988=FACE_BOUND('',#912,.T.);
#989=FACE_BOUND('',#913,.T.);
#990=FACE_BOUND('',#914,.T.);
#991=FACE_BOUND('',#915,.T.);
#992=FACE_BOUND('',#916,.T.);
#993=FACE_BOUND('',#917,.T.);
#994=FACE_BOUND('',#918,.T.);
#995=FACE_BOUND('',#919,.T.);
#996=FACE_BOUND('',#920,.T.);
#997=FACE_BOUND('',#921,.T.);
#998=FACE_BOUND('',#922,.T.);
#999=FACE_BOUND('',#923,.T.);
#1000=FACE_BOUND('',#924,.T.);
#1001=FACE_BOUND('',#925,.T.);
#1002=FACE_BOUND('',#926,.T.);
#1003=FACE_BOUND('',#927,.T.);
#1004=FACE_BOUND('',#928,.T.);
#1005=FACE_BOUND('',#929,.T.);
#1006=FACE_BOUND('',#930,.T.);
#1007=FACE_BOUND('',#931,.T.);
#1008=FACE_BOUND('',#932,.T.);
#1009=FACE_BOUND('',#933,.T.);
#1010=FACE_BOUND('',#934,.T.);
#1011=FACE_BOUND('',#935,.T.);
#1012=FACE_BOUND('',#936,.T.);
#1013=FACE_BOUND('',#937,.T.);
#1014=FACE_BOUND('',#938,.T.);
#1015=FACE_BOUND('',#939,.T.);
#1016=FACE_BOUND('',#940,.T.);
#1017=FACE_BOUND('',#941,.T.);
#1018=FACE_BOUND('',#942,.T.);
#1019=PLANE('',#1355);
#1020=PLANE('',#1356);
#1021=PLANE('',#1357);
#1022=PLANE('',#1358);
#1023=PLANE('',#1359);
#1024=PLANE('',#1360);
#1025=PLANE('',#1367);
#1026=PLANE('',#1368);
#1027=PLANE('',#1369);
#1028=PLANE('',#1370);
#1029=PLANE('',#1371);
#1030=PLANE('',#1372);
#1031=PLANE('',#1373);
#1032=PLANE('',#1374);
#1033=PLANE('',#1375);
#1034=PLANE('',#1376);
#1035=PLANE('',#1377);
#1036=PLANE('',#1378);
#1037=PLANE('',#1379);
#1038=PLANE('',#1380);
#1039=PLANE('',#1381);
#1040=PLANE('',#1382);
#1041=PLANE('',#1383);
#1042=PLANE('',#1384);
#1043=PLANE('',#1385);
#1044=PLANE('',#1386);
#1045=PLANE('',#1387);
#1046=PLANE('',#1388);
#1047=PLANE('',#1389);
#1048=PLANE('',#1390);
#1049=PLANE('',#1391);
#1050=PLANE('',#1393);
#1051=PLANE('',#1394);
#1052=PLANE('',#1397);
#1053=PLANE('',#1398);
#1054=PLANE('',#1402);
#1055=PLANE('',#1403);
#1056=PLANE('',#1407);
#1057=PLANE('',#1408);
#1058=PLANE('',#1410);
#1059=PLANE('',#1412);
#1060=PLANE('',#1415);
#1061=PLANE('',#1417);
#1062=PLANE('',#1420);
#1063=PLANE('',#1428);
#1064=PLANE('',#1429);
#1065=PLANE('',#1433);
#1066=PLANE('',#1434);
#1067=ADVANCED_FACE('',(#943,#944),#1019,.T.);
#1068=ADVANCED_FACE('',(#945,#946),#1020,.T.);
#1069=ADVANCED_FACE('',(#947,#948),#1021,.T.);
#1070=ADVANCED_FACE('',(#949),#1022,.T.);
#1071=ADVANCED_FACE('',(#950,#951,#952),#1023,.F.);
#1072=ADVANCED_FACE('',(#953),#1024,.F.);
#1073=ADVANCED_FACE('',(#954,#955),#71,.F.);
#1074=ADVANCED_FACE('',(#956,#957),#72,.F.);
#1075=ADVANCED_FACE('',(#958,#959,#960),#1025,.T.);
#1076=ADVANCED_FACE('',(#961,#962,#963),#1026,.F.);
#1077=ADVANCED_FACE('Face appearance 2',(#964),#1027,.T.);
#1078=ADVANCED_FACE('Face appearance 2',(#965),#1028,.F.);
#1079=ADVANCED_FACE('Face appearance 2',(#966),#1029,.F.);
#1080=ADVANCED_FACE('Face appearance 2',(#967),#1030,.T.);
#1081=ADVANCED_FACE('Face appearance 2',(#968),#1031,.T.);
#1082=ADVANCED_FACE('Face appearance 2',(#969),#1032,.T.);
#1083=ADVANCED_FACE('Face appearance 2',(#970),#1033,.T.);
#1084=ADVANCED_FACE('Face appearance 2',(#971),#1034,.F.);
#1085=ADVANCED_FACE('Face appearance 2',(#972),#1035,.F.);
#1086=ADVANCED_FACE('Face appearance 2',(#973),#1036,.T.);
#1087=ADVANCED_FACE('Face appearance 2',(#974),#1037,.T.);
#1088=ADVANCED_FACE('Face appearance 2',(#975),#1038,.F.);
#1089=ADVANCED_FACE('Face appearance 2',(#976),#1039,.F.);
#1090=ADVANCED_FACE('Face appearance 2',(#977),#1040,.T.);
#1091=ADVANCED_FACE('Face appearance 2',(#978),#1041,.T.);
#1092=ADVANCED_FACE('',(#979),#1042,.T.);
#1093=ADVANCED_FACE('',(#980),#1043,.T.);
#1094=ADVANCED_FACE('',(#981),#1044,.F.);
#1095=ADVANCED_FACE('',(#982),#1045,.T.);
#1096=ADVANCED_FACE('',(#983),#1046,.F.);
#1097=ADVANCED_FACE('',(#984),#1047,.T.);
#1098=ADVANCED_FACE('Face appearance 1',(#985),#1048,.T.);
#1099=ADVANCED_FACE('Face appearance 1',(#986),#1049,.F.);
#1100=ADVANCED_FACE('Face appearance 1',(#987),#1050,.F.);
#1101=ADVANCED_FACE('Face appearance 1',(#988),#1051,.T.);
#1102=ADVANCED_FACE('Face appearance 1',(#989),#73,.T.);
#1103=ADVANCED_FACE('Face appearance 3',(#990),#1052,.T.);
#1104=ADVANCED_FACE('Face appearance 3',(#991),#1053,.T.);
#1105=ADVANCED_FACE('Face appearance 3',(#992),#74,.F.);
#1106=ADVANCED_FACE('Face appearance 3',(#993),#1054,.T.);
#1107=ADVANCED_FACE('Face appearance 3',(#994),#1055,.F.);
#1108=ADVANCED_FACE('Face appearance 3',(#995),#75,.T.);
#1109=ADVANCED_FACE('Face appearance 3',(#996),#1056,.T.);
#1110=ADVANCED_FACE('Face appearance 3',(#997),#1057,.T.);
#1111=ADVANCED_FACE('Face appearance 3',(#998),#1058,.F.);
#1112=ADVANCED_FACE('Face appearance 4',(#999),#1059,.T.);
#1113=ADVANCED_FACE('Face appearance 3',(#1000),#76,.T.);
#1114=ADVANCED_FACE('Face appearance 4',(#1001,#1002),#1060,.F.);
#1115=ADVANCED_FACE('Face appearance 4',(#1003),#1061,.F.);
#1116=ADVANCED_FACE('Face appearance 3',(#1004),#77,.T.);
#1117=ADVANCED_FACE('Face appearance 4',(#1005,#1006),#1062,.F.);
#1118=ADVANCED_FACE('Face appearance 5',(#1007,#1008,#1009),#78,.T.);
#1119=ADVANCED_FACE('',(#1010),#79,.F.);
#1120=ADVANCED_FACE('',(#1011),#1063,.T.);
#1121=ADVANCED_FACE('',(#1012),#1064,.F.);
#1122=ADVANCED_FACE('',(#1013,#1014),#80,.T.);
#1123=ADVANCED_FACE('',(#1015,#1016),#1065,.T.);
#1124=ADVANCED_FACE('',(#1017,#1018),#1066,.F.);
#1125=CLOSED_SHELL('',(#1067,#1068,#1069,#1070,#1071,#1072,#1073,#1074,
#1075,#1076,#1077,#1078,#1079,#1080,#1081,#1082,#1083,#1084,#1085,#1086,
#1087,#1088,#1089,#1090,#1091,#1092,#1093,#1094,#1095,#1096,#1097,#1098,
#1099,#1100,#1101,#1102,#1103,#1104,#1105,#1106,#1107,#1108,#1109,#1110,
#1111,#1112,#1113,#1114,#1115,#1116,#1117,#1118,#1119,#1120,#1121,#1122,
#1123,#1124));
#1126=STYLED_ITEM('',(#1127),#1351);
#1127=PRESENTATION_STYLE_ASSIGNMENT((#1164));
#1128=PRESENTATION_STYLE_ASSIGNMENT((#1165));
#1129=PRESENTATION_STYLE_ASSIGNMENT((#1166));
#1130=PRESENTATION_STYLE_ASSIGNMENT((#1167));
#1131=PRESENTATION_STYLE_ASSIGNMENT((#1168));
#1132=PRESENTATION_STYLE_ASSIGNMENT((#1169));
#1133=PRESENTATION_STYLE_ASSIGNMENT((#1170));
#1134=PRESENTATION_STYLE_ASSIGNMENT((#1171));
#1135=PRESENTATION_STYLE_ASSIGNMENT((#1172));
#1136=PRESENTATION_STYLE_ASSIGNMENT((#1173));
#1137=PRESENTATION_STYLE_ASSIGNMENT((#1174));
#1138=PRESENTATION_STYLE_ASSIGNMENT((#1175));
#1139=PRESENTATION_STYLE_ASSIGNMENT((#1176));
#1140=PRESENTATION_STYLE_ASSIGNMENT((#1177));
#1141=PRESENTATION_STYLE_ASSIGNMENT((#1178));
#1142=PRESENTATION_STYLE_ASSIGNMENT((#1179));
#1143=PRESENTATION_STYLE_ASSIGNMENT((#1180));
#1144=PRESENTATION_STYLE_ASSIGNMENT((#1181));
#1145=PRESENTATION_STYLE_ASSIGNMENT((#1182));
#1146=PRESENTATION_STYLE_ASSIGNMENT((#1183));
#1147=PRESENTATION_STYLE_ASSIGNMENT((#1184));
#1148=PRESENTATION_STYLE_ASSIGNMENT((#1185));
#1149=PRESENTATION_STYLE_ASSIGNMENT((#1186));
#1150=PRESENTATION_STYLE_ASSIGNMENT((#1187));
#1151=PRESENTATION_STYLE_ASSIGNMENT((#1188));
#1152=PRESENTATION_STYLE_ASSIGNMENT((#1189));
#1153=PRESENTATION_STYLE_ASSIGNMENT((#1190));
#1154=PRESENTATION_STYLE_ASSIGNMENT((#1191));
#1155=PRESENTATION_STYLE_ASSIGNMENT((#1192));
#1156=PRESENTATION_STYLE_ASSIGNMENT((#1193));
#1157=PRESENTATION_STYLE_ASSIGNMENT((#1194));
#1158=PRESENTATION_STYLE_ASSIGNMENT((#1195));
#1159=PRESENTATION_STYLE_ASSIGNMENT((#1196));
#1160=PRESENTATION_STYLE_ASSIGNMENT((#1197));
#1161=PRESENTATION_STYLE_ASSIGNMENT((#1198));
#1162=PRESENTATION_STYLE_ASSIGNMENT((#1199));
#1163=PRESENTATION_STYLE_ASSIGNMENT((#1200));
#1164=SURFACE_STYLE_USAGE(.BOTH.,#1201);
#1165=SURFACE_STYLE_USAGE(.BOTH.,#1202);
#1166=SURFACE_STYLE_USAGE(.BOTH.,#1203);
#1167=SURFACE_STYLE_USAGE(.BOTH.,#1204);
#1168=SURFACE_STYLE_USAGE(.BOTH.,#1205);
#1169=SURFACE_STYLE_USAGE(.BOTH.,#1206);
#1170=SURFACE_STYLE_USAGE(.BOTH.,#1207);
#1171=SURFACE_STYLE_USAGE(.BOTH.,#1208);
#1172=SURFACE_STYLE_USAGE(.BOTH.,#1209);
#1173=SURFACE_STYLE_USAGE(.BOTH.,#1210);
#1174=SURFACE_STYLE_USAGE(.BOTH.,#1211);
#1175=SURFACE_STYLE_USAGE(.BOTH.,#1212);
#1176=SURFACE_STYLE_USAGE(.BOTH.,#1213);
#1177=SURFACE_STYLE_USAGE(.BOTH.,#1214);
#1178=SURFACE_STYLE_USAGE(.BOTH.,#1215);
#1179=SURFACE_STYLE_USAGE(.BOTH.,#1216);
#1180=SURFACE_STYLE_USAGE(.BOTH.,#1217);
#1181=SURFACE_STYLE_USAGE(.BOTH.,#1218);
#1182=SURFACE_STYLE_USAGE(.BOTH.,#1219);
#1183=SURFACE_STYLE_USAGE(.BOTH.,#1220);
#1184=SURFACE_STYLE_USAGE(.BOTH.,#1221);
#1185=SURFACE_STYLE_USAGE(.BOTH.,#1222);
#1186=SURFACE_STYLE_USAGE(.BOTH.,#1223);
#1187=SURFACE_STYLE_USAGE(.BOTH.,#1224);
#1188=SURFACE_STYLE_USAGE(.BOTH.,#1225);
#1189=SURFACE_STYLE_USAGE(.BOTH.,#1226);
#1190=SURFACE_STYLE_USAGE(.BOTH.,#1227);
#1191=SURFACE_STYLE_USAGE(.BOTH.,#1228);
#1192=SURFACE_STYLE_USAGE(.BOTH.,#1229);
#1193=SURFACE_STYLE_USAGE(.BOTH.,#1230);
#1194=SURFACE_STYLE_USAGE(.BOTH.,#1231);
#1195=SURFACE_STYLE_USAGE(.BOTH.,#1232);
#1196=SURFACE_STYLE_USAGE(.BOTH.,#1233);
#1197=SURFACE_STYLE_USAGE(.BOTH.,#1234);
#1198=SURFACE_STYLE_USAGE(.BOTH.,#1235);
#1199=SURFACE_STYLE_USAGE(.BOTH.,#1236);
#1200=SURFACE_STYLE_USAGE(.BOTH.,#1237);
#1201=SURFACE_SIDE_STYLE('',(#1238));
#1202=SURFACE_SIDE_STYLE('',(#1239));
#1203=SURFACE_SIDE_STYLE('',(#1240));
#1204=SURFACE_SIDE_STYLE('',(#1241));
#1205=SURFACE_SIDE_STYLE('',(#1242));
#1206=SURFACE_SIDE_STYLE('',(#1243));
#1207=SURFACE_SIDE_STYLE('',(#1244));
#1208=SURFACE_SIDE_STYLE('',(#1245));
#1209=SURFACE_SIDE_STYLE('',(#1246));
#1210=SURFACE_SIDE_STYLE('',(#1247));
#1211=SURFACE_SIDE_STYLE('',(#1248));
#1212=SURFACE_SIDE_STYLE('',(#1249));
#1213=SURFACE_SIDE_STYLE('',(#1250));
#1214=SURFACE_SIDE_STYLE('',(#1251));
#1215=SURFACE_SIDE_STYLE('',(#1252));
#1216=SURFACE_SIDE_STYLE('',(#1253));
#1217=SURFACE_SIDE_STYLE('',(#1254));
#1218=SURFACE_SIDE_STYLE('',(#1255));
#1219=SURFACE_SIDE_STYLE('',(#1256));
#1220=SURFACE_SIDE_STYLE('',(#1257));
#1221=SURFACE_SIDE_STYLE('',(#1258));
#1222=SURFACE_SIDE_STYLE('',(#1259));
#1223=SURFACE_SIDE_STYLE('',(#1260));
#1224=SURFACE_SIDE_STYLE('',(#1261));
#1225=SURFACE_SIDE_STYLE('',(#1262));
#1226=SURFACE_SIDE_STYLE('',(#1263));
#1227=SURFACE_SIDE_STYLE('',(#1264));
#1228=SURFACE_SIDE_STYLE('',(#1265));
#1229=SURFACE_SIDE_STYLE('',(#1266));
#1230=SURFACE_SIDE_STYLE('',(#1267));
#1231=SURFACE_SIDE_STYLE('',(#1268));
#1232=SURFACE_SIDE_STYLE('',(#1269));
#1233=SURFACE_SIDE_STYLE('',(#1270));
#1234=SURFACE_SIDE_STYLE('',(#1271));
#1235=SURFACE_SIDE_STYLE('',(#1272));
#1236=SURFACE_SIDE_STYLE('',(#1273));
#1237=SURFACE_SIDE_STYLE('',(#1274));
#1238=SURFACE_STYLE_FILL_AREA(#1275);
#1239=SURFACE_STYLE_FILL_AREA(#1276);
#1240=SURFACE_STYLE_FILL_AREA(#1277);
#1241=SURFACE_STYLE_FILL_AREA(#1278);
#1242=SURFACE_STYLE_FILL_AREA(#1279);
#1243=SURFACE_STYLE_FILL_AREA(#1280);
#1244=SURFACE_STYLE_FILL_AREA(#1281);
#1245=SURFACE_STYLE_FILL_AREA(#1282);
#1246=SURFACE_STYLE_FILL_AREA(#1283);
#1247=SURFACE_STYLE_FILL_AREA(#1284);
#1248=SURFACE_STYLE_FILL_AREA(#1285);
#1249=SURFACE_STYLE_FILL_AREA(#1286);
#1250=SURFACE_STYLE_FILL_AREA(#1287);
#1251=SURFACE_STYLE_FILL_AREA(#1288);
#1252=SURFACE_STYLE_FILL_AREA(#1289);
#1253=SURFACE_STYLE_FILL_AREA(#1290);
#1254=SURFACE_STYLE_FILL_AREA(#1291);
#1255=SURFACE_STYLE_FILL_AREA(#1292);
#1256=SURFACE_STYLE_FILL_AREA(#1293);
#1257=SURFACE_STYLE_FILL_AREA(#1294);
#1258=SURFACE_STYLE_FILL_AREA(#1295);
#1259=SURFACE_STYLE_FILL_AREA(#1296);
#1260=SURFACE_STYLE_FILL_AREA(#1297);
#1261=SURFACE_STYLE_FILL_AREA(#1298);
#1262=SURFACE_STYLE_FILL_AREA(#1299);
#1263=SURFACE_STYLE_FILL_AREA(#1300);
#1264=SURFACE_STYLE_FILL_AREA(#1301);
#1265=SURFACE_STYLE_FILL_AREA(#1302);
#1266=SURFACE_STYLE_FILL_AREA(#1303);
#1267=SURFACE_STYLE_FILL_AREA(#1304);
#1268=SURFACE_STYLE_FILL_AREA(#1305);
#1269=SURFACE_STYLE_FILL_AREA(#1306);
#1270=SURFACE_STYLE_FILL_AREA(#1307);
#1271=SURFACE_STYLE_FILL_AREA(#1308);
#1272=SURFACE_STYLE_FILL_AREA(#1309);
#1273=SURFACE_STYLE_FILL_AREA(#1310);
#1274=SURFACE_STYLE_FILL_AREA(#1311);
#1275=FILL_AREA_STYLE('',(#1312));
#1276=FILL_AREA_STYLE('',(#1313));
#1277=FILL_AREA_STYLE('',(#1314));
#1278=FILL_AREA_STYLE('',(#1315));
#1279=FILL_AREA_STYLE('',(#1316));
#1280=FILL_AREA_STYLE('',(#1317));
#1281=FILL_AREA_STYLE('',(#1318));
#1282=FILL_AREA_STYLE('',(#1319));
#1283=FILL_AREA_STYLE('',(#1320));
#1284=FILL_AREA_STYLE('',(#1321));
#1285=FILL_AREA_STYLE('',(#1322));
#1286=FILL_AREA_STYLE('',(#1323));
#1287=FILL_AREA_STYLE('',(#1324));
#1288=FILL_AREA_STYLE('',(#1325));
#1289=FILL_AREA_STYLE('',(#1326));
#1290=FILL_AREA_STYLE('',(#1327));
#1291=FILL_AREA_STYLE('',(#1328));
#1292=FILL_AREA_STYLE('',(#1329));
#1293=FILL_AREA_STYLE('',(#1330));
#1294=FILL_AREA_STYLE('',(#1331));
#1295=FILL_AREA_STYLE('',(#1332));
#1296=FILL_AREA_STYLE('',(#1333));
#1297=FILL_AREA_STYLE('',(#1334));
#1298=FILL_AREA_STYLE('',(#1335));
#1299=FILL_AREA_STYLE('',(#1336));
#1300=FILL_AREA_STYLE('',(#1337));
#1301=FILL_AREA_STYLE('',(#1338));
#1302=FILL_AREA_STYLE('',(#1339));
#1303=FILL_AREA_STYLE('',(#1340));
#1304=FILL_AREA_STYLE('',(#1341));
#1305=FILL_AREA_STYLE('',(#1342));
#1306=FILL_AREA_STYLE('',(#1343));
#1307=FILL_AREA_STYLE('',(#1344));
#1308=FILL_AREA_STYLE('',(#1345));
#1309=FILL_AREA_STYLE('',(#1346));
#1310=FILL_AREA_STYLE('',(#1347));
#1311=FILL_AREA_STYLE('',(#1348));
#1312=FILL_AREA_STYLE_COLOUR('',#1349);
#1313=FILL_AREA_STYLE_COLOUR('',#1350);
#1314=FILL_AREA_STYLE_COLOUR('',#1350);
#1315=FILL_AREA_STYLE_COLOUR('',#1350);
#1316=FILL_AREA_STYLE_COLOUR('',#1350);
#1317=FILL_AREA_STYLE_COLOUR('',#1350);
#1318=FILL_AREA_STYLE_COLOUR('',#1350);
#1319=FILL_AREA_STYLE_COLOUR('',#1350);
#1320=FILL_AREA_STYLE_COLOUR('',#1350);
#1321=FILL_AREA_STYLE_COLOUR('',#1350);
#1322=FILL_AREA_STYLE_COLOUR('',#1350);
#1323=FILL_AREA_STYLE_COLOUR('',#1350);
#1324=FILL_AREA_STYLE_COLOUR('',#1350);
#1325=FILL_AREA_STYLE_COLOUR('',#1350);
#1326=FILL_AREA_STYLE_COLOUR('',#1350);
#1327=FILL_AREA_STYLE_COLOUR('',#1350);
#1328=FILL_AREA_STYLE_COLOUR('',#12);
#1329=FILL_AREA_STYLE_COLOUR('',#12);
#1330=FILL_AREA_STYLE_COLOUR('',#12);
#1331=FILL_AREA_STYLE_COLOUR('',#12);
#1332=FILL_AREA_STYLE_COLOUR('',#12);
#1333=FILL_AREA_STYLE_COLOUR('',#1350);
#1334=FILL_AREA_STYLE_COLOUR('',#1350);
#1335=FILL_AREA_STYLE_COLOUR('',#1350);
#1336=FILL_AREA_STYLE_COLOUR('',#1350);
#1337=FILL_AREA_STYLE_COLOUR('',#1350);
#1338=FILL_AREA_STYLE_COLOUR('',#1350);
#1339=FILL_AREA_STYLE_COLOUR('',#1350);
#1340=FILL_AREA_STYLE_COLOUR('',#1350);
#1341=FILL_AREA_STYLE_COLOUR('',#1350);
#1342=FILL_AREA_STYLE_COLOUR('',#1350);
#1343=FILL_AREA_STYLE_COLOUR('',#1350);
#1344=FILL_AREA_STYLE_COLOUR('',#1350);
#1345=FILL_AREA_STYLE_COLOUR('',#1350);
#1346=FILL_AREA_STYLE_COLOUR('',#1350);
#1347=FILL_AREA_STYLE_COLOUR('',#1350);
#1348=FILL_AREA_STYLE_COLOUR('',#1350);
#1349=COLOUR_RGB('',0.301960784313725,0.301960784313725,0.301960784313725);
#1350=COLOUR_RGB('',0.752941176470588,0.752941176470588,0.752941176470588);
#1351=MANIFOLD_SOLID_BREP('Limit Sw w Swivel',#1125);
#1352=SHAPE_DEFINITION_REPRESENTATION(#2032,#1353);
#1353=SHAPE_REPRESENTATION('Limit Sw w Swivel',(#1354),#2027);
#1354=AXIS2_PLACEMENT_3D('',#1721,#1435,#1436);
#1355=AXIS2_PLACEMENT_3D('',#1722,#1437,#1438);
#1356=AXIS2_PLACEMENT_3D('',#1739,#1447,#1448);
#1357=AXIS2_PLACEMENT_3D('',#1756,#1457,#1458);
#1358=AXIS2_PLACEMENT_3D('',#1773,#1467,#1468);
#1359=AXIS2_PLACEMENT_3D('',#1779,#1472,#1473);
#1360=AXIS2_PLACEMENT_3D('',#1801,#1485,#1486);
#1361=AXIS2_PLACEMENT_3D('',#1804,#1489,#1490);
#1362=AXIS2_PLACEMENT_3D('',#1805,#1491,#1492);
#1363=AXIS2_PLACEMENT_3D('',#1807,#1493,#1494);
#1364=AXIS2_PLACEMENT_3D('',#1809,#1495,#1496);
#1365=AXIS2_PLACEMENT_3D('',#1810,#1497,#1498);
#1366=AXIS2_PLACEMENT_3D('',#1812,#1499,#1500);
#1367=AXIS2_PLACEMENT_3D('',#1814,#1501,#1502);
#1368=AXIS2_PLACEMENT_3D('',#1825,#1509,#1510);
#1369=AXIS2_PLACEMENT_3D('',#1836,#1517,#1518);
#1370=AXIS2_PLACEMENT_3D('',#1842,#1522,#1523);
#1371=AXIS2_PLACEMENT_3D('',#1846,#1526,#1527);
#1372=AXIS2_PLACEMENT_3D('',#1850,#1530,#1531);
#1373=AXIS2_PLACEMENT_3D('',#1852,#1533,#1534);
#1374=AXIS2_PLACEMENT_3D('',#1853,#1535,#1536);
#1375=AXIS2_PLACEMENT_3D('',#1859,#1540,#1541);
#1376=AXIS2_PLACEMENT_3D('',#1863,#1544,#1545);
#1377=AXIS2_PLACEMENT_3D('',#1867,#1548,#1549);
#1378=AXIS2_PLACEMENT_3D('',#1869,#1551,#1552);
#1379=AXIS2_PLACEMENT_3D('',#1870,#1553,#1554);
#1380=AXIS2_PLACEMENT_3D('',#1876,#1558,#1559);
#1381=AXIS2_PLACEMENT_3D('',#1880,#1562,#1563);
#1382=AXIS2_PLACEMENT_3D('',#1884,#1566,#1567);
#1383=AXIS2_PLACEMENT_3D('',#1886,#1569,#1570);
#1384=AXIS2_PLACEMENT_3D('',#1887,#1571,#1572);
#1385=AXIS2_PLACEMENT_3D('',#1890,#1575,#1576);
#1386=AXIS2_PLACEMENT_3D('',#1893,#1579,#1580);
#1387=AXIS2_PLACEMENT_3D('',#1894,#1581,#1582);
#1388=AXIS2_PLACEMENT_3D('',#1895,#1583,#1584);
#1389=AXIS2_PLACEMENT_3D('',#1896,#1585,#1586);
#1390=AXIS2_PLACEMENT_3D('',#1897,#1587,#1588);
#1391=AXIS2_PLACEMENT_3D('',#1903,#1592,#1593);
#1392=AXIS2_PLACEMENT_3D('',#1906,#1595,#1596);
#1393=AXIS2_PLACEMENT_3D('',#1907,#1597,#1598);
#1394=AXIS2_PLACEMENT_3D('',#1911,#1601,#1602);
#1395=AXIS2_PLACEMENT_3D('',#1912,#1603,#1604);
#1396=AXIS2_PLACEMENT_3D('',#1913,#1605,#1606);
#1397=AXIS2_PLACEMENT_3D('',#1914,#1607,#1608);
#1398=AXIS2_PLACEMENT_3D('',#1931,#1617,#1618);
#1399=AXIS2_PLACEMENT_3D('',#1937,#1622,#1623);
#1400=AXIS2_PLACEMENT_3D('',#1938,#1624,#1625);
#1401=AXIS2_PLACEMENT_3D('',#1942,#1627,#1628);
#1402=AXIS2_PLACEMENT_3D('',#1943,#1629,#1630);
#1403=AXIS2_PLACEMENT_3D('',#1946,#1633,#1634);
#1404=AXIS2_PLACEMENT_3D('',#1952,#1638,#1639);
#1405=AXIS2_PLACEMENT_3D('',#1953,#1640,#1641);
#1406=AXIS2_PLACEMENT_3D('',#1957,#1643,#1644);
#1407=AXIS2_PLACEMENT_3D('',#1958,#1645,#1646);
#1408=AXIS2_PLACEMENT_3D('',#1969,#1653,#1654);
#1409=AXIS2_PLACEMENT_3D('',#1972,#1656,#1657);
#1410=AXIS2_PLACEMENT_3D('',#1973,#1658,#1659);
#1411=AXIS2_PLACEMENT_3D('',#1974,#1660,#1661);
#1412=AXIS2_PLACEMENT_3D('',#1977,#1663,#1664);
#1413=AXIS2_PLACEMENT_3D('',#1981,#1667,#1668);
#1414=AXIS2_PLACEMENT_3D('',#1982,#1669,#1670);
#1415=AXIS2_PLACEMENT_3D('',#1983,#1671,#1672);
#1416=AXIS2_PLACEMENT_3D('',#1984,#1673,#1674);
#1417=AXIS2_PLACEMENT_3D('',#1986,#1675,#1676);
#1418=AXIS2_PLACEMENT_3D('',#1990,#1679,#1680);
#1419=AXIS2_PLACEMENT_3D('',#1991,#1681,#1682);
#1420=AXIS2_PLACEMENT_3D('',#1992,#1683,#1684);
#1421=AXIS2_PLACEMENT_3D('',#1993,#1685,#1686);
#1422=AXIS2_PLACEMENT_3D('',#1995,#1687,#1688);
#1423=AXIS2_PLACEMENT_3D('',#1999,#1690,#1691);
#1424=AXIS2_PLACEMENT_3D('',#2003,#1693,#1694);
#1425=AXIS2_PLACEMENT_3D('',#2004,#1695,#1696);
#1426=AXIS2_PLACEMENT_3D('',#2005,#1697,#1698);
#1427=AXIS2_PLACEMENT_3D('',#2010,#1700,#1701);
#1428=AXIS2_PLACEMENT_3D('',#2013,#1703,#1704);
#1429=AXIS2_PLACEMENT_3D('',#2016,#1707,#1708);
#1430=AXIS2_PLACEMENT_3D('',#2019,#1711,#1712);
#1431=AXIS2_PLACEMENT_3D('',#2020,#1713,#1714);
#1432=AXIS2_PLACEMENT_3D('',#2022,#1715,#1716);
#1433=AXIS2_PLACEMENT_3D('',#2024,#1717,#1718);
#1434=AXIS2_PLACEMENT_3D('',#2025,#1719,#1720);
#1435=DIRECTION('',(0.,0.,1.));
#1436=DIRECTION('',(1.,0.,0.));
#1437=DIRECTION('',(0.,-1.,0.));
#1438=DIRECTION('',(-1.,0.,0.));
#1439=DIRECTION('',(3.25260651745651E-16,0.,1.));
#1440=DIRECTION('',(-1.,0.,1.35525271560688E-16));
#1441=DIRECTION('',(3.25260651745651E-16,0.,1.));
#1442=DIRECTION('',(-1.,0.,1.35525271560688E-16));
#1443=DIRECTION('',(-1.,0.,0.));
#1444=DIRECTION('',(0.,0.,1.));
#1445=DIRECTION('',(-1.,0.,0.));
#1446=DIRECTION('',(0.,0.,1.));
#1447=DIRECTION('',(0.,-1.,0.));
#1448=DIRECTION('',(-1.,0.,0.));
#1449=DIRECTION('',(0.,0.,1.));
#1450=DIRECTION('',(-1.,0.,1.35525271560688E-16));
#1451=DIRECTION('',(0.,0.,1.));
#1452=DIRECTION('',(-1.,0.,1.35525271560688E-16));
#1453=DIRECTION('',(-1.,0.,0.));
#1454=DIRECTION('',(0.,0.,1.));
#1455=DIRECTION('',(-1.,0.,0.));
#1456=DIRECTION('',(0.,0.,-1.));
#1457=DIRECTION('',(0.,-1.,0.));
#1458=DIRECTION('',(-1.,0.,0.));
#1459=DIRECTION('',(0.,0.,1.));
#1460=DIRECTION('',(-1.,0.,0.));
#1461=DIRECTION('',(0.,0.,-1.));
#1462=DIRECTION('',(-1.,0.,0.));
#1463=DIRECTION('',(0.,0.,1.));
#1464=DIRECTION('',(1.,0.,1.35525271560688E-16));
#1465=DIRECTION('',(0.,0.,1.));
#1466=DIRECTION('',(1.,0.,1.35525271560688E-16));
#1467=DIRECTION('',(1.,0.,0.));
#1468=DIRECTION('',(0.,-1.,0.));
#1469=DIRECTION('',(0.,-1.,0.));
#1470=DIRECTION('',(0.,0.,-1.));
#1471=DIRECTION('',(0.,-1.,0.));
#1472=DIRECTION('',(0.,-1.,0.));
#1473=DIRECTION('',(-1.,0.,0.));
#1474=DIRECTION('',(0.,0.,-1.));
#1475=DIRECTION('',(-1.,0.,0.));
#1476=DIRECTION('',(0.,0.,-1.));
#1477=DIRECTION('',(-1.,0.,0.));
#1478=DIRECTION('',(-1.,0.,0.));
#1479=DIRECTION('',(0.,0.,1.));
#1480=DIRECTION('',(-1.,0.,0.));
#1481=DIRECTION('',(0.,0.,1.));
#1482=DIRECTION('',(-1.,0.,0.));
#1483=DIRECTION('',(0.,0.,-1.));
#1484=DIRECTION('',(-1.,0.,0.));
#1485=DIRECTION('',(1.,0.,0.));
#1486=DIRECTION('',(0.,-1.,0.));
#1487=DIRECTION('',(0.,-1.,0.));
#1488=DIRECTION('',(0.,-1.,0.));
#1489=DIRECTION('',(0.,0.,-1.));
#1490=DIRECTION('',(0.,1.,0.));
#1491=DIRECTION('',(0.,0.,1.));
#1492=DIRECTION('',(0.,-1.,0.));
#1493=DIRECTION('',(0.,0.,1.));
#1494=DIRECTION('',(0.,-1.,0.));
#1495=DIRECTION('',(0.,0.,-1.));
#1496=DIRECTION('',(0.,1.,0.));
#1497=DIRECTION('',(0.,0.,-1.));
#1498=DIRECTION('',(0.,-1.,0.));
#1499=DIRECTION('',(0.,0.,-1.));
#1500=DIRECTION('',(0.,-1.,0.));
#1501=DIRECTION('',(0.,0.,1.));
#1502=DIRECTION('',(1.,0.,0.));
#1503=DIRECTION('',(-0.707106781186548,0.707106781186548,0.));
#1504=DIRECTION('',(-1.,0.,0.));
#1505=DIRECTION('',(0.707106781186548,0.707106781186548,0.));
#1506=DIRECTION('',(-0.707106781186548,0.707106781186548,0.));
#1507=DIRECTION('',(-1.,0.,0.));
#1508=DIRECTION('',(0.707106781186548,0.707106781186548,0.));
#1509=DIRECTION('',(0.,0.,1.));
#1510=DIRECTION('',(1.,0.,0.));
#1511=DIRECTION('',(-1.,0.,0.));
#1512=DIRECTION('',(0.707106781186548,-0.707106781186548,0.));
#1513=DIRECTION('',(-0.707106781186548,-0.707106781186548,0.));
#1514=DIRECTION('',(-1.,0.,0.));
#1515=DIRECTION('',(0.707106781186548,-0.707106781186548,0.));
#1516=DIRECTION('',(-0.707106781186548,-0.707106781186548,0.));
#1517=DIRECTION('',(-1.35525271560688E-16,0.,-1.));
#1518=DIRECTION('',(-1.,0.,1.35525271560688E-16));
#1519=DIRECTION('',(0.,1.,0.));
#1520=DIRECTION('',(-1.,0.,1.35525271560688E-16));
#1521=DIRECTION('',(0.,1.,0.));
#1522=DIRECTION('',(-1.,0.,3.25260651745651E-16));
#1523=DIRECTION('',(3.25260651745651E-16,0.,1.));
#1524=DIRECTION('',(0.,1.,0.));
#1525=DIRECTION('',(3.25260651745651E-16,0.,1.));
#1526=DIRECTION('',(-1.35525271560688E-16,0.,-1.));
#1527=DIRECTION('',(-1.,0.,1.35525271560688E-16));
#1528=DIRECTION('',(0.,1.,0.));
#1529=DIRECTION('',(-1.,0.,1.35525271560688E-16));
#1530=DIRECTION('',(-1.,0.,3.25260651745651E-16));
#1531=DIRECTION('',(3.25260651745651E-16,0.,1.));
#1532=DIRECTION('',(3.25260651745651E-16,0.,1.));
#1533=DIRECTION('',(0.,-1.,0.));
#1534=DIRECTION('',(1.,0.,0.));
#1535=DIRECTION('',(-1.35525271560688E-16,0.,1.));
#1536=DIRECTION('',(1.,0.,1.35525271560688E-16));
#1537=DIRECTION('',(0.,1.,0.));
#1538=DIRECTION('',(1.,0.,1.35525271560688E-16));
#1539=DIRECTION('',(0.,1.,0.));
#1540=DIRECTION('',(-1.,0.,0.));
#1541=DIRECTION('',(0.,1.,0.));
#1542=DIRECTION('',(0.,1.,0.));
#1543=DIRECTION('',(0.,0.,1.));
#1544=DIRECTION('',(-1.35525271560688E-16,0.,1.));
#1545=DIRECTION('',(1.,0.,1.35525271560688E-16));
#1546=DIRECTION('',(0.,1.,0.));
#1547=DIRECTION('',(1.,0.,1.35525271560688E-16));
#1548=DIRECTION('',(-1.,0.,0.));
#1549=DIRECTION('',(0.,1.,0.));
#1550=DIRECTION('',(0.,0.,1.));
#1551=DIRECTION('',(0.,-1.,0.));
#1552=DIRECTION('',(1.,0.,0.));
#1553=DIRECTION('',(-1.35525271560688E-16,0.,-1.));
#1554=DIRECTION('',(-1.,0.,1.35525271560688E-16));
#1555=DIRECTION('',(0.,1.,0.));
#1556=DIRECTION('',(-1.,0.,1.35525271560688E-16));
#1557=DIRECTION('',(0.,1.,0.));
#1558=DIRECTION('',(-1.,0.,0.));
#1559=DIRECTION('',(0.,1.,0.));
#1560=DIRECTION('',(0.,1.,0.));
#1561=DIRECTION('',(0.,0.,1.));
#1562=DIRECTION('',(-1.35525271560688E-16,0.,-1.));
#1563=DIRECTION('',(-1.,0.,1.35525271560688E-16));
#1564=DIRECTION('',(0.,1.,0.));
#1565=DIRECTION('',(-1.,0.,1.35525271560688E-16));
#1566=DIRECTION('',(-1.,0.,0.));
#1567=DIRECTION('',(0.,1.,0.));
#1568=DIRECTION('',(0.,0.,1.));
#1569=DIRECTION('',(0.,-1.,0.));
#1570=DIRECTION('',(1.,0.,0.));
#1571=DIRECTION('',(0.,-1.,0.));
#1572=DIRECTION('',(1.,0.,0.));
#1573=DIRECTION('',(0.,0.,-1.));
#1574=DIRECTION('',(0.,0.,1.));
#1575=DIRECTION('',(0.,-1.,0.));
#1576=DIRECTION('',(1.,0.,0.));
#1577=DIRECTION('',(0.,0.,-1.));
#1578=DIRECTION('',(0.,0.,1.));
#1579=DIRECTION('',(0.707106781186548,0.707106781186548,0.));
#1580=DIRECTION('',(0.,0.,1.));
#1581=DIRECTION('',(0.707106781186548,-0.707106781186548,0.));
#1582=DIRECTION('',(0.,0.,-1.));
#1583=DIRECTION('',(0.707106781186548,0.707106781186548,0.));
#1584=DIRECTION('',(0.,0.,1.));
#1585=DIRECTION('',(0.707106781186548,-0.707106781186548,0.));
#1586=DIRECTION('',(0.,0.,-1.));
#1587=DIRECTION('',(1.,0.,0.));
#1588=DIRECTION('',(0.,-1.,0.));
#1589=DIRECTION('',(0.,-1.,0.));
#1590=DIRECTION('',(0.,0.,1.));
#1591=DIRECTION('',(0.,-1.,0.));
#1592=DIRECTION('',(0.,0.,1.));
#1593=DIRECTION('',(0.,-1.,0.));
#1594=DIRECTION('',(0.,-1.,0.));
#1595=DIRECTION('',(0.,0.,1.));
#1596=DIRECTION('',(0.,-1.,0.));
#1597=DIRECTION('',(1.,0.,0.));
#1598=DIRECTION('',(0.,-1.,0.));
#1599=DIRECTION('',(0.,-1.,0.));
#1600=DIRECTION('',(0.,0.,1.));
#1601=DIRECTION('',(0.,0.,1.));
#1602=DIRECTION('',(0.,-1.,0.));
#1603=DIRECTION('',(0.,0.,1.));
#1604=DIRECTION('',(0.,-1.,0.));
#1605=DIRECTION('',(0.,0.,1.));
#1606=DIRECTION('',(0.,-1.,0.));
#1607=DIRECTION('',(-0.937945682250041,0.346782204198118,0.));
#1608=DIRECTION('',(0.346782204198118,0.937945682250041,0.));
#1609=DIRECTION('',(0.346782204198118,0.937945682250041,0.));
#1610=DIRECTION('',(0.,0.,-1.));
#1611=DIRECTION('',(0.346782204198118,0.937945682250041,0.));
#1612=DIRECTION('',(0.,0.,1.));
#1613=DIRECTION('',(0.346782204198118,0.937945682250041,0.));
#1614=DIRECTION('',(0.,0.,-1.));
#1615=DIRECTION('',(0.346782204198118,0.937945682250041,0.));
#1616=DIRECTION('',(0.,0.,-1.));
#1617=DIRECTION('',(-0.34678220419812,-0.93794568225004,0.));
#1618=DIRECTION('',(-0.937945682250041,0.34678220419812,0.));
#1619=DIRECTION('',(-0.93794568225004,0.34678220419812,0.));
#1620=DIRECTION('',(0.,0.,-1.));
#1621=DIRECTION('',(-0.93794568225004,0.34678220419812,0.));
#1622=DIRECTION('',(0.,0.,-1.));
#1623=DIRECTION('',(0.,1.,0.));
#1624=DIRECTION('',(0.,0.,-1.));
#1625=DIRECTION('',(0.,-1.,0.));
#1626=DIRECTION('',(0.,0.,-1.));
#1627=DIRECTION('',(0.,0.,-1.));
#1628=DIRECTION('',(0.,-1.,0.));
#1629=DIRECTION('',(-1.,0.,0.));
#1630=DIRECTION('',(0.,1.,0.));
#1631=DIRECTION('',(0.,1.,0.));
#1632=DIRECTION('',(0.,1.,0.));
#1633=DIRECTION('',(-1.,0.,0.));
#1634=DIRECTION('',(0.,1.,0.));
#1635=DIRECTION('',(0.,1.,0.));
#1636=DIRECTION('',(0.,0.,-1.));
#1637=DIRECTION('',(0.,1.,0.));
#1638=DIRECTION('',(0.,0.,-1.));
#1639=DIRECTION('',(0.,1.,0.));
#1640=DIRECTION('',(0.,0.,-1.));
#1641=DIRECTION('',(0.,-1.,0.));
#1642=DIRECTION('',(0.,0.,-1.));
#1643=DIRECTION('',(0.,0.,-1.));
#1644=DIRECTION('',(0.,-1.,0.));
#1645=DIRECTION('',(0.34678220419812,0.93794568225004,0.));
#1646=DIRECTION('',(0.937945682250041,-0.34678220419812,0.));
#1647=DIRECTION('',(0.,0.,-1.));
#1648=DIRECTION('',(-0.93794568225004,0.34678220419812,0.));
#1649=DIRECTION('',(-0.93794568225004,0.34678220419812,0.));
#1650=DIRECTION('',(0.,0.,1.));
#1651=DIRECTION('',(0.93794568225004,-0.34678220419812,0.));
#1652=DIRECTION('',(0.93794568225004,-0.34678220419812,0.));
#1653=DIRECTION('',(0.,0.,1.));
#1654=DIRECTION('',(1.,0.,0.));
#1655=DIRECTION('',(0.346782204198118,0.937945682250041,0.));
#1656=DIRECTION('',(0.,0.,1.));
#1657=DIRECTION('',(0.,-1.,0.));
#1658=DIRECTION('',(0.,0.,1.));
#1659=DIRECTION('',(1.,0.,0.));
#1660=DIRECTION('',(0.,0.,1.));
#1661=DIRECTION('',(0.,-1.,0.));
#1662=DIRECTION('',(0.346782204198118,0.937945682250041,0.));
#1663=DIRECTION('',(0.937945682250041,-0.346782204198118,0.));
#1664=DIRECTION('',(-0.346782204198118,-0.937945682250041,0.));
#1665=DIRECTION('',(0.346782204198118,0.937945682250041,0.));
#1666=DIRECTION('',(0.,0.,1.));
#1667=DIRECTION('',(0.,0.,1.));
#1668=DIRECTION('',(0.,-1.,0.));
#1669=DIRECTION('',(0.,0.,1.));
#1670=DIRECTION('',(0.,-1.,0.));
#1671=DIRECTION('',(0.,0.,1.));
#1672=DIRECTION('',(1.,0.,0.));
#1673=DIRECTION('',(0.,0.,1.));
#1674=DIRECTION('',(0.,-1.,0.));
#1675=DIRECTION('',(-0.937945682250041,0.346782204198118,0.));
#1676=DIRECTION('',(0.346782204198118,0.937945682250041,0.));
#1677=DIRECTION('',(0.,0.,-1.));
#1678=DIRECTION('',(0.346782204198118,0.937945682250041,0.));
#1679=DIRECTION('',(0.,0.,-1.));
#1680=DIRECTION('',(0.,1.,0.));
#1681=DIRECTION('',(0.,0.,1.));
#1682=DIRECTION('',(0.,-1.,0.));
#1683=DIRECTION('',(0.,0.,-1.));
#1684=DIRECTION('',(1.,0.,0.));
#1685=DIRECTION('',(0.,0.,-1.));
#1686=DIRECTION('',(0.,1.,0.));
#1687=DIRECTION('',(0.,0.,-1.));
#1688=DIRECTION('',(0.,1.,0.));
#1689=DIRECTION('',(0.,0.,-1.));
#1690=DIRECTION('',(0.,0.,1.));
#1691=DIRECTION('',(0.,-1.,0.));
#1692=DIRECTION('',(0.,0.,-1.));
#1693=DIRECTION('',(0.,0.,1.));
#1694=DIRECTION('',(0.,-1.,0.));
#1695=DIRECTION('',(0.,0.,-1.));
#1696=DIRECTION('',(0.,1.,0.));
#1697=DIRECTION('',(0.,0.,1.));
#1698=DIRECTION('',(0.,-1.,0.));
#1699=DIRECTION('',(0.,0.,-1.));
#1700=DIRECTION('',(0.,0.,1.));
#1701=DIRECTION('',(0.,-1.,0.));
#1702=DIRECTION('',(0.,0.,-1.));
#1703=DIRECTION('',(0.346782204198119,0.937945682250041,0.));
#1704=DIRECTION('',(0.937945682250041,-0.346782204198119,0.));
#1705=DIRECTION('',(0.937945682250041,-0.346782204198119,0.));
#1706=DIRECTION('',(0.937945682250041,-0.346782204198119,0.));
#1707=DIRECTION('',(0.34678220419812,0.937945682250041,0.));
#1708=DIRECTION('',(0.937945682250041,-0.34678220419812,0.));
#1709=DIRECTION('',(0.93794568225004,-0.34678220419812,0.));
#1710=DIRECTION('',(0.93794568225004,-0.34678220419812,0.));
#1711=DIRECTION('',(0.,0.,-1.));
#1712=DIRECTION('',(0.,1.,0.));
#1713=DIRECTION('',(0.,0.,1.));
#1714=DIRECTION('',(0.,-1.,0.));
#1715=DIRECTION('',(0.,0.,1.));
#1716=DIRECTION('',(0.,-1.,0.));
#1717=DIRECTION('',(0.,0.,1.));
#1718=DIRECTION('',(1.,0.,0.));
#1719=DIRECTION('',(0.,0.,1.));
#1720=DIRECTION('',(1.,0.,0.));
#1721=CARTESIAN_POINT('',(0.,0.,0.));
#1722=CARTESIAN_POINT('',(0.,-0.00325,0.0029));
#1723=CARTESIAN_POINT('',(0.0004,-0.00325,0.));
#1724=CARTESIAN_POINT('',(0.0004,-0.00325,-0.00025));
#1725=CARTESIAN_POINT('',(0.0004,-0.00325,0.00025));
#1726=CARTESIAN_POINT('',(0.,-0.00325,-0.00025));
#1727=CARTESIAN_POINT('',(-0.0004,-0.00325,-0.00025));
#1728=CARTESIAN_POINT('',(-0.0004,-0.00325,5.42101086242752E-20));
#1729=CARTESIAN_POINT('',(-0.0004,-0.00325,0.00025));
#1730=CARTESIAN_POINT('',(1.0842021724855E-19,-0.00325,0.00025));
#1731=CARTESIAN_POINT('',(0.,-0.00325,-0.0029));
#1732=CARTESIAN_POINT('',(0.002,-0.00325,-0.0029));
#1733=CARTESIAN_POINT('',(-0.002,-0.00325,-0.0029));
#1734=CARTESIAN_POINT('',(0.002,-0.00325,0.));
#1735=CARTESIAN_POINT('',(0.002,-0.00325,0.0029));
#1736=CARTESIAN_POINT('',(0.,-0.00325,0.0029));
#1737=CARTESIAN_POINT('',(-0.002,-0.00325,0.0029));
#1738=CARTESIAN_POINT('',(-0.002,-0.00325,0.));
#1739=CARTESIAN_POINT('',(0.,-0.00325,0.0029));
#1740=CARTESIAN_POINT('',(-0.00469,-0.00325,-3.25260651745652E-19));
#1741=CARTESIAN_POINT('',(-0.00469,-0.00325,-0.00025));
#1742=CARTESIAN_POINT('',(-0.00469,-0.00325,0.00025));
#1743=CARTESIAN_POINT('',(-0.00509,-0.00325,-0.00025));
#1744=CARTESIAN_POINT('',(-0.00549,-0.00325,-0.00025));
#1745=CARTESIAN_POINT('',(-0.00549,-0.00325,-1.62630325872826E-19));
#1746=CARTESIAN_POINT('',(-0.00549,-0.00325,0.00025));
#1747=CARTESIAN_POINT('',(-0.00509,-0.00325,0.00025));
#1748=CARTESIAN_POINT('',(0.,-0.00325,-0.0029));
#1749=CARTESIAN_POINT('',(-0.0045,-0.00325,-0.0029));
#1750=CARTESIAN_POINT('',(-0.0065,-0.00325,-0.0029));
#1751=CARTESIAN_POINT('',(-0.0045,-0.00325,0.));
#1752=CARTESIAN_POINT('',(-0.0045,-0.00325,0.0029));
#1753=CARTESIAN_POINT('',(0.,-0.00325,0.0029));
#1754=CARTESIAN_POINT('',(-0.0065,-0.00325,0.0029));
#1755=CARTESIAN_POINT('',(-0.0065,-0.00325,0.0029));
#1756=CARTESIAN_POINT('',(0.,-0.00325,0.0029));
#1757=CARTESIAN_POINT('',(0.0045,-0.00325,0.));
#1758=CARTESIAN_POINT('',(0.0045,-0.00325,-0.0029));
#1759=CARTESIAN_POINT('',(0.0045,-0.00325,0.0029));
#1760=CARTESIAN_POINT('',(0.,-0.00325,-0.0029));
#1761=CARTESIAN_POINT('',(0.0065,-0.00325,-0.0029));
#1762=CARTESIAN_POINT('',(0.0065,-0.00325,0.0029));
#1763=CARTESIAN_POINT('',(0.0065,-0.00325,0.0029));
#1764=CARTESIAN_POINT('',(0.,-0.00325,0.0029));
#1765=CARTESIAN_POINT('',(0.00469,-0.00325,-3.25260651745652E-19));
#1766=CARTESIAN_POINT('',(0.00469,-0.00325,-0.00025));
#1767=CARTESIAN_POINT('',(0.00469,-0.00325,0.00025));
#1768=CARTESIAN_POINT('',(0.00509,-0.00325,0.00025));
#1769=CARTESIAN_POINT('',(0.00549,-0.00325,0.00025));
#1770=CARTESIAN_POINT('',(0.00549,-0.00325,-1.62630325872826E-19));
#1771=CARTESIAN_POINT('',(0.00549,-0.00325,-0.00025));
#1772=CARTESIAN_POINT('',(0.00509,-0.00325,-0.00025));
#1773=CARTESIAN_POINT('',(0.0065,0.,0.0029));
#1774=CARTESIAN_POINT('',(0.0065,0.,-0.0029));
#1775=CARTESIAN_POINT('',(0.0065,0.00325,-0.0029));
#1776=CARTESIAN_POINT('',(0.0065,0.00325,0.0029));
#1777=CARTESIAN_POINT('',(0.0065,0.00325,0.0029));
#1778=CARTESIAN_POINT('',(0.0065,0.,0.0029));
#1779=CARTESIAN_POINT('',(0.,0.00325,0.0029));
#1780=CARTESIAN_POINT('',(0.005,0.00325,0.0018));
#1781=CARTESIAN_POINT('',(0.005,0.00325,0.0018));
#1782=CARTESIAN_POINT('',(0.005,0.00325,-0.0018));
#1783=CARTESIAN_POINT('',(0.00485,0.00325,0.0018));
#1784=CARTESIAN_POINT('',(0.0047,0.00325,0.0018));
#1785=CARTESIAN_POINT('',(0.0047,0.00325,0.0018));
#1786=CARTESIAN_POINT('',(0.0047,0.00325,-0.0018));
#1787=CARTESIAN_POINT('',(0.00485,0.00325,-0.0018));
#1788=CARTESIAN_POINT('',(0.002,0.00325,-0.001375));
#1789=CARTESIAN_POINT('',(0.0024,0.00325,-0.001375));
#1790=CARTESIAN_POINT('',(0.0016,0.00325,-0.001375));
#1791=CARTESIAN_POINT('',(0.0024,0.00325,0.));
#1792=CARTESIAN_POINT('',(0.0024,0.00325,0.001375));
#1793=CARTESIAN_POINT('',(0.002,0.00325,0.001375));
#1794=CARTESIAN_POINT('',(0.0016,0.00325,0.001375));
#1795=CARTESIAN_POINT('',(0.0016,0.00325,0.));
#1796=CARTESIAN_POINT('',(0.,0.00325,-0.0029));
#1797=CARTESIAN_POINT('',(-0.0065,0.00325,-0.0029));
#1798=CARTESIAN_POINT('',(-0.0065,0.00325,0.0029));
#1799=CARTESIAN_POINT('',(-0.0065,0.00325,0.0029));
#1800=CARTESIAN_POINT('',(0.,0.00325,0.0029));
#1801=CARTESIAN_POINT('',(-0.0065,0.,0.0029));
#1802=CARTESIAN_POINT('',(-0.0065,0.,-0.0029));
#1803=CARTESIAN_POINT('',(-0.0065,0.,0.0029));
#1804=CARTESIAN_POINT('',(0.00325,-0.00175,0.0029));
#1805=CARTESIAN_POINT('',(0.00325,-0.00175,0.0029));
#1806=CARTESIAN_POINT('',(0.00325,-0.0028,0.0029));
#1807=CARTESIAN_POINT('',(0.00325,-0.00175,-0.0029));
#1808=CARTESIAN_POINT('',(0.00325,-0.0028,-0.0029));
#1809=CARTESIAN_POINT('',(-0.00325,-0.00175,0.0029));
#1810=CARTESIAN_POINT('',(-0.00325,-0.00175,0.0029));
#1811=CARTESIAN_POINT('',(-0.00325,-0.0028,0.0029));
#1812=CARTESIAN_POINT('',(-0.00325,-0.00175,-0.0029));
#1813=CARTESIAN_POINT('',(-0.00325,-0.0028,-0.0029));
#1814=CARTESIAN_POINT('',(0.,0.,0.0029));
#1815=CARTESIAN_POINT('',(-0.003875,-0.003875,0.0029));
#1816=CARTESIAN_POINT('',(-0.004,-0.00375,0.0029));
#1817=CARTESIAN_POINT('',(0.,-0.00375,0.0029));
#1818=CARTESIAN_POINT('',(-0.0025,-0.00375,0.0029));
#1819=CARTESIAN_POINT('',(0.000625,-0.000625,0.0029));
#1820=CARTESIAN_POINT('',(-0.000625,-0.000625,0.0029));
#1821=CARTESIAN_POINT('',(0.0025,-0.00375,0.0029));
#1822=CARTESIAN_POINT('',(0.,-0.00375,0.0029));
#1823=CARTESIAN_POINT('',(0.004,-0.00375,0.0029));
#1824=CARTESIAN_POINT('',(0.003875,-0.003875,0.0029));
#1825=CARTESIAN_POINT('',(0.,0.,-0.0029));
#1826=CARTESIAN_POINT('',(0.,-0.00375,-0.0029));
#1827=CARTESIAN_POINT('',(-0.0025,-0.00375,-0.0029));
#1828=CARTESIAN_POINT('',(-0.004,-0.00375,-0.0029));
#1829=CARTESIAN_POINT('',(-0.0045,-0.00325,-0.0029));
#1830=CARTESIAN_POINT('',(0.004,-0.00375,-0.0029));
#1831=CARTESIAN_POINT('',(0.004,-0.00375,-0.0029));
#1832=CARTESIAN_POINT('',(0.,-0.00375,-0.0029));
#1833=CARTESIAN_POINT('',(0.0025,-0.00375,-0.0029));
#1834=CARTESIAN_POINT('',(0.002,-0.00325,-0.0029));
#1835=CARTESIAN_POINT('',(-0.0025,-0.00375,-0.0029));
#1836=CARTESIAN_POINT('',(0.,-0.006,-0.00025));
#1837=CARTESIAN_POINT('',(0.0004,-0.006,-0.00025));
#1838=CARTESIAN_POINT('',(0.0004,-0.006,-0.00025));
#1839=CARTESIAN_POINT('',(0.,-0.006,-0.00025));
#1840=CARTESIAN_POINT('',(-0.0004,-0.006,-0.00025));
#1841=CARTESIAN_POINT('',(-0.0004,-0.006,-0.00025));
#1842=CARTESIAN_POINT('',(0.0004,-0.006,0.));
#1843=CARTESIAN_POINT('',(0.0004,-0.006,0.00025));
#1844=CARTESIAN_POINT('',(0.0004,-0.006,0.00025));
#1845=CARTESIAN_POINT('',(0.0004,-0.006,0.));
#1846=CARTESIAN_POINT('',(1.0842021724855E-19,-0.006,0.00025));
#1847=CARTESIAN_POINT('',(-0.0004,-0.006,0.00025));
#1848=CARTESIAN_POINT('',(-0.0004,-0.006,0.00025));
#1849=CARTESIAN_POINT('',(1.0842021724855E-19,-0.006,0.00025));
#1850=CARTESIAN_POINT('',(-0.0004,-0.006,5.42101086242752E-20));
#1851=CARTESIAN_POINT('',(-0.0004,-0.006,5.42101086242752E-20));
#1852=CARTESIAN_POINT('',(0.,-0.006,0.));
#1853=CARTESIAN_POINT('',(0.00509,-0.006,0.00025));
#1854=CARTESIAN_POINT('',(0.00469,-0.006,0.00025));
#1855=CARTESIAN_POINT('',(0.00469,-0.006,0.00025));
#1856=CARTESIAN_POINT('',(0.00509,-0.006,0.00025));
#1857=CARTESIAN_POINT('',(0.00549,-0.006,0.00025));
#1858=CARTESIAN_POINT('',(0.00549,-0.006,0.00025));
#1859=CARTESIAN_POINT('',(0.00469,-0.006,-3.25260651745652E-19));
#1860=CARTESIAN_POINT('',(0.00469,-0.006,-0.00025));
#1861=CARTESIAN_POINT('',(0.00469,-0.006,-0.00025));
#1862=CARTESIAN_POINT('',(0.00469,-0.006,-3.25260651745652E-19));
#1863=CARTESIAN_POINT('',(0.00509,-0.006,-0.00025));
#1864=CARTESIAN_POINT('',(0.00549,-0.006,-0.00025));
#1865=CARTESIAN_POINT('',(0.00549,-0.006,-0.00025));
#1866=CARTESIAN_POINT('',(0.00509,-0.006,-0.00025));
#1867=CARTESIAN_POINT('',(0.00549,-0.006,-1.62630325872826E-19));
#1868=CARTESIAN_POINT('',(0.00549,-0.006,-1.62630325872826E-19));
#1869=CARTESIAN_POINT('',(0.,-0.006,0.));
#1870=CARTESIAN_POINT('',(-0.00509,-0.006,-0.00025));
#1871=CARTESIAN_POINT('',(-0.00469,-0.006,-0.00025));
#1872=CARTESIAN_POINT('',(-0.00469,-0.006,-0.00025));
#1873=CARTESIAN_POINT('',(-0.00509,-0.006,-0.00025));
#1874=CARTESIAN_POINT('',(-0.00549,-0.006,-0.00025));
#1875=CARTESIAN_POINT('',(-0.00549,-0.006,-0.00025));
#1876=CARTESIAN_POINT('',(-0.00469,-0.006,-3.25260651745652E-19));
#1877=CARTESIAN_POINT('',(-0.00469,-0.006,0.00025));
#1878=CARTESIAN_POINT('',(-0.00469,-0.006,0.00025));
#1879=CARTESIAN_POINT('',(-0.00469,-0.006,-3.25260651745652E-19));
#1880=CARTESIAN_POINT('',(-0.00509,-0.006,0.00025));
#1881=CARTESIAN_POINT('',(-0.00549,-0.006,0.00025));
#1882=CARTESIAN_POINT('',(-0.00549,-0.006,0.00025));
#1883=CARTESIAN_POINT('',(-0.00509,-0.006,0.00025));
#1884=CARTESIAN_POINT('',(-0.00549,-0.006,-1.62630325872826E-19));
#1885=CARTESIAN_POINT('',(-0.00549,-0.006,-1.62630325872826E-19));
#1886=CARTESIAN_POINT('',(0.,-0.006,0.));
#1887=CARTESIAN_POINT('',(0.,-0.00375,0.));
#1888=CARTESIAN_POINT('',(-0.004,-0.00375,0.));
#1889=CARTESIAN_POINT('',(-0.0025,-0.00375,0.0029));
#1890=CARTESIAN_POINT('',(0.,-0.00375,0.));
#1891=CARTESIAN_POINT('',(0.0025,-0.00375,0.));
#1892=CARTESIAN_POINT('',(0.004,-0.00375,0.0029));
#1893=CARTESIAN_POINT('',(-0.0045,-0.00325,0.));
#1894=CARTESIAN_POINT('',(-0.0025,-0.00375,0.));
#1895=CARTESIAN_POINT('',(0.002,-0.00325,0.));
#1896=CARTESIAN_POINT('',(0.004,-0.00375,0.));
#1897=CARTESIAN_POINT('',(0.0024,0.00425,0.));
#1898=CARTESIAN_POINT('',(0.0024,0.00425,-0.001375));
#1899=CARTESIAN_POINT('',(0.0024,0.00385,-0.001375));
#1900=CARTESIAN_POINT('',(0.0024,0.00385,0.));
#1901=CARTESIAN_POINT('',(0.0024,0.00385,0.001375));
#1902=CARTESIAN_POINT('',(0.0024,0.00425,0.001375));
#1903=CARTESIAN_POINT('',(0.002,0.00425,-0.001375));
#1904=CARTESIAN_POINT('',(0.0016,0.00425,-0.001375));
#1905=CARTESIAN_POINT('',(0.0016,0.00385,-0.001375));
#1906=CARTESIAN_POINT('',(0.002,0.00385,-0.001375));
#1907=CARTESIAN_POINT('',(0.0016,0.00425,0.));
#1908=CARTESIAN_POINT('',(0.0016,0.00425,0.001375));
#1909=CARTESIAN_POINT('',(0.0016,0.00385,0.001375));
#1910=CARTESIAN_POINT('',(0.0016,0.00385,-0.001375));
#1911=CARTESIAN_POINT('',(0.002,0.00425,0.001375));
#1912=CARTESIAN_POINT('',(0.002,0.00385,0.001375));
#1913=CARTESIAN_POINT('',(0.002,0.00385,0.));
#1914=CARTESIAN_POINT('',(-0.00744798266937029,0.00803616166118578,0.0018));
#1915=CARTESIAN_POINT('',(-0.00744798266937029,0.00803616166118578,-0.0018));
#1916=CARTESIAN_POINT('',(-0.0075,0.00789546980884827,-0.0018));
#1917=CARTESIAN_POINT('',(-0.00635561872614621,0.0109906905602734,-0.0018));
#1918=CARTESIAN_POINT('',(-0.0075,0.00789546980884827,0.0018));
#1919=CARTESIAN_POINT('',(-0.0075,0.00789546980884827,0.0018));
#1920=CARTESIAN_POINT('',(-0.00744798266937029,0.00803616166118578,0.0018));
#1921=CARTESIAN_POINT('',(-0.00635561872614621,0.0109906905602734,0.0018));
#1922=CARTESIAN_POINT('',(-0.00635561872614621,0.0109906905602734,0.0015));
#1923=CARTESIAN_POINT('',(-0.00635561872614621,0.0109906905602734,0.0015));
#1924=CARTESIAN_POINT('',(-0.00687579203244339,0.00958377203689835,0.0015));
#1925=CARTESIAN_POINT('',(-0.00739596533874057,0.00817685351352328,0.0015));
#1926=CARTESIAN_POINT('',(-0.00739596533874057,0.00817685351352328,0.0018));
#1927=CARTESIAN_POINT('',(-0.00739596533874057,0.00817685351352328,-0.0015));
#1928=CARTESIAN_POINT('',(-0.00687579203244339,0.00958377203689835,-0.0015));
#1929=CARTESIAN_POINT('',(-0.00635561872614621,0.0109906905602734,-0.0015));
#1930=CARTESIAN_POINT('',(-0.00635561872614621,0.0109906905602734,-0.0015));
#1931=CARTESIAN_POINT('',(-0.00141633044489505,0.00564618354648039,0.0018));
#1932=CARTESIAN_POINT('',(-0.00141633044489505,0.00564618354648039,-0.0018));
#1933=CARTESIAN_POINT('',(0.00466733911020991,0.0033968972841125,-0.0018));
#1934=CARTESIAN_POINT('',(0.00466733911020991,0.0033968972841125,0.0018));
#1935=CARTESIAN_POINT('',(0.00466733911020991,0.0033968972841125,0.0018));
#1936=CARTESIAN_POINT('',(-0.00141633044489505,0.00564618354648039,0.0018));
#1937=CARTESIAN_POINT('',(0.00465,0.00335,0.0018));
#1938=CARTESIAN_POINT('',(0.00465,0.00335,-0.0018));
#1939=CARTESIAN_POINT('',(0.0047,0.00335,-0.0018));
#1940=CARTESIAN_POINT('',(0.0047,0.00335,0.0018));
#1941=CARTESIAN_POINT('',(0.0047,0.00335,0.0018));
#1942=CARTESIAN_POINT('',(0.00465,0.00335,0.0018));
#1943=CARTESIAN_POINT('',(0.0047,0.0033,0.0018));
#1944=CARTESIAN_POINT('',(0.0047,0.0033,-0.0018));
#1945=CARTESIAN_POINT('',(0.0047,0.0033,0.0018));
#1946=CARTESIAN_POINT('',(0.005,0.0033,0.0018));
#1947=CARTESIAN_POINT('',(0.005,0.0033,-0.0018));
#1948=CARTESIAN_POINT('',(0.005,0.00335,-0.0018));
#1949=CARTESIAN_POINT('',(0.005,0.00335,0.0018));
#1950=CARTESIAN_POINT('',(0.005,0.00335,0.0018));
#1951=CARTESIAN_POINT('',(0.005,0.0033,0.0018));
#1952=CARTESIAN_POINT('',(0.00465,0.00335,0.0018));
#1953=CARTESIAN_POINT('',(0.00465,0.00335,-0.0018));
#1954=CARTESIAN_POINT('',(0.00477137377146934,0.00367828098878751,-0.0018));
#1955=CARTESIAN_POINT('',(0.00477137377146934,0.00367828098878751,0.0018));
#1956=CARTESIAN_POINT('',(0.00477137377146934,0.00367828098878751,0.0018));
#1957=CARTESIAN_POINT('',(0.00465,0.00335,0.0018));
#1958=CARTESIAN_POINT('',(-0.00131229578363561,0.0059275672511554,0.0018));
#1959=CARTESIAN_POINT('',(-0.00458212829199045,0.00713650690092893,-0.0015));
#1960=CARTESIAN_POINT('',(-0.00458212829199045,0.00713650690092893,-0.0015));
#1961=CARTESIAN_POINT('',(-0.00458212829199045,0.00713650690092893,-0.0018));
#1962=CARTESIAN_POINT('',(-0.00598904681536551,0.00765668020722611,-0.0015));
#1963=CARTESIAN_POINT('',(-0.00598904681536551,0.00765668020722611,0.0015));
#1964=CARTESIAN_POINT('',(-0.00458212829199045,0.00713650690092893,0.0015));
#1965=CARTESIAN_POINT('',(-0.00458212829199045,0.00713650690092893,0.0015));
#1966=CARTESIAN_POINT('',(-0.00458212829199045,0.00713650690092892,0.0018));
#1967=CARTESIAN_POINT('',(-0.00131229578363561,0.0059275672511554,0.0018));
#1968=CARTESIAN_POINT('',(-0.00131229578363561,0.0059275672511554,-0.0018));
#1969=CARTESIAN_POINT('',(-0.000500000000000006,0.00571342675676164,0.0018));
#1970=CARTESIAN_POINT('',(-0.00406195498569327,0.00854342542430399,0.0018));
#1971=CARTESIAN_POINT('',(-0.00354178167939609,0.00995034394767905,0.0018));
#1972=CARTESIAN_POINT('',(-0.00494870020277115,0.0104705172539762,0.0018));
#1973=CARTESIAN_POINT('',(-0.000500000000000006,0.00571342675676164,-0.0018));
#1974=CARTESIAN_POINT('',(-0.00494870020277115,0.0104705172539762,-0.0018));
#1975=CARTESIAN_POINT('',(-0.00354178167939609,0.00995034394767905,-0.0018));
#1976=CARTESIAN_POINT('',(-0.00406195498569327,0.00854342542430399,-0.0018));
#1977=CARTESIAN_POINT('',(-0.00406195498569327,0.00854342542430399,0.0015));
#1978=CARTESIAN_POINT('',(-0.00406195498569327,0.00854342542430399,0.0015));
#1979=CARTESIAN_POINT('',(-0.00354178167939609,0.00995034394767905,0.0015));
#1980=CARTESIAN_POINT('',(-0.00354178167939609,0.00995034394767905,0.0015));
#1981=CARTESIAN_POINT('',(-0.00494870020277115,0.0104705172539762,0.0015));
#1982=CARTESIAN_POINT('',(-0.00494870020277115,0.0104705172539762,0.0015));
#1983=CARTESIAN_POINT('',(-0.00136431311426533,0.00782439912138187,0.0015));
#1984=CARTESIAN_POINT('',(-0.00494870020277115,0.0104705172539762,0.0015));
#1985=CARTESIAN_POINT('',(-0.00494870020277115,0.00997051725397622,0.0015));
#1986=CARTESIAN_POINT('',(-0.00406195498569327,0.00854342542430399,-0.0015));
#1987=CARTESIAN_POINT('',(-0.00354178167939609,0.00995034394767905,-0.0015));
#1988=CARTESIAN_POINT('',(-0.00354178167939609,0.00995034394767905,-0.0015));
#1989=CARTESIAN_POINT('',(-0.00406195498569327,0.00854342542430399,-0.0015));
#1990=CARTESIAN_POINT('',(-0.00494870020277115,0.0104705172539762,-0.0015));
#1991=CARTESIAN_POINT('',(-0.00494870020277115,0.0104705172539762,-0.0015));
#1992=CARTESIAN_POINT('',(-0.00136431311426533,0.00782439912138187,-0.0015));
#1993=CARTESIAN_POINT('',(-0.00494870020277115,0.0104705172539762,-0.0015));
#1994=CARTESIAN_POINT('',(-0.00494870020277115,0.0109705172539762,-0.0015));
#1995=CARTESIAN_POINT('',(-0.00494870020277115,0.0104705172539762,0.002902));
#1996=CARTESIAN_POINT('',(-0.00449941722771747,0.0102510980015691,0.0014));
#1997=CARTESIAN_POINT('',(-0.00449941722771747,0.0102510980015691,0.0014));
#1998=CARTESIAN_POINT('',(-0.00449941722771747,0.0102510980015691,-0.0014));
#1999=CARTESIAN_POINT('',(-0.00494870020277126,0.0104705172539763,0.0014));
#2000=CARTESIAN_POINT('',(-0.00446473900729765,0.0103448925697941,0.0014));
#2001=CARTESIAN_POINT('',(-0.00446473900729765,0.0103448925697941,0.0014));
#2002=CARTESIAN_POINT('',(-0.00446473900729765,0.0103448925697941,-0.0014));
#2003=CARTESIAN_POINT('',(-0.00494870020277126,0.0104705172539763,-0.0014));
#2004=CARTESIAN_POINT('',(-0.00494870020277095,0.0104705172539762,0.0014));
#2005=CARTESIAN_POINT('',(-0.00494870020277095,0.0104705172539762,-0.0014));
#2006=CARTESIAN_POINT('',(-0.00399458857610148,0.0101710660829086,-0.0014));
#2007=CARTESIAN_POINT('',(-0.00402926679652129,0.0100772715146836,-0.0014));
#2008=CARTESIAN_POINT('',(-0.00399458857610148,0.0101710660829086,0.0014));
#2009=CARTESIAN_POINT('',(-0.00399458857610148,0.0101710660829086,0.0014));
#2010=CARTESIAN_POINT('',(-0.00494870020277095,0.0104705172539762,0.0014));
#2011=CARTESIAN_POINT('',(-0.00402926679652129,0.0100772715146836,0.0014));
#2012=CARTESIAN_POINT('',(-0.00402926679652129,0.0100772715146836,0.0014));
#2013=CARTESIAN_POINT('',(-0.00422966379169957,0.0102579793263514,0.0014));
#2014=CARTESIAN_POINT('',(-0.00422966379169957,0.0102579793263514,-0.0014));
#2015=CARTESIAN_POINT('',(-0.00422966379169957,0.0102579793263514,0.0014));
#2016=CARTESIAN_POINT('',(-0.00426434201211938,0.0101641847581264,0.0014));
#2017=CARTESIAN_POINT('',(-0.00426434201211938,0.0101641847581264,-0.0014));
#2018=CARTESIAN_POINT('',(-0.00426434201211938,0.0101641847581264,0.0014));
#2019=CARTESIAN_POINT('',(-0.00494870020277115,0.0104705172539762,0.0014));
#2020=CARTESIAN_POINT('',(-0.00494870020277115,0.0104705172539762,0.0014));
#2021=CARTESIAN_POINT('',(-0.00494870020277115,0.00797051725397622,0.0014));
#2022=CARTESIAN_POINT('',(-0.00494870020277115,0.0104705172539762,-0.0014));
#2023=CARTESIAN_POINT('',(-0.00494870020277115,0.00797051725397622,-0.0014));
#2024=CARTESIAN_POINT('',(-0.00494870020277115,0.0104705172539762,0.0014));
#2025=CARTESIAN_POINT('',(-0.00494870020277115,0.0104705172539762,-0.0014));
#2026=MECHANICAL_DESIGN_GEOMETRIC_PRESENTATION_REPRESENTATION('',(#1126,
#13,#14,#15,#16,#17,#18,#19,#20,#21,#22,#23,#24,#25,#26,#27,#28,#29,#30,
#31,#32,#33,#34,#35,#36,#37,#38,#39,#40,#41,#42,#43,#44,#45,#46,#47,#48),
#2027);
#2027=(
GEOMETRIC_REPRESENTATION_CONTEXT(3)
GLOBAL_UNCERTAINTY_ASSIGNED_CONTEXT((#2028))
GLOBAL_UNIT_ASSIGNED_CONTEXT((#2031,#2030,#2029))
REPRESENTATION_CONTEXT('Limit Sw w Swivel','TOP_LEVEL_ASSEMBLY_PART')
);
#2028=UNCERTAINTY_MEASURE_WITH_UNIT(LENGTH_MEASURE(1.E-8),#2031,
'DISTANCE_ACCURACY_VALUE','Maximum Tolerance applied to model');
#2029=(
NAMED_UNIT(*)
SI_UNIT($,.STERADIAN.)
SOLID_ANGLE_UNIT()
);
#2030=(
NAMED_UNIT(*)
PLANE_ANGLE_UNIT()
SI_UNIT($,.RADIAN.)
);
#2031=(
LENGTH_UNIT()
NAMED_UNIT(*)
SI_UNIT($,.METRE.)
);
#2032=PRODUCT_DEFINITION_SHAPE('','',#2033);
#2033=PRODUCT_DEFINITION('','',#2035,#2034);
#2034=PRODUCT_DEFINITION_CONTEXT('',#2041,'design');
#2035=PRODUCT_DEFINITION_FORMATION_WITH_SPECIFIED_SOURCE('','',#2037,
 .NOT_KNOWN.);
#2036=PRODUCT_RELATED_PRODUCT_CATEGORY('','',(#2037));
#2037=PRODUCT('Limit Sw w Swivel','Limit Sw w Swivel',
'Limit Sw w Swivel',(#2039));
#2038=PRODUCT_CATEGORY('','');
#2039=PRODUCT_CONTEXT('',#2041,'mechanical');
#2040=APPLICATION_PROTOCOL_DEFINITION('international standard',
'ap242_managed_model_based_3d_engineering',2020,#2041);
#2041=APPLICATION_CONTEXT('managed model based 3d engineering');
ENDSEC;
END-ISO-10303-21;
