ISO-10303-21;
HEADER;
FILE_DESCRIPTION( ( 'Unknown' ), '1' );
FILE_NAME( 'I:/User_Groups_Only/17_EMC_Product_&_Development/Article_Master/eiCan/Assembly/As_SBRIE/Master_Data/01_CAD_drawing/1_Drawing/971xxxxx4/971xxx474/971050747/Released_Data/971050474.stp', 'Unknown', ( 'Unknown' ), ( 'Unknown' ), 'PSStep 19.0.9', 'Unknown', '  ' );
FILE_SCHEMA( ( 'AUTOMOTIVE_DESIGN { 1 0 10303 214 1 1 1 1 }' ) );
ENDSEC;
DATA;
#1 = MECHANICAL_DESIGN_GEOMETRIC_PRESENTATION_REPRESENTATION( ' ', ( #10, #11, #12, #13, #14, #15, #16, #17, #18, #19, #20, #21, #22, #23, #24, #25, #26, #27, #28, #29, #30, #31, #32, #33, #34, #35, #36, #37, #38, #39, #40 ), #6 );
#2 = PRODUCT_DEFINITION_CONTEXT( '', #41, 'design' );
#3 = APPLICATION_PROTOCOL_DEFINITION( 'international standard', 'automotive_design', 2001, #41 );
#4 = PRODUCT_CATEGORY_RELATIONSHIP( 'NONE', 'NONE', #42, #43 );
#5 = SHAPE_DEFINITION_REPRESENTATION( #44, #45 );
#6 =  ( GEOMETRIC_REPRESENTATION_CONTEXT( 3 )GLOBAL_UNCERTAINTY_ASSIGNED_CONTEXT( ( #48 ) )GLOBAL_UNIT_ASSIGNED_CONTEXT( ( #50, #51, #52 ) )REPRESENTATION_CONTEXT( 'NONE', 'WORKSPACE' ) );
#10 = STYLED_ITEM( '', ( #54 ), #55 );
#11 = STYLED_ITEM( '', ( #56 ), #57 );
#12 = STYLED_ITEM( '', ( #58 ), #59 );
#13 = STYLED_ITEM( '', ( #60 ), #61 );
#14 = STYLED_ITEM( '', ( #62 ), #63 );
#15 = STYLED_ITEM( '', ( #64 ), #65 );
#16 = STYLED_ITEM( '', ( #66 ), #67 );
#17 = STYLED_ITEM( '', ( #68 ), #69 );
#18 = STYLED_ITEM( '', ( #70 ), #71 );
#19 = STYLED_ITEM( '', ( #72 ), #73 );
#20 = STYLED_ITEM( '', ( #74 ), #75 );
#21 = STYLED_ITEM( '', ( #76 ), #77 );
#22 = STYLED_ITEM( '', ( #78 ), #79 );
#23 = STYLED_ITEM( '', ( #80 ), #81 );
#24 = STYLED_ITEM( '', ( #82 ), #83 );
#25 = STYLED_ITEM( '', ( #84 ), #85 );
#26 = STYLED_ITEM( '', ( #86 ), #87 );
#27 = STYLED_ITEM( '', ( #88 ), #89 );
#28 = STYLED_ITEM( '', ( #90 ), #91 );
#29 = STYLED_ITEM( '', ( #92 ), #93 );
#30 = STYLED_ITEM( '', ( #94 ), #95 );
#31 = STYLED_ITEM( '', ( #96 ), #97 );
#32 = STYLED_ITEM( '', ( #98 ), #99 );
#33 = STYLED_ITEM( '', ( #100 ), #101 );
#34 = STYLED_ITEM( '', ( #102 ), #103 );
#35 = STYLED_ITEM( '', ( #104 ), #105 );
#36 = STYLED_ITEM( '', ( #106 ), #107 );
#37 = STYLED_ITEM( '', ( #108 ), #109 );
#38 = STYLED_ITEM( '', ( #110 ), #111 );
#39 = STYLED_ITEM( '', ( #112 ), #113 );
#40 = STYLED_ITEM( '', ( #114 ), #115 );
#41 = APPLICATION_CONTEXT( 'core data for automotive mechanical design processes' );
#42 = PRODUCT_CATEGORY( 'part', 'NONE' );
#43 = PRODUCT_RELATED_PRODUCT_CATEGORY( 'detail', ' ', ( #116 ) );
#44 = PRODUCT_DEFINITION_SHAPE( 'NONE', 'NONE', #117 );
#45 = ADVANCED_BREP_SHAPE_REPRESENTATION( '1', ( #118, #119 ), #6 );
#48 = UNCERTAINTY_MEASURE_WITH_UNIT( LENGTH_MEASURE( 0.00100000000000000 ), #50, '', '' );
#50 =  ( CONVERSION_BASED_UNIT( 'MILLIMETRE', #122 )LENGTH_UNIT(  )NAMED_UNIT( #125 ) );
#51 =  ( NAMED_UNIT( #127 )PLANE_ANGLE_UNIT(  )SI_UNIT( $, .RADIAN. ) );
#52 =  ( NAMED_UNIT( #127 )SI_UNIT( $, .STERADIAN. )SOLID_ANGLE_UNIT(  ) );
#54 = PRESENTATION_STYLE_ASSIGNMENT( ( #133 ) );
#55 = ADVANCED_FACE( '', ( #134, #135 ), #136, .T. );
#56 = PRESENTATION_STYLE_ASSIGNMENT( ( #137 ) );
#57 = ADVANCED_FACE( '', ( #138, #139 ), #140, .F. );
#58 = PRESENTATION_STYLE_ASSIGNMENT( ( #141 ) );
#59 = ADVANCED_FACE( '', ( #142, #143 ), #144, .T. );
#60 = PRESENTATION_STYLE_ASSIGNMENT( ( #145 ) );
#61 = ADVANCED_FACE( '', ( #146 ), #147, .T. );
#62 = PRESENTATION_STYLE_ASSIGNMENT( ( #148 ) );
#63 = ADVANCED_FACE( '', ( #149 ), #150, .T. );
#64 = PRESENTATION_STYLE_ASSIGNMENT( ( #151 ) );
#65 = ADVANCED_FACE( '', ( #152 ), #153, .T. );
#66 = PRESENTATION_STYLE_ASSIGNMENT( ( #154 ) );
#67 = ADVANCED_FACE( '', ( #155 ), #156, .T. );
#68 = PRESENTATION_STYLE_ASSIGNMENT( ( #157 ) );
#69 = ADVANCED_FACE( '', ( #158 ), #159, .T. );
#70 = PRESENTATION_STYLE_ASSIGNMENT( ( #160 ) );
#71 = ADVANCED_FACE( '', ( #161 ), #162, .T. );
#72 = PRESENTATION_STYLE_ASSIGNMENT( ( #163 ) );
#73 = ADVANCED_FACE( '', ( #164 ), #165, .T. );
#74 = PRESENTATION_STYLE_ASSIGNMENT( ( #166 ) );
#75 = ADVANCED_FACE( '', ( #167 ), #168, .T. );
#76 = PRESENTATION_STYLE_ASSIGNMENT( ( #169 ) );
#77 = ADVANCED_FACE( '', ( #170, #171 ), #172, .F. );
#78 = PRESENTATION_STYLE_ASSIGNMENT( ( #173 ) );
#79 = ADVANCED_FACE( '', ( #174 ), #175, .F. );
#80 = PRESENTATION_STYLE_ASSIGNMENT( ( #176 ) );
#81 = ADVANCED_FACE( '', ( #177 ), #178, .T. );
#82 = PRESENTATION_STYLE_ASSIGNMENT( ( #179 ) );
#83 = ADVANCED_FACE( '', ( #180, #181 ), #182, .T. );
#84 = PRESENTATION_STYLE_ASSIGNMENT( ( #183 ) );
#85 = ADVANCED_FACE( '', ( #184 ), #185, .T. );
#86 = PRESENTATION_STYLE_ASSIGNMENT( ( #186 ) );
#87 = ADVANCED_FACE( '', ( #187, #188 ), #189, .F. );
#88 = PRESENTATION_STYLE_ASSIGNMENT( ( #190 ) );
#89 = ADVANCED_FACE( '', ( #191 ), #192, .T. );
#90 = PRESENTATION_STYLE_ASSIGNMENT( ( #193 ) );
#91 = ADVANCED_FACE( '', ( #194 ), #195, .T. );
#92 = PRESENTATION_STYLE_ASSIGNMENT( ( #196 ) );
#93 = ADVANCED_FACE( '', ( #197 ), #198, .T. );
#94 = PRESENTATION_STYLE_ASSIGNMENT( ( #199 ) );
#95 = ADVANCED_FACE( '', ( #200, #201 ), #202, .F. );
#96 = PRESENTATION_STYLE_ASSIGNMENT( ( #203 ) );
#97 = ADVANCED_FACE( '', ( #204 ), #205, .T. );
#98 = PRESENTATION_STYLE_ASSIGNMENT( ( #206 ) );
#99 = ADVANCED_FACE( '', ( #207 ), #208, .T. );
#100 = PRESENTATION_STYLE_ASSIGNMENT( ( #209 ) );
#101 = ADVANCED_FACE( '', ( #210 ), #211, .T. );
#102 = PRESENTATION_STYLE_ASSIGNMENT( ( #212 ) );
#103 = ADVANCED_FACE( '', ( #213, #214 ), #215, .T. );
#104 = PRESENTATION_STYLE_ASSIGNMENT( ( #216 ) );
#105 = ADVANCED_FACE( '', ( #217, #218 ), #219, .F. );
#106 = PRESENTATION_STYLE_ASSIGNMENT( ( #220 ) );
#107 = ADVANCED_FACE( '', ( #221, #222 ), #223, .F. );
#108 = PRESENTATION_STYLE_ASSIGNMENT( ( #224 ) );
#109 = ADVANCED_FACE( '', ( #225 ), #226, .T. );
#110 = PRESENTATION_STYLE_ASSIGNMENT( ( #227 ) );
#111 = ADVANCED_FACE( '', ( #228, #229 ), #230, .F. );
#112 = PRESENTATION_STYLE_ASSIGNMENT( ( #231 ) );
#113 = ADVANCED_FACE( '', ( #232, #233 ), #234, .T. );
#114 = PRESENTATION_STYLE_ASSIGNMENT( ( #235 ) );
#115 = ADVANCED_FACE( '', ( #236 ), #237, .T. );
#116 = PRODUCT( '1', '1', 'PART-1-DESC', ( #238 ) );
#117 = PRODUCT_DEFINITION( 'NONE', 'NONE', #239, #2 );
#118 = MANIFOLD_SOLID_BREP( '1', #240 );
#119 = AXIS2_PLACEMENT_3D( '', #241, #242, #243 );
#122 = LENGTH_MEASURE_WITH_UNIT( LENGTH_MEASURE( 1.00000000000000 ), #244 );
#125 = DIMENSIONAL_EXPONENTS( 1.00000000000000, 0.000000000000000, 0.000000000000000, 0.000000000000000, 0.000000000000000, 0.000000000000000, 0.000000000000000 );
#127 = DIMENSIONAL_EXPONENTS( 0.000000000000000, 0.000000000000000, 0.000000000000000, 0.000000000000000, 0.000000000000000, 0.000000000000000, 0.000000000000000 );
#133 = SURFACE_STYLE_USAGE( .BOTH., #245 );
#134 = FACE_BOUND( '', #246, .T. );
#135 = FACE_OUTER_BOUND( '', #247, .T. );
#136 = PLANE( '', #248 );
#137 = SURFACE_STYLE_USAGE( .BOTH., #249 );
#138 = FACE_OUTER_BOUND( '', #250, .T. );
#139 = FACE_OUTER_BOUND( '', #251, .T. );
#140 = TOROIDAL_SURFACE( '', #252, 1.85000000000000, 0.400000000000000 );
#141 = SURFACE_STYLE_USAGE( .BOTH., #253 );
#142 = FACE_BOUND( '', #254, .T. );
#143 = FACE_OUTER_BOUND( '', #255, .T. );
#144 = CONICAL_SURFACE( '', #256, 2.00000000000000, 0.523598775600000 );
#145 = SURFACE_STYLE_USAGE( .BOTH., #257 );
#146 = FACE_OUTER_BOUND( '', #258, .T. );
#147 = CONICAL_SURFACE( '', #259, 3.50000000000000, 0.785398163400000 );
#148 = SURFACE_STYLE_USAGE( .BOTH., #260 );
#149 = FACE_OUTER_BOUND( '', #261, .T. );
#150 = CONICAL_SURFACE( '', #262, 3.50000000000000, 0.785398163400000 );
#151 = SURFACE_STYLE_USAGE( .BOTH., #263 );
#152 = FACE_OUTER_BOUND( '', #264, .T. );
#153 = PLANE( '', #265 );
#154 = SURFACE_STYLE_USAGE( .BOTH., #266 );
#155 = FACE_OUTER_BOUND( '', #267, .T. );
#156 = CONICAL_SURFACE( '', #268, 3.50000000000000, 0.785398163400000 );
#157 = SURFACE_STYLE_USAGE( .BOTH., #269 );
#158 = FACE_OUTER_BOUND( '', #270, .T. );
#159 = PLANE( '', #271 );
#160 = SURFACE_STYLE_USAGE( .BOTH., #272 );
#161 = FACE_OUTER_BOUND( '', #273, .T. );
#162 = CONICAL_SURFACE( '', #274, 4.50000000000000, 0.785398163400000 );
#163 = SURFACE_STYLE_USAGE( .BOTH., #275 );
#164 = FACE_OUTER_BOUND( '', #276, .T. );
#165 = CONICAL_SURFACE( '', #277, 3.50000000000000, 0.785398163400000 );
#166 = SURFACE_STYLE_USAGE( .BOTH., #278 );
#167 = FACE_OUTER_BOUND( '', #279, .T. );
#168 = CONICAL_SURFACE( '', #280, 3.50000000000000, 0.785398163400000 );
#169 = SURFACE_STYLE_USAGE( .BOTH., #281 );
#170 = FACE_OUTER_BOUND( '', #282, .T. );
#171 = FACE_OUTER_BOUND( '', #283, .T. );
#172 = TOROIDAL_SURFACE( '', #284, 1.85000000000000, 0.400000000000000 );
#173 = SURFACE_STYLE_USAGE( .BOTH., #285 );
#174 = FACE_OUTER_BOUND( '', #286, .T. );
#175 = PLANE( '', #287 );
#176 = SURFACE_STYLE_USAGE( .BOTH., #288 );
#177 = FACE_OUTER_BOUND( '', #289, .T. );
#178 = PLANE( '', #290 );
#179 = SURFACE_STYLE_USAGE( .BOTH., #291 );
#180 = FACE_OUTER_BOUND( '', #292, .T. );
#181 = FACE_OUTER_BOUND( '', #293, .T. );
#182 = CYLINDRICAL_SURFACE( '', #294, 2.00000000000000 );
#183 = SURFACE_STYLE_USAGE( .BOTH., #295 );
#184 = FACE_OUTER_BOUND( '', #296, .T. );
#185 = CONICAL_SURFACE( '', #297, 4.50000000000000, 0.785398163400000 );
#186 = SURFACE_STYLE_USAGE( .BOTH., #298 );
#187 = FACE_OUTER_BOUND( '', #299, .T. );
#188 = FACE_OUTER_BOUND( '', #300, .T. );
#189 = CYLINDRICAL_SURFACE( '', #301, 1.62100000000000 );
#190 = SURFACE_STYLE_USAGE( .BOTH., #302 );
#191 = FACE_OUTER_BOUND( '', #303, .T. );
#192 = CONICAL_SURFACE( '', #304, 3.50000000000000, 0.785398163400000 );
#193 = SURFACE_STYLE_USAGE( .BOTH., #305 );
#194 = FACE_OUTER_BOUND( '', #306, .T. );
#195 = CONICAL_SURFACE( '', #307, 4.50000000000000, 0.785398163400000 );
#196 = SURFACE_STYLE_USAGE( .BOTH., #308 );
#197 = FACE_OUTER_BOUND( '', #309, .T. );
#198 = CONICAL_SURFACE( '', #310, 4.50000000000000, 0.785398163400000 );
#199 = SURFACE_STYLE_USAGE( .BOTH., #311 );
#200 = FACE_BOUND( '', #312, .T. );
#201 = FACE_OUTER_BOUND( '', #313, .T. );
#202 = PLANE( '', #314 );
#203 = SURFACE_STYLE_USAGE( .BOTH., #315 );
#204 = FACE_OUTER_BOUND( '', #316, .T. );
#205 = CONICAL_SURFACE( '', #317, 4.50000000000000, 0.785398163400000 );
#206 = SURFACE_STYLE_USAGE( .BOTH., #318 );
#207 = FACE_OUTER_BOUND( '', #319, .T. );
#208 = PLANE( '', #320 );
#209 = SURFACE_STYLE_USAGE( .BOTH., #321 );
#210 = FACE_OUTER_BOUND( '', #322, .T. );
#211 = PLANE( '', #323 );
#212 = SURFACE_STYLE_USAGE( .BOTH., #324 );
#213 = FACE_BOUND( '', #325, .T. );
#214 = FACE_OUTER_BOUND( '', #326, .T. );
#215 = CONICAL_SURFACE( '', #327, 2.00000000000000, 0.785398163400000 );
#216 = SURFACE_STYLE_USAGE( .BOTH., #328 );
#217 = FACE_BOUND( '', #329, .T. );
#218 = FACE_OUTER_BOUND( '', #330, .T. );
#219 = CONICAL_SURFACE( '', #331, 1.92100000000000, 0.785398163400000 );
#220 = SURFACE_STYLE_USAGE( .BOTH., #332 );
#221 = FACE_OUTER_BOUND( '', #333, .T. );
#222 = FACE_BOUND( '', #334, .T. );
#223 = CONICAL_SURFACE( '', #335, 1.62100000000000, 1.02974425870000 );
#224 = SURFACE_STYLE_USAGE( .BOTH., #336 );
#225 = FACE_OUTER_BOUND( '', #337, .T. );
#226 = PLANE( '', #338 );
#227 = SURFACE_STYLE_USAGE( .BOTH., #339 );
#228 = FACE_OUTER_BOUND( '', #340, .T. );
#229 = FACE_OUTER_BOUND( '', #341, .T. );
#230 = CYLINDRICAL_SURFACE( '', #342, 1.62100000000000 );
#231 = SURFACE_STYLE_USAGE( .BOTH., #343 );
#232 = FACE_OUTER_BOUND( '', #344, .T. );
#233 = FACE_OUTER_BOUND( '', #345, .T. );
#234 = CYLINDRICAL_SURFACE( '', #346, 1.45000000000000 );
#235 = SURFACE_STYLE_USAGE( .BOTH., #347 );
#236 = FACE_OUTER_BOUND( '', #348, .T. );
#237 = CONICAL_SURFACE( '', #349, 4.50000000000000, 0.785398163400000 );
#238 = PRODUCT_CONTEXT( '', #41, 'mechanical' );
#239 = PRODUCT_DEFINITION_FORMATION_WITH_SPECIFIED_SOURCE( ' ', 'NONE', #116, .NOT_KNOWN. );
#240 = CLOSED_SHELL( '', ( #107, #105, #87, #55, #111, #95, #75, #65, #109, #81, #99, #101, #77, #57, #103, #113, #59, #83, #79, #67, #61, #63, #89, #115, #69, #93, #85, #71, #91, #97, #73 ) );
#241 = CARTESIAN_POINT( '', ( 0.000000000000000, 0.000000000000000, 0.000000000000000 ) );
#242 = DIRECTION( '', ( 0.000000000000000, 0.000000000000000, 1.00000000000000 ) );
#243 = DIRECTION( '', ( 1.00000000000000, 0.000000000000000, 0.000000000000000 ) );
#244 =  ( LENGTH_UNIT(  )NAMED_UNIT( #125 )SI_UNIT( .MILLI., .METRE. ) );
#245 = SURFACE_SIDE_STYLE( '', ( #351 ) );
#246 = EDGE_LOOP( '', ( #352 ) );
#247 = EDGE_LOOP( '', ( #353, #354, #355, #356, #357, #358 ) );
#248 = AXIS2_PLACEMENT_3D( '', #359, #360, #361 );
#249 = SURFACE_SIDE_STYLE( '', ( #362 ) );
#250 = EDGE_LOOP( '', ( #363 ) );
#251 = EDGE_LOOP( '', ( #364 ) );
#252 = AXIS2_PLACEMENT_3D( '', #365, #366, #367 );
#253 = SURFACE_SIDE_STYLE( '', ( #368 ) );
#254 = EDGE_LOOP( '', ( #369 ) );
#255 = EDGE_LOOP( '', ( #370 ) );
#256 = AXIS2_PLACEMENT_3D( '', #371, #372, #373 );
#257 = SURFACE_SIDE_STYLE( '', ( #374 ) );
#258 = EDGE_LOOP( '', ( #375, #376, #377 ) );
#259 = AXIS2_PLACEMENT_3D( '', #378, #379, #380 );
#260 = SURFACE_SIDE_STYLE( '', ( #381 ) );
#261 = EDGE_LOOP( '', ( #382, #383, #384 ) );
#262 = AXIS2_PLACEMENT_3D( '', #385, #386, #387 );
#263 = SURFACE_SIDE_STYLE( '', ( #388 ) );
#264 = EDGE_LOOP( '', ( #389, #390, #391, #392, #393, #394 ) );
#265 = AXIS2_PLACEMENT_3D( '', #395, #396, #397 );
#266 = SURFACE_SIDE_STYLE( '', ( #398 ) );
#267 = EDGE_LOOP( '', ( #399, #400, #401 ) );
#268 = AXIS2_PLACEMENT_3D( '', #402, #403, #404 );
#269 = SURFACE_SIDE_STYLE( '', ( #405 ) );
#270 = EDGE_LOOP( '', ( #406, #407, #408, #409, #410, #411 ) );
#271 = AXIS2_PLACEMENT_3D( '', #412, #413, #414 );
#272 = SURFACE_SIDE_STYLE( '', ( #415 ) );
#273 = EDGE_LOOP( '', ( #416, #417, #418 ) );
#274 = AXIS2_PLACEMENT_3D( '', #419, #420, #421 );
#275 = SURFACE_SIDE_STYLE( '', ( #422 ) );
#276 = EDGE_LOOP( '', ( #423, #424, #425 ) );
#277 = AXIS2_PLACEMENT_3D( '', #426, #427, #428 );
#278 = SURFACE_SIDE_STYLE( '', ( #429 ) );
#279 = EDGE_LOOP( '', ( #430, #431, #432 ) );
#280 = AXIS2_PLACEMENT_3D( '', #433, #434, #435 );
#281 = SURFACE_SIDE_STYLE( '', ( #436 ) );
#282 = EDGE_LOOP( '', ( #437 ) );
#283 = EDGE_LOOP( '', ( #438 ) );
#284 = AXIS2_PLACEMENT_3D( '', #439, #440, #441 );
#285 = SURFACE_SIDE_STYLE( '', ( #442 ) );
#286 = EDGE_LOOP( '', ( #443 ) );
#287 = AXIS2_PLACEMENT_3D( '', #444, #445, #446 );
#288 = SURFACE_SIDE_STYLE( '', ( #447 ) );
#289 = EDGE_LOOP( '', ( #448, #449, #450, #451, #452, #453 ) );
#290 = AXIS2_PLACEMENT_3D( '', #454, #455, #456 );
#291 = SURFACE_SIDE_STYLE( '', ( #457 ) );
#292 = EDGE_LOOP( '', ( #458 ) );
#293 = EDGE_LOOP( '', ( #459 ) );
#294 = AXIS2_PLACEMENT_3D( '', #460, #461, #462 );
#295 = SURFACE_SIDE_STYLE( '', ( #463 ) );
#296 = EDGE_LOOP( '', ( #464, #465, #466 ) );
#297 = AXIS2_PLACEMENT_3D( '', #467, #468, #469 );
#298 = SURFACE_SIDE_STYLE( '', ( #470 ) );
#299 = EDGE_LOOP( '', ( #471 ) );
#300 = EDGE_LOOP( '', ( #472 ) );
#301 = AXIS2_PLACEMENT_3D( '', #473, #474, #475 );
#302 = SURFACE_SIDE_STYLE( '', ( #476 ) );
#303 = EDGE_LOOP( '', ( #477, #478, #479 ) );
#304 = AXIS2_PLACEMENT_3D( '', #480, #481, #482 );
#305 = SURFACE_SIDE_STYLE( '', ( #483 ) );
#306 = EDGE_LOOP( '', ( #484, #485, #486 ) );
#307 = AXIS2_PLACEMENT_3D( '', #487, #488, #489 );
#308 = SURFACE_SIDE_STYLE( '', ( #490 ) );
#309 = EDGE_LOOP( '', ( #491, #492, #493 ) );
#310 = AXIS2_PLACEMENT_3D( '', #494, #495, #496 );
#311 = SURFACE_SIDE_STYLE( '', ( #497 ) );
#312 = EDGE_LOOP( '', ( #498 ) );
#313 = EDGE_LOOP( '', ( #499, #500, #501, #502, #503, #504 ) );
#314 = AXIS2_PLACEMENT_3D( '', #505, #506, #507 );
#315 = SURFACE_SIDE_STYLE( '', ( #508 ) );
#316 = EDGE_LOOP( '', ( #509, #510, #511 ) );
#317 = AXIS2_PLACEMENT_3D( '', #512, #513, #514 );
#318 = SURFACE_SIDE_STYLE( '', ( #515 ) );
#319 = EDGE_LOOP( '', ( #516, #517, #518, #519, #520, #521 ) );
#320 = AXIS2_PLACEMENT_3D( '', #522, #523, #524 );
#321 = SURFACE_SIDE_STYLE( '', ( #525 ) );
#322 = EDGE_LOOP( '', ( #526, #527, #528, #529, #530, #531 ) );
#323 = AXIS2_PLACEMENT_3D( '', #532, #533, #534 );
#324 = SURFACE_SIDE_STYLE( '', ( #535 ) );
#325 = EDGE_LOOP( '', ( #536 ) );
#326 = EDGE_LOOP( '', ( #537 ) );
#327 = AXIS2_PLACEMENT_3D( '', #538, #539, #540 );
#328 = SURFACE_SIDE_STYLE( '', ( #541 ) );
#329 = EDGE_LOOP( '', ( #542 ) );
#330 = EDGE_LOOP( '', ( #543 ) );
#331 = AXIS2_PLACEMENT_3D( '', #544, #545, #546 );
#332 = SURFACE_SIDE_STYLE( '', ( #547 ) );
#333 = EDGE_LOOP( '', ( #548 ) );
#334 = VERTEX_LOOP( '', #549 );
#335 = AXIS2_PLACEMENT_3D( '', #550, #551, #552 );
#336 = SURFACE_SIDE_STYLE( '', ( #553 ) );
#337 = EDGE_LOOP( '', ( #554, #555, #556, #557, #558, #559 ) );
#338 = AXIS2_PLACEMENT_3D( '', #560, #561, #562 );
#339 = SURFACE_SIDE_STYLE( '', ( #563 ) );
#340 = EDGE_LOOP( '', ( #564 ) );
#341 = EDGE_LOOP( '', ( #565 ) );
#342 = AXIS2_PLACEMENT_3D( '', #566, #567, #568 );
#343 = SURFACE_SIDE_STYLE( '', ( #569 ) );
#344 = EDGE_LOOP( '', ( #570 ) );
#345 = EDGE_LOOP( '', ( #571 ) );
#346 = AXIS2_PLACEMENT_3D( '', #572, #573, #574 );
#347 = SURFACE_SIDE_STYLE( '', ( #575 ) );
#348 = EDGE_LOOP( '', ( #576, #577, #578 ) );
#349 = AXIS2_PLACEMENT_3D( '', #579, #580, #581 );
#351 = SURFACE_STYLE_FILL_AREA( #582 );
#352 = ORIENTED_EDGE( '', *, *, #583, .T. );
#353 = ORIENTED_EDGE( '', *, *, #584, .F. );
#354 = ORIENTED_EDGE( '', *, *, #585, .F. );
#355 = ORIENTED_EDGE( '', *, *, #586, .F. );
#356 = ORIENTED_EDGE( '', *, *, #587, .T. );
#357 = ORIENTED_EDGE( '', *, *, #588, .F. );
#358 = ORIENTED_EDGE( '', *, *, #589, .F. );
#359 = CARTESIAN_POINT( '', ( 0.000000000000000, 0.000000000000000, 0.000000000000000 ) );
#360 = DIRECTION( '', ( 0.000000000000000, 0.000000000000000, 1.00000000000000 ) );
#361 = DIRECTION( '', ( 1.00000000000000, 0.000000000000000, 0.000000000000000 ) );
#362 = SURFACE_STYLE_FILL_AREA( #590 );
#363 = ORIENTED_EDGE( '', *, *, #591, .F. );
#364 = ORIENTED_EDGE( '', *, *, #592, .F. );
#365 = CARTESIAN_POINT( '', ( -3.96357740681826E-015, 0.000000000000000, 0.692820323027550 ) );
#366 = DIRECTION( '', ( -5.38712954453735E-016, 0.000000000000000, -1.00000000000000 ) );
#367 = DIRECTION( '', ( -1.00000000000000, 0.000000000000000, 5.38712954453735E-016 ) );
#368 = SURFACE_STYLE_FILL_AREA( #593 );
#369 = ORIENTED_EDGE( '', *, *, #591, .T. );
#370 = ORIENTED_EDGE( '', *, *, #594, .T. );
#371 = CARTESIAN_POINT( '', ( -3.39264531208386E-015, 0.000000000000000, 1.75262794416288 ) );
#372 = DIRECTION( '', ( 5.38712954453735E-016, -0.000000000000000, 1.00000000000000 ) );
#373 = DIRECTION( '', ( 1.00000000000000, 0.000000000000000, -5.38712954453735E-016 ) );
#374 = SURFACE_STYLE_FILL_AREA( #595 );
#375 = ORIENTED_EDGE( '', *, *, #596, .T. );
#376 = ORIENTED_EDGE( '', *, *, #597, .T. );
#377 = ORIENTED_EDGE( '', *, *, #598, .T. );
#378 = CARTESIAN_POINT( '', ( 0.000000000000000, 0.000000000000000, -5.00000000000000 ) );
#379 = DIRECTION( '', ( -0.000000000000000, -0.000000000000000, 1.00000000000000 ) );
#380 = DIRECTION( '', ( 1.00000000000000, 0.000000000000000, 0.000000000000000 ) );
#381 = SURFACE_STYLE_FILL_AREA( #599 );
#382 = ORIENTED_EDGE( '', *, *, #600, .T. );
#383 = ORIENTED_EDGE( '', *, *, #601, .T. );
#384 = ORIENTED_EDGE( '', *, *, #602, .T. );
#385 = CARTESIAN_POINT( '', ( 0.000000000000000, 0.000000000000000, -5.00000000000000 ) );
#386 = DIRECTION( '', ( -0.000000000000000, -0.000000000000000, 1.00000000000000 ) );
#387 = DIRECTION( '', ( 1.00000000000000, 0.000000000000000, 0.000000000000000 ) );
#388 = SURFACE_STYLE_FILL_AREA( #603 );
#389 = ORIENTED_EDGE( '', *, *, #597, .F. );
#390 = ORIENTED_EDGE( '', *, *, #604, .T. );
#391 = ORIENTED_EDGE( '', *, *, #605, .F. );
#392 = ORIENTED_EDGE( '', *, *, #606, .F. );
#393 = ORIENTED_EDGE( '', *, *, #607, .F. );
#394 = ORIENTED_EDGE( '', *, *, #600, .F. );
#395 = CARTESIAN_POINT( '', ( 2.02072594216369, -3.50000000000000, -5.00000000000000 ) );
#396 = DIRECTION( '', ( 0.866025403784439, -0.500000000000000, 0.000000000000000 ) );
#397 = DIRECTION( '', ( 0.500000000000000, 0.866025403784439, 0.000000000000000 ) );
#398 = SURFACE_STYLE_FILL_AREA( #608 );
#399 = ORIENTED_EDGE( '', *, *, #609, .T. );
#400 = ORIENTED_EDGE( '', *, *, #610, .T. );
#401 = ORIENTED_EDGE( '', *, *, #611, .T. );
#402 = CARTESIAN_POINT( '', ( 0.000000000000000, 0.000000000000000, -5.00000000000000 ) );
#403 = DIRECTION( '', ( -0.000000000000000, -0.000000000000000, 1.00000000000000 ) );
#404 = DIRECTION( '', ( 1.00000000000000, 0.000000000000000, 0.000000000000000 ) );
#405 = SURFACE_STYLE_FILL_AREA( #612 );
#406 = ORIENTED_EDGE( '', *, *, #609, .F. );
#407 = ORIENTED_EDGE( '', *, *, #613, .T. );
#408 = ORIENTED_EDGE( '', *, *, #614, .F. );
#409 = ORIENTED_EDGE( '', *, *, #615, .F. );
#410 = ORIENTED_EDGE( '', *, *, #604, .F. );
#411 = ORIENTED_EDGE( '', *, *, #596, .F. );
#412 = CARTESIAN_POINT( '', ( 4.04145188432738, 6.52569660594270E-015, -5.00000000000000 ) );
#413 = DIRECTION( '', ( 0.866025403784439, 0.500000000000000, 0.000000000000000 ) );
#414 = DIRECTION( '', ( -0.500000000000000, 0.866025403784439, 0.000000000000000 ) );
#415 = SURFACE_STYLE_FILL_AREA( #616 );
#416 = ORIENTED_EDGE( '', *, *, #617, .T. );
#417 = ORIENTED_EDGE( '', *, *, #586, .T. );
#418 = ORIENTED_EDGE( '', *, *, #614, .T. );
#419 = CARTESIAN_POINT( '', ( 0.000000000000000, 0.000000000000000, -1.00000000000000 ) );
#420 = DIRECTION( '', ( -0.000000000000000, 0.000000000000000, -1.00000000000000 ) );
#421 = DIRECTION( '', ( -1.00000000000000, 0.000000000000000, 0.000000000000000 ) );
#422 = SURFACE_STYLE_FILL_AREA( #618 );
#423 = ORIENTED_EDGE( '', *, *, #619, .T. );
#424 = ORIENTED_EDGE( '', *, *, #620, .T. );
#425 = ORIENTED_EDGE( '', *, *, #621, .T. );
#426 = CARTESIAN_POINT( '', ( 0.000000000000000, 0.000000000000000, -5.00000000000000 ) );
#427 = DIRECTION( '', ( -0.000000000000000, -0.000000000000000, 1.00000000000000 ) );
#428 = DIRECTION( '', ( 1.00000000000000, 0.000000000000000, 0.000000000000000 ) );
#429 = SURFACE_STYLE_FILL_AREA( #622 );
#430 = ORIENTED_EDGE( '', *, *, #623, .T. );
#431 = ORIENTED_EDGE( '', *, *, #624, .T. );
#432 = ORIENTED_EDGE( '', *, *, #625, .T. );
#433 = CARTESIAN_POINT( '', ( 0.000000000000000, 0.000000000000000, -5.00000000000000 ) );
#434 = DIRECTION( '', ( -0.000000000000000, -0.000000000000000, 1.00000000000000 ) );
#435 = DIRECTION( '', ( 1.00000000000000, 0.000000000000000, 0.000000000000000 ) );
#436 = SURFACE_STYLE_FILL_AREA( #626 );
#437 = ORIENTED_EDGE( '', *, *, #627, .F. );
#438 = ORIENTED_EDGE( '', *, *, #583, .F. );
#439 = CARTESIAN_POINT( '', ( -4.12132350816052E-015, 0.000000000000000, 0.400000000000000 ) );
#440 = DIRECTION( '', ( 0.000000000000000, 0.000000000000000, 1.00000000000000 ) );
#441 = DIRECTION( '', ( 1.00000000000000, 0.000000000000000, 0.000000000000000 ) );
#442 = SURFACE_STYLE_FILL_AREA( #628 );
#443 = ORIENTED_EDGE( '', *, *, #629, .T. );
#444 = CARTESIAN_POINT( '', ( -2.71050543121379E-017, 0.000000000000000, 8.00000000000000 ) );
#445 = DIRECTION( '', ( -5.38712954453735E-016, 0.000000000000000, -1.00000000000000 ) );
#446 = DIRECTION( '', ( -1.00000000000000, 0.000000000000000, 5.38712954453735E-016 ) );
#447 = SURFACE_STYLE_FILL_AREA( #630 );
#448 = ORIENTED_EDGE( '', *, *, #620, .F. );
#449 = ORIENTED_EDGE( '', *, *, #631, .T. );
#450 = ORIENTED_EDGE( '', *, *, #632, .F. );
#451 = ORIENTED_EDGE( '', *, *, #633, .F. );
#452 = ORIENTED_EDGE( '', *, *, #634, .F. );
#453 = ORIENTED_EDGE( '', *, *, #623, .F. );
#454 = CARTESIAN_POINT( '', ( -2.02072594216368, 3.50000000000000, -5.00000000000000 ) );
#455 = DIRECTION( '', ( -0.866025403784438, 0.500000000000000, 0.000000000000000 ) );
#456 = DIRECTION( '', ( -0.500000000000000, -0.866025403784438, 0.000000000000000 ) );
#457 = SURFACE_STYLE_FILL_AREA( #635 );
#458 = ORIENTED_EDGE( '', *, *, #636, .T. );
#459 = ORIENTED_EDGE( '', *, *, #594, .F. );
#460 = CARTESIAN_POINT( '', ( -4.33680868994202E-015, 0.000000000000000, 0.000000000000000 ) );
#461 = DIRECTION( '', ( 5.38712954453735E-016, -0.000000000000000, 1.00000000000000 ) );
#462 = DIRECTION( '', ( -1.00000000000000, 0.000000000000000, 5.38712954453735E-016 ) );
#463 = SURFACE_STYLE_FILL_AREA( #637 );
#464 = ORIENTED_EDGE( '', *, *, #605, .T. );
#465 = ORIENTED_EDGE( '', *, *, #615, .T. );
#466 = ORIENTED_EDGE( '', *, *, #585, .T. );
#467 = CARTESIAN_POINT( '', ( 0.000000000000000, 0.000000000000000, -1.00000000000000 ) );
#468 = DIRECTION( '', ( -0.000000000000000, 0.000000000000000, -1.00000000000000 ) );
#469 = DIRECTION( '', ( -1.00000000000000, 0.000000000000000, 0.000000000000000 ) );
#470 = SURFACE_STYLE_FILL_AREA( #638 );
#471 = ORIENTED_EDGE( '', *, *, #639, .T. );
#472 = ORIENTED_EDGE( '', *, *, #640, .T. );
#473 = CARTESIAN_POINT( '', ( 0.000000000000000, 0.000000000000000, -5.00000000000000 ) );
#474 = DIRECTION( '', ( -0.000000000000000, 0.000000000000000, -1.00000000000000 ) );
#475 = DIRECTION( '', ( 0.000000000000000, 1.00000000000000, 0.000000000000000 ) );
#476 = SURFACE_STYLE_FILL_AREA( #641 );
#477 = ORIENTED_EDGE( '', *, *, #642, .T. );
#478 = ORIENTED_EDGE( '', *, *, #643, .T. );
#479 = ORIENTED_EDGE( '', *, *, #644, .T. );
#480 = CARTESIAN_POINT( '', ( 0.000000000000000, 0.000000000000000, -5.00000000000000 ) );
#481 = DIRECTION( '', ( -0.000000000000000, -0.000000000000000, 1.00000000000000 ) );
#482 = DIRECTION( '', ( 1.00000000000000, 0.000000000000000, 0.000000000000000 ) );
#483 = SURFACE_STYLE_FILL_AREA( #645 );
#484 = ORIENTED_EDGE( '', *, *, #646, .T. );
#485 = ORIENTED_EDGE( '', *, *, #633, .T. );
#486 = ORIENTED_EDGE( '', *, *, #587, .F. );
#487 = CARTESIAN_POINT( '', ( 0.000000000000000, 0.000000000000000, -1.00000000000000 ) );
#488 = DIRECTION( '', ( -0.000000000000000, 0.000000000000000, -1.00000000000000 ) );
#489 = DIRECTION( '', ( -1.00000000000000, 0.000000000000000, 0.000000000000000 ) );
#490 = SURFACE_STYLE_FILL_AREA( #647 );
#491 = ORIENTED_EDGE( '', *, *, #648, .T. );
#492 = ORIENTED_EDGE( '', *, *, #649, .T. );
#493 = ORIENTED_EDGE( '', *, *, #589, .T. );
#494 = CARTESIAN_POINT( '', ( 0.000000000000000, 0.000000000000000, -1.00000000000000 ) );
#495 = DIRECTION( '', ( -0.000000000000000, 0.000000000000000, -1.00000000000000 ) );
#496 = DIRECTION( '', ( -1.00000000000000, 0.000000000000000, 0.000000000000000 ) );
#497 = SURFACE_STYLE_FILL_AREA( #650 );
#498 = ORIENTED_EDGE( '', *, *, #651, .T. );
#499 = ORIENTED_EDGE( '', *, *, #598, .F. );
#500 = ORIENTED_EDGE( '', *, *, #602, .F. );
#501 = ORIENTED_EDGE( '', *, *, #644, .F. );
#502 = ORIENTED_EDGE( '', *, *, #621, .F. );
#503 = ORIENTED_EDGE( '', *, *, #625, .F. );
#504 = ORIENTED_EDGE( '', *, *, #610, .F. );
#505 = CARTESIAN_POINT( '', ( 0.000000000000000, 0.000000000000000, -5.00000000000000 ) );
#506 = DIRECTION( '', ( 0.000000000000000, 0.000000000000000, 1.00000000000000 ) );
#507 = DIRECTION( '', ( 1.00000000000000, 0.000000000000000, 0.000000000000000 ) );
#508 = SURFACE_STYLE_FILL_AREA( #652 );
#509 = ORIENTED_EDGE( '', *, *, #632, .T. );
#510 = ORIENTED_EDGE( '', *, *, #653, .T. );
#511 = ORIENTED_EDGE( '', *, *, #588, .T. );
#512 = CARTESIAN_POINT( '', ( 0.000000000000000, 0.000000000000000, -1.00000000000000 ) );
#513 = DIRECTION( '', ( -0.000000000000000, 0.000000000000000, -1.00000000000000 ) );
#514 = DIRECTION( '', ( -1.00000000000000, 0.000000000000000, 0.000000000000000 ) );
#515 = SURFACE_STYLE_FILL_AREA( #654 );
#516 = ORIENTED_EDGE( '', *, *, #601, .F. );
#517 = ORIENTED_EDGE( '', *, *, #607, .T. );
#518 = ORIENTED_EDGE( '', *, *, #655, .F. );
#519 = ORIENTED_EDGE( '', *, *, #649, .F. );
#520 = ORIENTED_EDGE( '', *, *, #656, .F. );
#521 = ORIENTED_EDGE( '', *, *, #642, .F. );
#522 = CARTESIAN_POINT( '', ( -2.02072594216369, -3.50000000000000, -5.00000000000000 ) );
#523 = DIRECTION( '', ( -9.65773670616745E-016, -1.00000000000000, 0.000000000000000 ) );
#524 = DIRECTION( '', ( 1.00000000000000, -9.65773670616745E-016, 0.000000000000000 ) );
#525 = SURFACE_STYLE_FILL_AREA( #657 );
#526 = ORIENTED_EDGE( '', *, *, #624, .F. );
#527 = ORIENTED_EDGE( '', *, *, #634, .T. );
#528 = ORIENTED_EDGE( '', *, *, #646, .F. );
#529 = ORIENTED_EDGE( '', *, *, #617, .F. );
#530 = ORIENTED_EDGE( '', *, *, #613, .F. );
#531 = ORIENTED_EDGE( '', *, *, #611, .F. );
#532 = CARTESIAN_POINT( '', ( 2.02072594216368, 3.50000000000000, -5.00000000000000 ) );
#533 = DIRECTION( '', ( 8.58465484992666E-016, 1.00000000000000, 0.000000000000000 ) );
#534 = DIRECTION( '', ( -1.00000000000000, 8.58465484992666E-016, 0.000000000000000 ) );
#535 = SURFACE_STYLE_FILL_AREA( #658 );
#536 = ORIENTED_EDGE( '', *, *, #629, .F. );
#537 = ORIENTED_EDGE( '', *, *, #636, .F. );
#538 = CARTESIAN_POINT( '', ( -1.88718940648259E-016, 0.000000000000000, 7.70000000000000 ) );
#539 = DIRECTION( '', ( -5.38712954453736E-016, 0.000000000000000, -1.00000000000000 ) );
#540 = DIRECTION( '', ( -1.00000000000000, 0.000000000000000, 5.38712954453736E-016 ) );
#541 = SURFACE_STYLE_FILL_AREA( #659 );
#542 = ORIENTED_EDGE( '', *, *, #660, .F. );
#543 = ORIENTED_EDGE( '', *, *, #651, .F. );
#544 = CARTESIAN_POINT( '', ( 0.000000000000000, 0.000000000000000, -5.00000000000000 ) );
#545 = DIRECTION( '', ( 0.000000000000000, -0.000000000000000, -1.00000000000000 ) );
#546 = DIRECTION( '', ( 0.000000000000000, 1.00000000000000, 0.000000000000000 ) );
#547 = SURFACE_STYLE_FILL_AREA( #661 );
#548 = ORIENTED_EDGE( '', *, *, #639, .F. );
#549 = VERTEX_POINT( '', #662 );
#550 = CARTESIAN_POINT( '', ( 0.000000000000000, 0.000000000000000, -1.00000000000000 ) );
#551 = DIRECTION( '', ( 0.000000000000000, -0.000000000000000, -1.00000000000000 ) );
#552 = DIRECTION( '', ( 0.000000000000000, -1.00000000000000, 0.000000000000000 ) );
#553 = SURFACE_STYLE_FILL_AREA( #663 );
#554 = ORIENTED_EDGE( '', *, *, #643, .F. );
#555 = ORIENTED_EDGE( '', *, *, #656, .T. );
#556 = ORIENTED_EDGE( '', *, *, #648, .F. );
#557 = ORIENTED_EDGE( '', *, *, #653, .F. );
#558 = ORIENTED_EDGE( '', *, *, #631, .F. );
#559 = ORIENTED_EDGE( '', *, *, #619, .F. );
#560 = CARTESIAN_POINT( '', ( -4.04145188432738, 1.38879313579902E-014, -5.00000000000000 ) );
#561 = DIRECTION( '', ( -0.866025403784439, -0.500000000000000, 0.000000000000000 ) );
#562 = DIRECTION( '', ( 0.499999999999999, -0.866025403784439, 0.000000000000000 ) );
#563 = SURFACE_STYLE_FILL_AREA( #664 );
#564 = ORIENTED_EDGE( '', *, *, #640, .F. );
#565 = ORIENTED_EDGE( '', *, *, #660, .T. );
#566 = CARTESIAN_POINT( '', ( 0.000000000000000, 0.000000000000000, -5.00000000000000 ) );
#567 = DIRECTION( '', ( -0.000000000000000, 0.000000000000000, -1.00000000000000 ) );
#568 = DIRECTION( '', ( 0.000000000000000, 1.00000000000000, 0.000000000000000 ) );
#569 = SURFACE_STYLE_FILL_AREA( #665 );
#570 = ORIENTED_EDGE( '', *, *, #592, .T. );
#571 = ORIENTED_EDGE( '', *, *, #627, .T. );
#572 = CARTESIAN_POINT( '', ( -4.33680868994202E-015, 0.000000000000000, 0.000000000000000 ) );
#573 = DIRECTION( '', ( 5.38712954453735E-016, -0.000000000000000, 1.00000000000000 ) );
#574 = DIRECTION( '', ( -1.00000000000000, 0.000000000000000, 5.38712954453735E-016 ) );
#575 = SURFACE_STYLE_FILL_AREA( #666 );
#576 = ORIENTED_EDGE( '', *, *, #655, .T. );
#577 = ORIENTED_EDGE( '', *, *, #606, .T. );
#578 = ORIENTED_EDGE( '', *, *, #584, .T. );
#579 = CARTESIAN_POINT( '', ( 0.000000000000000, 0.000000000000000, -1.00000000000000 ) );
#580 = DIRECTION( '', ( -0.000000000000000, 0.000000000000000, -1.00000000000000 ) );
#581 = DIRECTION( '', ( -1.00000000000000, 0.000000000000000, 0.000000000000000 ) );
#582 = FILL_AREA_STYLE( '', ( #667 ) );
#583 = EDGE_CURVE( '', #668, #668, #669, .F. );
#584 = EDGE_CURVE( '', #670, #671, #672, .F. );
#585 = EDGE_CURVE( '', #673, #670, #674, .F. );
#586 = EDGE_CURVE( '', #675, #673, #676, .F. );
#587 = EDGE_CURVE( '', #675, #677, #678, .T. );
#588 = EDGE_CURVE( '', #679, #677, #680, .F. );
#589 = EDGE_CURVE( '', #671, #679, #681, .F. );
#590 = FILL_AREA_STYLE( '', ( #682 ) );
#591 = EDGE_CURVE( '', #683, #683, #684, .T. );
#592 = EDGE_CURVE( '', #685, #685, #686, .T. );
#593 = FILL_AREA_STYLE( '', ( #687 ) );
#594 = EDGE_CURVE( '', #688, #688, #689, .T. );
#595 = FILL_AREA_STYLE( '', ( #690 ) );
#596 = EDGE_CURVE( '', #691, #692, #693, .T. );
#597 = EDGE_CURVE( '', #692, #694, #695, .T. );
#598 = EDGE_CURVE( '', #694, #691, #696, .T. );
#599 = FILL_AREA_STYLE( '', ( #697 ) );
#600 = EDGE_CURVE( '', #694, #698, #699, .T. );
#601 = EDGE_CURVE( '', #698, #700, #701, .F. );
#602 = EDGE_CURVE( '', #700, #694, #702, .T. );
#603 = FILL_AREA_STYLE( '', ( #703 ) );
#604 = EDGE_CURVE( '', #692, #704, #705, .T. );
#605 = EDGE_CURVE( '', #670, #704, #706, .T. );
#606 = EDGE_CURVE( '', #707, #670, #708, .T. );
#607 = EDGE_CURVE( '', #698, #707, #709, .T. );
#608 = FILL_AREA_STYLE( '', ( #710 ) );
#609 = EDGE_CURVE( '', #711, #691, #712, .T. );
#610 = EDGE_CURVE( '', #691, #713, #714, .T. );
#611 = EDGE_CURVE( '', #713, #711, #715, .T. );
#612 = FILL_AREA_STYLE( '', ( #716 ) );
#613 = EDGE_CURVE( '', #711, #717, #718, .T. );
#614 = EDGE_CURVE( '', #673, #717, #719, .T. );
#615 = EDGE_CURVE( '', #704, #673, #720, .T. );
#616 = FILL_AREA_STYLE( '', ( #721 ) );
#617 = EDGE_CURVE( '', #717, #675, #722, .F. );
#618 = FILL_AREA_STYLE( '', ( #723 ) );
#619 = EDGE_CURVE( '', #724, #725, #726, .T. );
#620 = EDGE_CURVE( '', #725, #727, #728, .T. );
#621 = EDGE_CURVE( '', #727, #724, #729, .T. );
#622 = FILL_AREA_STYLE( '', ( #730 ) );
#623 = EDGE_CURVE( '', #727, #731, #732, .T. );
#624 = EDGE_CURVE( '', #731, #713, #733, .T. );
#625 = EDGE_CURVE( '', #713, #727, #734, .T. );
#626 = FILL_AREA_STYLE( '', ( #735 ) );
#627 = EDGE_CURVE( '', #736, #736, #737, .T. );
#628 = FILL_AREA_STYLE( '', ( #738 ) );
#629 = EDGE_CURVE( '', #739, #739, #740, .F. );
#630 = FILL_AREA_STYLE( '', ( #741 ) );
#631 = EDGE_CURVE( '', #725, #742, #743, .T. );
#632 = EDGE_CURVE( '', #677, #742, #744, .T. );
#633 = EDGE_CURVE( '', #745, #677, #746, .T. );
#634 = EDGE_CURVE( '', #731, #745, #747, .T. );
#635 = FILL_AREA_STYLE( '', ( #748 ) );
#636 = EDGE_CURVE( '', #749, #749, #750, .T. );
#637 = FILL_AREA_STYLE( '', ( #751 ) );
#638 = FILL_AREA_STYLE( '', ( #752 ) );
#639 = EDGE_CURVE( '', #753, #753, #754, .T. );
#640 = EDGE_CURVE( '', #755, #755, #756, .T. );
#641 = FILL_AREA_STYLE( '', ( #757 ) );
#642 = EDGE_CURVE( '', #700, #758, #759, .F. );
#643 = EDGE_CURVE( '', #758, #724, #760, .T. );
#644 = EDGE_CURVE( '', #724, #700, #761, .T. );
#645 = FILL_AREA_STYLE( '', ( #762 ) );
#646 = EDGE_CURVE( '', #675, #745, #763, .F. );
#647 = FILL_AREA_STYLE( '', ( #764 ) );
#648 = EDGE_CURVE( '', #679, #765, #766, .T. );
#649 = EDGE_CURVE( '', #765, #671, #767, .T. );
#650 = FILL_AREA_STYLE( '', ( #768 ) );
#651 = EDGE_CURVE( '', #769, #769, #770, .T. );
#652 = FILL_AREA_STYLE( '', ( #771 ) );
#653 = EDGE_CURVE( '', #742, #679, #772, .T. );
#654 = FILL_AREA_STYLE( '', ( #773 ) );
#655 = EDGE_CURVE( '', #671, #707, #774, .T. );
#656 = EDGE_CURVE( '', #758, #765, #775, .T. );
#657 = FILL_AREA_STYLE( '', ( #776 ) );
#658 = FILL_AREA_STYLE( '', ( #777 ) );
#659 = FILL_AREA_STYLE( '', ( #778 ) );
#660 = EDGE_CURVE( '', #779, #779, #780, .T. );
#661 = FILL_AREA_STYLE( '', ( #781 ) );
#662 = CARTESIAN_POINT( '', ( 0.000000000000000, 0.000000000000000, -0.0260049365563243 ) );
#663 = FILL_AREA_STYLE( '', ( #782 ) );
#664 = FILL_AREA_STYLE( '', ( #783 ) );
#665 = FILL_AREA_STYLE( '', ( #784 ) );
#666 = FILL_AREA_STYLE( '', ( #785 ) );
#667 = FILL_AREA_STYLE_COLOUR( '', #786 );
#668 = VERTEX_POINT( '', #787 );
#669 = CIRCLE( '', #788, 1.85000000000000 );
#670 = VERTEX_POINT( '', #789 );
#671 = VERTEX_POINT( '', #790 );
#672 = CIRCLE( '', #791, 3.50000000000000 );
#673 = VERTEX_POINT( '', #792 );
#674 = CIRCLE( '', #793, 3.50000000000000 );
#675 = VERTEX_POINT( '', #794 );
#676 = CIRCLE( '', #795, 3.50000000000000 );
#677 = VERTEX_POINT( '', #796 );
#678 = CIRCLE( '', #797, 3.50000000000000 );
#679 = VERTEX_POINT( '', #798 );
#680 = CIRCLE( '', #799, 3.50000000000000 );
#681 = CIRCLE( '', #800, 3.50000000000000 );
#682 = FILL_AREA_STYLE_COLOUR( '', #801 );
#683 = VERTEX_POINT( '', #802 );
#684 = CIRCLE( '', #803, 1.50358983850000 );
#685 = VERTEX_POINT( '', #804 );
#686 = CIRCLE( '', #805, 1.45000000000000 );
#687 = FILL_AREA_STYLE_COLOUR( '', #806 );
#688 = VERTEX_POINT( '', #807 );
#689 = CIRCLE( '', #808, 2.00000000000000 );
#690 = FILL_AREA_STYLE_COLOUR( '', #809 );
#691 = VERTEX_POINT( '', #810 );
#692 = VERTEX_POINT( '', #811 );
#693 = B_SPLINE_CURVE_WITH_KNOTS( '', 3, ( #812, #813, #814, #815, #816, #817 ), .UNSPECIFIED., .F., .F., ( 4, 2, 4 ), ( 0.00209491961020706, 0.00313491461756391, 0.00417490962492076 ), .UNSPECIFIED. );
#694 = VERTEX_POINT( '', #818 );
#695 = B_SPLINE_CURVE_WITH_KNOTS( '', 3, ( #819, #820, #821, #822, #823, #824, #825, #826 ), .UNSPECIFIED., .F., .F., ( 4, 2, 2, 4 ), ( 0.000000000000000, 0.00104758702158703, 0.00157125331589705, 0.00209491961020706 ), .UNSPECIFIED. );
#696 = CIRCLE( '', #827, 3.50000000000000 );
#697 = FILL_AREA_STYLE_COLOUR( '', #828 );
#698 = VERTEX_POINT( '', #829 );
#699 = B_SPLINE_CURVE_WITH_KNOTS( '', 3, ( #830, #831, #832, #833, #834, #835 ), .UNSPECIFIED., .F., .F., ( 4, 2, 4 ), ( 0.00209491961020706, 0.00313491461756391, 0.00417490962492077 ), .UNSPECIFIED. );
#700 = VERTEX_POINT( '', #836 );
#701 = B_SPLINE_CURVE_WITH_KNOTS( '', 3, ( #837, #838, #839, #840, #841, #842, #843, #844 ), .UNSPECIFIED., .F., .F., ( 4, 2, 2, 4 ), ( 0.00571116827084066, 0.00675577593158268, 0.00727807976195369, 0.00780038359232470 ), .UNSPECIFIED. );
#702 = CIRCLE( '', #845, 3.50000000000000 );
#703 = FILL_AREA_STYLE_COLOUR( '', #846 );
#704 = VERTEX_POINT( '', #847 );
#705 = LINE( '', #848, #849 );
#706 = B_SPLINE_CURVE_WITH_KNOTS( '', 3, ( #850, #851, #852, #853, #854, #855 ), .UNSPECIFIED., .F., .F., ( 4, 2, 4 ), ( 0.00209491961020706, 0.00313491461756392, 0.00417490962492078 ), .UNSPECIFIED. );
#707 = VERTEX_POINT( '', #856 );
#708 = B_SPLINE_CURVE_WITH_KNOTS( '', 3, ( #857, #858, #859, #860, #861, #862, #863, #864 ), .UNSPECIFIED., .F., .F., ( 4, 2, 2, 4 ), ( 0.000000000000000, 0.00104758702158703, 0.00157125331589705, 0.00209491961020706 ), .UNSPECIFIED. );
#709 = LINE( '', #865, #866 );
#710 = FILL_AREA_STYLE_COLOUR( '', #867 );
#711 = VERTEX_POINT( '', #868 );
#712 = B_SPLINE_CURVE_WITH_KNOTS( '', 3, ( #869, #870, #871, #872, #873, #874, #875, #876 ), .UNSPECIFIED., .F., .F., ( 4, 2, 2, 4 ), ( 0.000000000000000, 0.00104758702158703, 0.00157125331589704, 0.00209491961020706 ), .UNSPECIFIED. );
#713 = VERTEX_POINT( '', #877 );
#714 = CIRCLE( '', #878, 3.50000000000000 );
#715 = B_SPLINE_CURVE_WITH_KNOTS( '', 3, ( #879, #880, #881, #882, #883, #884, #885, #886 ), .UNSPECIFIED., .F., .F., ( 4, 2, 2, 4 ), ( 0.00571116827052198, 0.00675577593126404, 0.00727807976163506, 0.00780038359200609 ), .UNSPECIFIED. );
#716 = FILL_AREA_STYLE_COLOUR( '', #887 );
#717 = VERTEX_POINT( '', #888 );
#718 = LINE( '', #889, #890 );
#719 = B_SPLINE_CURVE_WITH_KNOTS( '', 3, ( #891, #892, #893, #894, #895, #896 ), .UNSPECIFIED., .F., .F., ( 4, 2, 4 ), ( 0.00209491961020704, 0.00313491461756390, 0.00417490962492076 ), .UNSPECIFIED. );
#720 = B_SPLINE_CURVE_WITH_KNOTS( '', 3, ( #897, #898, #899, #900, #901, #902, #903, #904 ), .UNSPECIFIED., .F., .F., ( 4, 2, 2, 4 ), ( 0.000000000000000, 0.00104758702158703, 0.00157125331589703, 0.00209491961020704 ), .UNSPECIFIED. );
#721 = FILL_AREA_STYLE_COLOUR( '', #905 );
#722 = B_SPLINE_CURVE_WITH_KNOTS( '', 3, ( #906, #907, #908, #909, #910, #911, #912, #913 ), .UNSPECIFIED., .F., .F., ( 4, 2, 2, 4 ), ( 0.00571116827052199, 0.00675577593126405, 0.00727807976163508, 0.00780038359200611 ), .UNSPECIFIED. );
#723 = FILL_AREA_STYLE_COLOUR( '', #914 );
#724 = VERTEX_POINT( '', #915 );
#725 = VERTEX_POINT( '', #916 );
#726 = B_SPLINE_CURVE_WITH_KNOTS( '', 3, ( #917, #918, #919, #920, #921, #922 ), .UNSPECIFIED., .F., .F., ( 4, 2, 4 ), ( 0.00209491961020705, 0.00313491461756391, 0.00417490962492077 ), .UNSPECIFIED. );
#727 = VERTEX_POINT( '', #923 );
#728 = B_SPLINE_CURVE_WITH_KNOTS( '', 3, ( #924, #925, #926, #927, #928, #929, #930, #931 ), .UNSPECIFIED., .F., .F., ( 4, 2, 2, 4 ), ( 0.000000000000000, 0.00104758702158702, 0.00157125331589703, 0.00209491961020704 ), .UNSPECIFIED. );
#729 = CIRCLE( '', #932, 3.50000000000000 );
#730 = FILL_AREA_STYLE_COLOUR( '', #933 );
#731 = VERTEX_POINT( '', #934 );
#732 = B_SPLINE_CURVE_WITH_KNOTS( '', 3, ( #935, #936, #937, #938, #939, #940 ), .UNSPECIFIED., .F., .F., ( 4, 2, 4 ), ( 0.00209491961020704, 0.00313491461756390, 0.00417490962492076 ), .UNSPECIFIED. );
#733 = B_SPLINE_CURVE_WITH_KNOTS( '', 3, ( #941, #942, #943, #944, #945, #946, #947, #948 ), .UNSPECIFIED., .F., .F., ( 4, 2, 2, 4 ), ( 0.00362465320569583, 0.00466791073810891, 0.00518953950431544, 0.00571116827052198 ), .UNSPECIFIED. );
#734 = CIRCLE( '', #949, 3.50000000000000 );
#735 = FILL_AREA_STYLE_COLOUR( '', #950 );
#736 = VERTEX_POINT( '', #951 );
#737 = CIRCLE( '', #952, 1.45000000000000 );
#738 = FILL_AREA_STYLE_COLOUR( '', #953 );
#739 = VERTEX_POINT( '', #954 );
#740 = CIRCLE( '', #955, 1.70000000000000 );
#741 = FILL_AREA_STYLE_COLOUR( '', #956 );
#742 = VERTEX_POINT( '', #957 );
#743 = LINE( '', #958, #959 );
#744 = B_SPLINE_CURVE_WITH_KNOTS( '', 3, ( #960, #961, #962, #963, #964, #965 ), .UNSPECIFIED., .F., .F., ( 4, 2, 4 ), ( 0.00209491961020706, 0.00313491461756391, 0.00417490962492076 ), .UNSPECIFIED. );
#745 = VERTEX_POINT( '', #966 );
#746 = B_SPLINE_CURVE_WITH_KNOTS( '', 3, ( #967, #968, #969, #970, #971, #972, #973, #974 ), .UNSPECIFIED., .F., .F., ( 4, 2, 2, 4 ), ( 0.000000000000000, 0.00104758702158703, 0.00157125331589705, 0.00209491961020706 ), .UNSPECIFIED. );
#747 = LINE( '', #975, #976 );
#748 = FILL_AREA_STYLE_COLOUR( '', #977 );
#749 = VERTEX_POINT( '', #978 );
#750 = CIRCLE( '', #979, 2.00000000000000 );
#751 = FILL_AREA_STYLE_COLOUR( '', #980 );
#752 = FILL_AREA_STYLE_COLOUR( '', #981 );
#753 = VERTEX_POINT( '', #982 );
#754 = CIRCLE( '', #983, 1.62100000000000 );
#755 = VERTEX_POINT( '', #984 );
#756 = CIRCLE( '', #985, 1.62100000000000 );
#757 = FILL_AREA_STYLE_COLOUR( '', #986 );
#758 = VERTEX_POINT( '', #987 );
#759 = B_SPLINE_CURVE_WITH_KNOTS( '', 3, ( #988, #989, #990, #991, #992, #993, #994, #995 ), .UNSPECIFIED., .F., .F., ( 4, 2, 2, 4 ), ( 0.00362465320601803, 0.00466791073842935, 0.00518953950463500, 0.00571116827084066 ), .UNSPECIFIED. );
#760 = B_SPLINE_CURVE_WITH_KNOTS( '', 3, ( #996, #997, #998, #999, #1000, #1001, #1002, #1003 ), .UNSPECIFIED., .F., .F., ( 4, 2, 2, 4 ), ( 0.000000000000000, 0.00104758702158703, 0.00157125331589704, 0.00209491961020705 ), .UNSPECIFIED. );
#761 = CIRCLE( '', #1004, 3.50000000000000 );
#762 = FILL_AREA_STYLE_COLOUR( '', #1005 );
#763 = B_SPLINE_CURVE_WITH_KNOTS( '', 3, ( #1006, #1007, #1008, #1009, #1010, #1011, #1012, #1013 ), .UNSPECIFIED., .F., .F., ( 4, 2, 2, 4 ), ( 0.00362465320569584, 0.00466791073810892, 0.00518953950431545, 0.00571116827052199 ), .UNSPECIFIED. );
#764 = FILL_AREA_STYLE_COLOUR( '', #1014 );
#765 = VERTEX_POINT( '', #1015 );
#766 = B_SPLINE_CURVE_WITH_KNOTS( '', 3, ( #1016, #1017, #1018, #1019, #1020, #1021 ), .UNSPECIFIED., .F., .F., ( 4, 2, 4 ), ( 0.00209491961020706, 0.00313491461756392, 0.00417490962492078 ), .UNSPECIFIED. );
#767 = B_SPLINE_CURVE_WITH_KNOTS( '', 3, ( #1022, #1023, #1024, #1025, #1026, #1027, #1028, #1029 ), .UNSPECIFIED., .F., .F., ( 4, 2, 2, 4 ), ( 0.00362465320601804, 0.00466791073842935, 0.00518953950463501, 0.00571116827084067 ), .UNSPECIFIED. );
#768 = FILL_AREA_STYLE_COLOUR( '', #1030 );
#769 = VERTEX_POINT( '', #1031 );
#770 = CIRCLE( '', #1032, 1.92100000000000 );
#771 = FILL_AREA_STYLE_COLOUR( '', #1033 );
#772 = B_SPLINE_CURVE_WITH_KNOTS( '', 3, ( #1034, #1035, #1036, #1037, #1038, #1039, #1040, #1041 ), .UNSPECIFIED., .F., .F., ( 4, 2, 2, 4 ), ( 0.000000000000000, 0.00104758702158703, 0.00157125331589704, 0.00209491961020706 ), .UNSPECIFIED. );
#773 = FILL_AREA_STYLE_COLOUR( '', #1042 );
#774 = B_SPLINE_CURVE_WITH_KNOTS( '', 3, ( #1043, #1044, #1045, #1046, #1047, #1048, #1049, #1050 ), .UNSPECIFIED., .F., .F., ( 4, 2, 2, 4 ), ( 0.00571116827084067, 0.00675577593158269, 0.00727807976195370, 0.00780038359232471 ), .UNSPECIFIED. );
#775 = LINE( '', #1051, #1052 );
#776 = FILL_AREA_STYLE_COLOUR( '', #1053 );
#777 = FILL_AREA_STYLE_COLOUR( '', #1054 );
#778 = FILL_AREA_STYLE_COLOUR( '', #1055 );
#779 = VERTEX_POINT( '', #1056 );
#780 = CIRCLE( '', #1057, 1.62100000000000 );
#781 = FILL_AREA_STYLE_COLOUR( '', #1058 );
#782 = FILL_AREA_STYLE_COLOUR( '', #1059 );
#783 = FILL_AREA_STYLE_COLOUR( '', #1060 );
#784 = FILL_AREA_STYLE_COLOUR( '', #1061 );
#785 = FILL_AREA_STYLE_COLOUR( '', #1062 );
#786 = COLOUR_RGB( '', 0.505882382400000, 0.529411792800000, 0.549019634700000 );
#787 = CARTESIAN_POINT( '', ( 1.85000000000000, 0.000000000000000, 0.000000000000000 ) );
#788 = AXIS2_PLACEMENT_3D( '', #1063, #1064, #1065 );
#789 = CARTESIAN_POINT( '', ( 3.03108891324554, -1.75000000000000, 0.000000000000000 ) );
#790 = CARTESIAN_POINT( '', ( -3.38020784715861E-015, -3.50000000000000, 0.000000000000000 ) );
#791 = AXIS2_PLACEMENT_3D( '', #1066, #1067, #1068 );
#792 = CARTESIAN_POINT( '', ( 3.03108891324554, 1.75000000000000, 0.000000000000000 ) );
#793 = AXIS2_PLACEMENT_3D( '', #1069, #1070, #1071 );
#794 = CARTESIAN_POINT( '', ( 0.000000000000000, 3.50000000000000, 0.000000000000000 ) );
#795 = AXIS2_PLACEMENT_3D( '', #1072, #1073, #1074 );
#796 = CARTESIAN_POINT( '', ( -3.03108891324554, 1.75000000000000, 0.000000000000000 ) );
#797 = AXIS2_PLACEMENT_3D( '', #1075, #1076, #1077 );
#798 = CARTESIAN_POINT( '', ( -3.03108891324555, -1.75000000000000, 0.000000000000000 ) );
#799 = AXIS2_PLACEMENT_3D( '', #1078, #1079, #1080 );
#800 = AXIS2_PLACEMENT_3D( '', #1081, #1082, #1083 );
#801 = COLOUR_RGB( '', 0.505882382400000, 0.529411792800000, 0.549019634700000 );
#802 = CARTESIAN_POINT( '', ( 1.50358983848622, 0.000000000000000, 0.892820323027549 ) );
#803 = AXIS2_PLACEMENT_3D( '', #1084, #1085, #1086 );
#804 = CARTESIAN_POINT( '', ( -1.45000000000000, 0.000000000000000, 0.692820323027551 ) );
#805 = AXIS2_PLACEMENT_3D( '', #1087, #1088, #1089 );
#806 = COLOUR_RGB( '', 0.505882382400000, 0.529411792800000, 0.549019634700000 );
#807 = CARTESIAN_POINT( '', ( -2.00000000000000, 0.000000000000000, 1.75262794416288 ) );
#808 = AXIS2_PLACEMENT_3D( '', #1090, #1091, #1092 );
#809 = COLOUR_RGB( '', 0.505882382400000, 0.529411792800000, 0.549019634700000 );
#810 = CARTESIAN_POINT( '', ( 3.03108891324554, 1.75000000000000, -5.00000000000000 ) );
#811 = CARTESIAN_POINT( '', ( 4.04145188432738, 6.39446022811380E-015, -4.45854811567263 ) );
#812 = CARTESIAN_POINT( '', ( 3.03108891324553, 1.75000000000000, -5.00000000000000 ) );
#813 = CARTESIAN_POINT( '', ( 3.20683150140219, 1.44560490825902, -5.00000000000000 ) );
#814 = CARTESIAN_POINT( '', ( 3.37958597691273, 1.14638537943985, -4.94625635455520 ) );
#815 = CARTESIAN_POINT( '', ( 3.72030144562284, 0.556248876709296, -4.75255437088882 ) );
#816 = CARTESIAN_POINT( '', ( 3.88319615613297, 0.274106961821520, -4.61680384386728 ) );
#817 = CARTESIAN_POINT( '', ( 4.04145188432742, -6.26794736719437E-014, -4.45854811567283 ) );
#818 = CARTESIAN_POINT( '', ( 3.03108891324553, -1.75000000000000, -5.00000000000000 ) );
#819 = CARTESIAN_POINT( '', ( 4.04145188432738, 3.32037857172922E-015, -4.45854811567262 ) );
#820 = CARTESIAN_POINT( '', ( 3.88301299660350, -0.274424203432455, -4.61698700339650 ) );
#821 = CARTESIAN_POINT( '', ( 3.72098809587036, -0.555059563593554, -4.75161913786655 ) );
#822 = CARTESIAN_POINT( '', ( 3.46921402221870, -0.991145051186814, -4.89556615622278 ) );
#823 = CARTESIAN_POINT( '', ( 3.38381775504671, -1.13905572470542, -4.93377902591581 ) );
#824 = CARTESIAN_POINT( '', ( 3.20939557528577, -1.44116380201830, -4.98610834607040 ) );
#825 = CARTESIAN_POINT( '', ( 3.11958017449335, -1.59672863949292, -5.00000000000001 ) );
#826 = CARTESIAN_POINT( '', ( 3.03108891324553, -1.75000000000000, -5.00000000000000 ) );
#827 = AXIS2_PLACEMENT_3D( '', #1093, #1094, #1095 );
#828 = COLOUR_RGB( '', 0.505882382400000, 0.529411792800000, 0.549019634700000 );
#829 = CARTESIAN_POINT( '', ( 2.02072594216369, -3.50000000000000, -4.45854811567264 ) );
#830 = CARTESIAN_POINT( '', ( 3.03108891324553, -1.75000000000000, -5.00000000000000 ) );
#831 = CARTESIAN_POINT( '', ( 2.85534632508888, -2.05439509174098, -5.00000000000001 ) );
#832 = CARTESIAN_POINT( '', ( 2.68259184957833, -2.35361462056015, -4.94625635455520 ) );
#833 = CARTESIAN_POINT( '', ( 2.34187638086822, -2.94375112329071, -4.75255437088882 ) );
#834 = CARTESIAN_POINT( '', ( 2.17898167035809, -3.22589303817848, -4.61680384386728 ) );
#835 = CARTESIAN_POINT( '', ( 2.02072594216365, -3.50000000000007, -4.45854811567283 ) );
#836 = CARTESIAN_POINT( '', ( -3.38020784715860E-015, -3.50000000000000, -5.00000000000000 ) );
#837 = CARTESIAN_POINT( '', ( -6.69578717623912E-016, -3.50000000000000, -5.00000000000001 ) );
#838 = CARTESIAN_POINT( '', ( 0.354885398005652, -3.50000000000000, -5.00000000000001 ) );
#839 = CARTESIAN_POINT( '', ( 0.700762444481534, -3.50000000000000, -4.94535743152684 ) );
#840 = CARTESIAN_POINT( '', ( 1.20922016417659, -3.50000000000000, -4.80056526588822 ) );
#841 = CARTESIAN_POINT( '', ( 1.37772173779796, -3.50000000000000, -4.74158052786481 ) );
#842 = CARTESIAN_POINT( '', ( 1.70479380956452, -3.50000000000000, -4.60976585860781 ) );
#843 = CARTESIAN_POINT( '', ( 1.86426501704719, -3.50000000000000, -4.53677857823086 ) );
#844 = CARTESIAN_POINT( '', ( 2.02072594216368, -3.50000000000000, -4.45854811567262 ) );
#845 = AXIS2_PLACEMENT_3D( '', #1096, #1097, #1098 );
#846 = COLOUR_RGB( '', 0.505882382400000, 0.529411792800000, 0.549019634700000 );
#847 = CARTESIAN_POINT( '', ( 4.04145188432738, 6.72098410117904E-015, -0.541451884327371 ) );
#848 = CARTESIAN_POINT( '', ( 4.04145188432738, 6.93889390390723E-015, -5.00000000000000 ) );
#849 = VECTOR( '', #1099, 1000.00000000000 );
#850 = CARTESIAN_POINT( '', ( 3.03108891324553, -1.75000000000000, 4.37539117842510E-015 ) );
#851 = CARTESIAN_POINT( '', ( 3.20683150140219, -1.44560490825902, 4.13945001323177E-015 ) );
#852 = CARTESIAN_POINT( '', ( 3.37958597691273, -1.14638537943985, -0.0537436454448037 ) );
#853 = CARTESIAN_POINT( '', ( 3.72030144562284, -0.556248876709286, -0.247445629111177 ) );
#854 = CARTESIAN_POINT( '', ( 3.88319615613298, -0.274106961821509, -0.383196156132726 ) );
#855 = CARTESIAN_POINT( '', ( 4.04145188432742, 7.44843072991063E-014, -0.541451884327173 ) );
#856 = CARTESIAN_POINT( '', ( 2.02072594216369, -3.50000000000000, -0.541451884327367 ) );
#857 = CARTESIAN_POINT( '', ( 2.02072594216369, -3.50000000000000, -0.541451884327377 ) );
#858 = CARTESIAN_POINT( '', ( 2.17916482988757, -3.22557579656754, -0.383012996603498 ) );
#859 = CARTESIAN_POINT( '', ( 2.34118973062070, -2.94494043640644, -0.248380862133447 ) );
#860 = CARTESIAN_POINT( '', ( 2.59296380427236, -2.50885494881318, -0.104433843777224 ) );
#861 = CARTESIAN_POINT( '', ( 2.67836007144435, -2.36094427529457, -0.0662209740841890 ) );
#862 = CARTESIAN_POINT( '', ( 2.85278225120529, -2.05883619798170, -0.0138916539295988 ) );
#863 = CARTESIAN_POINT( '', ( 2.94259765199771, -1.90327136050707, 4.50409769702474E-015 ) );
#864 = CARTESIAN_POINT( '', ( 3.03108891324553, -1.74999999999999, 4.37539117842510E-015 ) );
#865 = CARTESIAN_POINT( '', ( 2.02072594216369, -3.50000000000000, -5.00000000000000 ) );
#866 = VECTOR( '', #1100, 1000.00000000000 );
#867 = COLOUR_RGB( '', 0.505882382400000, 0.529411792800000, 0.549019634700000 );
#868 = CARTESIAN_POINT( '', ( 2.02072594216369, 3.50000000000000, -4.45854811567262 ) );
#869 = CARTESIAN_POINT( '', ( 2.02072594216369, 3.50000000000000, -4.45854811567262 ) );
#870 = CARTESIAN_POINT( '', ( 2.17916482988757, 3.22557579656754, -4.61698700339650 ) );
#871 = CARTESIAN_POINT( '', ( 2.34118973062071, 2.94494043640644, -4.75161913786655 ) );
#872 = CARTESIAN_POINT( '', ( 2.59296380427236, 2.50885494881319, -4.89556615622277 ) );
#873 = CARTESIAN_POINT( '', ( 2.67836007144435, 2.36094427529457, -4.93377902591581 ) );
#874 = CARTESIAN_POINT( '', ( 2.85278225120530, 2.05883619798170, -4.98610834607040 ) );
#875 = CARTESIAN_POINT( '', ( 2.94259765199771, 1.90327136050708, -5.00000000000000 ) );
#876 = CARTESIAN_POINT( '', ( 3.03108891324553, 1.75000000000000, -5.00000000000000 ) );
#877 = CARTESIAN_POINT( '', ( 0.000000000000000, 3.50000000000000, -5.00000000000000 ) );
#878 = AXIS2_PLACEMENT_3D( '', #1101, #1102, #1103 );
#879 = CARTESIAN_POINT( '', ( 1.95212959861532E-015, 3.50000000000000, -5.00000000000002 ) );
#880 = CARTESIAN_POINT( '', ( 0.354885398006842, 3.50000000000000, -5.00000000000002 ) );
#881 = CARTESIAN_POINT( '', ( 0.700762444482506, 3.50000000000000, -4.94535743152655 ) );
#882 = CARTESIAN_POINT( '', ( 1.20922016417583, 3.50000000000000, -4.80056526588845 ) );
#883 = CARTESIAN_POINT( '', ( 1.37772173779701, 3.50000000000000, -4.74158052786517 ) );
#884 = CARTESIAN_POINT( '', ( 1.70479380956429, 3.50000000000000, -4.60976585860793 ) );
#885 = CARTESIAN_POINT( '', ( 1.86426501704714, 3.50000000000000, -4.53677857823090 ) );
#886 = CARTESIAN_POINT( '', ( 2.02072594216368, 3.50000000000000, -4.45854811567262 ) );
#887 = COLOUR_RGB( '', 0.505882382400000, 0.529411792800000, 0.549019634700000 );
#888 = CARTESIAN_POINT( '', ( 2.02072594216369, 3.50000000000000, -0.541451884327376 ) );
#889 = CARTESIAN_POINT( '', ( 2.02072594216369, 3.50000000000000, -5.00000000000000 ) );
#890 = VECTOR( '', #1104, 1000.00000000000 );
#891 = CARTESIAN_POINT( '', ( 3.03108891324553, 1.75000000000000, 7.81445437873056E-016 ) );
#892 = CARTESIAN_POINT( '', ( 2.85534632508888, 2.05439509174098, 7.16589873377138E-016 ) );
#893 = CARTESIAN_POINT( '', ( 2.68259184957834, 2.35361462056015, -0.0537436454448073 ) );
#894 = CARTESIAN_POINT( '', ( 2.34187638086822, 2.94375112329071, -0.247445629111181 ) );
#895 = CARTESIAN_POINT( '', ( 2.17898167035809, 3.22589303817849, -0.383196156132729 ) );
#896 = CARTESIAN_POINT( '', ( 2.02072594216365, 3.50000000000007, -0.541451884327176 ) );
#897 = CARTESIAN_POINT( '', ( 4.04145188432737, 7.35971420206703E-015, -0.541451884327375 ) );
#898 = CARTESIAN_POINT( '', ( 3.88301299660350, 0.274424203432465, -0.383012996603497 ) );
#899 = CARTESIAN_POINT( '', ( 3.72098809587036, 0.555059563593562, -0.248380862133448 ) );
#900 = CARTESIAN_POINT( '', ( 3.46921402221870, 0.991145051186818, -0.104433843777227 ) );
#901 = CARTESIAN_POINT( '', ( 3.38381775504672, 1.13905572470543, -0.0662209740841924 ) );
#902 = CARTESIAN_POINT( '', ( 3.20939557528577, 1.44116380201830, -0.0138916539296026 ) );
#903 = CARTESIAN_POINT( '', ( 3.11958017449335, 1.59672863949292, 8.09763497575111E-016 ) );
#904 = CARTESIAN_POINT( '', ( 3.03108891324553, 1.75000000000000, 7.81445437873056E-016 ) );
#905 = COLOUR_RGB( '', 0.505882382400000, 0.529411792800000, 0.549019634700000 );
#906 = CARTESIAN_POINT( '', ( 1.94605592157007E-015, 3.50000000000000, 1.38309685579633E-014 ) );
#907 = CARTESIAN_POINT( '', ( 0.354885398006842, 3.50000000000000, 1.39430093447530E-014 ) );
#908 = CARTESIAN_POINT( '', ( 0.700762444482507, 3.50000000000000, -0.0546425684734500 ) );
#909 = CARTESIAN_POINT( '', ( 1.20922016417583, 3.50000000000000, -0.199434734111555 ) );
#910 = CARTESIAN_POINT( '', ( 1.37772173779701, 3.50000000000000, -0.258419472134828 ) );
#911 = CARTESIAN_POINT( '', ( 1.70479380956429, 3.50000000000000, -0.390234141392071 ) );
#912 = CARTESIAN_POINT( '', ( 1.86426501704714, 3.50000000000000, -0.463221421769105 ) );
#913 = CARTESIAN_POINT( '', ( 2.02072594216369, 3.50000000000000, -0.541451884327377 ) );
#914 = COLOUR_RGB( '', 0.505882382400000, 0.529411792800000, 0.549019634700000 );
#915 = CARTESIAN_POINT( '', ( -3.03108891324554, -1.75000000000000, -5.00000000000000 ) );
#916 = CARTESIAN_POINT( '', ( -4.04145188432738, 1.30536220335263E-014, -4.45854811567263 ) );
#917 = CARTESIAN_POINT( '', ( -3.03108891324553, -1.75000000000000, -5.00000000000001 ) );
#918 = CARTESIAN_POINT( '', ( -3.20683150140218, -1.44560490825902, -5.00000000000001 ) );
#919 = CARTESIAN_POINT( '', ( -3.37958597691273, -1.14638537943984, -4.94625635455520 ) );
#920 = CARTESIAN_POINT( '', ( -3.72030144562284, -0.556248876709282, -4.75255437088882 ) );
#921 = CARTESIAN_POINT( '', ( -3.88319615613298, -0.274106961821503, -4.61680384386727 ) );
#922 = CARTESIAN_POINT( '', ( -4.04145188432742, 8.17251964337750E-014, -4.45854811567283 ) );
#923 = CARTESIAN_POINT( '', ( -3.03108891324553, 1.75000000000000, -5.00000000000000 ) );
#924 = CARTESIAN_POINT( '', ( -4.04145188432737, 6.31752570936179E-015, -4.45854811567263 ) );
#925 = CARTESIAN_POINT( '', ( -3.88301299660349, 0.274424203432463, -4.61698700339651 ) );
#926 = CARTESIAN_POINT( '', ( -3.72098809587035, 0.555059563593560, -4.75161913786656 ) );
#927 = CARTESIAN_POINT( '', ( -3.46921402221870, 0.991145051186815, -4.89556615622278 ) );
#928 = CARTESIAN_POINT( '', ( -3.38381775504671, 1.13905572470543, -4.93377902591581 ) );
#929 = CARTESIAN_POINT( '', ( -3.20939557528576, 1.44116380201830, -4.98610834607040 ) );
#930 = CARTESIAN_POINT( '', ( -3.11958017449335, 1.59672863949292, -5.00000000000001 ) );
#931 = CARTESIAN_POINT( '', ( -3.03108891324553, 1.75000000000000, -5.00000000000001 ) );
#932 = AXIS2_PLACEMENT_3D( '', #1105, #1106, #1107 );
#933 = COLOUR_RGB( '', 0.505882382400000, 0.529411792800000, 0.549019634700000 );
#934 = CARTESIAN_POINT( '', ( -2.02072594216368, 3.50000000000000, -4.45854811567262 ) );
#935 = CARTESIAN_POINT( '', ( -3.03108891324553, 1.75000000000000, -5.00000000000001 ) );
#936 = CARTESIAN_POINT( '', ( -2.85534632508887, 2.05439509174098, -5.00000000000001 ) );
#937 = CARTESIAN_POINT( '', ( -2.68259184957833, 2.35361462056015, -4.94625635455520 ) );
#938 = CARTESIAN_POINT( '', ( -2.34187638086822, 2.94375112329071, -4.75255437088883 ) );
#939 = CARTESIAN_POINT( '', ( -2.17898167035808, 3.22589303817849, -4.61680384386728 ) );
#940 = CARTESIAN_POINT( '', ( -2.02072594216364, 3.50000000000007, -4.45854811567283 ) );
#941 = CARTESIAN_POINT( '', ( -2.02072594216385, 3.50000000000000, -4.45854811567288 ) );
#942 = CARTESIAN_POINT( '', ( -1.70739730499005, 3.50000000000000, -4.61521243425978 ) );
#943 = CARTESIAN_POINT( '', ( -1.37756559723380, 3.50000000000000, -4.75253132619036 ) );
#944 = CARTESIAN_POINT( '', ( -0.872491469624613, 3.50000000000000, -4.89650170165250 ) );
#945 = CARTESIAN_POINT( '', ( -0.701825053455079, 3.50000000000000, -4.93444984665940 ) );
#946 = CARTESIAN_POINT( '', ( -0.354948639833557, 3.50000000000000, -4.98623022563378 ) );
#947 = CARTESIAN_POINT( '', ( -0.177213358913642, 3.50000000000000, -5.00000000000002 ) );
#948 = CARTESIAN_POINT( '', ( 2.18822522021982E-015, 3.50000000000000, -5.00000000000002 ) );
#949 = AXIS2_PLACEMENT_3D( '', #1108, #1109, #1110 );
#950 = COLOUR_RGB( '', 0.505882382400000, 0.529411792800000, 0.549019634700000 );
#951 = CARTESIAN_POINT( '', ( 1.45000000000000, 0.000000000000000, 0.400000000000000 ) );
#952 = AXIS2_PLACEMENT_3D( '', #1111, #1112, #1113 );
#953 = COLOUR_RGB( '', 0.505882382400000, 0.529411792800000, 0.549019634700000 );
#954 = CARTESIAN_POINT( '', ( -1.70000000000000, 0.000000000000000, 8.00000000000000 ) );
#955 = AXIS2_PLACEMENT_3D( '', #1114, #1115, #1116 );
#956 = COLOUR_RGB( '', 0.505882382400000, 0.529411792800000, 0.549019634700000 );
#957 = CARTESIAN_POINT( '', ( -4.04145188432738, 1.35835948859503E-014, -0.541451884327373 ) );
#958 = CARTESIAN_POINT( '', ( -4.04145188432738, 1.34441069388203E-014, -5.00000000000000 ) );
#959 = VECTOR( '', #1117, 1000.00000000000 );
#960 = CARTESIAN_POINT( '', ( -3.03108891324553, 1.75000000000000, 7.71014185918873E-015 ) );
#961 = CARTESIAN_POINT( '', ( -3.20683150140218, 1.44560490825902, 7.50132378088408E-015 ) );
#962 = CARTESIAN_POINT( '', ( -3.37958597691272, 1.14638537943985, -0.0537436454447995 ) );
#963 = CARTESIAN_POINT( '', ( -3.72030144562283, 0.556248876709295, -0.247445629111170 ) );
#964 = CARTESIAN_POINT( '', ( -3.88319615613297, 0.274106961821517, -0.383196156132719 ) );
#965 = CARTESIAN_POINT( '', ( -4.04145188432741, -6.51248168452265E-014, -0.541451884327165 ) );
#966 = CARTESIAN_POINT( '', ( -2.02072594216368, 3.50000000000000, -0.541451884327377 ) );
#967 = CARTESIAN_POINT( '', ( -2.02072594216368, 3.50000000000000, -0.541451884327376 ) );
#968 = CARTESIAN_POINT( '', ( -2.17916482988756, 3.22557579656754, -0.383012996603496 ) );
#969 = CARTESIAN_POINT( '', ( -2.34118973062070, 2.94494043640644, -0.248380862133445 ) );
#970 = CARTESIAN_POINT( '', ( -2.59296380427235, 2.50885494881318, -0.104433843777222 ) );
#971 = CARTESIAN_POINT( '', ( -2.67836007144434, 2.36094427529457, -0.0662209740841865 ) );
#972 = CARTESIAN_POINT( '', ( -2.85278225120529, 2.05883619798170, -0.0138916539295957 ) );
#973 = CARTESIAN_POINT( '', ( -2.94259765199771, 1.90327136050707, 7.80498509247475E-015 ) );
#974 = CARTESIAN_POINT( '', ( -3.03108891324553, 1.75000000000000, 7.71014185918873E-015 ) );
#975 = CARTESIAN_POINT( '', ( -2.02072594216368, 3.50000000000000, -5.00000000000000 ) );
#976 = VECTOR( '', #1118, 1000.00000000000 );
#977 = COLOUR_RGB( '', 0.184313729400000, 0.749019622800000, 0.580392181900000 );
#978 = CARTESIAN_POINT( '', ( -2.00000000000000, 0.000000000000000, 7.70000000000000 ) );
#979 = AXIS2_PLACEMENT_3D( '', #1119, #1120, #1121 );
#980 = COLOUR_RGB( '', 0.505882382400000, 0.529411792800000, 0.549019634700000 );
#981 = COLOUR_RGB( '', 0.505882382400000, 0.529411792800000, 0.549019634700000 );
#982 = CARTESIAN_POINT( '', ( 0.000000000000000, -1.62100000000000, -1.00000000000000 ) );
#983 = AXIS2_PLACEMENT_3D( '', #1122, #1123, #1124 );
#984 = CARTESIAN_POINT( '', ( 0.000000000000000, 1.62100000000000, -2.00000000000000 ) );
#985 = AXIS2_PLACEMENT_3D( '', #1125, #1126, #1127 );
#986 = COLOUR_RGB( '', 0.505882382400000, 0.529411792800000, 0.549019634700000 );
#987 = CARTESIAN_POINT( '', ( -2.02072594216369, -3.50000000000000, -4.45854811567263 ) );
#988 = CARTESIAN_POINT( '', ( -2.02072594216386, -3.50000000000000, -4.45854811567287 ) );
#989 = CARTESIAN_POINT( '', ( -1.70739730499022, -3.50000000000000, -4.61521243425970 ) );
#990 = CARTESIAN_POINT( '', ( -1.37756559723439, -3.50000000000000, -4.75253132619013 ) );
#991 = CARTESIAN_POINT( '', ( -0.872491469625349, -3.50000000000000, -4.89650170165232 ) );
#992 = CARTESIAN_POINT( '', ( -0.701825053455730, -3.50000000000000, -4.93444984665928 ) );
#993 = CARTESIAN_POINT( '', ( -0.354948639833689, -3.50000000000000, -4.98623022563378 ) );
#994 = CARTESIAN_POINT( '', ( -0.177213358912758, -3.50000000000000, -5.00000000000002 ) );
#995 = CARTESIAN_POINT( '', ( -6.69578717623912E-016, -3.50000000000000, -5.00000000000001 ) );
#996 = CARTESIAN_POINT( '', ( -2.02072594216369, -3.49999999999999, -4.45854811567263 ) );
#997 = CARTESIAN_POINT( '', ( -2.17916482988757, -3.22557579656754, -4.61698700339650 ) );
#998 = CARTESIAN_POINT( '', ( -2.34118973062070, -2.94494043640644, -4.75161913786655 ) );
#999 = CARTESIAN_POINT( '', ( -2.59296380427236, -2.50885494881318, -4.89556615622278 ) );
#1000 = CARTESIAN_POINT( '', ( -2.67836007144435, -2.36094427529457, -4.93377902591581 ) );
#1001 = CARTESIAN_POINT( '', ( -2.85278225120529, -2.05883619798170, -4.98610834607040 ) );
#1002 = CARTESIAN_POINT( '', ( -2.94259765199771, -1.90327136050707, -5.00000000000001 ) );
#1003 = CARTESIAN_POINT( '', ( -3.03108891324553, -1.75000000000000, -5.00000000000001 ) );
#1004 = AXIS2_PLACEMENT_3D( '', #1128, #1129, #1130 );
#1005 = COLOUR_RGB( '', 0.505882382400000, 0.529411792800000, 0.549019634700000 );
#1006 = CARTESIAN_POINT( '', ( -2.02072594216385, 3.50000000000000, -0.541451884327125 ) );
#1007 = CARTESIAN_POINT( '', ( -1.70739730499005, 3.50000000000000, -0.384787565740216 ) );
#1008 = CARTESIAN_POINT( '', ( -1.37756559723380, 3.50000000000000, -0.247468673809643 ) );
#1009 = CARTESIAN_POINT( '', ( -0.872491469624612, 3.50000000000000, -0.103498298347503 ) );
#1010 = CARTESIAN_POINT( '', ( -0.701825053455078, 3.50000000000000, -0.0655501533406022 ) );
#1011 = CARTESIAN_POINT( '', ( -0.354948639833556, 3.50000000000000, -0.0137697743662231 ) );
#1012 = CARTESIAN_POINT( '', ( -0.177213358913642, 3.50000000000000, 1.37782614365121E-014 ) );
#1013 = CARTESIAN_POINT( '', ( 1.94605592157007E-015, 3.50000000000000, 1.38309685579633E-014 ) );
#1014 = COLOUR_RGB( '', 0.505882382400000, 0.529411792800000, 0.549019634700000 );
#1015 = CARTESIAN_POINT( '', ( -2.02072594216369, -3.50000000000000, -0.541451884327368 ) );
#1016 = CARTESIAN_POINT( '', ( -3.03108891324553, -1.74999999999999, 6.24656752641902E-015 ) );
#1017 = CARTESIAN_POINT( '', ( -2.85534632508888, -2.05439509174097, 6.45693215691953E-015 ) );
#1018 = CARTESIAN_POINT( '', ( -2.68259184957834, -2.35361462056014, -0.0537436454448011 ) );
#1019 = CARTESIAN_POINT( '', ( -2.34187638086822, -2.94375112329070, -0.247445629111174 ) );
#1020 = CARTESIAN_POINT( '', ( -2.17898167035809, -3.22589303817848, -0.383196156132723 ) );
#1021 = CARTESIAN_POINT( '', ( -2.02072594216365, -3.50000000000006, -0.541451884327170 ) );
#1022 = CARTESIAN_POINT( '', ( -2.02072594216386, -3.50000000000000, -0.541451884327126 ) );
#1023 = CARTESIAN_POINT( '', ( -1.70739730499022, -3.50000000000000, -0.384787565740300 ) );
#1024 = CARTESIAN_POINT( '', ( -1.37756559723439, -3.50000000000000, -0.247468673809866 ) );
#1025 = CARTESIAN_POINT( '', ( -0.872491469625347, -3.50000000000000, -0.103498298347682 ) );
#1026 = CARTESIAN_POINT( '', ( -0.701825053455729, -3.50000000000000, -0.0655501533407173 ) );
#1027 = CARTESIAN_POINT( '', ( -0.354948639833688, -3.50000000000000, -0.0137697743662237 ) );
#1028 = CARTESIAN_POINT( '', ( -0.177213358912758, -3.50000000000000, 1.39129396751255E-014 ) );
#1029 = CARTESIAN_POINT( '', ( -8.49824371628937E-016, -3.50000000000000, 1.37836633395024E-014 ) );
#1030 = COLOUR_RGB( '', 0.505882382400000, 0.529411792800000, 0.549019634700000 );
#1031 = CARTESIAN_POINT( '', ( 0.000000000000000, 1.92100000000000, -5.00000000000000 ) );
#1032 = AXIS2_PLACEMENT_3D( '', #1131, #1132, #1133 );
#1033 = COLOUR_RGB( '', 0.505882382400000, 0.529411792800000, 0.549019634700000 );
#1034 = CARTESIAN_POINT( '', ( -4.04145188432738, 1.23694798977401E-014, -0.541451884327379 ) );
#1035 = CARTESIAN_POINT( '', ( -3.88301299660350, -0.274424203432447, -0.383012996603499 ) );
#1036 = CARTESIAN_POINT( '', ( -3.72098809587036, -0.555059563593546, -0.248380862133448 ) );
#1037 = CARTESIAN_POINT( '', ( -3.46921402221871, -0.991145051186805, -0.104433843777224 ) );
#1038 = CARTESIAN_POINT( '', ( -3.38381775504672, -1.13905572470542, -0.0662209740841887 ) );
#1039 = CARTESIAN_POINT( '', ( -3.20939557528577, -1.44116380201829, -0.0138916539295978 ) );
#1040 = CARTESIAN_POINT( '', ( -3.11958017449335, -1.59672863949292, 6.13124798870025E-015 ) );
#1041 = CARTESIAN_POINT( '', ( -3.03108891324553, -1.74999999999999, 6.24656752641902E-015 ) );
#1042 = COLOUR_RGB( '', 0.505882382400000, 0.529411792800000, 0.549019634700000 );
#1043 = CARTESIAN_POINT( '', ( -8.49824371628937E-016, -3.50000000000000, 1.37836633395024E-014 ) );
#1044 = CARTESIAN_POINT( '', ( 0.354885398005652, -3.50000000000000, 1.35199163875995E-014 ) );
#1045 = CARTESIAN_POINT( '', ( 0.700762444481535, -3.50000000000000, -0.0546425684731594 ) );
#1046 = CARTESIAN_POINT( '', ( 1.20922016417659, -3.50000000000000, -0.199434734111781 ) );
#1047 = CARTESIAN_POINT( '', ( 1.37772173779796, -3.50000000000000, -0.258419472135192 ) );
#1048 = CARTESIAN_POINT( '', ( 1.70479380956453, -3.50000000000000, -0.390234141392188 ) );
#1049 = CARTESIAN_POINT( '', ( 1.86426501704719, -3.50000000000000, -0.463221421769136 ) );
#1050 = CARTESIAN_POINT( '', ( 2.02072594216368, -3.50000000000000, -0.541451884327377 ) );
#1051 = CARTESIAN_POINT( '', ( -2.02072594216369, -3.50000000000000, -5.00000000000000 ) );
#1052 = VECTOR( '', #1134, 1000.00000000000 );
#1053 = COLOUR_RGB( '', 0.505882382400000, 0.529411792800000, 0.549019634700000 );
#1054 = COLOUR_RGB( '', 0.505882382400000, 0.529411792800000, 0.549019634700000 );
#1055 = COLOUR_RGB( '', 0.505882382400000, 0.529411792800000, 0.549019634700000 );
#1056 = CARTESIAN_POINT( '', ( -1.62100000000000, 0.000000000000000, -4.70000000000000 ) );
#1057 = AXIS2_PLACEMENT_3D( '', #1135, #1136, #1137 );
#1058 = COLOUR_RGB( '', 0.505882382400000, 0.529411792800000, 0.549019634700000 );
#1059 = COLOUR_RGB( '', 0.505882382400000, 0.529411792800000, 0.549019634700000 );
#1060 = COLOUR_RGB( '', 0.184313729400000, 0.749019622800000, 0.580392181900000 );
#1061 = COLOUR_RGB( '', 0.505882382400000, 0.529411792800000, 0.549019634700000 );
#1062 = COLOUR_RGB( '', 0.505882382400000, 0.529411792800000, 0.549019634700000 );
#1063 = CARTESIAN_POINT( '', ( -4.12132350816052E-015, 0.000000000000000, 0.000000000000000 ) );
#1064 = DIRECTION( '', ( 0.000000000000000, 0.000000000000000, 1.00000000000000 ) );
#1065 = DIRECTION( '', ( 1.00000000000000, 0.000000000000000, 0.000000000000000 ) );
#1066 = CARTESIAN_POINT( '', ( 0.000000000000000, 0.000000000000000, 0.000000000000000 ) );
#1067 = DIRECTION( '', ( 0.000000000000000, 0.000000000000000, 1.00000000000000 ) );
#1068 = DIRECTION( '', ( 1.00000000000000, 0.000000000000000, 0.000000000000000 ) );
#1069 = CARTESIAN_POINT( '', ( 0.000000000000000, 0.000000000000000, 0.000000000000000 ) );
#1070 = DIRECTION( '', ( 0.000000000000000, 0.000000000000000, 1.00000000000000 ) );
#1071 = DIRECTION( '', ( 1.00000000000000, 0.000000000000000, 0.000000000000000 ) );
#1072 = CARTESIAN_POINT( '', ( 0.000000000000000, 0.000000000000000, 0.000000000000000 ) );
#1073 = DIRECTION( '', ( 0.000000000000000, 0.000000000000000, 1.00000000000000 ) );
#1074 = DIRECTION( '', ( 1.00000000000000, 0.000000000000000, 0.000000000000000 ) );
#1075 = CARTESIAN_POINT( '', ( 0.000000000000000, 0.000000000000000, 0.000000000000000 ) );
#1076 = DIRECTION( '', ( 0.000000000000000, 0.000000000000000, 1.00000000000000 ) );
#1077 = DIRECTION( '', ( 1.00000000000000, 0.000000000000000, 0.000000000000000 ) );
#1078 = CARTESIAN_POINT( '', ( 0.000000000000000, 0.000000000000000, 0.000000000000000 ) );
#1079 = DIRECTION( '', ( 0.000000000000000, 0.000000000000000, 1.00000000000000 ) );
#1080 = DIRECTION( '', ( 1.00000000000000, 0.000000000000000, 0.000000000000000 ) );
#1081 = CARTESIAN_POINT( '', ( 0.000000000000000, 0.000000000000000, 0.000000000000000 ) );
#1082 = DIRECTION( '', ( 0.000000000000000, 0.000000000000000, 1.00000000000000 ) );
#1083 = DIRECTION( '', ( 1.00000000000000, 0.000000000000000, 0.000000000000000 ) );
#1084 = CARTESIAN_POINT( '', ( -3.85583481592751E-015, 0.000000000000000, 0.892820323027550 ) );
#1085 = DIRECTION( '', ( 5.38712954453735E-016, 0.000000000000000, 1.00000000000000 ) );
#1086 = DIRECTION( '', ( 1.00000000000000, 0.000000000000000, -5.38712954453735E-016 ) );
#1087 = CARTESIAN_POINT( '', ( -3.96357740681826E-015, 0.000000000000000, 0.692820323027550 ) );
#1088 = DIRECTION( '', ( -5.38712954453735E-016, 0.000000000000000, -1.00000000000000 ) );
#1089 = DIRECTION( '', ( -1.00000000000000, 0.000000000000000, 5.38712954453735E-016 ) );
#1090 = CARTESIAN_POINT( '', ( -3.39264531208386E-015, 0.000000000000000, 1.75262794416288 ) );
#1091 = DIRECTION( '', ( -5.38712954453735E-016, 0.000000000000000, -1.00000000000000 ) );
#1092 = DIRECTION( '', ( -1.00000000000000, 0.000000000000000, 5.38712954453735E-016 ) );
#1093 = CARTESIAN_POINT( '', ( 0.000000000000000, 0.000000000000000, -5.00000000000000 ) );
#1094 = DIRECTION( '', ( 0.000000000000000, 0.000000000000000, 1.00000000000000 ) );
#1095 = DIRECTION( '', ( 1.00000000000000, 0.000000000000000, 0.000000000000000 ) );
#1096 = CARTESIAN_POINT( '', ( 0.000000000000000, 0.000000000000000, -5.00000000000000 ) );
#1097 = DIRECTION( '', ( 0.000000000000000, 0.000000000000000, 1.00000000000000 ) );
#1098 = DIRECTION( '', ( 1.00000000000000, 0.000000000000000, 0.000000000000000 ) );
#1099 = DIRECTION( '', ( 0.000000000000000, 0.000000000000000, 1.00000000000000 ) );
#1100 = DIRECTION( '', ( 0.000000000000000, 0.000000000000000, 1.00000000000000 ) );
#1101 = CARTESIAN_POINT( '', ( 0.000000000000000, 0.000000000000000, -5.00000000000000 ) );
#1102 = DIRECTION( '', ( 0.000000000000000, 0.000000000000000, 1.00000000000000 ) );
#1103 = DIRECTION( '', ( 1.00000000000000, 0.000000000000000, 0.000000000000000 ) );
#1104 = DIRECTION( '', ( 0.000000000000000, 0.000000000000000, 1.00000000000000 ) );
#1105 = CARTESIAN_POINT( '', ( 0.000000000000000, 0.000000000000000, -5.00000000000000 ) );
#1106 = DIRECTION( '', ( 0.000000000000000, 0.000000000000000, 1.00000000000000 ) );
#1107 = DIRECTION( '', ( 1.00000000000000, 0.000000000000000, 0.000000000000000 ) );
#1108 = CARTESIAN_POINT( '', ( 0.000000000000000, 0.000000000000000, -5.00000000000000 ) );
#1109 = DIRECTION( '', ( 0.000000000000000, 0.000000000000000, 1.00000000000000 ) );
#1110 = DIRECTION( '', ( 1.00000000000000, 0.000000000000000, 0.000000000000000 ) );
#1111 = CARTESIAN_POINT( '', ( -4.12132350816052E-015, 0.000000000000000, 0.400000000000000 ) );
#1112 = DIRECTION( '', ( 0.000000000000000, 0.000000000000000, 1.00000000000000 ) );
#1113 = DIRECTION( '', ( 1.00000000000000, 0.000000000000000, 0.000000000000000 ) );
#1114 = CARTESIAN_POINT( '', ( -2.71050543121368E-017, 0.000000000000000, 8.00000000000000 ) );
#1115 = DIRECTION( '', ( -5.38712954453735E-016, 0.000000000000000, -1.00000000000000 ) );
#1116 = DIRECTION( '', ( -1.00000000000000, 0.000000000000000, 5.38712954453735E-016 ) );
#1117 = DIRECTION( '', ( 0.000000000000000, 0.000000000000000, 1.00000000000000 ) );
#1118 = DIRECTION( '', ( 0.000000000000000, 0.000000000000000, 1.00000000000000 ) );
#1119 = CARTESIAN_POINT( '', ( -1.88718940648259E-016, 0.000000000000000, 7.70000000000000 ) );
#1120 = DIRECTION( '', ( -5.38712954453736E-016, 0.000000000000000, -1.00000000000000 ) );
#1121 = DIRECTION( '', ( -1.00000000000000, 0.000000000000000, 5.38712954453736E-016 ) );
#1122 = CARTESIAN_POINT( '', ( 0.000000000000000, 0.000000000000000, -1.00000000000000 ) );
#1123 = DIRECTION( '', ( 0.000000000000000, 0.000000000000000, 1.00000000000000 ) );
#1124 = DIRECTION( '', ( 0.000000000000000, -1.00000000000000, 0.000000000000000 ) );
#1125 = CARTESIAN_POINT( '', ( 0.000000000000000, 0.000000000000000, -2.00000000000000 ) );
#1126 = DIRECTION( '', ( 0.000000000000000, 0.000000000000000, -1.00000000000000 ) );
#1127 = DIRECTION( '', ( 0.000000000000000, 1.00000000000000, 0.000000000000000 ) );
#1128 = CARTESIAN_POINT( '', ( 0.000000000000000, 0.000000000000000, -5.00000000000000 ) );
#1129 = DIRECTION( '', ( 0.000000000000000, 0.000000000000000, 1.00000000000000 ) );
#1130 = DIRECTION( '', ( 1.00000000000000, 0.000000000000000, 0.000000000000000 ) );
#1131 = CARTESIAN_POINT( '', ( 0.000000000000000, 0.000000000000000, -5.00000000000000 ) );
#1132 = DIRECTION( '', ( 0.000000000000000, -0.000000000000000, 1.00000000000000 ) );
#1133 = DIRECTION( '', ( 0.000000000000000, 1.00000000000000, 0.000000000000000 ) );
#1134 = DIRECTION( '', ( 0.000000000000000, 0.000000000000000, 1.00000000000000 ) );
#1135 = CARTESIAN_POINT( '', ( 0.000000000000000, 0.000000000000000, -4.70000000000000 ) );
#1136 = DIRECTION( '', ( 0.000000000000000, 0.000000000000000, -1.00000000000000 ) );
#1137 = DIRECTION( '', ( -1.00000000000000, 0.000000000000000, 0.000000000000000 ) );
ENDSEC;
END-ISO-10303-21;
